<svg xmlns="http://www.w3.org/2000/svg" xmlns:xlink="http://www.w3.org/1999/xlink" width="125" height="125" viewBox="0 0 125 125">
  <defs>
    <clipPath id="clip-path">
      <rect id="Rectángulo_377797" data-name="Rectángulo 377797" width="83.78" height="82.577" fill="none"/>
    </clipPath>
  </defs>
  <g id="Grupo_1072966" data-name="Grupo 1072966" transform="translate(-386 -2145.602)">
    <path id="Trazado_608385" data-name="Trazado 608385" d="M62.5,0A62.5,62.5,0,1,1,0,62.5,62.5,62.5,0,0,1,62.5,0Z" transform="translate(386 2145.602)" fill="#590e00"/>
    <g id="Grupo_1072973" data-name="Grupo 1072973" transform="translate(406.61 2165.219)">
      <g id="Grupo_1072972" data-name="Grupo 1072972" clip-path="url(#clip-path)">
        <path id="Trazado_819491" data-name="Trazado 819491" d="M49.893,53.257c1.534-.137,3.072-.05,4.608-.058,2.974-.016,5.947,0,8.921,0,.487,0,.635.112.834.562.731,1.655,1.489,3.3,2.2,4.962.614,1.442,1.175,2.906,1.759,4.36.41,1.02.68,2.087,1.03,3.127.2.595.355,1.2.531,1.807.337,1.155.564,2.334.853,3.5.25,1.008.4,2.034.65,3.04a3.489,3.489,0,0,1,.1.745c.011.392.151.558.547.559,1.091,0,2.181,0,3.272,0,.551,0,1.1.008,1.653,0,.224,0,.327.043.326.3-.007,3.329,0,6.659-.019,9.988a2.645,2.645,0,0,1-.053,1l-7.509.008-6.2.009a50.423,50.423,0,0,0-.148-5.214c-.082-.7-.118-1.411-.224-2.106-.187-1.236-.354-2.477-.583-3.708-.145-.782-.314-1.563-.479-2.337-.137-.646-.321-1.3-.492-1.948-.276-1.048-.6-2.082-.883-3.127-.188-.684-.539-1.307-.7-2a11.65,11.65,0,0,0-.482-1.346c-.327-.9-.713-1.78-1.079-2.667a.489.489,0,0,0-.527-.352c-.194.016-.39,0-.585,0l-18.629,0q-9.59,0-19.18-.008a.524.524,0,0,0-.529.353c-.3.693-.6,1.386-.879,2.089q-.984,2.465-1.729,5.009a65.767,65.767,0,0,0-1.574,6.587c-.2,1.054-.324,2.118-.507,3.174-.1.588-.111,1.18-.169,1.769a20.678,20.678,0,0,0-.237,2.349c.017,1.159,0,2.318,0,3.478H.014Q.011,81.652,0,76.14c0-.274.132-.285.339-.284,1.642,0,3.284,0,4.926.008.348,0,.5-.079.547-.467a50.1,50.1,0,0,1,.978-4.933c.3-1.349.719-2.663,1.078-3.994.155-.576.3-1.162.475-1.725.137-.435.291-.881.462-1.313.586-1.482,1.155-2.97,1.759-4.445.342-.835.778-1.632,1.1-2.474s.818-1.571,1.066-2.428a3.417,3.417,0,0,1,.3-.577c.12-.231.326-.251.556-.25q4.7,0,9.4,0h4.306c.433-.013.867-.056,1.3-.032,1.061.058,2.119-.029,3.179-.033a.861.861,0,0,0,.47.066c2.7,0,5.409,0,8.114-.057,1.674-.038,3.349-.012,5.024-.015a.27.27,0,0,0,.248.085l4.268-.014" transform="translate(-0.001 -38.483)" fill="#f8e1c3"/>
        <path id="Trazado_819492" data-name="Trazado 819492" d="M164.428,176.1l6.2-.009,7.509-.008c.114.1.062.237.062.356,0,3.512,0,7.024.012,10.536,0,.365-.112.429-.445.425-1.6-.019-3.19-.014-4.786-.012-.52,0-.511.009-.573.532-.144,1.218-.451,2.406-.693,3.606-.141.7-.294,1.4-.468,2.08-.148.583-.323,1.173-.5,1.755-.23.773-.469,1.546-.7,2.319a55.857,55.857,0,0,1-2.09,5.694c-.892,2.11-1.849,4.193-2.775,6.289a.479.479,0,0,1-.493.335q-12.464-.01-24.929-.006c-.046,0-.091-.006-.137-.009q0-4.536-.005-9.071c.057,0,.114-.012.171-.012q9.522,0,19.044.009c.283,0,.37-.151.457-.334a30.155,30.155,0,0,0,1.194-2.893c.427-1.212.919-2.4,1.254-3.645.2-.749.468-1.481.624-2.241a5.715,5.715,0,0,0,.35-1.8c.428-.586.323-1.325.56-1.967a4.76,4.76,0,0,0,.129-.73c.142-.726.289-1.452.37-2.188a21.774,21.774,0,0,0,.322-2.205c0-.168,0-.336.02-.507.049-.473.176-.934.221-1.4.073-.756.072-1.52.084-2.28.013-.872.006-1.745.007-2.617" transform="translate(-101.036 -127.419)" fill="#e6d2d0"/>
        <path id="Trazado_819493" data-name="Trazado 819493" d="M38.584,200.96q0,4.536.006,9.071c-.138,0-.275.01-.413.01q-12.243,0-24.487.007a.652.652,0,0,1-.723-.449q-.8-1.9-1.669-3.764c-.437-.93-.832-1.878-1.21-2.831-.33-.83-.688-1.65-.985-2.495-.43-1.221-.85-2.442-1.213-3.686-.241-.829-.494-1.656-.739-2.485-.214-.726-.361-1.472-.52-2.213-.275-1.283-.536-2.568-.8-3.852a1.639,1.639,0,0,1-.034-.2c-.049-.635-.048-.635-.7-.634q-2.376,0-4.753.009c-.2,0-.344.014-.343-.273q.017-5.51.012-11.021H13.776c.073,1.508-.1,3.019.1,4.527.137,1.027.18,2.067.325,3.092.2,1.412.445,2.819.692,4.224.151.86.4,1.7.6,2.55.166.7.3,1.41.533,2.1s.406,1.408.652,2.1.424,1.377.677,2.054c.458,1.224.95,2.433,1.443,3.643a.731.731,0,0,0,.776.518q9.315-.021,18.63-.01c.126,0,.252-.01.377-.015l0,.028" transform="translate(0 -127.472)" fill="#e6d2d0"/>
        <path id="Trazado_819494" data-name="Trazado 819494" d="M103.209,29.569c-1.06,0-2.117.092-3.179.034-.431-.024-.865.019-1.3.032q0-4.406-.01-8.811c0-.23.07-.283.29-.283q10.962.005,21.924,0c.314,0,.4.119.4.426-.01,2.891,0,5.782,0,8.674l-4.268.014a.27.27,0,0,1-.248-.085c0-1.348.012-2.7.01-4.043,0-.143.053-.3-.04-.433a.059.059,0,0,0-.076-.049c-.057,0-.114-.008-.172-.008q-6.508,0-13.015-.011c-.245,0-.312.072-.31.314.008,1.412,0,2.823,0,4.235" transform="translate(-71.441 -14.861)" fill="#dee4f0"/>
        <path id="Trazado_819495" data-name="Trazado 819495" d="M164.121,111.178c0,.872.006,1.745-.007,2.617-.012.761-.011,1.525-.084,2.281-.045.467-.171.928-.221,1.4-.017.171-.019.339-.02.507a21.8,21.8,0,0,1-.323,2.205c-.08.736-.227,1.461-.369,2.188a4.737,4.737,0,0,1-.13.73c-.237.643-.132,1.381-.56,1.967a5.713,5.713,0,0,1-.35,1.8c-.156.761-.422,1.493-.624,2.242-.335,1.244-.828,2.433-1.254,3.645a30.157,30.157,0,0,1-1.194,2.893c-.086.183-.173.335-.456.334q-9.522-.019-19.044-.009c-.057,0-.114.008-.171.012l0-.028q0-2.288-.006-4.576c2.132,0,4.264-.015,6.4,0,.344,0,.42-.1.419-.425q-.012-3.852.009-7.7c0-.162-.12-.307-.052-.465.14-.329-.054-.344-.3-.34-.47.007-.94-.009-1.41,0-1.1.03-2.192-.016-3.291.041-.6.032-1.228-.034-1.843-.043.024-.338.065-.676.068-1.015.008-1.191,0-2.382,0-3.574.057,0,.115-.007.172-.007q3.133,0,6.267.01c.22,0,.358-.013.384-.294.023-.25-.014-.49-.013-.735q.006-5.579,0-11.157c0-.379,0-.757,0-1.136,0-.172-.054-.234-.243-.234-2.192.009-4.383.008-6.575.01-.009-.134-.176-.24-.093-.384a1.329,1.329,0,0,0,.092-.739,30.956,30.956,0,0,0-.068-3.258c.09-.114.214-.053.32-.054,2.042,0,4.085-.012,6.127.005.348,0,.44-.085.436-.438-.028-2.75.049-5.5-.041-8.251-.012-.375-.1-.429-.441-.427-2.111.011-4.222,0-6.333,0V86.381l18.629,0c.195,0,.391.013.585,0a.49.49,0,0,1,.527.353c.367.886.753,1.766,1.079,2.666a11.6,11.6,0,0,1,.482,1.346c.159.694.51,1.318.7,2,.287,1.044.607,2.079.883,3.127.171.647.355,1.3.492,1.948.164.773.334,1.555.479,2.337.228,1.231.395,2.472.583,3.708.105.694.141,1.4.223,2.106a50.419,50.419,0,0,1,.148,5.214m-13.513-.141c0,2.135.007,4.27-.007,6.4,0,.322.072.428.413.426,2.548-.012,5.1,0,7.644,0,.477,0,.476,0,.577-.5.047-.234.1-.468.143-.7.1-.512,0-1.039.077-1.543.111-.69.086-1.389.216-2.083a6.766,6.766,0,0,0,.037-1.241c-.009-.926-.044-1.852-.069-2.778,0-.057-.009-.114-.015-.171-.062-.7-.163-1.4-.177-2.108a20.638,20.638,0,0,0-.232-2.079c-.026-.217-.13-.318-.384-.321-2.628-.035-5.256.04-7.883-.045-.272-.009-.349.066-.348.341.011,2.135.006,4.27.007,6.4m3.825-11.154c1.182,0,2.364-.01,3.546.006.336,0,.393-.177.365-.427a4.4,4.4,0,0,0-.146-.52c-.308-1.276-.592-2.557-.958-3.819-.221-.763-.5-1.507-.672-2.291a11.982,11.982,0,0,0-.631-1.762.46.46,0,0,0-.5-.277c-1.491,0-2.983,0-4.475-.022-.284,0-.361.067-.36.356.012,2.628.008,5.256,0,7.883a1.5,1.5,0,0,1-.037.405c-.087.319.05.467.388.467h3.476m.077,22.561v-.012c-1.182,0-2.364,0-3.547,0-.239,0-.365.035-.363.335q.019,4.153,0,8.306c0,.228.05.327.3.325,1.515-.012,3.03-.017,4.545,0a.516.516,0,0,0,.579-.416c.077-.312.211-.6.309-.9.451-1.384.9-2.769,1.259-4.18.253-1,.549-1.982.761-2.99.092-.436.1-.452-.34-.454-1.171-.007-2.341,0-3.512,0" transform="translate(-100.73 -62.502)" fill="#dee6f4"/>
        <path id="Trazado_819496" data-name="Trazado 819496" d="M74.658,86.386q0,2.2,0,4.391c-2.143.051-4.287.029-6.431.009-.287,0-.433.041-.39.366a4.525,4.525,0,0,1,0,.584q0,3.835,0,7.671c0,.477,0,.477.5.477h5.848a.7.7,0,0,1,.4.062,30.958,30.958,0,0,1,.068,3.258,1.327,1.327,0,0,1-.093.739c-.083.143.084.249.093.384-.676.06-1.35-.028-2.025-.025-1.539.006-3.077,0-4.616,0a.273.273,0,0,0-.216.079l-.015.012.013.014a2.729,2.729,0,0,1,.04.852q.016,6.145.013,12.29c0,.282.108.331.336.313.069-.006.138,0,.207,0l6.265.008c0,1.191.006,2.382,0,3.574,0,.339-.044.677-.067,1.015-.08,0-.16.009-.24.008-2.006-.019-4.012.036-6.018-.037-.509-.019-.51,0-.49.471,0,.034,0,.069,0,.1,0,2.694,0,5.389,0,8.083,0,.227.065.31.285.3.321-.009.642-.006.963-.005l5.571.006q0,2.288.006,4.576c-.126.006-.252.015-.378.015q-9.315,0-18.629.01a.73.73,0,0,1-.776-.518c-.493-1.209-.985-2.419-1.443-3.643-.253-.677-.435-1.375-.677-2.054s-.419-1.406-.652-2.1-.368-1.4-.533-2.1c-.2-.85-.452-1.689-.6-2.55-.247-1.4-.492-2.811-.692-4.224-.145-1.026-.188-2.065-.325-3.092-.2-1.507-.031-3.019-.1-4.527,0-1.159.02-2.319,0-3.478a20.667,20.667,0,0,1,.237-2.349c.058-.589.068-1.181.169-1.769.182-1.055.311-2.12.507-3.174a65.784,65.784,0,0,1,1.574-6.587q.75-2.543,1.729-5.009c.28-.7.578-1.4.879-2.088a.523.523,0,0,1,.529-.353q9.59.007,19.18.008m-11.5,36.076c-.02-.03-.043-.033-.067,0H56.241c-.183,0-.366-.013-.549,0-.151.009-.2.061-.148.246.233.9.5,1.8.7,2.706.16.718.386,1.423.6,2.126.352,1.136.718,2.268,1.088,3.4.078.238.172.456.512.455,1.537-.007,3.074,0,4.61.021.255,0,.309-.1.3-.323-.012-.573,0-1.147,0-1.72q0-3.286,0-6.572c0-.153.051-.339-.208-.329M62.6,104.33c-.366-.008-.732-.022-1.1-.024q-1.293-.006-2.587,0c-1.278,0-2.555,0-3.832.013-.141,0-.3,0-.34.211a7.647,7.647,0,0,0-.188,1.085,17.26,17.26,0,0,1-.091,1.81,20.424,20.424,0,0,0-.185,2.418,32.865,32.865,0,0,0,.208,5.116,20.183,20.183,0,0,0,.236,2.453c.083.339.209.461.568.459q3.838-.016,7.676.013c.313,0,.405-.069.4-.394q-.017-6.334-.007-12.667c0-.506,0-.506-.479-.494-.1-.158-.191-.162-.282.006m.761-8.954v-.861c0-1.125,0-2.25,0-3.375,0-.1.078-.27-.14-.282-.238-.014-.476-.05-.714-.052-1.286-.01-2.571-.011-3.857-.017-.482,0-.581.053-.714.516-.251.873-.573,1.723-.848,2.588-.284.895-.562,1.794-.791,2.7-.233.925-.468,1.852-.7,2.78-.093.38.067.52.408.518q3.513-.022,7.026,0c.282,0,.335-.088.333-.347-.012-1.389-.006-2.778-.006-4.167" transform="translate(-36.075 -62.507)" fill="#f8f9fb"/>
        <path id="Trazado_819497" data-name="Trazado 819497" d="M163.887,36.874l-.076-.049a.058.058,0,0,1,.076.049" transform="translate(-118.542 -26.647)" fill="#dee6f4"/>
        <path id="Trazado_819498" data-name="Trazado 819498" d="M121.659,164.8l-6.265-.008c-.069,0-.138,0-.206,0-.228.019-.336-.03-.336-.313q.008-6.145-.013-12.29a2.753,2.753,0,0,0-.04-.851l.013-.013-.011-.014a.273.273,0,0,1,.216-.079c1.539,0,3.077,0,4.616,0,.675,0,1.349.085,2.025.025,2.192,0,4.383,0,6.575-.009.188,0,.245.061.242.234-.005.379,0,.757,0,1.136q0,5.579,0,11.157c0,.245.036.486.013.735-.026.282-.164.3-.384.294q-3.133-.012-6.267-.01c-.057,0-.114,0-.172.007" transform="translate(-83.074 -109.44)" fill="#766d6e"/>
        <path id="Trazado_819499" data-name="Trazado 819499" d="M121.668,111.465a.7.7,0,0,0-.4-.062h-5.848c-.506,0-.5,0-.5-.477q0-3.835,0-7.671a4.525,4.525,0,0,0,0-.584c-.043-.324.1-.368.39-.366,2.144.02,4.287.043,6.431-.008,2.111,0,4.222.015,6.333,0,.336,0,.429.051.441.427.09,2.751.013,5.5.041,8.251,0,.353-.088.441-.436.438-2.042-.017-4.085-.009-6.127-.005-.106,0-.23-.061-.32.054" transform="translate(-83.153 -74.027)" fill="#766d6e"/>
        <path id="Trazado_819500" data-name="Trazado 819500" d="M121.749,225.782l-5.571-.006c-.321,0-.642,0-.963,0-.22.006-.286-.076-.285-.3.008-2.694,0-5.389,0-8.084,0-.034,0-.069,0-.1-.02-.471-.019-.49.49-.471,2.006.074,4.012.018,6.018.037.08,0,.16-.005.24-.008.615.009,1.239.075,1.843.043,1.1-.058,2.195-.011,3.291-.042.47-.013.94,0,1.41,0,.243,0,.437.011.3.34-.067.158.053.3.052.465q-.017,3.852-.009,7.7c0,.321-.076.427-.419.425-2.132-.015-4.264,0-6.4,0" transform="translate(-83.167 -156.899)" fill="#766d6e"/>
        <path id="Trazado_819501" data-name="Trazado 819501" d="M180.471,157.96c0-2.135,0-4.27-.006-6.4,0-.275.076-.35.348-.341,2.627.085,5.255.01,7.883.045.255,0,.359.1.385.321a20.723,20.723,0,0,1,.231,2.08c.013.7.114,1.405.177,2.108,0,.057.013.114.014.171.025.926.059,1.852.068,2.778a6.791,6.791,0,0,1-.036,1.241c-.13.694-.105,1.393-.217,2.083-.081.5.024,1.031-.077,1.543-.046.234-.1.468-.143.7-.1.5-.1.5-.577.5-2.548,0-5.1-.011-7.644,0-.341,0-.415-.1-.413-.426.014-2.135.007-4.27.007-6.4" transform="translate(-130.592 -109.426)" fill="#766d6e"/>
        <path id="Trazado_819502" data-name="Trazado 819502" d="M184.146,111.406H180.67c-.338,0-.474-.148-.388-.467a1.5,1.5,0,0,0,.037-.405c0-2.628.007-5.255-.005-7.883,0-.289.075-.36.36-.356,1.491.02,2.983.021,4.475.022a.459.459,0,0,1,.5.277,11.986,11.986,0,0,1,.632,1.762c.174.784.45,1.528.672,2.291.366,1.263.65,2.544.958,3.819a4.438,4.438,0,0,1,.147.52c.028.25-.03.432-.365.427-1.182-.016-2.364-.006-3.546-.006" transform="translate(-130.443 -74.025)" fill="#766d6e"/>
        <path id="Trazado_819503" data-name="Trazado 819503" d="M184.371,216.87c1.171,0,2.341,0,3.512,0,.444,0,.432.018.34.454-.212,1.008-.508,1.993-.761,2.99-.359,1.412-.808,2.8-1.259,4.18-.1.3-.232.591-.309.9a.516.516,0,0,1-.579.416c-1.515-.012-3.03-.007-4.545,0-.254,0-.3-.1-.3-.325q.009-4.153,0-8.306c0-.3.124-.336.363-.335,1.182.006,2.364,0,3.547,0Z" transform="translate(-130.591 -156.928)" fill="#766d6e"/>
        <path id="Trazado_819504" data-name="Trazado 819504" d="M74.417,151.262c.48-.012.479-.012.479.494q0,6.334.007,12.667c0,.325-.092.4-.4.394q-3.838-.027-7.676-.013c-.359,0-.484-.12-.568-.459a20.188,20.188,0,0,1-.236-2.453,32.864,32.864,0,0,1-.208-5.116A20.421,20.421,0,0,1,66,154.36a17.258,17.258,0,0,0,.091-1.809,7.65,7.65,0,0,1,.188-1.085c.04-.208.2-.209.34-.211,1.277-.009,2.555-.011,3.832-.013q1.293,0,2.587,0c.366,0,.732.016,1.1.024a.427.427,0,0,0,.282-.006" transform="translate(-47.609 -109.445)" fill="#766d6e"/>
        <path id="Trazado_819505" data-name="Trazado 819505" d="M78.348,106.927c0,1.389-.006,2.778.006,4.167,0,.259-.051.348-.333.347q-3.513-.019-7.026,0c-.341,0-.5-.138-.408-.518.228-.928.462-1.854.7-2.78.229-.907.506-1.806.79-2.7.275-.865.6-1.715.848-2.588.133-.464.232-.518.714-.516,1.286.006,2.571.007,3.857.017.238,0,.476.038.714.052.217.012.139.177.14.282.005,1.125,0,2.25,0,3.375v.861" transform="translate(-51.061 -74.058)" fill="#766d6e"/>
        <path id="Trazado_819506" data-name="Trazado 819506" d="M78.013,216.925c.259-.01.208.177.208.329q0,3.286,0,6.572c0,.573-.008,1.147,0,1.721,0,.227-.049.326-.3.323-1.537-.018-3.073-.028-4.61-.021-.34,0-.434-.217-.512-.455-.37-1.13-.736-2.262-1.088-3.4-.218-.7-.443-1.409-.6-2.127-.2-.911-.471-1.8-.7-2.706-.048-.184,0-.237.149-.245.182-.011.366,0,.549,0h6.847l.067,0" transform="translate(-50.933 -156.969)" fill="#766d6e"/>
        <path id="Trazado_819507" data-name="Trazado 819507" d="M96.27,151.007a.427.427,0,0,1-.282.006c.091-.167.185-.164.282-.006" transform="translate(-69.462 -109.189)" fill="#dee6f4"/>
        <path id="Trazado_819508" data-name="Trazado 819508" d="M114.765,151.524l.012.014-.013.013-.014-.015Z" transform="translate(-83.038 -109.65)" fill="#ff9192"/>
        <path id="Trazado_819509" data-name="Trazado 819509" d="M97.814,216.889l-.067,0c.025-.029.047-.026.067,0" transform="translate(-70.735 -156.934)" fill="#dee6f4"/>
        <path id="Trazado_819510" data-name="Trazado 819510" d="M274.968,0H256.2c-2.04,0-3.694,2.044-3.694,4.566v9.748c0,2.522,1.654,4.566,3.694,4.566h.043L254.6,26.53l6.28-7.65h14.088c2.04,0,3.694-2.044,3.694-4.566V4.566c0-2.521-1.654-4.566-3.694-4.566" transform="translate(-194.882)" fill="#fccd32"/>
        <path id="Trazado_819511" data-name="Trazado 819511" d="M286.672,35.347c-.036-.041-.085-.023-.127-.023-.633,0-1.267.014-1.9-.012a2.473,2.473,0,0,1-1.279-.4,3.342,3.342,0,0,1-.839-.738,2.541,2.541,0,0,1-.576-1.321c-.013-.143-.035-.286-.054-.429a1.942,1.942,0,0,1,.088-.539,2.717,2.717,0,0,1,1.173-1.8,3.888,3.888,0,0,1,.416-.285.257.257,0,0,0,.117-.229,2.558,2.558,0,0,1,.285-1.073,3.074,3.074,0,0,1,1.768-1.506,7.069,7.069,0,0,1,.9-.163,3.843,3.843,0,0,1,1,.179,3.319,3.319,0,0,1,.771.425,3.09,3.09,0,0,1,.757.774,2.471,2.471,0,0,1,.478,1.357c.006.149.108.22.214.292a4.6,4.6,0,0,1,.791.654,2.767,2.767,0,0,1,.775,1.8,2.8,2.8,0,0,1-.325,1.418,2.687,2.687,0,0,1-.484.688,2.978,2.978,0,0,1-1.3.753,4.717,4.717,0,0,1-1.305.155c-.45,0-.9-.013-1.352.021" transform="translate(-216.151 -19.414)" fill="#f8f9fb"/>
        <path id="Trazado_819512" data-name="Trazado 819512" d="M305.834,10.825a1.91,1.91,0,0,1-1.887,1.948,2.04,2.04,0,0,1-2.021-1.962,1.979,1.979,0,0,1,1.984-1.922,1.941,1.941,0,0,1,1.924,1.936" transform="translate(-230.647 -6.433)" fill="#f8f9fb"/>
        <path id="Trazado_819513" data-name="Trazado 819513" d="M315.179,25.117a1.951,1.951,0,1,1,3.9-.007,1.884,1.884,0,0,1-1.988,1.9,1.973,1.973,0,0,1-1.914-1.892" transform="translate(-240.238 -16.733)" fill="#f8f9fb"/>
        <path id="Trazado_819514" data-name="Trazado 819514" d="M286.3,10.8a1.934,1.934,0,0,1-2.089,1.968,2.044,2.044,0,0,1-1.823-1.938,2.009,2.009,0,0,1,1.982-1.944A1.906,1.906,0,0,1,286.3,10.8" transform="translate(-216.506 -6.43)" fill="#f8f9fb"/>
        <path id="Trazado_819515" data-name="Trazado 819515" d="M272.939,25.067a1.915,1.915,0,0,1-2.072,1.938,1.956,1.956,0,0,1-1.836-1.968,1.979,1.979,0,0,1,1.959-1.923,1.952,1.952,0,0,1,1.949,1.953" transform="translate(-206.842 -16.726)" fill="#f8f9fb"/>
      </g>
    </g>
  </g>
</svg>
