<svg xmlns="http://www.w3.org/2000/svg" xmlns:xlink="http://www.w3.org/1999/xlink" width="129" height="128" viewBox="0 0 129 128">
  <defs>
    <clipPath id="clip-path">
      <rect id="Rectángulo_377800" data-name="Rectángulo 377800" width="88" height="87.636" fill="#590e00"/>
    </clipPath>
  </defs>
  <g id="Grupo_108927" data-name="Grupo 108927" transform="translate(-390 -4467)">
    <path id="Rectángulo_36179" data-name="Rectángulo 36179" d="M0,0H129V128H0Z" transform="translate(390 4467)" fill="#ecb062"/>
    <path id="Rectángulo_36181" data-name="Rectángulo 36181" d="M6.132,0H81.754a21.8,21.8,0,0,1,21.8,21.8v74.26a6.132,6.132,0,0,1-6.132,6.132H6.132A6.132,6.132,0,0,1,0,96.061V6.132A6.132,6.132,0,0,1,6.132,0Z" transform="translate(402.944 4479.944)" fill="#fff"/>
    <g id="Grupo_1072979" data-name="Grupo 1072979" transform="translate(410 4490.471)">
      <g id="Grupo_1072978" data-name="Grupo 1072978" clip-path="url(#clip-path)">
        <path id="Trazado_819517" data-name="Trazado 819517" d="M39.784,37.239v-.582q0-14.585-.011-29.17a3.677,3.677,0,0,1,1.434-3.021,12.228,12.228,0,0,1,4.058-2.047A43.3,43.3,0,0,1,53.2.737,73.307,73.307,0,0,1,64.914.025c2.857.088,5.715.31,8.559.6a61.324,61.324,0,0,1,6.062.99,18.869,18.869,0,0,1,6.057,2.187,4.514,4.514,0,0,1,2.069,2.15,4.914,4.914,0,0,1,.321,1.691c.025,4.889.016,9.777.016,14.666q0,22.992-.005,45.984a7.335,7.335,0,0,1-.116,1.529,3.9,3.9,0,0,1-1.671,2.31,14.278,14.278,0,0,1-4.122,1.926,47.311,47.311,0,0,1-7.71,1.588c-2.741.4-5.508.479-8.265.683a36.187,36.187,0,0,1-6.39-.155.883.883,0,0,0-.156.019c0,.43-.014.86,0,1.288a4.572,4.572,0,0,1-1.212,3.254,11.715,11.715,0,0,1-3.976,2.8,29.576,29.576,0,0,1-6.706,2.2c-1.819.379-3.641.775-5.48,1.021-2.258.3-4.531.52-6.805.658-2.411.147-4.832.246-7.245.2-2.562-.047-5.13-.208-7.679-.468-2.209-.225-4.4-.632-6.594-1.008a34.6,34.6,0,0,1-8.124-2.385A13.519,13.519,0,0,1,1.76,81.25,5.459,5.459,0,0,1,.006,77.093Q.03,68,.016,58.9c0-3.822.032-7.644-.016-11.465a5.7,5.7,0,0,1,2.322-4.794,19.237,19.237,0,0,1,6.091-3.026,48.185,48.185,0,0,1,7.308-1.72c2.212-.359,4.433-.593,6.662-.814a123.551,123.551,0,0,1,12.507-.2c1.4,0,2.795.233,4.193.353.222.019.447,0,.7,0m2.81-15.248c0,.223,0,.383,0,.542q0,7.354,0,14.707c0,.321.1.449.413.5a44.1,44.1,0,0,1,6.63,1.442c.3.1.436.02.529-.287a17.543,17.543,0,0,1,.642-1.871,13.929,13.929,0,0,1,9.37-8.222,13.22,13.22,0,0,1,8.091.224,13.985,13.985,0,0,1,8.711,8.143,13.07,13.07,0,0,1,.824,7.694A14.223,14.223,0,0,1,65.689,56.394a8.56,8.56,0,0,1-3.013.093c-1.024-.217-2.058-.387-3.081-.576v3.443c1.6,0,3.162.007,4.726,0a75.891,75.891,0,0,0,10.452-.685,38.154,38.154,0,0,0,6.633-1.416,27.764,27.764,0,0,0,3.172-1.394,1.086,1.086,0,0,0,.607-1.087q-.023-16.166-.012-32.332v-.507c-.209.1-.354.164-.5.235a20.988,20.988,0,0,1-5.565,1.792c-2.426.443-4.864.834-7.311,1.133-1.724.211-3.472.226-5.209.341a48.079,48.079,0,0,1-6.8-.093c-1.425-.108-2.852-.2-4.277-.31-.375-.03-.746-.112-1.119-.165-1.533-.218-3.073-.39-4.6-.661a28.1,28.1,0,0,1-5.192-1.37c-.65-.25-1.285-.537-2.013-.844M9.977,62.692c-.007.147-.018.266-.018.385q0,9.438-.009,18.876a.492.492,0,0,0,.432.561c.588.148,1.172.31,1.76.459a60.349,60.349,0,0,0,9.133,1.444c2.082.2,4.176.259,6.265.37a78.718,78.718,0,0,0,8.742-.215c1.654-.1,3.308-.223,4.953-.416,1.242-.146,2.476-.387,3.7-.644,1.476-.31,2.938-.685,4.407-1.028.269-.063.352-.212.352-.491q-.013-9.479-.008-18.957c0-.1-.018-.2-.031-.341a84.659,84.659,0,0,1-39.679,0m18.1-9a103.677,103.677,0,0,0,13.013-.627c1.229-.128,2.439-.426,3.66-.625a34.547,34.547,0,0,0,8.03-2.277,9.5,9.5,0,0,0,3.447-2.215,1.73,1.73,0,0,0,.048-2.506,6.158,6.158,0,0,0-.851-.805,13.729,13.729,0,0,0-3.313-1.754,39.4,39.4,0,0,0-7.665-2.109,46.826,46.826,0,0,0-4.845-.659c-2.324-.213-4.655-.388-6.987-.483a82.873,82.873,0,0,0-9.553.217,68.06,68.06,0,0,0-8.857,1.14A37.569,37.569,0,0,0,7,43.094,9.806,9.806,0,0,0,3.6,45.173c-1.093,1.146-1.069,1.917.033,2.985a7.814,7.814,0,0,0,2.014,1.4,39.088,39.088,0,0,0,3.734,1.529A42.173,42.173,0,0,0,16.22,52.72c1.256.229,2.545.273,3.812.449a77.321,77.321,0,0,0,8.041.523M7.039,81.337V61.428c0-.135-.006-.27,0-.4a1.562,1.562,0,0,1,2.041-1.557,43.593,43.593,0,0,0,7.989,1.819c2.4.3,4.8.62,7.206.746,2.749.144,5.509.11,8.264.1,1.47-.006,2.944-.077,4.408-.211,1.934-.177,3.867-.4,5.788-.687,1.61-.241,3.209-.574,4.8-.928,1.064-.237,2.1-.591,3.155-.873a1.282,1.282,0,0,1,1.739,1.336q0,10.048,0,20.1v.526a10.758,10.758,0,0,0,3.785-2.341,1.784,1.784,0,0,0,.547-1.386c-.023-.431-.009-.864-.009-1.3q-.006-12.378-.013-24.755c0-.136-.02-.273-.033-.446a2.079,2.079,0,0,0-.206.1,20.477,20.477,0,0,1-4.4,2.124,46.131,46.131,0,0,1-9.229,2.188c-1.937.262-3.881.483-5.824.7-.6.067-1.213.058-1.819.085-2,.087-3.992.246-5.988.242-1.779,0-3.559-.164-5.336-.3-2.07-.154-4.15-.264-6.2-.555A56.138,56.138,0,0,1,10.46,54.3,26.534,26.534,0,0,1,3.127,51.27c-.084-.053-.175-.1-.3-.164v.375q0,13.066,0,26.133a1.909,1.909,0,0,0,.453,1.225,9.857,9.857,0,0,0,3.765,2.5m35.595-70.65a2.319,2.319,0,0,0-.051.318c0,2.444,0,4.889.027,7.333a.854.854,0,0,0,.306.6,7.7,7.7,0,0,0,1.387.824,29.414,29.414,0,0,0,7.357,1.965,68.255,68.255,0,0,0,8.822.827A75.172,75.172,0,0,0,77.9,21.381a44.52,44.52,0,0,0,4.782-1.32A10.055,10.055,0,0,0,84.833,18.9a.975.975,0,0,0,.326-.72c.024-2.4.015-4.808.013-7.212,0-.1-.018-.2-.029-.3-.752.319-1.455.664-2.19.921a40.64,40.64,0,0,1-9.437,1.958c-2.457.243-4.92.488-7.386.568-2.3.075-4.617-.027-6.923-.123A63.272,63.272,0,0,1,49.7,12.877a30.67,30.67,0,0,1-5.867-1.647c-.393-.162-.775-.351-1.2-.543m42.54,48.007c-.172.076-.289.137-.412.181-1.456.522-2.889,1.132-4.378,1.535a37.126,37.126,0,0,1-4.559.871c-2.2.308-4.413.646-6.63.744-3.086.137-6.181.063-9.272.081-.115,0-.23.014-.324.02v11.29a77.5,77.5,0,0,0,18.246-1.165,43.97,43.97,0,0,0,4.561-1.218,14.117,14.117,0,0,0,2.339-1.163.918.918,0,0,0,.437-.892c-.013-3.267-.007-6.534-.007-9.8v-.483M63.858,11.2v.057c1.175,0,2.353.049,3.525-.011,2.048-.1,4.1-.2,6.137-.439A36.627,36.627,0,0,0,81,9.315c1.056-.357,2.1-.77,3.12-1.212a3.99,3.99,0,0,0,.922-.706.368.368,0,0,0-.018-.621,4.84,4.84,0,0,0-.995-.748,16.987,16.987,0,0,0-2.7-1.069c-1.743-.456-3.511-.828-5.282-1.165a37.456,37.456,0,0,0-4.235-.619c-2.423-.178-4.854-.306-7.283-.327-2.131-.019-4.263.165-6.395.211a50.88,50.88,0,0,0-6.266.67,36.764,36.764,0,0,0-5.714,1.284,10.808,10.808,0,0,0-3.182,1.463c-.561.407-.571.854.012,1.217a11.894,11.894,0,0,0,1.96,1.035,28.012,28.012,0,0,0,6.489,1.642c2.327.3,4.656.634,6.994.8,1.8.129,3.618.026,5.427.026m6.354,31.228a15.4,15.4,0,0,0,1.6-.217,9.645,9.645,0,0,0,3.119-1.75.361.361,0,0,0,.081-.311c-.1-.406-.211-.808-.335-1.206a11.374,11.374,0,0,0-12.684-7.688,11.357,11.357,0,0,0-9.214,8.484c-.075.277-.025.449.275.558a6.568,6.568,0,0,1,1.293.567,1.506,1.506,0,0,0,1.719-.043,10.041,10.041,0,0,1,10.7.468,5.908,5.908,0,0,0,3.452,1.137m-12.422.615c.126.147.2.24.281.325a4.892,4.892,0,0,1,1.5,3.669c-.044,1.834,0,3.671-.017,5.507a.447.447,0,0,0,.335.506,11.733,11.733,0,0,0,6.343.438,11.288,11.288,0,0,0,8.878-9.263,3.085,3.085,0,0,0,0-.514l-.3.166a10.322,10.322,0,0,1-3.266,1.238,7.542,7.542,0,0,1-4.2-.434c-.794-.316-1.513-.816-2.277-1.211a9.708,9.708,0,0,0-1.783-.834,9.058,9.058,0,0,0-4.718.033,4.533,4.533,0,0,0-.784.374" transform="translate(0.001 0)" fill="#590e00"/>
        <path id="Trazado_819518" data-name="Trazado 819518" d="M60.389,221.044c-.661.662-1.239,1.323-1.9,1.886a7.4,7.4,0,0,1-4.21,1.59,1.405,1.405,0,0,1-1.527-1.642,6.693,6.693,0,0,1,.3-1.128c.3-.88.624-1.75.912-2.633a.943.943,0,0,0-.035-.544c-.309-.947-.639-1.887-.955-2.832a5.9,5.9,0,0,1-.213-.778,1.381,1.381,0,0,1,1.545-1.736,7.313,7.313,0,0,1,5.719,3.138c.231.315.365.314.661.085a15.269,15.269,0,0,1,3.612-2.359,9.926,9.926,0,0,1,9.572.92c1.251.818,2.419,1.766,3.607,2.678a1.31,1.31,0,0,1,.027,2.3,32.524,32.524,0,0,1-5.14,3.573,9.246,9.246,0,0,1-4.185.951,9.874,9.874,0,0,1-5.472-1.75c-.7-.483-1.368-1.008-2.051-1.514-.107-.079-.211-.161-.268-.2m1.665-2.187c.517.392,1.012.756,1.5,1.135a7.07,7.07,0,0,0,4.394,1.62,6.69,6.69,0,0,0,3.637-.751c.922-.554,1.784-1.21,2.671-1.823.223-.154.085-.265-.054-.37-.6-.454-1.2-.926-1.816-1.357a6.457,6.457,0,0,0-3.1-1.179,13.189,13.189,0,0,0-1.741-.005,6.617,6.617,0,0,0-1.074.14c-1.737.358-3,1.525-4.412,2.591M56.34,216.6l-.083.074a8.8,8.8,0,0,1,.546,2.186,9.629,9.629,0,0,1-.57,2.28,2.6,2.6,0,0,0,.241-.113,4.745,4.745,0,0,0,1.735-1.975.568.568,0,0,0-.05-.483,16.7,16.7,0,0,0-1.1-1.431,4.225,4.225,0,0,0-.716-.539" transform="translate(-35.594 -143.934)" fill="#590e00"/>
        <path id="Trazado_819519" data-name="Trazado 819519" d="M37.868,138.937a8.562,8.562,0,0,1-5.04-1.145,5.649,5.649,0,0,1-1.327-1.106,2.827,2.827,0,0,1,.108-3.951,7.525,7.525,0,0,1,4.2-2,11.5,11.5,0,0,1,4.5.1,7.181,7.181,0,0,1,3.43,1.622,3.574,3.574,0,0,1,1.148,2.089,2.663,2.663,0,0,1-.68,2.055,5.854,5.854,0,0,1-3.024,1.92,8.28,8.28,0,0,1-3.308.417m-.184-5.5c-.209,0-.574-.017-.938,0a5.659,5.659,0,0,0-2.86.9c-.453.3-.466.55-.019.868a4.194,4.194,0,0,0,1.065.563,8.615,8.615,0,0,0,5.179.162,9.207,9.207,0,0,0,1.805-.854c.246-.133.255-.378,0-.55a7.108,7.108,0,0,0-.991-.612,6.958,6.958,0,0,0-3.246-.478" transform="translate(-20.756 -88.134)" fill="#590e00"/>
      </g>
    </g>
  </g>
</svg>
