<svg xmlns="http://www.w3.org/2000/svg" xmlns:xlink="http://www.w3.org/1999/xlink" width="125" height="125" viewBox="0 0 125 125">
  <defs>
    <clipPath id="clip-path">
      <rect id="Rect치ngulo_377795" data-name="Rect치ngulo 377795" width="87.063" height="83.244" fill="none"/>
    </clipPath>
  </defs>
  <g id="Grupo_1072965" data-name="Grupo 1072965" transform="translate(-1089 -2146)">
    <path id="Trazado_608387" data-name="Trazado 608387" d="M62.5,0A62.5,62.5,0,1,1,0,62.5,62.5,62.5,0,0,1,62.5,0Z" transform="translate(1089 2146)" fill="#590e00"/>
    <g id="Grupo_1072969" data-name="Grupo 1072969" transform="translate(1106.187 2160.857)">
      <rect id="Rect치ngulo_377794" data-name="Rect치ngulo 377794" width="81.634" height="27.702" transform="translate(2.393 46.046)" fill="#f8e1c3"/>
      <g id="Grupo_1072968" data-name="Grupo 1072968">
        <g id="Grupo_1072967" data-name="Grupo 1072967" clip-path="url(#clip-path)">
          <path id="Trazado_819447" data-name="Trazado 819447" d="M168.568,95.82c3.535,0,7.071-.006,10.606.009.379,0,.48-.1.46-.469-.032-.595-.009-1.192-.009-1.789,0-.9,0-.9-.877-.886-.149,0-.3,0-.448,0q-10.158,0-20.317-.015c-.313,0-.414.076-.4.4.024.76.026,1.522-.007,2.28-.017.384.112.472.478.471,3.505-.013,7.011-.008,10.516-.008" transform="translate(-101.01 -59.409)"/>
          <path id="Trazado_819448" data-name="Trazado 819448" d="M242.281,97.368c-.041,0-.086-.005-.067-.056.008-.021.064-.023.1-.034.025.042.032.078-.031.089" transform="translate(-155.267 -62.36)" fill="#66332e"/>
          <path id="Trazado_819449" data-name="Trazado 819449" d="M43.173,215.395q-21.37,0-42.74.006c-.377,0-.523-.056-.377-.472.442-1.257.841-5.4,1.3-6.653a16.331,16.331,0,0,0,.5-1.607.472.472,0,0,1,.5-.42,34.427,34.427,0,0,1,3.882-.069q38.734-.011,77.47-.018c.526,0,.774.116.937.65.5,1.649,1.086,6.146,1.622,7.786.26.794.243.8-.574.8H43.173" transform="translate(0 -133.123)" fill="#f8e1c3"/>
          <path id="Trazado_819450" data-name="Trazado 819450" d="M47.687,110.83H7.377c-.1,0-.21,0-.314,0-.086,0-.189.023-.242-.071-.064-.115.02-.2.088-.275.636-.75,3.073-4.73,3.71-5.479.936-1.1,1.877-2.2,2.8-3.308a.482.482,0,0,1,.425-.178q5.3,0,10.592,0a.669.669,0,0,1,.407.146,5.518,5.518,0,0,0,6.291.554.353.353,0,0,1,.5.058,4.2,4.2,0,0,0,4.088,1.08,1.252,1.252,0,0,1,.942.242,8.361,8.361,0,0,0,3.247.938,10.9,10.9,0,0,0,4.6-.439,8.206,8.206,0,0,0,1.421-.651,1.138,1.138,0,0,1,.6-.14,8.253,8.253,0,0,0,2.533-.172,4.217,4.217,0,0,0,1.515-.842.429.429,0,0,1,.613-.08,5.175,5.175,0,0,0,2.907.736,6.88,6.88,0,0,0,3.343-1.155,1.756,1.756,0,0,1,.967-.276q11.961.009,23.923,0a.761.761,0,0,1,.746.352c1.014,1.542,3.494,6.3,4.528,7.827.183.271.381.534.564.806.142.211.148.356-.179.338-.254-.014-.509,0-.763,0H47.687" transform="translate(-4.358 -65.072)" fill="#f8e1c3"/>
          <path id="Trazado_819451" data-name="Trazado 819451" d="M65.011,65.784c.172,0,.344-.008.515,0a1.829,1.829,0,0,0,1.922-1.256,3.108,3.108,0,0,1,3.7-1.871,3.734,3.734,0,0,1,1.486.849,1.82,1.82,0,0,0,2.771-.039,3.223,3.223,0,0,1,5.2,1.049,1.907,1.907,0,0,0,2.056,1.271c.481-.026.968.051,1.449.025,1.377-.075,3.11,1.68,3.054,3.291-.016.452.019.9.011,1.357a1.742,1.742,0,0,0,1.047,1.725,4.384,4.384,0,0,1,1.416,1.123,3.384,3.384,0,0,1-1,5.025,2.538,2.538,0,0,1-3.165-.256c-.23-.16-.429-.365-.663-.517a1.558,1.558,0,0,0-2.283.455c-.053.077-.1.159-.15.238a1.946,1.946,0,0,1-2.623.826,1.577,1.577,0,0,0-2.09.478,2.036,2.036,0,0,1-1.207.646,13.126,13.126,0,0,1-2.351.356,16.606,16.606,0,0,1-2.858-.443,1.548,1.548,0,0,1-.8-.544,1.661,1.661,0,0,0-2.173-.462c-1.216.546-1.8.326-2.516-.793-.067-.1-.124-.216-.192-.321a1.562,1.562,0,0,0-2.275-.458c-.257.176-.491.384-.743.568a2.713,2.713,0,0,1-3.869-.3,3.422,3.422,0,0,1,.9-5.473,2.021,2.021,0,0,0,1.349-2.16,9.25,9.25,0,0,1,.031-1.635,3.287,3.287,0,0,1,3.25-2.744h.8Zm10.517,1.452q.012,1.478.025,2.957c-.984,0-1.967,0-2.951-.014-.208,0-.283.068-.28.284.011.85.015,1.7,0,2.55-.005.277.116.315.348.312.835-.01,1.671-.015,2.506,0,.286.006.388-.067.381-.369-.02-.924-.01-1.849-.011-2.773.892,0,1.783,0,2.675,0,.226,0,.466.008.464-.328-.005-.772-.007-1.545-.009-2.317,0-.186-.054-.286-.276-.312a20.48,20.48,0,0,0-2.57-.043l-.261-.038c-.006-.924-.025-1.848-.011-2.772,0-.3-.094-.372-.379-.366q-1.252.026-2.505,0c-.28-.006-.357.085-.351.356.016.79.019,1.58,0,2.37-.008.309.083.416.4.412.82-.01,1.64.012,2.46.021a.389.389,0,0,0,.35.068m-3.642-.062-.1,0-1.96-.009-.1,0c-.4-.051-.559.1-.54.52.032.7.022,1.4,0,2.093-.008.309.1.423.408.418q1.181-.02,2.362,0c.273.005.37-.094.366-.362-.01-.728-.026-1.456.006-2.182.016-.362-.127-.479-.45-.471" transform="translate(-36.986 -40.1)" fill="#e23d5b"/>
          <path id="Trazado_819452" data-name="Trazado 819452" d="M179.614,30.2c0,4.011-.005,8.022.009,12.033,0,.363-.07.48-.452.459a21.011,21.011,0,0,0-2.324-.016c-.443.026-.462-.157-.458-.5.016-1.208.043-2.417-.008-3.623A7.263,7.263,0,0,0,176.1,36.5c-.112-.336-.056-.778-.189-1.152a8.192,8.192,0,0,0-2.746-3.712c-.218-.172-.315-.23-.033-.5a5.51,5.51,0,0,0,1.568-3.071A6.234,6.234,0,0,0,163,24.169a6.315,6.315,0,0,0-.614,3.554,5.577,5.577,0,0,0,1.535,3.372c.233.267.286.4-.059.646a7.579,7.579,0,0,0-2.525,3.22,8.555,8.555,0,0,0-.707,3.592c.01,1.267,0,2.535.007,3.8,0,.266-.041.346-.339.329-.788-.046-1.578-.052-2.368-.042-.3,0-.364-.076-.364-.372q.013-11.7.006-23.395,0-.447-.018-.894c-.009-.219.062-.343.306-.311a1.715,1.715,0,0,0,.223,0q10.517,0,21.033-.01c.4,0,.5.1.5.5-.017,4.011-.01,8.022-.01,12.033" transform="translate(-101.002 -11.323)" fill="#f8f9fb"/>
          <path id="Trazado_819453" data-name="Trazado 819453" d="M6.84,133.471c-.216-.044-.167-.22-.167-.358,0-.835.006-4.542-.007-5.377,0-.24.077-.319.308-.3.163.015.328,0,.492,0H87.575c.736,0,.736,0,.736.757,0,.671,0,4.214,0,4.885,0,.311-.106.442-.451.424-.819-.041-1.64-.048-2.46-.048q-37.929,0-75.858,0c-.865,0-1.729.017-2.594.026l-.109-.013" transform="translate(-4.273 -81.691)" fill="#d3833c"/>
          <path id="Trazado_819454" data-name="Trazado 819454" d="M87.936,194.352q-10.695-.006-21.39-.013-22.443,0-44.884,0-7.272,0-14.543.013a.064.064,0,0,0-.107.005c-.253,0-.364-.1-.357-.376.02-.76.025-4.752,0-5.512-.011-.328.117-.392.405-.4,2.654-.082,5.308-.034,7.962-.034q36.149,0,72.3,0c.985,0,.986,3.235.985,4.226,0,.671-.007,1.342-.01,2.013l-.356.075" transform="translate(-4.264 -120.53)" fill="#d3833c"/>
          <path id="Trazado_819455" data-name="Trazado 819455" d="M159.994,171.578c-4.8,0-12.838-.007-17.641.011-.456,0-.569-.163-.542-.564.185-2.737.049-5.477.078-8.216,0-.385.132-.337.385-.208a10.5,10.5,0,0,0,2.832,1.051c.56.1,4.357.015,4.918.053a6.171,6.171,0,0,0,3.371-.808,6.352,6.352,0,0,1,3.748-.559,27.413,27.413,0,0,1,3.862,1.05,10.093,10.093,0,0,0,5.529-.046,10.909,10.909,0,0,0,1.3-.579,5.176,5.176,0,0,1,4.488-.045,11.387,11.387,0,0,0,2.369.906c.195.037.257.143.256.342q-.009,3.668,0,7.337c0,.262-.114.28-.321.279-1.1-.007-2.208,0-3.312,0H159.994" transform="translate(-90.905 -103.995)" fill="#fef0c1"/>
          <path id="Trazado_819456" data-name="Trazado 819456" d="M39.716,164.085l.022,7.332-.02.1c-.129.155-.307.083-.46.083-9.622,0-22.475,0-32.1.012-.4,0-.514-.087-.511-.5.021-2.729.011-5.458.011-8.187V162.4a2.841,2.841,0,0,1,.992.446c1.913,1.285,5.834,1.177,7.7-.042a5.122,5.122,0,0,1,3.317-.462,4.5,4.5,0,0,1,1.736.641,7.36,7.36,0,0,0,3.167.766,8.216,8.216,0,0,0,4.539-1.061,5.529,5.529,0,0,1,3.265-.348c1.238.066,5.563.689,6.748.971.434.1.862.231,1.3.317a.307.307,0,0,1,.291.366v.09" transform="translate(-4.262 -104.018)" fill="#fef0c1"/>
          <path id="Trazado_819457" data-name="Trazado 819457" d="M98.516,144.509q4.742-.011,9.484-.02c1.939,0,3.877.033,5.816.009.386-.005.387.131.387.419q-.01,6.575,0,13.149c0,.6-.011,1.193.005,1.789.007.254-.031.36-.33.357q-2.841-.024-5.682,0c-.326,0-.382-.106-.38-.405.013-1.7,0-3.4,0-5.1a.839.839,0,0,0-.021-.256c-.1-.34.005-.519.4-.509.79.02,1.581-.008,2.371.012.34.009.429-.113.42-.439-.022-.774-.015-1.55,0-2.325,0-.23-.055-.3-.295-.3-.835.015-1.67,0-2.506.011-.276,0-.385-.048-.374-.365.027-.834-.006-1.669.009-2.5,0-.261-.041-.358-.333-.366a16.613,16.613,0,0,1-2.393-.054c-.267-.046-.263.256-.261.464.009.82.005,1.64.038,2.458.012.305-.084.375-.372.369-.8-.018-1.611.016-2.415-.017-.372-.015-.435.116-.424.446.023.715.025,1.432,0,2.146-.013.353.061.494.453.479.759-.03,1.521.014,2.282,0,.3-.006.414.054.415.388q0,2.749.063,5.5c.006.3-.084.37-.372.368q-2.863-.017-5.727,0c-.239,0-.331-.042-.33-.309q.013-7.6.008-15.207a.883.883,0,0,1,.034-.172l.028.016,0-.028" transform="translate(-63.104 -92.624)" fill="#590e00"/>
          <path id="Trazado_819458" data-name="Trazado 819458" d="M173.759,68.148c-2.4,0-4.807-.017-7.21.012-.571.006-.747-.143-.74-.691.03-2.322-.039-4.647.025-6.968a7.812,7.812,0,0,1,8.4-7.589,7.982,7.982,0,0,1,7.528,6.1,2.163,2.163,0,0,1,.024.506c0,2.637-.011,5.275.013,7.912,0,.54-.1.753-.752.742-2.428-.043-4.857-.017-7.286-.017Z" transform="translate(-106.289 -33.91)" fill="#66332e"/>
          <path id="Trazado_819459" data-name="Trazado 819459" d="M168.568,92.253c-3.506,0-7.011-.008-10.516.012-.365,0-.495-.141-.478-.769.033-1.239.031-2.483.007-3.722-.01-.531.09-.656.4-.655q10.158.027,20.317.024c.149,0,.3,0,.448-.006.877-.022.877-.023.877,1.446,0,.973-.024,1.949.009,2.92.02.6-.081.769-.46.766-3.535-.026-7.07-.015-10.606-.015" transform="translate(-101.01 -55.847)" fill="#d3833c"/>
          <path id="Trazado_819460" data-name="Trazado 819460" d="M170.35,32.184c.313-3.83,2.9-6.367,6.469-6.295a6,6,0,0,1,6.295,6.207c.065,4.176-2.734,6.268-6.416,6.589-3.186.278-6.322-3.143-6.347-6.5" transform="translate(-109.202 -16.595)" fill="#f9ba4a"/>
          <path id="Trazado_819461" data-name="Trazado 819461" d="M184.087,3.049c0-.752.01-1.505,0-2.257-.008-.472.067-.668.328-.67a8.259,8.259,0,0,0,2.365-.109c.233-.07.365.141.365.635q0,2.431.005,4.861c0,.4-.079.572-.289.569-.835-.011-1.67-.016-2.5,0-.23,0-.271-.222-.267-.6.007-.81,0-1.62,0-2.43" transform="translate(-118.005 0)" fill="#e6d2d0"/>
          <path id="Trazado_819462" data-name="Trazado 819462" d="M233.1,205.525l.356-.075c-.086.182-.229.092-.356.075" transform="translate(-149.425 -131.702)" fill="#66332e"/>
          <path id="Trazado_819463" data-name="Trazado 819463" d="M98.256,157.329a.064.064,0,0,1,.078.013c-.035.048-.059.031-.078-.013" transform="translate(-62.986 -100.85)" fill="#66332e"/>
          <path id="Trazado_819464" data-name="Trazado 819464" d="M98.773,187.861l.02-.1c.057.046.033.075-.02.1" transform="translate(-63.318 -120.364)" fill="#66332e"/>
          <path id="Trazado_819465" data-name="Trazado 819465" d="M98.592,144.511l0,.028-.028-.016.009-.031Z" transform="translate(-63.18 -92.626)" fill="#d3833c"/>
          <path id="Trazado_819466" data-name="Trazado 819466" d="M7.652,205.619a.064.064,0,0,1,.107-.005l-.107.005" transform="translate(-4.905 -131.791)" fill="#66332e"/>
          <path id="Trazado_819467" data-name="Trazado 819467" d="M98.768,167.176v-.09a.372.372,0,0,1,.026.064c0,.007-.016.018-.025.027" transform="translate(-63.314 -107.109)" fill="#66332e"/>
          <path id="Trazado_819468" data-name="Trazado 819468" d="M101.291,69.765c-.82-.009-1.64-.031-2.46-.021-.316,0-.406-.1-.4-.412.02-.79.017-1.58,0-2.37-.005-.272.072-.362.352-.357q1.252.026,2.505,0c.284-.006.383.064.379.366-.014.924.005,1.848.011,2.772l-.389.022" transform="translate(-63.099 -42.696)"/>
          <path id="Trazado_819469" data-name="Trazado 819469" d="M101.66,83.8c0,.925-.009,1.849.011,2.773.007.3-.1.375-.381.369-.835-.017-1.671-.012-2.506,0-.232,0-.353-.035-.348-.312.016-.85.012-1.7,0-2.55,0-.216.073-.286.28-.284.984.009,1.967.01,2.951.014l-.009-.009" transform="translate(-63.101 -53.717)"/>
          <path id="Trazado_819470" data-name="Trazado 819470" d="M90.344,75.364l1.96.009a.059.059,0,0,0,.1,0c.323-.008.465.109.449.471-.032.726-.017,1.455-.006,2.182,0,.269-.092.367-.366.362q-1.181-.022-2.362,0c-.312.005-.416-.108-.408-.418.018-.7.028-1.4,0-2.093-.019-.423.143-.571.54-.52a.055.055,0,0,0,.1,0" transform="translate(-57.507 -48.302)"/>
          <path id="Trazado_819471" data-name="Trazado 819471" d="M107.672,75.422a20.483,20.483,0,0,1,2.57.043c.221.026.275.126.276.312,0,.772,0,1.545.009,2.317,0,.336-.238.327-.463.328-.891,0-1.783,0-2.675,0l.009.008q-.013-1.478-.025-2.957l.3-.051" transform="translate(-68.83 -48.337)"/>
          <path id="Trazado_819472" data-name="Trazado 819472" d="M107.046,75.387l-.3.051c-.123.011-.249.035-.35-.067l.389-.022.261.038" transform="translate(-68.204 -48.302)" fill="#66332e"/>
          <path id="Trazado_819473" data-name="Trazado 819473" d="M97.042,75.418a.06.06,0,0,1-.1,0l.1,0" transform="translate(-62.142 -48.344)" fill="#66332e"/>
          <path id="Trazado_819474" data-name="Trazado 819474" d="M91.31,75.382a.055.055,0,0,1-.1,0l.1,0" transform="translate(-58.473 -48.32)" fill="#66332e"/>
        </g>
      </g>
    </g>
  </g>
</svg>
