<svg xmlns="http://www.w3.org/2000/svg" xmlns:xlink="http://www.w3.org/1999/xlink" width="125" height="125" viewBox="0 0 125 125">
  <defs>
    <clipPath id="clip-path">
      <rect id="Rectángulo_377796" data-name="Rectángulo 377796" width="91.906" height="75.826" fill="none"/>
    </clipPath>
  </defs>
  <g id="Grupo_1072964" data-name="Grupo 1072964" transform="translate(-738 -2146)">
    <path id="Trazado_608386" data-name="Trazado 608386" d="M62.5,0A62.5,62.5,0,1,1,0,62.5,62.5,62.5,0,0,1,62.5,0Z" transform="translate(738 2146)" fill="#590e00"/>
    <g id="Grupo_1072971" data-name="Grupo 1072971" transform="translate(754.547 2168.587)">
      <g id="Grupo_1072970" data-name="Grupo 1072970" clip-path="url(#clip-path)">
        <path id="Trazado_819475" data-name="Trazado 819475" d="M92.728,55.645a3.807,3.807,0,0,0,.973.644,37.609,37.609,0,0,1,3.5,2.4c1,.78,2,1.568,2.919,2.437a34.117,34.117,0,0,1,3.8,4.233,39.53,39.53,0,0,1,2.925,4.419c.723,1.279,1.306,2.621,1.917,3.951.114.247.12.542.331.746.245.774.527,1.538.726,2.324a25.752,25.752,0,0,1,.745,3.063c.041.326-.022.722.312.969a6.87,6.87,0,0,0,.186,1.96,7.108,7.108,0,0,1,.243,2.121c-.015.7,0,1.408,0,2.113q0,1.483-.005,2.966a7.213,7.213,0,0,1-.193,2.306,2.992,2.992,0,0,0-.143,1.166c-.105.562-.112,1.134-.247,1.7a29.985,29.985,0,0,1-.879,3.235,4.425,4.425,0,0,0-.325,1.172c-.352.212-.378.623-.522.94a16.009,16.009,0,0,1-3.295,4.881.535.535,0,0,0-.169.456c-.229-.015-.355.152-.5.285a21.628,21.628,0,0,1-3.225,2.434,21.9,21.9,0,0,1-4.307,1.987,21.194,21.194,0,0,1-4.891,1.193c-1.039.114-2.065.319-3.109.42a66.468,66.468,0,0,1-7.447.214c-.659-.01-1.3-.174-1.966-.188a26.471,26.471,0,0,1-4.27-.573,28.068,28.068,0,0,1-5.707-1.6,20.112,20.112,0,0,1-5.77-3.516,6.7,6.7,0,0,0-.673-.547.658.658,0,0,1,.266-.311,3.418,3.418,0,0,0,1.314-1.607,2.716,2.716,0,0,0,.066-2.089,3.169,3.169,0,0,0-2.366-2.13c.012-.257.239-.251.4-.309a3.164,3.164,0,0,0,2.044-2.193,3.113,3.113,0,0,0-2.979-3.852c-1.128,0-2.256,0-3.384,0-.154,0-.357.077-.413-.173.12-.071.237-.148.361-.213a3.125,3.125,0,0,0,.243-5.462c-.246-.157-.514-.28-.772-.42a.84.84,0,0,1,.592-.175,3.074,3.074,0,0,0,2.129-5.437,11.759,11.759,0,0,1-1.192-.845,4.239,4.239,0,0,0,1.43-.863,3.207,3.207,0,0,0-.516-4.839c-.289-.183-.687-.225-.848-.594a6.981,6.981,0,0,1,.657-1.889c.53-1.12,1.119-2.212,1.707-3.3s1.336-2.114,2.025-3.158c.524-.794,1.218-1.448,1.742-2.247a8.836,8.836,0,0,1,1.069-1.172A36.455,36.455,0,0,1,71.3,58.96c.74-.565,1.506-1.091,2.293-1.594.581-.372,1.168-.754,1.736-1.156a5.266,5.266,0,0,1,.74-.376c.1-.051.2-.1.2-.242.2-.013.393-.036.59-.036q7.623,0,15.247-.006a2.125,2.125,0,0,1,.622.1M82.967,96h0a2.81,2.81,0,0,1,0,.508c-.127.681.337,1.045.779,1.372a1.486,1.486,0,0,0,2.282-1.242c.007-.495,0-.989.009-1.484,0-.2.026-.418.264-.477a5.813,5.813,0,0,0,2.2-1.206,5.448,5.448,0,0,0,1.963-3,7.055,7.055,0,0,0,.251-2.611,5.561,5.561,0,0,0-1.4-3.275,7.342,7.342,0,0,0-5-2.243A3.111,3.111,0,1,1,86.316,76.7a3.13,3.13,0,0,1,1.328,2.435,1.893,1.893,0,0,0,1.34,1.68,1.638,1.638,0,0,0,1.792-1.394,5.821,5.821,0,0,0-2.158-4.962,7.788,7.788,0,0,0-2.186-1.269.585.585,0,0,1-.4-.622c0-.424.009-.848-.007-1.272a1.535,1.535,0,0,0-1.311-1.49,1.477,1.477,0,0,0-1.683,1.2,3.357,3.357,0,0,0-.053,1.137,1.075,1.075,0,0,1-.8,1.244,6.086,6.086,0,0,0-3.017,2.548,6.183,6.183,0,0,0,.321,7.091,6.645,6.645,0,0,0,2.136,1.842,9.077,9.077,0,0,0,3.377.794,2.456,2.456,0,0,1,.334.043,3.1,3.1,0,0,1,1.98,4.337,2.885,2.885,0,0,1-1.995,1.666,2.916,2.916,0,0,1-2.57-.449,3.005,3.005,0,0,1-1.315-2.079,3.043,3.043,0,0,0-.391-1.284,1.509,1.509,0,0,0-2.808.541,5.218,5.218,0,0,0,.383,2.526,5.886,5.886,0,0,0,1.269,2,6.726,6.726,0,0,0,2.105,1.511c.966.416.982.38.982,1.44Z" transform="translate(-38.561 -36.649)" fill="#f29b1e"/>
        <path id="Trazado_819476" data-name="Trazado 819476" d="M102.168,12.53a3.579,3.579,0,0,0-.482-1.107c-1.13-2.283-2.307-4.543-3.4-6.842a3.1,3.1,0,0,1,.993-3.95,3.139,3.139,0,0,1,2.8-.482,36.141,36.141,0,0,0,4.823.925c.962.176,1.948.166,2.917.279a22.712,22.712,0,0,0,4.761-.3,20.3,20.3,0,0,0,3.637-.682,6.75,6.75,0,0,1,1.832-.3,3.088,3.088,0,0,1,2.908,1.965,3.034,3.034,0,0,1-.1,2.51c-1.137,2.283-2.255,4.575-3.429,6.84a6.272,6.272,0,0,0-.588,1.139c-.253.182-.541.1-.816.1q-7.621,0-15.243,0a1.013,1.013,0,0,1-.616-.1" transform="translate(-64.629 0)" fill="#f29b1e"/>
        <path id="Trazado_819477" data-name="Trazado 819477" d="M95.968,36.813a1.013,1.013,0,0,0,.616.1q7.621,0,15.243,0c.275,0,.562.08.816-.1a1.46,1.46,0,0,0,.784.083c1.228.014,2.46-.043,3.684.031a3.084,3.084,0,0,1,2.85,4.165,3.153,3.153,0,0,1-2.932,2.1c-1.277.122-2.55-.036-3.825,0-.207.005-.425-.057-.608.1a2.14,2.14,0,0,0-.622-.1q-7.624.006-15.247.006c-.2,0-.393.023-.59.036-.969-.033-1.941.012-2.906,0a5.651,5.651,0,0,1-3.22-.526,3.179,3.179,0,0,1-.85-4.528,2.95,2.95,0,0,1,2.382-1.254c1.312-.048,2.628-.017,3.942-.017.167,0,.339.036.482-.089" transform="translate(-58.429 -24.283)" fill="#a56a43"/>
        <path id="Trazado_819478" data-name="Trazado 819478" d="M220.22,203.852q1.78.007,3.561.013a3.269,3.269,0,0,1,3.138,3.26,3.309,3.309,0,0,1-2.186,2.92,5.5,5.5,0,0,1-1.741.273c-4.833-.01-9.666,0-14.5-.009a3.669,3.669,0,0,1-3.263-1.627,3.033,3.033,0,0,1,1.274-4.416c.151-.073.3-.163.443-.244a3.93,3.93,0,0,1,.922-.074c4.117-.045,8.236.1,12.352-.1" transform="translate(-135.073 -134.492)" fill="#f0c418"/>
        <path id="Trazado_819479" data-name="Trazado 819479" d="M24.516,111.084c.161.368.559.411.848.593a3.207,3.207,0,0,1,.515,4.839,4.221,4.221,0,0,1-1.43.862,5.516,5.516,0,0,1-.667.086c-5.606.055-11.213-.085-16.818.077.118-.177.084-.273-.136-.321a3.1,3.1,0,0,1-1.995-4.131,3.828,3.828,0,0,1,2.359-1.974,1.388,1.388,0,0,1,.457-.009l16.572,0c.1,0,.2-.014.3-.02" transform="translate(-3.034 -73.288)" fill="#f3d55b"/>
        <path id="Trazado_819480" data-name="Trazado 819480" d="M19.886,148.056c.258.139.526.262.772.42a3.125,3.125,0,0,1-.243,5.462c-.124.065-.241.142-.361.213a5.221,5.221,0,0,1-1.877.176c-2.524,0-5.048-.01-7.571.005a30.288,30.288,0,0,0-3.541.066,1.2,1.2,0,0,0-.58-.07c-1.086,0-2.171,0-3.257,0a3.378,3.378,0,0,1-3.005-2.084,3.246,3.246,0,0,1,1.931-4.118c.483-.172,1.017-.028,1.454-.331.732,0,1.442.2,2.182.182,1.467-.038,2.937-.027,4.405-.007,3.23.044,6.462-.116,9.691.088" transform="translate(0 -97.508)" fill="#f3d55b"/>
        <path id="Trazado_819481" data-name="Trazado 819481" d="M20.2,204.132a3.025,3.025,0,0,1,1.93,2.05,3.129,3.129,0,0,1-2.538,3.975,8.2,8.2,0,0,1-1.519.11q-6.953,0-13.906,0a4.332,4.332,0,0,1-2.66-.674,3.1,3.1,0,0,1,.5-5.339,3.611,3.611,0,0,1,1.591-.37c.791,0,1.583-.019,2.374,0,.324.01.647.076.975.062a4,4,0,0,1,.925-.066q5.257,0,10.514,0a3.945,3.945,0,0,1,1.819.253" transform="translate(-0.131 -134.506)" fill="#f0c418"/>
        <path id="Trazado_819482" data-name="Trazado 819482" d="M29.343,191.909a3.945,3.945,0,0,0-1.819-.253q-5.257.008-10.514,0a4,4,0,0,0-.925.066c.055-.27-.161-.325-.33-.416a3.131,3.131,0,0,1-.078-5.518,1.733,1.733,0,0,1,.558-.181c.166-.036.381-.009.464-.228a1.842,1.842,0,0,1,.668,0q7.435-.01,14.87-.005a7.019,7.019,0,0,1,1.431.076,3.17,3.17,0,0,1,2.366,2.13,2.716,2.716,0,0,1-.066,2.089,3.419,3.419,0,0,1-1.314,1.607.657.657,0,0,0-.266.311,22.648,22.648,0,0,1-3.914.1c-.294-.02-.59-.022-.884-.033-.173-.006-.271.06-.245.249" transform="translate(-9.277 -122.282)" fill="#f3d55b"/>
        <path id="Trazado_819483" data-name="Trazado 819483" d="M22.963,136.043c-3.229-.2-6.461-.044-9.691-.088-1.468-.02-2.938-.03-4.405.007-.74.019-1.45-.183-2.182-.182a4.593,4.593,0,0,1-1.49-1.334,2.978,2.978,0,0,1-.45-2.29,3.446,3.446,0,0,1,2.261-2.41c5.606-.161,11.212-.021,16.818-.077a5.52,5.52,0,0,0,.668-.085,11.757,11.757,0,0,0,1.192.845,3.074,3.074,0,0,1-2.129,5.437.84.84,0,0,0-.592.175" transform="translate(-3.077 -85.494)" fill="#f0c418"/>
        <path id="Trazado_819484" data-name="Trazado 819484" d="M33.674,173.006a7.017,7.017,0,0,0-1.431-.076q-7.435,0-14.87,0a1.842,1.842,0,0,0-.668,0,1.077,1.077,0,0,0-.322-.183,3.087,3.087,0,0,1-2.29-3.35,3.02,3.02,0,0,1,1.519-2.271c.238-.147.491-.27.737-.4a30.212,30.212,0,0,1,3.541-.066c2.524-.015,5.047,0,7.571,0a5.22,5.22,0,0,0,1.877-.176c.056.25.259.173.413.174,1.128.005,2.256,0,3.384,0a3.113,3.113,0,0,1,2.979,3.852,3.164,3.164,0,0,1-2.044,2.193c-.159.057-.385.052-.4.309" transform="translate(-9.285 -109.832)" fill="#f0c418"/>
        <path id="Trazado_819485" data-name="Trazado 819485" d="M212.8,153.842a2.979,2.979,0,0,1,.143-1.166,7.225,7.225,0,0,0,.193-2.306q0-1.483,0-2.966,6.695,0,13.389-.005a4.849,4.849,0,0,0,2.478-.333c-.234.253-.071.3.164.334a3.53,3.53,0,0,1,2.69,1.712,3.094,3.094,0,0,1-.839,4.049,3.16,3.16,0,0,1-2.2.691c-.944-.03-1.89-.009-2.835-.005a1.336,1.336,0,0,0-.622.075,3.341,3.341,0,0,0-.879-.077q-5.844,0-11.687,0" transform="translate(-140.387 -97.027)" fill="#f3d55b"/>
        <path id="Trazado_819486" data-name="Trazado 819486" d="M209.088,117.5c-.333-.247-.27-.643-.312-.969a25.824,25.824,0,0,0-.745-3.062c-.2-.786-.481-1.55-.726-2.324q8.2-.005,16.4-.017a3.49,3.49,0,0,1,1.988.6,3.135,3.135,0,0,1,1.354,3.2,2.981,2.981,0,0,1-2.028,2.3c-.165.048-.288.1-.323.278l-15.609,0" transform="translate(-136.77 -73.317)" fill="#f3d55b"/>
        <path id="Trazado_819487" data-name="Trazado 819487" d="M215,191.366c-4.116.2-8.235.05-12.352.1a3.93,3.93,0,0,0-.922.073c-.318-.313-.716-.157-1.062-.132a21.483,21.483,0,0,1-3.483-.026c-.141-.013-.281-.029-.359-.173a.534.534,0,0,1,.169-.456,16.021,16.021,0,0,0,3.295-4.881c.144-.318.17-.729.522-.94a.789.789,0,0,0,.448.092q6.562,0,13.123,0c.038.175.143.233.324.263a3,3,0,0,1,2.232,2.636,3.065,3.065,0,0,1-.855,2.537,2.375,2.375,0,0,1-.74.537c-.178.071-.332.158-.343.379" transform="translate(-129.854 -122.006)" fill="#f3d55b"/>
        <path id="Trazado_819488" data-name="Trazado 819488" d="M212.542,129.852l15.609,0a3.987,3.987,0,0,1,2.16,2.116,2.884,2.884,0,0,1-.571,3.009,1.829,1.829,0,0,1-.9.732,4.849,4.849,0,0,1-2.478.333q-6.695.005-13.389.005c0-.7-.016-1.408,0-2.112a7.107,7.107,0,0,0-.243-2.121,6.882,6.882,0,0,1-.187-1.96" transform="translate(-140.224 -85.669)" fill="#f0c418"/>
        <path id="Trazado_819489" data-name="Trazado 819489" d="M222.116,173.175l-13.123,0a.791.791,0,0,1-.448-.092,4.425,4.425,0,0,1,.325-1.172,29.987,29.987,0,0,0,.879-3.235c.136-.564.142-1.136.247-1.7q5.844,0,11.687,0a3.339,3.339,0,0,1,.878.077,5.521,5.521,0,0,1,1.529,1.229,3.185,3.185,0,0,1-.529,4.208,4.552,4.552,0,0,1-1.445.677" transform="translate(-137.588 -110.167)" fill="#f0c418"/>
        <path id="Trazado_819490" data-name="Trazado 819490" d="M121.256,123.623v-.085c0-1.06-.016-1.023-.982-1.44a6.726,6.726,0,0,1-2.105-1.511,5.885,5.885,0,0,1-1.269-2,5.218,5.218,0,0,1-.383-2.526,1.509,1.509,0,0,1,2.808-.541,3.043,3.043,0,0,1,.391,1.284,3.005,3.005,0,0,0,1.315,2.079,2.916,2.916,0,0,0,2.57.449,2.885,2.885,0,0,0,1.995-1.666,3.1,3.1,0,0,0-1.98-4.337,2.457,2.457,0,0,0-.334-.043,9.077,9.077,0,0,1-3.377-.794,6.644,6.644,0,0,1-2.136-1.842,6.183,6.183,0,0,1-.321-7.091,6.086,6.086,0,0,1,3.017-2.548,1.075,1.075,0,0,0,.8-1.244,3.357,3.357,0,0,1,.053-1.137,1.477,1.477,0,0,1,1.683-1.2,1.535,1.535,0,0,1,1.311,1.49c.016.424.01.848.007,1.272a.585.585,0,0,0,.4.622,7.788,7.788,0,0,1,2.186,1.269,5.821,5.821,0,0,1,2.158,4.963,1.638,1.638,0,0,1-1.792,1.394,1.893,1.893,0,0,1-1.34-1.68,3.13,3.13,0,0,0-1.328-2.435,3.111,3.111,0,1,0-2.009,5.637,7.342,7.342,0,0,1,5,2.243,5.561,5.561,0,0,1,1.4,3.275,7.055,7.055,0,0,1-.251,2.611,5.448,5.448,0,0,1-1.963,3,5.813,5.813,0,0,1-2.2,1.206c-.239.059-.261.276-.264.477-.007.495,0,.989-.008,1.484a1.486,1.486,0,0,1-2.282,1.242c-.442-.327-.906-.691-.779-1.372a2.811,2.811,0,0,0,0-.508Z" transform="translate(-76.85 -64.276)" fill="#a56a43"/>
      </g>
    </g>
  </g>
</svg>
