<svg xmlns="http://www.w3.org/2000/svg" xmlns:xlink="http://www.w3.org/1999/xlink" width="129" height="128" viewBox="0 0 129 128">
  <defs>
    <clipPath id="clip-path">
      <rect id="Rectángulo_377803" data-name="Rectángulo 377803" width="98.993" height="57.6" fill="#590e00"/>
    </clipPath>
  </defs>
  <g id="Grupo_108927" data-name="Grupo 108927" transform="translate(-390 -4467)">
    <path id="Rectángulo_36179" data-name="Rectángulo 36179" d="M0,0H129V128H0Z" transform="translate(390 4467)" fill="#ecb062"/>
    <path id="Rectángulo_36181" data-name="Rectángulo 36181" d="M6.132,0H81.754a21.8,21.8,0,0,1,21.8,21.8v74.26a6.132,6.132,0,0,1-6.132,6.132H6.132A6.132,6.132,0,0,1,0,96.061V6.132A6.132,6.132,0,0,1,6.132,0Z" transform="translate(403 4480)" fill="#fff"/>
    <g id="Grupo_1072989" data-name="Grupo 1072989" transform="translate(404.563 4503.993)">
      <g id="Grupo_1072988" data-name="Grupo 1072988" clip-path="url(#clip-path)">
        <path id="Trazado_819534" data-name="Trazado 819534" d="M4.128,38.506H4.57q32,0,64,0c.3,0,.52.027.52-.414q-.022-16.933-.019-33.866c0-.434.122-1.039-.106-1.256s-.832-.1-1.271-.1q-15.039,0-30.079,0-10.821,0-21.642.007a8.369,8.369,0,0,1-.838-.04,1.4,1.4,0,0,1-1.342-1.593A1.375,1.375,0,0,1,15.282,0Q42.689,0,70.1,0A1.668,1.668,0,0,1,71.932,1.71c.055,1.116.04,2.236.043,3.354.006,2.075,0,4.15,0,6.226,0,.1.009.2.018.376.162,0,.316,0,.47,0,.808.021,1.622-.009,2.422.083a1.358,1.358,0,0,1,1.191,1.5,1.276,1.276,0,0,1-1.33,1.248c-.808.041-1.618.046-2.427.048-.263,0-.355.069-.355.35q.013,15.122.012,30.245c0,.13.011.26.021.477.628,0,1.241.015,1.852-.016.1,0,.224-.2.269-.337a9.8,9.8,0,0,1,3.523-4.846,9.262,9.262,0,0,1,5.469-1.87,9.5,9.5,0,0,1,6.444,2.479l.231.2c.433-.463.856-.892,1.245-1.35a.806.806,0,0,0,.121-.488c.005-1.486-.015-2.973,0-4.459a1.927,1.927,0,0,1,2.126-2.146c.838-.017,1.677.03,2.516.047.086,0,.173,0,.329,0V32.35c0-1.4-.028-2.8.011-4.194a6.218,6.218,0,0,0-.4-2.357c-1.042-2.855-2.045-5.725-3.068-8.587A3.656,3.656,0,0,0,88.8,14.5c-2.37,0-4.74.01-7.11.014a1.5,1.5,0,0,1-1.392-.593,1.382,1.382,0,0,1,.772-2.148,3.686,3.686,0,0,1,.917-.1c2.3-.007,4.594-.014,6.89,0a6.4,6.4,0,0,1,6.392,4.486c1.121,3.06,2.232,6.124,3.294,9.205a7.226,7.226,0,0,1,.376,2.244c.038,3.738.026,7.477.009,11.215,0,.672-.12,1.343-.171,2.016a2.844,2.844,0,0,0,.018.692,16.549,16.549,0,0,1,.061,4.745A2.382,2.382,0,0,1,96.511,48.4c-1.087.052-2.177.019-3.266.024H92.8c-.1.606-.15,1.194-.3,1.757a9.527,9.527,0,0,1-18.726-.893c-.12-.852-.125-.853-.986-.853-1.958,0-3.916,0-5.873.01a.471.471,0,0,0-.357.173c-.967,1.808-2.587,2.213-4.455,2.1-.058,0-.117,0-.217,0a1.575,1.575,0,0,1-.717,1.46,1.774,1.774,0,0,1-.869.241c-.806-.04-1.2-.559-1.315-1.709a11.446,11.446,0,0,1-1.689-.022,2.064,2.064,0,0,1-1.034-.5,1.157,1.157,0,0,1-.313-1.333,1.371,1.371,0,0,1,1.2-.976c.6-.04,1.2-.009,1.842-.009V41.426H57.354c-2.473,0-4.946.011-7.42,0-.3,0-.4.058-.4.384.016,1.985.008,3.969.008,5.975a11.6,11.6,0,0,1,1.179.08,1.439,1.439,0,0,1,1.159,1.882,1.371,1.371,0,0,1-1.254.95c-.349.029-.7.005-1.039.005-.354,1.3-.86,1.821-1.651,1.729s-1.234-.631-1.3-1.643c-.442-.022-.891-.036-1.339-.067a3.864,3.864,0,0,1-3.066-1.665.647.647,0,0,0-.621-.312c-.54.023-1.082.007-1.559.007-.669,4.421-2.995,7.413-7.323,8.519-4.37,1.116-7.727-.686-10.344-4.109-.453.528-.86,1.067-1.331,1.541A9.445,9.445,0,0,1,5.927,52.586a7.2,7.2,0,0,1-1-2.847c-.009-.1-.224-.244-.348-.248a18.281,18.281,0,0,0-1.854.007A2.548,2.548,0,0,1,.018,46.88q-.037-2.847,0-5.7A2.517,2.517,0,0,1,.875,39.22a.914.914,0,0,0,.314-.777q-.011-14.5-.011-29.009c0-2.208-.009-4.415.009-6.623a6.487,6.487,0,0,1,.167-1.57A1.614,1.614,0,0,1,3.022,0Q5.672,0,8.322,0a1.442,1.442,0,0,1,1.5,1.407A1.42,1.42,0,0,1,8.379,2.837c-1.294.038-2.59.032-3.885.045-.113,0-.227.013-.365.021ZM30.452,54.7a6.535,6.535,0,0,0,6.712-6.635,6.674,6.674,0,1,0-13.347.1A6.472,6.472,0,0,0,30.452,54.7m-16.225-.006a6.584,6.584,0,0,0,6.728-6.357A6.682,6.682,0,1,0,7.6,47.977a6.54,6.54,0,0,0,6.63,6.717m75.61-6.588a8.723,8.723,0,0,0-.18-1.832,6.444,6.444,0,0,0-5.539-4.784,6.661,6.661,0,1,0,.814,13.032A6.139,6.139,0,0,0,88.4,52.309a5.811,5.811,0,0,0,1.434-4.2M2.869,41.425V46.6H4.89a9.84,9.84,0,0,1,2.584-5.176Zm58.982.017v5.3c0,1.116,0,1.116,1.128,1.1.916-.013,1.106-.2,1.11-1.122.005-1.513,0-3.026,0-4.538,0-.244-.024-.488-.038-.738Zm-17.262-.022a.54.54,0,0,0-.045.139q0,2.866,0,5.732a.457.457,0,0,0,.489.506c.527.015,1.055,0,1.6,0v-6.38Zm-3.007,4.5c0-1.454,0-2.833,0-4.212,0-.256-.122-.275-.33-.276-1.013,0-2.027-.016-3.04-.026-.27,0-.54,0-.812,0,0,.049,0,.085.012.1a11.408,11.408,0,0,1,2.318,4.206.333.333,0,0,0,.239.2c.525.018,1.05.009,1.608.009m54.525-3.36c-1.016,0-1.985-.009-2.953.01-.129,0-.363.14-.366.22-.026.919-.016,1.839-.016,2.758h3.336ZM66.948,41.441c0,1.355,0,2.631.011,3.907a.358.358,0,0,0,.25.244c.528.017,1.058.012,1.585-.021a.4.4,0,0,0,.275-.271q.026-1.784,0-3.568c0-.1-.141-.274-.222-.277-.613-.023-1.227-.013-1.895-.013M96.1,39.7v-4H94.008c0,1.255.006,2.471,0,3.687,0,.266.115.32.346.316.571-.01,1.144,0,1.751,0m-72.49,1.83-.063-.12H21.114l1.258,1.659,1.239-1.538" transform="translate(0 0)" fill="#590e00"/>
        <path id="Trazado_819535" data-name="Trazado 819535" d="M219.037,49.248c1.9,0,3.8-.03,5.694.013a1.961,1.961,0,0,1,1.888,1.412q1.274,3.541,2.538,7.087a5.117,5.117,0,0,1,.171.638,1.774,1.774,0,0,1-1.946,2.193c-1.44-.193-2.867-.481-4.3-.731q-3.794-.663-7.588-1.332c-.882-.157-1.766-.312-2.636-.521a1.813,1.813,0,0,1-1.429-1.788c-.026-1.632-.025-3.266-.01-4.9a1.969,1.969,0,0,1,1.881-2.058c.921-.079,1.852-.05,2.778-.058.986-.008,1.972,0,2.958,0v.045M214.3,55.424,225.98,57.51a3.545,3.545,0,0,0-.1-.519c-.485-1.371-.969-2.742-1.474-4.1-.286-.772-.3-.752-1.13-.747-1.914.009-3.828,0-5.742.006-.957,0-1.914-.007-2.871.014-.124,0-.349.15-.351.235-.025,1-.016,2-.016,3.03" transform="translate(-136.515 -31.771)" fill="#590e00"/>
        <path id="Trazado_819536" data-name="Trazado 819536" d="M91.954,25.912a4.493,4.493,0,0,1-.874-.27,7.114,7.114,0,0,0-4.79-.716,8.776,8.776,0,0,0-2.041.661,1.709,1.709,0,0,1-2.549-.712c-.847-1.412-1.666-2.84-2.477-4.272a1.533,1.533,0,0,1,.588-2.179,26.115,26.115,0,0,1,3.226-1.4,13.1,13.1,0,0,1,3.987-.664,15.739,15.739,0,0,1,8.34,1.992,1.684,1.684,0,0,1,.653,2.186q-1.027,1.8-2.062,3.594c-.176.306-.357.609-.531.915a1.651,1.651,0,0,1-1.473.86m-9.7-5.67c.44.76.84,1.361,1.145,2.008.192.407.406.453.777.307a9,9,0,0,1,3.006-.609,10.757,10.757,0,0,1,4.065.638c.194.07.338.127.466-.122.288-.561.608-1.106.915-1.658s.305-.572-.3-.788a13.649,13.649,0,0,0-7.719-.508c-.777.173-1.527.47-2.355.731" transform="translate(-51.01 -10.559)" fill="#590e00"/>
        <path id="Trazado_819537" data-name="Trazado 819537" d="M62.473,57.266c.838,0,1.677-.029,2.514.007a1.617,1.617,0,0,1,1.671,1.642,8.33,8.33,0,0,0,.89,3.333,7.633,7.633,0,0,0,2.382,2.615,5.259,5.259,0,0,1,.656.519,1.362,1.362,0,0,1,.3,1.766c-.868,1.55-1.746,3.1-2.667,4.615a1.624,1.624,0,0,1-2.348.512A15.838,15.838,0,0,1,58.39,61.244a14.335,14.335,0,0,1-.185-2.107,1.635,1.635,0,0,1,1.754-1.862c.837-.031,1.676-.006,2.515-.006v0m-1.382,2.891c.179.822.3,1.585.513,2.323a12.5,12.5,0,0,0,4.5,6.575c.271.21.386.145.531-.122a15.685,15.685,0,0,1,.938-1.593.5.5,0,0,0-.092-.8,9.383,9.383,0,0,1-2.451-3.087c-.418-.931-.685-1.929-1.042-2.888-.059-.158-.23-.383-.358-.389-.79-.036-1.581-.018-2.539-.018" transform="translate(-37.584 -36.972)" fill="#590e00"/>
        <path id="Trazado_819538" data-name="Trazado 819538" d="M120.761,57.225c.766,0,1.533.032,2.3-.007a1.929,1.929,0,0,1,2.031,2.246,16.249,16.249,0,0,1-7.625,12.726,1.67,1.67,0,0,1-2.581-.62c-.762-1.291-1.513-2.589-2.264-3.887a1.892,1.892,0,0,1-.394-1.575,2.047,2.047,0,0,1,.716-1,7.8,7.8,0,0,0,3.664-6.4,1.517,1.517,0,0,1,1.507-1.442c.881-.041,1.766-.009,2.649-.009v-.029m1.434,2.9c-1.013,0-1.889-.012-2.765.018-.089,0-.207.241-.247.387-.122.451-.171.925-.323,1.364a10.432,10.432,0,0,1-3.264,4.722.438.438,0,0,0-.1.4c.348.646.739,1.267,1.094,1.909.152.276.275.319.534.112a12.893,12.893,0,0,0,4.313-5.994c.314-.92.495-1.886.76-2.923" transform="translate(-72.427 -36.946)" fill="#590e00"/>
        <path id="Trazado_819539" data-name="Trazado 819539" d="M98.691,51.274a5.413,5.413,0,0,1-5.471,5.483,5.5,5.5,0,1,1-.028-11,5.431,5.431,0,0,1,5.5,5.514m-8.132.021a2.652,2.652,0,0,0,2.659,2.645,2.563,2.563,0,0,0,2.659-2.58,2.658,2.658,0,0,0-2.668-2.776,2.732,2.732,0,0,0-2.65,2.711" transform="translate(-56.628 -29.549)" fill="#590e00"/>
        <path id="Trazado_819540" data-name="Trazado 819540" d="M217.259,84.479c-.436-.086-1.253-.249-2.07-.408-.531-.1-1.074-.164-1.593-.312a1.389,1.389,0,0,1-1.079-1.5,1.413,1.413,0,0,1,1.583-1.212c.886.1,1.76.307,2.641.463.476.084.965.118,1.43.244a1.441,1.441,0,0,1,.789,2.405c-.283.31-.5.368-1.7.324" transform="translate(-137.22 -52.326)" fill="#590e00"/>
        <path id="Trazado_819541" data-name="Trazado 819541" d="M72.846,127.234a4.7,4.7,0,1,1,4.683,4.707,4.723,4.723,0,0,1-4.683-4.707m4.685,1.866a1.735,1.735,0,0,0,1.819-1.829A1.786,1.786,0,0,0,77.6,125.4a1.9,1.9,0,0,0-1.9,1.863,1.791,1.791,0,0,0,1.838,1.839" transform="translate(-47.04 -79.18)" fill="#590e00"/>
        <path id="Trazado_819542" data-name="Trazado 819542" d="M31.7,122.612a4.706,4.706,0,0,1,4.709,4.581,4.719,4.719,0,0,1-9.437.12,4.714,4.714,0,0,1,4.729-4.7m1.813,4.664a1.83,1.83,0,0,0-1.832-1.9,1.907,1.907,0,0,0-1.844,1.874,1.823,1.823,0,0,0,1.843,1.842,1.749,1.749,0,0,0,1.832-1.818" transform="translate(-17.419 -79.175)" fill="#590e00"/>
        <path id="Trazado_819543" data-name="Trazado 819543" d="M221.675,127.22a4.709,4.709,0,0,1,4.369-4.635,4.664,4.664,0,1,1-4.369,4.635m4.722,1.852a1.891,1.891,0,0,0,1.876-1.84,2.03,2.03,0,0,0-1.88-1.882,2.092,2.092,0,0,0-1.949,1.886,1.979,1.979,0,0,0,1.953,1.836" transform="translate(-143.142 -79.151)" fill="#590e00"/>
      </g>
    </g>
  </g>
</svg>
