<svg xmlns="http://www.w3.org/2000/svg" xmlns:xlink="http://www.w3.org/1999/xlink" width="129" height="128" viewBox="0 0 129 128">
  <defs>
    <clipPath id="clip-path">
      <rect id="Rectángulo_377802" data-name="Rectángulo 377802" width="87" height="86.716" fill="#590e00"/>
    </clipPath>
  </defs>
  <g id="Grupo_108927" data-name="Grupo 108927" transform="translate(-390 -4467)">
    <path id="Rectángulo_36179" data-name="Rectángulo 36179" d="M0,0H129V128H0Z" transform="translate(390 4467)" fill="#ecb062"/>
    <path id="Rectángulo_36181" data-name="Rectángulo 36181" d="M6.132,0H81.754a21.8,21.8,0,0,1,21.8,21.8v74.26a6.132,6.132,0,0,1-6.132,6.132H6.132A6.132,6.132,0,0,1,0,96.061V6.132A6.132,6.132,0,0,1,6.132,0Z" transform="translate(402.944 4479.944)" fill="#fff"/>
    <g id="Grupo_1072987" data-name="Grupo 1072987" transform="translate(410 4487.879)">
      <g id="Grupo_1072986" data-name="Grupo 1072986" clip-path="url(#clip-path)">
        <path id="Trazado_819526" data-name="Trazado 819526" d="M132.594,88.589c0-1-.312-1.378-1.313-1.478-.252-.025-.506-.044-.758-.044q-15.978,0-31.957,0c-.443,0-.89.027-1.329.043a1.18,1.18,0,0,0-1,1.275q0,7.329,0,14.657a9.536,9.536,0,0,0,.073,1.749,22.124,22.124,0,0,0,.815,3.406,19.714,19.714,0,0,0,3.529,6.081,16.9,16.9,0,0,0,5.852,4.444c.632.275,1.247.6,1.9.813a16.644,16.644,0,0,0,4.184.911c.291.018.384.11.383.405q-.012,8.048,0,16.1c0,.335-.094.421-.428.419-3.016-.017-6.032-.013-9.048-.02a3.03,3.03,0,0,0-.927.166,1.557,1.557,0,0,0-.807,1.316,1.394,1.394,0,0,0,1.406,1.258q11.29-.018,22.581,0a1.163,1.163,0,0,0,1.1-.727,1.291,1.291,0,0,0-.052-1.327,1.471,1.471,0,0,0-1.392-.673q-4.5-.008-9.008,0c-.551,0-.551.008-.551-.548q0-7.587,0-15.174c0-.254.02-.509-.005-.76-.029-.295.1-.367.363-.348a3.2,3.2,0,0,0,.8-.012,20.206,20.206,0,0,0,5.135-1.6,15.525,15.525,0,0,0,2.1-1.145,10.458,10.458,0,0,0,1.167-.872c.314-.288.726-.5,1.053-.792a18.91,18.91,0,0,0,3.284-3.781,19.326,19.326,0,0,0,1.86-3.618,1.42,1.42,0,0,0-.755-1.871,1.318,1.318,0,0,0-1.78.7c-.16.29-.274.606-.406.912a13.792,13.792,0,0,1-2.082,3.488,18.915,18.915,0,0,1-4.038,3.584,15.73,15.73,0,0,1-3.093,1.461,12.371,12.371,0,0,1-3.7.747,15.869,15.869,0,0,1-7.827-1.365,15.594,15.594,0,0,1-4.472-3.112,16.417,16.417,0,0,1-3.4-5.135,1.439,1.439,0,0,1-.2-.54,13.742,13.742,0,0,1-.882-4.279c-.079-4.216-.026-8.435-.025-12.653a1.852,1.852,0,0,0,0-.28c-.091-.579-.093-.58.466-.58l15.057,0c.471,0,.514.067.326.494-.027.061-.059.12-.089.179-.528,1.054-1.064,2.1-1.581,3.163a1.425,1.425,0,0,0,.9,1.916,2.416,2.416,0,0,0,.724.018c1.175-.011,2.35,0,3.524-.01.3,0,.385.085.381.388-.017,1.254.009,2.51-.01,3.764a1.332,1.332,0,0,0,.766,1.294c.544.293,1.073.618,1.632.881a21.4,21.4,0,0,0,2.96,1.386c.166.049.173.182.173.32,0,.427.015.855,0,1.282a1.993,1.993,0,0,0,.315,1.171,1.618,1.618,0,0,0,1.375.646,1.462,1.462,0,0,0,1.118-1.214,16.337,16.337,0,0,0,.056-2.907,1.375,1.375,0,0,0-.877-1.35c-.295-.117-.589-.271-.878-.419-1.091-.562-2.176-1.136-3.279-1.673-.642-.313-.646-.285-.641-1,.009-1.375,0-2.75.013-4.125a1.171,1.171,0,0,0-.626-1.083,1.844,1.844,0,0,0-.961-.23q-1.342,0-2.683,0c-.426,0-.482-.087-.279-.447a11.155,11.155,0,0,0,1.025-1.853c.2-.589.549-.585.994-.585q5.286,0,10.572,0c.345,0,.453.089.452.45-.012,3.951-.007,7.9,0,11.854a3.252,3.252,0,0,0,.049.8c.121.483.921,1.094,1.362.989a1.442,1.442,0,0,0,1.311-1.5c-.02-2.323,0-4.645,0-6.968,0-2.27.007-4.539,0-6.808" transform="translate(-65.307 -59.084)" fill="#590e00"/>
        <path id="Trazado_819527" data-name="Trazado 819527" d="M126.8,147.975a2.124,2.124,0,0,1-.319,0,12.189,12.189,0,0,1-4.437-1.4,10.96,10.96,0,0,1-3.744-3.693,16,16,0,0,1-1.094-2.524,1.194,1.194,0,0,0-1.406-.787c-.738.1-1.443.959-1.24,1.541a20.245,20.245,0,0,0,.99,2.606A13.148,13.148,0,0,0,120,148.773a10.8,10.8,0,0,0,2.8,1.347,8.418,8.418,0,0,0,3.212.587c.451,0,.8,0,1.144,0a.706.706,0,0,0,.486-.148,1.71,1.71,0,0,0,.552-1.6,1.376,1.376,0,0,0-1.39-.988" transform="translate(-77.718 -94.703)" fill="#590e00"/>
        <path id="Trazado_819528" data-name="Trazado 819528" d="M86.993,57.957q0-3.9-.014-7.8c0-.227.011-.453.011-.68q0-18.3.011-36.6a1.631,1.631,0,0,0-.555-1.347c-.679-.578-1.276-1.237-1.9-1.876-1.316-1.357-2.667-2.68-4.009-4.012q-2.6-2.581-5.206-5.155A1.544,1.544,0,0,0,74.19,0c-1.749.013-3.5.013-5.246.025a2.3,2.3,0,0,0-.592.08A1.463,1.463,0,0,0,67.325,1.7a1.449,1.449,0,0,0,1.623,1.126c1.375,0,2.75.013,4.125-.006a1.431,1.431,0,0,1,1.085.44q2.15,2.141,4.292,4.291,1.614,1.612,3.231,3.221c.1.1.323.132.249.311-.066.157-.264.067-.4.067q-11.514.007-23.027.009a1.2,1.2,0,0,1-.918-.389c-.5-.514-.981-1.048-1.479-1.563-1.08-1.116-2.2-2.2-3.3-3.287-.948-.933-1.839-1.925-2.858-2.786-.071-.06-.113-.117-.1-.194.016-.095.1-.108.188-.109q.24,0,.48,0,6.087,0,12.174,0A2.817,2.817,0,0,0,63.4,2.75a1.261,1.261,0,0,0,.928-1.4A1.21,1.21,0,0,0,63.281.088,5.264,5.264,0,0,0,62.214.009Q39.568,0,16.923,0,9.315,0,1.706.019a2.018,2.018,0,0,0-.931.2A1.507,1.507,0,0,0,.018,1.7Q0,5.705.011,9.71a1.586,1.586,0,0,0,1.7,1.441.437.437,0,0,0,.152-.038,1.717,1.717,0,0,0,.961-1.645c-.031-1.374-.01-2.75-.006-4.125a.676.676,0,0,1,.059-.436,3.248,3.248,0,0,1,.745.712c2.437,2.412,4.865,4.834,7.307,7.242a.976.976,0,0,1,.3.774q-.016,11.773-.017,23.547,0,4.485.012,8.97c-.006.173-.017.346-.017.519q.01,16.353.021,32.706c0,.327,0,.654,0,.992a.4.4,0,0,1-.306-.241c-.579-.871-1.15-1.747-1.728-2.619q-.962-1.45-1.931-2.9Q5.2,71.541,3.141,68.47A1.831,1.831,0,0,1,2.8,67.407q.022-8.587.01-17.174c0-.16-.009-.319-.013-.479,0-1.2.01-2.4.01-3.6q0-15.372,0-30.743A2.116,2.116,0,0,0,2.6,14.3a1.477,1.477,0,0,0-2.374.152,3.03,3.03,0,0,0-.222,1.359Q0,28.618,0,41.427q0,3.642.011,7.285A.944.944,0,0,0,0,48.831Q.009,58.44.02,68.05A2.343,2.343,0,0,0,.371,69.3c.614.994,1.178,2.018,1.867,2.968.725,1,1.388,2.045,2.078,3.071.508.756,1.029,1.5,1.517,2.272.53.834,1.089,1.647,1.589,2.5.257.442.646.842.937,1.283.372.562.7,1.176,1.106,1.692.584.742,1.1,1.533,1.61,2.311A2.449,2.449,0,0,0,13.3,86.716q33.974-.023,67.949-.011c1.375,0,2.75.015,4.124,0a1.491,1.491,0,0,0,1.618-1.629c.008-.827,0-1.655,0-2.482,0-.974.012-1.949-.008-2.923a1.378,1.378,0,0,0-1.254-1.379,1.336,1.336,0,0,0-1.437.782,6.9,6.9,0,0,0-.142,2.173c.01.82,0,1.645.033,2.468.005.128-.051.274-.2.212a3.857,3.857,0,0,0-1.559-.055q-33.975,0-67.949,0h-.509a1.138,1.138,0,0,0,.061-.528q0-17.958,0-35.917c0-.16-.009-.32-.013-.479s.01-.32.01-.48q0-16,0-31.993c0-.371.1-.453.459-.452q12.213.016,24.425,0c.34,0,.445.063.443.429-.017,3.056,0,6.113-.018,9.169a1.5,1.5,0,0,0,.97,1.527,1.241,1.241,0,0,0,1.423-.389c.484-.458.946-.94,1.42-1.41.358-.356.37-.337.731-.011a16.659,16.659,0,0,0,1.744,1.587,1.1,1.1,0,0,0,1.616-.087c.052-.042.1-.09.146-.137.5-.482,1.006-.955,1.488-1.453.191-.2.308-.171.487,0,.5.479,1.011.938,1.512,1.411a2.706,2.706,0,0,0,.846.521.665.665,0,0,0,.647-.007,6.157,6.157,0,0,0,.993-.8c.35-.385.728-.744,1.089-1.118.192-.2.354-.227.568-.007.427.44.876.859,1.321,1.281a2.5,2.5,0,0,0,.862.569A1.313,1.313,0,0,0,58.8,24.3a4.607,4.607,0,0,0,.085-.905c-.006-2.963.005-5.926-.013-8.889,0-.391.1-.475.48-.475q12.173.019,24.345,0c.389,0,.5.072.5.49q-.018,17.658-.007,35.316c0,.187.006.373.01.56a.557.557,0,0,0-.011.079q0,7.6,0,15.208a1.376,1.376,0,0,0,1.188,1.437,1.027,1.027,0,0,0,.758-.081A1.691,1.691,0,0,0,87,65.4c-.009-2.481,0-4.962,0-7.444M37.059,11.083c-.078.169-.388.064-.593.064q-11.328.006-22.657.013a1.356,1.356,0,0,1-1.053-.439C11.365,9.311,9.974,7.9,8.55,6.523,7.967,5.96,7.376,5.4,6.8,4.832A19.816,19.816,0,0,0,5.065,3.076c-.133-.1-.1-.218.076-.242a2.856,2.856,0,0,1,.4-.01H16.989q5.684,0,11.369,0a.99.99,0,0,1,.825.294c2.484,2.525,5.005,5.012,7.5,7.522.138.138.479.21.371.443m18.949,9.156c-.121.054-.217-.067-.314-.132a1.5,1.5,0,0,0-2.235.231c-.418.429-.849.846-1.259,1.283-.19.2-.318.21-.515,0-.475-.505-.987-.976-1.46-1.483a1.387,1.387,0,0,0-2.085-.076c-.51.489-1.029.971-1.527,1.472-.243.244-.419.238-.653-.014-.412-.444-.858-.856-1.278-1.294A1.385,1.385,0,0,0,42.74,20c-.094.049-.181.112-.27.171s-.18.15-.287.078c-.087-.058-.039-.173-.039-.261q0-2.7,0-5.4c0-.533-.009-1.068,0-1.6a2.06,2.06,0,0,0-.66-1.563q-3.105-3.092-6.2-6.191c-.738-.736-1.482-1.467-2.221-2.2a1.483,1.483,0,0,1-.129-.206h.748c3.8,0,7.605,0,11.408-.007a1.24,1.24,0,0,1,.957.384q4.372,4.369,8.76,8.722a7.643,7.643,0,0,0,.725.686,1.48,1.48,0,0,1,.565,1.348c-.032,1.974,0,3.949,0,5.923,0,.125.071.291-.084.36" transform="translate(0 -0.001)" fill="#590e00"/>
        <path id="Trazado_819529" data-name="Trazado 819529" d="M64.969,228.974a1.446,1.446,0,1,0-.132-2.88q-5.362,0-10.724,0a2.782,2.782,0,0,0-.709.1,1.414,1.414,0,0,0-.88,1.877,1.67,1.67,0,0,0,1.481.909q2.7,0,5.4,0c1.854,0,3.708.005,5.562,0" transform="translate(-35.558 -153.43)" fill="#590e00"/>
        <path id="Trazado_819530" data-name="Trazado 819530" d="M228.275,52.592a1.045,1.045,0,0,0-.679.184,1.44,1.44,0,0,0-.442,1.626,1.168,1.168,0,0,0,1.173.851q1.9.023,3.8,0c.344,0,.471.12.476.466a3.45,3.45,0,0,0,.151,1.492,1.4,1.4,0,0,0,1.566.833,1.229,1.229,0,0,0,1.062-1.223c.032-1.027.037-2.056,0-3.082a1.134,1.134,0,0,0-1.261-1.147c-.961-.007-1.922,0-2.883,0v0h-2.963" transform="translate(-154.098 -35.69)" fill="#590e00"/>
        <path id="Trazado_819531" data-name="Trazado 819531" d="M55.633,243.5c-.6,0-1.2-.016-1.8.028a1.285,1.285,0,0,0-1.236,1.5,1.216,1.216,0,0,0,1.328,1.207q1.419,0,2.838,0c.986,0,1.972-.006,2.958,0a1.1,1.1,0,0,0,.993-.559,1.375,1.375,0,0,0-1.206-2.167c-1.292-.024-2.585-.013-3.877-.013" transform="translate(-35.691 -165.243)" fill="#590e00"/>
        <path id="Trazado_819532" data-name="Trazado 819532" d="M264.756,217.634c-.005-1.13-.41-1.495-1.525-1.546a1.106,1.106,0,0,0-1.265,1.163q-.039,1.821,0,3.643a1.515,1.515,0,0,0,1.485,1.28,1.5,1.5,0,0,0,1.3-1.5c.014-.547,0-1.095,0-1.642h0c0-.467,0-.934,0-1.4" transform="translate(-177.763 -146.641)" fill="#590e00"/>
        <path id="Trazado_819533" data-name="Trazado 819533" d="M244.554,83.571a1.519,1.519,0,0,0,2.29-.1,1.885,1.885,0,0,0,.2-.876c.024-.825.034-1.653,0-2.477a1.687,1.687,0,0,0-.257-1.054,1.409,1.409,0,0,0-1.51-.451,1.21,1.21,0,0,0-.95,1.011,6.74,6.74,0,0,0-.073,1.514c0,.623.006,1.05,0,1.476a1.586,1.586,0,0,0,.3.961" transform="translate(-165.748 -53.313)" fill="#590e00"/>
      </g>
    </g>
  </g>
</svg>
