<svg xmlns="http://www.w3.org/2000/svg" xmlns:xlink="http://www.w3.org/1999/xlink" width="129" height="128" viewBox="0 0 129 128">
  <defs>
    <clipPath id="clip-path">
      <rect id="Rectángulo_377804" data-name="Rectángulo 377804" width="98.545" height="52.462" fill="#590e00"/>
    </clipPath>
  </defs>
  <g id="Grupo_108927" data-name="Grupo 108927" transform="translate(-390 -4467)">
    <path id="Rectángulo_36179" data-name="Rectángulo 36179" d="M0,0H129V128H0Z" transform="translate(390 4467)" fill="#ecb062"/>
    <path id="Rectángulo_36181" data-name="Rectángulo 36181" d="M6.132,0H81.754a21.8,21.8,0,0,1,21.8,21.8v74.26a6.132,6.132,0,0,1-6.132,6.132H6.132A6.132,6.132,0,0,1,0,96.061V6.132A6.132,6.132,0,0,1,6.132,0Z" transform="translate(402.944 4479.944)" fill="#fff"/>
    <g id="Grupo_1072991" data-name="Grupo 1072991" transform="translate(405.955 4504.769)">
      <g id="Grupo_1072990" data-name="Grupo 1072990" clip-path="url(#clip-path)">
        <path id="Trazado_819544" data-name="Trazado 819544" d="M28.193,49.078l.41.493a7.281,7.281,0,0,0,6.48,2.861,7.412,7.412,0,0,0,6.726-5.339c.073-.2.129-.341.408-.34q9.02.031,18.04.037,6.028,0,12.056-.012c.26,0,.413.025.491.341a7.554,7.554,0,0,0,14.429.059c.115-.344.282-.422.63-.418,2.669.024,5.338.02,8.007.032.282,0,.381-.089.377-.382-.018-1.435,0-2.87-.026-4.3,0-.3.088-.384.371-.378.641.014,1.283,0,1.953,0V31.658h-3.14v-.493c0-3.3.008-6.59-.011-9.885a2.972,2.972,0,0,0-.248-1.138c-1.76-4.049-3.545-8.087-5.307-12.134a.492.492,0,0,0-.535-.335c-.689,0-1.379,0-2.068,0Q76.7,7.679,66.16,7.688c-.322,0-.643.029-1.011.048V14.17c-.192-.1-.318-.157-.439-.226a6.065,6.065,0,0,0-6.5-.006.934.934,0,0,1-1.115-.024Q49.568,9.294,42.025,4.7c-1.887-1.152-3.767-2.317-5.667-3.448A2.478,2.478,0,0,0,35.251.91C32.189.773,29.126.667,26.063.561Q19.336.327,12.609.109C11.187.062,9.764.059,8.343,0a.717.717,0,0,0-.812.594C6.93,2.364,6.3,4.122,5.673,5.883A2.806,2.806,0,0,1,5.5,6.2V3.887H2.477V1.279c-.786,0-1.528-.006-2.271.011-.067,0-.157.136-.189.226a.939.939,0,0,0-.008.3q0,8.963-.009,17.926a1.093,1.093,0,0,0,.513,1.022c.808.556,1.573,1.175,2.375,1.741a.743.743,0,0,1,.323.7c-.016,2.3-.02,4.6-.026,6.9a.591.591,0,0,0,.046.128h.451c3.007,0,6.014.018,9.02-.014a2.219,2.219,0,0,1,1.487.728c.086.071.1.267.1.4,0,4.511-.039,9.022,0,13.532a7.594,7.594,0,0,0,6.806,7.518,7.474,7.474,0,0,0,6.919-3.09c.051-.066.1-.132.187-.239M42.22,30.45l-14.691-1.94,6.83-19.437c-.569-.2-1.075-.378-1.586-.543-.722-.234-.723-.229-.99.473-.01.027-.016.057-.025.084q-1.051,3-2.1,6c-.88,2.524-1.752,5.05-2.635,7.573-.567,1.622-1.147,3.239-1.743,4.917-.177-.108-.3-.172-.415-.255Q17.241,21.7,9.619,16.079c-.938-.691-.946-.69-.57-1.763,1.358-3.884,2.72-7.766,4.089-11.673L33.819,3.3c-.333.946-.634,1.828-.955,2.7-.1.284-.041.426.248.519.609.2,1.211.416,1.889.652.277-.766.569-1.525.824-2.3.318-.961.3-.965,1.2-.42Q40.529,6.6,44.034,8.738c1.462.893,2.918,1.8,4.386,2.678.291.175.39.356.248.675s-.265.649-.381.979q-1.168,3.328-2.329,6.658c-.493,1.406-.987,2.812-1.493,4.214-.123.339-.079.546.3.663.6.186,1.183.4,1.838.63l4.349-12.349c.247.3.744.291.545.853q-2.395,6.73-4.754,13.472-.567,1.611-1.121,3.228c-.116.34-.313.553-.682.415s-.163-.416-.09-.63c.26-.76.546-1.511.8-2.275.038-.117-.03-.376-.11-.406-.6-.223-1.219-.4-1.826-.6-.222-.075-.323-.009-.392.2-.357,1.094-.721,2.186-1.094,3.313M67.618,10.2h.555q9.809,0,19.618-.014a.474.474,0,0,1,.505.358c1.446,3.307,2.913,6.606,4.348,9.918a3.408,3.408,0,0,1,.269,1.315c.008,4.772-.013,9.545-.014,14.317,0,.332-.1.413-.427.412-1.744-.007-3.489.026-5.233.012a1.228,1.228,0,0,1-.743-.29q-3.248-2.894-6.457-5.833a1.759,1.759,0,0,0-1.3-.5c-3.328.014-6.657.012-9.985.014H67.626V14.054h9.1V11.6H67.618ZM60.611,35.824H52.626a11.1,11.1,0,0,1,.416-4.013c.8-2.038,1.477-4.126,2.205-6.194l1.093-3.1c.2.222.331.373.466.521a5.708,5.708,0,0,0,3.176,1.915c.658.123.662.1.661.763q0,4.876-.007,9.753c0,.113-.016.226-.025.354M26.059,34.109c0-.544.011-1.026-.007-1.506a.531.531,0,0,0-.154-.368c-.981-.741-1.979-1.46-2.964-2.2q-6.284-4.695-12.564-9.4c-1.479-1.105-2.963-2.2-4.443-3.3A.871.871,0,0,1,5.6,16.125c.1.065.2.124.29.192q2.088,1.537,4.174,3.076,7.427,5.478,14.861,10.945a2.518,2.518,0,0,0,1.077.43c1.924.289,3.853.547,5.782.8,1.6.206,3.2.37,4.794.578,1.946.253,3.887.535,5.832.8,1.623.219,3.249.428,4.873.642.841.111,1.682.216,2.52.347.128.02.333.158.339.251.032.547.016,1.1.016,1.647H42.236V34.109Zm41.555-1.69a.711.711,0,0,1,.133-.038q5.119-.006,10.239,0a1.262,1.262,0,0,1,.718.127c.6.472,1.16,1,1.735,1.512a1.606,1.606,0,0,1-.678.1A10.989,10.989,0,0,0,74.013,35.6a10.6,10.6,0,0,0-3.935,4.1c-.08.143-.213.356-.33.362-.709.034-1.421.017-2.134.017ZM2.475,6.384c.415-.116.575-.032.57.395-.024,2.21-.023,4.42-.028,6.63q0,2.108,0,4.216a.881.881,0,0,0,.341.8q2.9,2.134,5.784,4.3,7.076,5.283,14.153,10.564a.643.643,0,0,1,.261.789H16.781c0-1.242-.01-2.454.006-3.666a.883.883,0,0,0-.432-.88c-.35-.21-.659-.487-.988-.732q-6.2-4.614-12.417-9.218a1.047,1.047,0,0,1-.487-.967c.018-3.908.011-7.817.011-11.725V6.384m51.245,8.268c.712.436,1.317.819,1.935,1.177a.467.467,0,0,1,.242.672c-.651,1.783-1.275,3.577-1.905,5.368q-1.019,2.893-2.032,5.788-.678,1.937-1.348,3.874l-2.7-.318,5.81-16.561m7.771.8a3.628,3.628,0,0,1,3.655,3.61,3.7,3.7,0,0,1-7.406.043,3.661,3.661,0,0,1,3.75-3.653m3.622,24.593H42.274v-1.7H65.112ZM39.74,39.378c-4.33-2.97-8.162-2.535-11.557,1.424a7.746,7.746,0,0,0-5.334-3.268,7.652,7.652,0,0,0-6.023,1.841V36.632h.4q6.837-.007,13.674-.015c2.843,0,5.685-.02,8.528-.016.1,0,.3.15.3.234.023.828.014,1.657.014,2.543M29.5,45a5.092,5.092,0,1,1,10.185.057A5.093,5.093,0,0,1,29.5,45m-12.732.033a5.115,5.115,0,1,1,5.084,5,5.023,5.023,0,0,1-5.084-5M74.988,45a4.827,4.827,0,0,1,5.063-5.073,4.909,4.909,0,0,1,5.091,5.045,5.02,5.02,0,0,1-5.13,5.08c-2.686.048-5.337-2.422-5.024-5.053m-3.905-.718a22.947,22.947,0,0,1,.853-2.817,7.546,7.546,0,0,1,6.142-4.735,41.32,41.32,0,0,1,5.007-.123.933.933,0,0,1,.528.272c.662.578,1.294,1.192,1.968,1.755a1.346,1.346,0,0,0,.77.318c1.979.03,3.959.022,5.939.027.185,0,.37.017.6.028-.016.356-.029.667-.045,1.02-2.125,0-4.192-.024-6.258.015a1.971,1.971,0,0,1-1.525-.579,7.054,7.054,0,0,0-6.288-1.869,7.312,7.312,0,0,0-5.968,5.2c-.166.478-.251.983-.378,1.491ZM65.118,35.83H63.175a.437.437,0,0,1-.042-.11q-.015-5.243-.024-10.485c0-.089.036-.227.1-.259.626-.327,1.262-.637,1.911-.959ZM42.264,42.565h7.643v1.7H42.264ZM6.615,13.822a4.1,4.1,0,0,1-.682-.476.564.564,0,0,1-.121-.471Q7.5,7.994,9.229,3.126a2.23,2.23,0,0,1,.176-.4.919.919,0,0,1,1-.2c.327.176.063.42,0,.6q-1.478,4.26-2.985,8.508c-.246.7-.509,1.39-.8,2.19M69.051,42.566c-.1.467-.2.9-.267,1.346-.045.314-.186.394-.493.392-1.815-.015-3.63-.007-5.445-.007H61.814c0-.468.019-.9-.007-1.333-.019-.308.076-.408.39-.407,2.151,0,4.3-.009,6.455-.014.114,0,.229.013.4.024m-16.578-.012c2.219,0,4.4,0,6.578.01a.333.333,0,0,1,.235.225c.023.489.011.981.011,1.477H52.473ZM93.7,44.3c-2.012,0-3.96,0-5.908,0-.075,0-.2-.045-.215-.092-.13-.537-.241-1.078-.365-1.653,2.145,0,4.152,0,6.159.011.11,0,.309.148.314.237.031.477.015.958.015,1.5M5.749,27.762V24.648l4.186,3.114ZM95.4,34.127h.707v1.408c0,1.125,0,2.25,0,3.374,0,.244-.084.392-.352.393-.215,0-.361-.042-.36-.313.008-1.605,0-3.21,0-4.863" transform="translate(0 0)" fill="#590e00"/>
        <path id="Trazado_819545" data-name="Trazado 819545" d="M21.582,44.815H33.6a13.24,13.24,0,0,1,.011-1.683c.223-1.717-.681-3.1-1.3-4.569-.756-1.8-1.548-3.6-2.341-5.384a.555.555,0,0,0-.4-.289c-2.624-.016-5.247-.01-7.87-.007a.689.689,0,0,0-.126.034Zm2.493-2.464V35.34c1.345,0,2.662-.006,3.978.012a.48.48,0,0,1,.321.265q1.336,3.026,2.647,6.064c.089.206.148.424.233.671Z" transform="translate(57.278 -21.268)" fill="#590e00"/>
        <path id="Trazado_819546" data-name="Trazado 819546" d="M45.55,69.63H40.044v2.449a1.61,1.61,0,0,0,.237.034c1.612,0,3.223-.009,4.835.008.351,0,.456-.1.442-.448-.026-.655-.007-1.313-.007-2.043" transform="translate(38.845 -45.04)" fill="#590e00"/>
        <path id="Trazado_819547" data-name="Trazado 819547" d="M173.557,115.729a4.088,4.088,0,1,0,4.218,4.074,4.152,4.152,0,0,0-4.218-4.074m-1.539,4.15a1.6,1.6,0,0,1,1.623-1.69,1.634,1.634,0,1,1,.057,3.263,1.549,1.549,0,0,1-1.679-1.573" transform="translate(-139.102 -74.859)" fill="#590e00"/>
        <path id="Trazado_819548" data-name="Trazado 819548" d="M209.631,123.9a4.061,4.061,0,0,0,4.087-4.074,4.133,4.133,0,0,0-4.2-4.089,4.214,4.214,0,0,0-4.078,4.038,4.12,4.12,0,0,0,4.186,4.126m-.057-2.441a1.629,1.629,0,0,1-1.659-1.616A1.66,1.66,0,0,1,209.6,118.2a1.635,1.635,0,1,1-.026,3.265" transform="translate(-187.725 -74.866)" fill="#590e00"/>
        <path id="Trazado_819549" data-name="Trazado 819549" d="M44.867,115.732a4.2,4.2,0,0,0-4.051,4.058,4.129,4.129,0,0,0,8.257.036,4.21,4.21,0,0,0-4.206-4.094m.074,2.461a1.632,1.632,0,1,1,.01,3.261,1.549,1.549,0,0,1-1.655-1.642,1.577,1.577,0,0,1,1.646-1.619" transform="translate(35.059 -74.861)" fill="#590e00"/>
      </g>
    </g>
  </g>
</svg>
