<svg xmlns="http://www.w3.org/2000/svg" xmlns:xlink="http://www.w3.org/1999/xlink" width="129" height="128" viewBox="0 0 129 128">
  <defs>
    <clipPath id="clip-path">
      <rect id="Rectángulo_377801" data-name="Rectángulo 377801" width="87" height="86.607" fill="#590e00"/>
    </clipPath>
  </defs>
  <g id="Grupo_108927" data-name="Grupo 108927" transform="translate(-390 -4467)">
    <path id="Rectángulo_36179" data-name="Rectángulo 36179" d="M0,0H129V128H0Z" transform="translate(390 4467)" fill="#ecb062"/>
    <path id="Rectángulo_36181" data-name="Rectángulo 36181" d="M6.132,0H81.754a21.8,21.8,0,0,1,21.8,21.8v74.26a6.132,6.132,0,0,1-6.132,6.132H6.132A6.132,6.132,0,0,1,0,96.061V6.132A6.132,6.132,0,0,1,6.132,0Z" transform="translate(403 4480)" fill="#fff"/>
    <g id="Grupo_1072985" data-name="Grupo 1072985" transform="translate(411 4488)">
      <g id="Grupo_1072984" data-name="Grupo 1072984" clip-path="url(#clip-path)">
        <path id="Trazado_819520" data-name="Trazado 819520" d="M17.3,77.972c.689,0,1.337-.025,1.981.007.716.035,1.429.113,2.141.194.213.024.343.052.34-.234q-.028-3.068-.037-6.135-.005-4.727.008-9.454c0-.081.01-.161.018-.271H24.6v.493q0,8.438.011,16.876a1.59,1.59,0,0,0,.261.878,6.121,6.121,0,0,1,1.194,3.216c.007.1.155.279.241.281.853.021,1.706.013,2.6.013V62.07h3.006V81.509l.1.01a1.8,1.8,0,0,0,.1-.29,5.34,5.34,0,0,1,3.358-4.154c.729-.333.738-.313.738-1.1V20.253H33.861a1.9,1.9,0,0,1-1.922-1.224c-1.356-3.171-2.734-6.332-4.087-9.5a2.788,2.788,0,0,1-.244-1.077,1.312,1.312,0,0,1,.724-1.091c1.853-1.151,3.7-2.311,5.556-3.459.081-.05.285-.056.316-.008.49.746.961,1.5,1.428,2.246l-4.162,2.58a2.1,2.1,0,0,0-.478.323.485.485,0,0,0-.1.412c1.112,2.6,2.24,5.192,3.372,7.8H36.21V16.8c0-1.534-.034-3.07.018-4.6a4.337,4.337,0,0,1,.388-1.666c.8-1.7,1.679-3.356,2.515-5.035.145-.291.267-.386.589-.2.574.327,1.173.615,1.774.893.314.145.307.32.171.587-.764,1.5-1.526,3-2.267,4.513a1.953,1.953,0,0,0-.191.827q-.017,6.634-.008,13.268v.478H60.924a1.152,1.152,0,0,0,.039-.217q0-6.551,0-13.1a2.86,2.86,0,0,0-.312-1.387c-.78-1.491-1.525-3-2.3-4.5-.119-.23-.04-.322.146-.416.679-.34,1.358-.677,2.032-1.026.262-.136.315.067.392.218q.714,1.4,1.417,2.808c.409.813.835,1.619,1.215,2.446a2.3,2.3,0,0,1,.19.917c.017,1.865.008,3.73.008,5.656.646,0,1.278.03,1.9-.022.145-.012.311-.283.392-.468.575-1.314,1.128-2.638,1.693-3.956.511-1.191,1.028-2.379,1.563-3.616a4.679,4.679,0,0,0-.4-.305q-3.971-2.48-7.946-4.953A7.4,7.4,0,0,0,56.959,2.8c-4.577.009-9.153.02-13.73,0a7.87,7.87,0,0,0-4.406,1.341c-.982.634-.712.731-1.4-.33-.27-.417-.533-.839-.809-1.252-.151-.226-.11-.344.14-.475.489-.254.945-.57,1.431-.83A9.454,9.454,0,0,1,42.764,0C47.922.031,53.079-.01,58.236.035a6.6,6.6,0,0,1,3.181.974c1.915,1.1,3.788,2.274,5.671,3.428,1.5.916,2.979,1.852,4.472,2.772A1.492,1.492,0,0,1,72.3,9.4Q70.2,14.3,68.071,19.2a1.771,1.771,0,0,1-1.7,1.043c-.854.032-1.709.007-2.613.007v.513c0,4.05-.029,8.1.01,12.149A9.257,9.257,0,0,0,66.6,39.72c2.049,2,4.066,4.027,6.092,6.047.351.35.679.725,1.017,1.089l.123-.047a10.2,10.2,0,0,0,.192-1.11,34.4,34.4,0,0,0-.178-8.1,23.611,23.611,0,0,0-3.875-9.672,1.294,1.294,0,0,1,.495-2.058,16.677,16.677,0,0,1,4.982-1.306,6.583,6.583,0,0,1,6.217,4.155c.224.543.313,1.14.49,1.7a1.251,1.251,0,0,0,.3.55,9.311,9.311,0,0,1,2.988,9.706,2.426,2.426,0,0,0,.152,1.775,14.6,14.6,0,0,1,1.4,6.081,24.21,24.21,0,0,1-1.032,6.81c-.085.331-.231.406-.559.3-.731-.239-1.475-.44-2.261-.67.142-.564.308-1.14.433-1.726a16.957,16.957,0,0,0,.122-7.8,12.813,12.813,0,0,0-1.137-2.7,2.15,2.15,0,0,1-.118-2.034,6.543,6.543,0,0,0-1.905-7.673c-.184-.146-.362-.3-.543-.449a1.729,1.729,0,0,1-.641-1.373,3.83,3.83,0,0,0-5.264-3.575c-.255.092-.515.169-.777.255a27.428,27.428,0,0,1,3.519,10.337,34.05,34.05,0,0,1,.028,7.981c-.1.931-.308,1.85-.477,2.773a.64.64,0,0,0,.185.629,36.471,36.471,0,0,1,8.456,13.56,42.834,42.834,0,0,1,1.665,6.692,27.572,27.572,0,0,1,.3,4.743q0,5.287,0,10.574a1.258,1.258,0,0,1-1.4,1.4q-5.579,0-11.158,0h-.379c0-.862-.008-1.7.014-2.537,0-.076.2-.205.309-.211.607-.031,1.216-.04,1.824-.041,2.544,0,5.088,0,7.632.012.266,0,.365-.043.363-.331-.018-3.165-.014-6.33-.037-9.495a28.909,28.909,0,0,0-.839-6.726,31.633,31.633,0,0,0-6.494-13.087c-1.649-1.946-3.5-3.726-5.291-5.547-2.318-2.354-4.673-4.67-7-7.01a11.882,11.882,0,0,1-3.429-6.748c-.038-.249-.135-.345-.4-.345q-10.535.009-21.071,0c-.121,0-.243.01-.418.018V35.1q0,21.189,0,42.377a2.865,2.865,0,0,1-.12.9,1.565,1.565,0,0,1-1.593,1.086,2.7,2.7,0,0,0-2.032,1.052,2.1,2.1,0,0,0-.572,1.545c.04.563.008,1.132.008,1.738h5.6c.041-.6.047-1.217.132-1.826a5.95,5.95,0,0,1,3.175-4.717.781.781,0,0,1,.224-.105c.861-.136.964-.677.96-1.459-.04-8.237-.039-16.475-.049-24.712,0-.525,0-.517.511-.513.773.007,1.547,0,2.389,0v.426q0,13.434,0,26.869a1.475,1.475,0,0,1-1.553,1.693,2.819,2.819,0,0,0-2.762,3c0,.441,0,.883,0,1.352H53.752V81.382q0-13.807,0-27.615c0-.967-.009-1.935-.033-2.9-.007-.3.069-.419.392-.41.785.022,1.571.007,2.393.007V77.43c1.848-1.176,3.893-.667,5.926-.807v-.431q0-3.027,0-6.054a20.552,20.552,0,0,1,4.239-12.517c.533-.719,1.164-1.366,1.753-2.043a1.451,1.451,0,0,1,.207-.169l1.953,1.915c-.5.584-1.007,1.132-1.465,1.717a17.232,17.232,0,0,0-3.518,7.9,21.277,21.277,0,0,0-.268,3.167c-.036,2.487-.009,4.976,0,7.463,0,1.355-.527,1.894-1.867,1.893-1.258,0-2.517-.007-3.775,0a3.023,3.023,0,0,0-3.2,3.115c-.048,1.259-.048,1.243,1.206,1.244,4.438,0,8.876.025,13.314.027.317,0,.4.1.393.4-.019.77-.006,1.54-.006,2.362H68.831l-39.2,0H1.8c-.18,0-.359,0-.539-.007A1.25,1.25,0,0,1,.039,85.383c-.006-.138,0-.277,0-.415,0-11.541.019-23.082-.016-34.623a10.332,10.332,0,0,1,1.884-5.972c.836-1.236,1.647-2.488,2.5-3.712a7.594,7.594,0,0,0,1.3-4.73,6.807,6.807,0,0,0-1.479-4.251,15.82,15.82,0,0,0-2.205-2.05A6.011,6.011,0,0,1,.534,28.041,4.311,4.311,0,0,1,2,22.328a4.813,4.813,0,0,1,5.444.269,16.764,16.764,0,0,1,5.977,7.717,15.811,15.811,0,0,1,.688,8.878,16.527,16.527,0,0,1-2.386,5.689c-.8,1.227-1.615,2.442-2.413,3.669-.194.3-.346.623-.537.971L6.054,48.7c.324-.623.6-1.239.949-1.8.624-.994,1.282-1.967,1.954-2.93a13.642,13.642,0,0,0,2.525-6.4A13.1,13.1,0,0,0,7.477,26.3a12.55,12.55,0,0,0-1.821-1.5,2.191,2.191,0,0,0-2.1-.071,1.224,1.224,0,0,0-.678,1.393,1.763,1.763,0,0,0,.459.922,14.918,14.918,0,0,0,1.3,1.029,10.372,10.372,0,0,1,4.012,8.573,9.827,9.827,0,0,1-1.853,5.5c-.913,1.333-1.8,2.682-2.694,4.03a7.3,7.3,0,0,0-1.266,4.174c.019,2.432,0,4.865,0,7.3v.44l.166.1a.741.741,0,0,1,.046-.2,22.609,22.609,0,0,1,7.17-7.744c1.685-1.156,3.424-2.236,5.1-3.413a7.235,7.235,0,0,0,1.463-1.492,2.866,2.866,0,0,0,.528-1.831q-.025-9.267-.009-18.535a1.74,1.74,0,0,1,1.288-1.841,1.335,1.335,0,0,1,.57.017A10.28,10.28,0,0,1,24.7,26.412a1.951,1.951,0,0,1,.281.358,1.2,1.2,0,0,0,1.309.677c1.491-.055,2.986-.023,4.479-.052a.8.8,0,0,0,.491-.274c.535-.589,1.046-1.2,1.611-1.855.362.417.657.756.95,1.1.235.272.462.551.7.818.156.173.154.289-.008.487a20.789,20.789,0,0,0-1.305,1.755,1.5,1.5,0,0,1-1.385.793q-3.546-.037-7.093,0a1.441,1.441,0,0,1-1.4-.831,6.567,6.567,0,0,0-2.568-2.637c-.129-.073-.262-.139-.479-.254v.544q0,7.816,0,15.632a7.429,7.429,0,0,1-3.517,6.6c-1.962,1.289-3.948,2.55-5.84,3.938a19.581,19.581,0,0,0-6.974,9.556,20.976,20.976,0,0,0-1.1,6.917c-.02,4.6,0,9.205-.009,13.808,0,.287.1.342.359.342q9.748-.006,19.5,0c.178,0,.356-.015.645-.028-.141-.428-.25-.817-.4-1.19A2.583,2.583,0,0,0,20.5,80.959c-1.355,0-2.71,0-4.065,0a1.7,1.7,0,0,1-1.942-1.927c0-1.354.027-2.71-.013-4.063A12.827,12.827,0,0,0,11.3,66.8c-.214-.251-.435-.5-.72-.823l1.859-1.781c.211-.2.32,0,.434.121a16.585,16.585,0,0,1,3.078,4.59,16.371,16.371,0,0,1,1.275,4.444,21.66,21.66,0,0,1,.067,2.689c.007.622,0,1.243,0,1.933M39.213,31.814h1.11q9.721-.012,19.442-.028c.381,0,.909.108,1.1-.092s.077-.726.082-1.11c.007-.56,0-1.12,0-1.681H39.213Z" transform="translate(0 0)" fill="#590e00"/>
        <path id="Trazado_819521" data-name="Trazado 819521" d="M135.553,41.9a2.615,2.615,0,0,0,1.206,1.035,6.6,6.6,0,0,0,1.678.382c.808.064,1.624.016,2.51.016,0,.873.008,1.711-.011,2.549a.355.355,0,0,1-.249.243,13.372,13.372,0,0,1-4.6-.379,7.126,7.126,0,0,1-2.344-1.569c-.079.061-.156.111-.223.173a5.841,5.841,0,0,1-3.956,1.751c-.9.019-1.8.03-2.694.043-.189,0-.36,0-.358-.273.008-.827,0-1.654,0-2.537.955,0,1.833.017,2.71,0a3.464,3.464,0,0,0,2.728-1.453c-.142-.054-.247-.1-.354-.133a2.927,2.927,0,0,1-2.2-2.749,4.994,4.994,0,0,1,.3-2.805,2.6,2.6,0,0,1,2.382-1.584c1.023,0,2.048.041,3.068-.008a2.853,2.853,0,0,1,2.907,2.61,9.737,9.737,0,0,1-.083,2.346,2.838,2.838,0,0,1-2.142,2.194c-.078.026-.156.047-.234.073-.009,0-.013.023-.043.078m-.342-4.506h-2.947v1.589h2.947Z" transform="translate(-84.413 -23.081)" fill="#590e00"/>
        <path id="Trazado_819522" data-name="Trazado 819522" d="M70.006,99.724c.854,0,1.681-.009,2.507.012a.375.375,0,0,1,.258.26c.023.8.027,1.6,0,2.4a.42.42,0,0,1-.3.277c-.812.023-1.625.013-2.468.013Z" transform="translate(-46.708 -66.536)" fill="#590e00"/>
        <path id="Trazado_819523" data-name="Trazado 819523" d="M91.611,99.781H94.39c0,.369,0,.735,0,1.1.007.482.015.964.033,1.445.011.275-.082.4-.38.395-.7-.013-1.405.011-2.107,0-.11,0-.309-.131-.311-.2-.022-.9-.014-1.81-.014-2.731" transform="translate(-61.123 -66.574)" fill="#590e00"/>
        <path id="Trazado_819524" data-name="Trazado 819524" d="M129.325,26.064c0,.872,0,1.713,0,2.553,0,.238-.112.3-.334.3-.719-.01-1.438,0-2.156-.019-.114,0-.319-.154-.321-.241-.024-.854-.015-1.708-.015-2.6Z" transform="translate(-84.401 -17.39)" fill="#590e00"/>
        <path id="Trazado_819525" data-name="Trazado 819525" d="M161.531,26.018h2.716c0,.9.007,1.775-.013,2.654,0,.073-.179.2-.278.2-.746.016-1.493.016-2.238-.007-.1,0-.275-.159-.276-.245,0-.828.02-1.656.039-2.484a.411.411,0,0,1,.049-.122" transform="translate(-107.715 -17.359)" fill="#590e00"/>
      </g>
    </g>
  </g>
</svg>
