<svg xmlns="http://www.w3.org/2000/svg" xmlns:xlink="http://www.w3.org/1999/xlink" width="129" height="128" viewBox="0 0 129 128">
  <defs>
    <clipPath id="clip-path">
      <rect id="Rectángulo_377799" data-name="Rectángulo 377799" width="89.19" height="83.285" fill="#590e00"/>
    </clipPath>
  </defs>
  <g id="Grupo_108927" data-name="Grupo 108927" transform="translate(-390 -4467)">
    <path id="Rectángulo_36179" data-name="Rectángulo 36179" d="M0,0H129V128H0Z" transform="translate(390 4467)" fill="#ecb062"/>
    <path id="Rectángulo_36181" data-name="Rectángulo 36181" d="M6.132,0H81.754a21.8,21.8,0,0,1,21.8,21.8v74.26a6.132,6.132,0,0,1-6.132,6.132H6.132A6.132,6.132,0,0,1,0,96.061V6.132A6.132,6.132,0,0,1,6.132,0Z" transform="translate(403 4480)" fill="#fff"/>
    <g id="Grupo_1072977" data-name="Grupo 1072977" transform="translate(407.81 4491)">
      <g id="Grupo_1072976" data-name="Grupo 1072976" clip-path="url(#clip-path)">
        <path id="Trazado_819516" data-name="Trazado 819516" d="M76.239,66.921c-.96-.215-1.89-.419-2.818-.631q-4.607-1.049-9.214-2.1-3.62-.827-7.24-1.653c-.475-.108-.509-.088-.557.418-.068.713-.1,1.43-.174,2.142a1.721,1.721,0,0,1-.531,1.248,1.157,1.157,0,0,1-1.3.213,1.216,1.216,0,0,1-.772-1.2c.049-.793.149-1.583.234-2.374.04-.366.1-.731.15-1.115L41.2,58.951c-.06.495-.118.935-.165,1.376-.19,1.78-.365,3.561-.57,5.339a1.283,1.283,0,0,1-.966,1.185,1.182,1.182,0,0,1-1.339-.45,1.043,1.043,0,0,1-.235-.645c.06-.91.169-1.817.265-2.725.147-1.4.293-2.791.451-4.186.038-.337-.058-.483-.421-.469a11.541,11.541,0,0,1-1.193-.044,1.337,1.337,0,0,1-1.271-1.268,1.3,1.3,0,0,1,1.341-1.29,16.5,16.5,0,0,1,2.56.272c2.284.464,4.555.989,6.831,1.491q1.125.248,2.247.5a.435.435,0,0,0,.548-.256c1.533-2.832,3.137-5.628,4.594-8.5a23.924,23.924,0,0,0,2.29-7.532,23.2,23.2,0,0,0-.672-9.413,20.2,20.2,0,0,0-3.36-7.02,14.991,14.991,0,0,0-8.572-5.774A13.494,13.494,0,0,0,31.9,21.762a3.587,3.587,0,0,1-3.348.754,5.639,5.639,0,0,1-1.492-.807,12.994,12.994,0,0,0-3.33-1.757,14.346,14.346,0,0,0-6.5-.746A14.971,14.971,0,0,0,6.072,26.419C5.5,27.311,5.061,28.28,4.543,29.2a1.207,1.207,0,0,1-1.377.62,1.237,1.237,0,0,1-.838-1.838,22.01,22.01,0,0,1,2.737-4.557A17.952,17.952,0,0,1,12.493,17.8a16.652,16.652,0,0,1,4.651-1.14,16.353,16.353,0,0,1,10.935,2.665.56.56,0,0,0,.109.033V15.42c-.718.121-1.422.235-2.123.358a10.663,10.663,0,0,1-3.676-.11A14.212,14.212,0,0,1,16.013,12.7,23.547,23.547,0,0,1,10.37,6.221Q9.382,4.59,8.509,2.892a3.063,3.063,0,0,1-.341-1.359c0-.545.581-1.009,1.2-1.108C10.121.3,10.878.139,11.641.093c1.2-.073,2.414-.119,3.618-.077a14.588,14.588,0,0,1,11.69,5.952c.419.555.78,1.154,1.169,1.733l.115-.008c0-.28,0-.559,0-.839,0-1.234-.012-2.469-.011-3.7a5.135,5.135,0,0,1,.058-.713,1.224,1.224,0,0,1,1.069-1.024,1.107,1.107,0,0,1,1.243.7,3.735,3.735,0,0,1,.224,1.2q.019,7.865.005,15.73c0,.078.01.157.02.3a16.418,16.418,0,0,1,11.843-2.58,17.958,17.958,0,0,1,10.7,6c.092-.45.156-.78.227-1.108a45.807,45.807,0,0,0,.486-5.7A15.837,15.837,0,0,1,58.847,5.48a10.231,10.231,0,0,1,14.7.294,14.878,14.878,0,0,1,4.261,8.7c.266,1.914.27,3.862.485,5.785a19.445,19.445,0,0,0,3.271,9.066A31.946,31.946,0,0,0,84.076,32.4a19.219,19.219,0,0,1,4.06,7.224,23.342,23.342,0,0,1,1.034,7.887A25.86,25.86,0,0,1,85.4,60.17a20.471,20.471,0,0,1-3.959,4.7c-.146.129-.3.251-.528.442.355.109.587.194.826.252a8.728,8.728,0,0,1,6.76,6.187,8.438,8.438,0,0,1-2.472,9,9.48,9.48,0,0,1-4.733,2.375,2.262,2.262,0,0,1-.475.03q-16.884.014-33.769.03c-3.079.005-6.159.05-9.238.094A13.875,13.875,0,0,1,27.6,79.234a12.719,12.719,0,0,1-3.216-5.008c-.056-.161-.127-.316-.219-.541-.906.285-1.813.526-2.686.855a15.234,15.234,0,0,0-6.091,4A4.286,4.286,0,0,1,8.6,77.859a3.8,3.8,0,0,1-.012-4.349,22.045,22.045,0,0,1,2.005-2.3.887.887,0,0,1,.241-.137l-.064-.134c-.27-.04-.54-.087-.811-.119-2.081-.241-4.164-.458-6.242-.723a4.373,4.373,0,0,1-3.49-3.7,4.414,4.414,0,0,1,5.354-4.72c1.169.206,2.362.27,3.554.4-.829-1.5-1.672-3.017-2.5-4.539-1.313-2.408-2.672-4.794-3.909-7.241a24.137,24.137,0,0,1-2.173-6.5,22.065,22.065,0,0,1-.525-5.529c.113-1.676.381-3.342.627-5.006a1.173,1.173,0,0,1,1.434-.885,1.358,1.358,0,0,1,1.069,1.419c-.2,1.564-.452,3.126-.543,4.7a21.55,21.55,0,0,0,.213,3.047A25.584,25.584,0,0,0,6.463,51.954c1.075,1.9,2.087,3.842,3.127,5.764.038.07.067.143.1.215l.11-.065c.107-.334.217-.667.319-1a4.1,4.1,0,0,1,3.4-2.986A3.978,3.978,0,0,1,17.882,55.9a13.376,13.376,0,0,0,3.532,4.155c1.2.867,2.491,1.609,3.737,2.414.243.157.334.038.458-.158a13.806,13.806,0,0,1,5.517-5.031c.775-.393,1.288-.347,1.762.178a1.127,1.127,0,0,1-.136,1.743,5.949,5.949,0,0,1-.807.507,10.78,10.78,0,0,0-5.308,6.475,11.006,11.006,0,0,0,3.808,12.176,10.163,10.163,0,0,0,6.246,2.259c.8.006,1.593.009,2.387.048.348.017.47-.12.5-.437q.153-1.543.326-3.083c.129-1.144.239-2.292.419-3.429a2.278,2.278,0,0,1,.494-1.1,1.131,1.131,0,0,1,1.324-.247,1.113,1.113,0,0,1,.774,1.1c-.02.714-.1,1.428-.179,2.139-.188,1.593-.4,3.183-.6,4.774a2.014,2.014,0,0,0,0,.237h6.2c.112-.955.214-1.873.332-2.79a9.6,9.6,0,0,1,.276-1.719,1.2,1.2,0,0,1,2.113-.457,1.177,1.177,0,0,1,.281,1c-.09,1.015-.209,2.028-.314,3.042-.029.287-.048.574-.074.893.174.008.3.019.431.019,4.022,0,8.044,0,12.066.009.374,0,.491-.105.527-.481.131-1.371.3-2.738.463-4.106a1.344,1.344,0,0,1,1.353-1.1,1.377,1.377,0,0,1,1.163,1.554c-.1,1.016-.223,2.03-.326,3.046-.035.341-.039.684-.061,1.081h.5q6.411-.007,12.821-.015a6.312,6.312,0,0,0,1.953-12.347c-.9-.256-1.816-.472-2.722-.715-.3-.082-.4.036-.427.328q-.43,4.212-.881,8.422a1.355,1.355,0,0,1-1.588,1.139A1.507,1.507,0,0,1,75.211,75.9c.1-.735.245-1.465.327-2.2.239-2.121.457-4.243.681-6.366.012-.117.012-.236.02-.408M51.714,58.675c.12.037.219.074.321.1q3.406.787,6.812,1.57l7.934,1.823q4.064.933,8.13,1.864c.761.173,1.523.355,2.293.472a1.26,1.26,0,0,0,.807-.186,17.234,17.234,0,0,0,5.141-5.355,21.788,21.788,0,0,0,3.1-8.281,22.114,22.114,0,0,0,.207-6.492,20.838,20.838,0,0,0-2.328-7.416,21.266,21.266,0,0,0-3-3.852,21.048,21.048,0,0,1-4.862-9.4,23.859,23.859,0,0,1-.773-6.415,11.269,11.269,0,0,0-.23-2.168A13.922,13.922,0,0,0,72.21,8.01,7.826,7.826,0,0,0,61.084,6.875a10.861,10.861,0,0,0-2.829,3.606,12.952,12.952,0,0,0-1.515,5.392,34.145,34.145,0,0,1-1.3,9.138,1.022,1.022,0,0,0,.08.794c.6,1.253,1.244,2.49,1.752,3.779a20.591,20.591,0,0,1,1.42,5.876c.222-.109.438-.2.641-.317a15.518,15.518,0,0,1,4.523-1.667,13.226,13.226,0,0,1,5.674.128,13.5,13.5,0,0,1,6.628,3.588,13.722,13.722,0,0,1,3.928,7.1,1.252,1.252,0,0,1-.757,1.352,1.121,1.121,0,0,1-1.4-.326,2.529,2.529,0,0,1-.417-.843,10.928,10.928,0,0,0-2.036-4.233,11.389,11.389,0,0,0-12.179-4.02,9.935,9.935,0,0,0-4,2.051.88.88,0,0,0-.325.577,25.819,25.819,0,0,1-1.1,7.323,28.175,28.175,0,0,1-1.9,4.794.924.924,0,0,0-.061.7,11.149,11.149,0,0,0,9,6.78A10.878,10.878,0,0,0,71.18,57.5a11.169,11.169,0,0,0,6.012-6.608c.195-.547.305-1.125.523-1.661a1.313,1.313,0,0,1,1.672-.761,1.363,1.363,0,0,1,.727,1.595,13.843,13.843,0,0,1-4.044,7.167,13.549,13.549,0,0,1-11.654,3.753,13.8,13.8,0,0,1-10.01-6.634c-.052-.083-.118-.156-.176-.233l-2.514,4.558M4.819,64.2a1.928,1.928,0,0,0-1.76.708c-.3.373-.126.79-.183,1.184a1.443,1.443,0,0,0,1.1,1.426c.98.154,1.968.262,2.954.377.539.063,1.082.1,1.622.15q1.027.106,2.053.228c1.263.151,2.527.3,3.788.467A1.318,1.318,0,0,1,15.508,69.8a1.2,1.2,0,0,1-.589,1.255c-.289.232-.609.424-.908.645a14.652,14.652,0,0,0-3.175,2.99,1.562,1.562,0,0,0,.123,2.048,1.652,1.652,0,0,0,1.935.454,3.111,3.111,0,0,0,.72-.482c.9-.778,1.739-1.646,2.7-2.34A19.673,19.673,0,0,1,23.2,71.3c.252-.062.467-.1.435-.47a12.759,12.759,0,0,1,.581-5.688c.076-.2.023-.307-.166-.407-.457-.24-.9-.5-1.353-.757a17.407,17.407,0,0,1-6.823-6.51,2.9,2.9,0,0,0-.431-.568,1.736,1.736,0,0,0-2.119-.279,1.665,1.665,0,0,0-.68,2.137,11.423,11.423,0,0,0,.806,1.413c.746,1,1.538,1.959,2.321,2.926a1.216,1.216,0,0,1,.218,1.563,1.147,1.147,0,0,1-1.171.592c-.9-.075-1.793-.162-2.689-.249-.976-.1-1.952-.189-2.927-.3-1.5-.169-3-.35-4.386-.512m22.592-51.23a1.227,1.227,0,0,0-.031-.267,33.49,33.49,0,0,0-1.311-3.358A11.837,11.837,0,0,0,17.01,2.766a25.083,25.083,0,0,0-5.438-.1,1.261,1.261,0,0,0-.284.1l.8,1.4a22.741,22.741,0,0,0,5.219,6.359A12.1,12.1,0,0,0,23.79,13.3a13.7,13.7,0,0,0,3.621-.337" transform="translate(0 0)" fill="#590e00"/>
      </g>
    </g>
  </g>
</svg>
