<svg xmlns="http://www.w3.org/2000/svg" xmlns:xlink="http://www.w3.org/1999/xlink" width="464" height="344" viewBox="0 0 464 344">
  <defs>
    <clipPath id="clip-path">
      <rect id="Rect치ngulo_378313" data-name="Rect치ngulo 378313" width="464" height="344" transform="translate(0.088)" fill="none"/>
    </clipPath>
    <clipPath id="clip-path-2">
      <rect id="Rect치ngulo_378318" data-name="Rect치ngulo 378318" width="464" height="230.989" fill="none"/>
    </clipPath>
  </defs>
  <g id="Grupo_1074304" data-name="Grupo 1074304" transform="translate(-0.088)">
    <g id="Grupo_1071412" data-name="Grupo 1071412">
      <g id="Enmascarar_grupo_402" data-name="Enmascarar grupo 402" clip-path="url(#clip-path)">
        <g id="Grupo_1074310" data-name="Grupo 1074310" transform="translate(0 40.505)">
          <g id="Grupo_1074307" data-name="Grupo 1074307">
            <g id="Grupo_1074306" data-name="Grupo 1074306" clip-path="url(#clip-path-2)">
              <path id="Trazado_824182" data-name="Trazado 824182" d="M620.7,0c-.046,1.112.907,1.554,1.527,2.176q37.289,37.358,74.607,74.686c.159.292.315.587.732.384l-.079-.075c-.1.461.085.646.548.548l-.086-.086c-.1.461.085.646.548.548l-.086-.086c-.1.46.085.646.548.548l-.086-.086c-.1.461.085.646.548.548l-.086-.086c-.1.461.085.646.548.548l-.086-.086c-.1.461.085.646.548.548l-.086-.086c-.1.461.085.646.548.548l-.086-.086c-.1.46.085.646.548.548l-.086-.086c-.1.461.085.646.548.548l-.086-.086c-.1.461.085.646.548.548l-.086-.086c-.1.461.085.646.548.548l-.086-.086c-.1.461.085.646.548.548l-.086-.086c-.1.46.085.646.548.548l-.086-.086c-.1.461.085.646.548.548l-.086-.086c-.1.461.085.646.548.548l-.086-.086c-.1.46.085.646.548.548l-.086-.086c-.1.461.085.646.548.548l-.086-.086c-.1.46.085.646.548.548l-.086-.086c-.1.461.085.646.548.548l-.086-.086c-.1.461.085.646.548.548l-.086-.086c-.1.46.085.646.548.548l-.086-.086c-.1.461.085.646.548.548l-.086-.086c-.1.461.085.646.548.548l-.086-.086c-.1.461.085.646.548.548l-.086-.086c-.1.461.085.646.548.548l-.086-.086c-.1.46.085.646.548.548l-.086-.086c-.1.461.085.646.548.548l-.086-.086c-.1.461.085.646.548.548l-.086-.086c-.1.461.085.646.548.548l-.086-.086c-.1.461.085.646.548.548l-.086-.086c-.1.46.085.646.548.548l-.086-.086c-.1.461.085.646.548.548l-.086-.086c-.1.461.085.646.548.548l-.086-.086c-.1.46.085.646.548.548l-.086-.086c-.1.461.085.646.548.548l-.086-.086c-.1.46.085.646.548.548l-.086-.086c-.1.461.085.646.548.548l-.086-.086c-.1.461.085.646.548.548l-.086-.086c-.1.46.085.646.548.548l-.086-.086c-.1.461.085.646.548.548l-.086-.086c-.1.461.085.646.548.548l-.086-.086c-.1.461.085.646.548.548l-.086-.086c-.1.461.085.646.548.548l-.086-.086c-.1.46.085.646.548.548l-.086-.086c-.1.461.085.647.548.548l-.086-.086c-.1.461.085.646.548.548l-.086-.086c-.1.461.085.646.548.548l-.086-.086c-.1.461.085.646.548.548l-.086-.086c-.1.46.085.646.548.548l-.086-.086c-.1.461.085.646.548.548l-.086-.086c-.1.461.085.646.548.548l-.086-.086c-.1.46.085.646.548.548l-.086-.086c-.1.461.085.646.548.548l-.086-.086c-.1.46.085.646.548.548l-.086-.086c-.1.461.085.646.548.548l-.086-.086c-.1.461.085.646.548.548l-.086-.086c-.1.46.085.646.548.548l-.086-.086c-.1.461.085.646.548.548L724.32,104c-.1.46.085.646.548.548l-.086-.086c-.1.461.085.646.548.548l-.086-.086c-.1.461.085.647.548.548l-.086-.086c-.1.46.085.646.548.548l-.086-.086c-.1.461.085.646.548.548l-.086-.086c-.1.461.085.646.548.548l-.086-.086c-.1.461.085.646.548.548l-.086-.086c-.1.461.085.646.548.548l-.086-.086c-.1.46.085.646.548.548l-.086-.086c-.1.461.085.646.548.548l-.086-.086c-.1.461.085.646.548.548l-.086-.086c-.1.461.085.647.548.548l-.086-.086c-.1.461.085.646.548.548l-.086-.086c-.1.46.085.646.548.548l-.086-.086c-.1.461.085.647.548.548l-.086-.086c-.1.461.085.646.548.548l-.086-.086c-.1.46.085.646.548.548l-.086-.086c-.1.461.085.646.548.548l-.086-.086c-.1.46.085.646.548.548l-.086-.086c-.1.461.085.646.548.548l-.086-.086c-.095.46.086.646.548.548l-.086-.086c-.094.46.086.645.548.548l-.083-.083q.033.73.065,1.461a2.614,2.614,0,0,1-1.457,1.339l.026-.063c-11.773,11.725-23.578,23.419-35.271,35.223-1.159,1.17-2.381,2.272-3.543,3.435q-36.281,36.312-72.573,72.613c-.618.619-1.593,1.053-1.506,2.182h-1.85c.516-.931-.478-1.124-.842-1.489q-36.822-36.906-73.7-73.755-18.093-18.094-36.187-36.187a10.14,10.14,0,0,0-3.994-2.829v-1.388c.286-.066.617-.094.46-.539l-.079.081c.459.093.646-.086.549-.549l-.086.086c.46.095.646-.085.548-.548l-.086.086c.46.095.646-.085.548-.548l-.086.086c.461.1.646-.085.548-.548l-.086.086c.461.1.646-.085.548-.548l-.086.086c.461.1.647-.085.548-.548l-.086.086c.461.1.647-.085.548-.548l-.086.086c.46.1.646-.085.548-.548l-.086.086c.461.1.647-.085.548-.548l-.086.086c.461.1.647-.085.548-.548l-.086.086c.46.1.646-.085.548-.548l-.086.086c.461.1.646-.085.548-.548l-.086.086c.46.1.646-.085.548-.548l-.086.086c.461.1.647-.085.548-.548l-.086.086c.461.1.647-.085.548-.548l-.086.086c.461.1.646-.085.548-.548l-.086.086c.461.1.647-.085.548-.548l-.086.086c.461.1.646-.085.548-.548l-.086.086c.461.1.647-.085.548-.548l-.086.086c.461.1.647-.085.548-.548l-.086.086c.461.1.646-.085.548-.548l-.086.086c.461.1.646-.085.548-.548l-.086.086c.461.1.646-.085.548-.548l-.086.086c.461.1.646-.085.548-.548l-.086.086c.46.1.646-.085.548-.548l-.086.086c.46.095.646-.085.548-.548l-.072.065c.471.245.683-.059.874-.41l.788-.7.09-.145-.032.1c.9-.83,1.852-1.616,2.7-2.5,7.207-7.463,14.533-14.824,21.9-22.115,9.014-8.924,17.776-18.119,27.085-26.734,4.911-4.545,9.584-9.312,14.329-14.012Q600.848,18.84,617.708,1.815c.485-.486,1.479-.768,1.145-1.815ZM721.6,114.877c-.529-.475-1.066-.916-1.556-1.4-32.75-32.727-65.415-65.54-98.44-97.993a11.585,11.585,0,0,1-1.137-1.15c-.819-1.072-1.335-.887-2.307.044-8.214,7.865-16.159,16-24.285,23.957-25.036,24.506-49.768,49.322-74.615,74.02-2.573,2.557-2.578,2.576-.041,5.1,17.147,17.036,34.05,34.311,51.437,51.111,15.9,15.366,31.348,31.21,46.911,46.927,1.507,1.522,2.191,1.289,3.546-.068q46.22-46.32,92.536-92.543c2.22-2.216,4.215-4.674,6.815-6.5a6.8,6.8,0,0,0,1.137-1.494" transform="translate(-270.583)" fill="#dd3832"/>
              <path id="Trazado_824183" data-name="Trazado 824183" d="M737.446,130.665a6.775,6.775,0,0,1-1.137,1.494c-2.6,1.831-4.6,4.289-6.815,6.5q-46.308,46.233-92.537,92.543c-1.355,1.358-2.038,1.591-3.545.068-15.562-15.717-31.007-31.56-46.911-46.927-17.387-16.8-34.291-34.075-51.437-51.111-2.537-2.52-2.531-2.539.041-5.1,24.848-24.7,49.579-49.514,74.615-74.019,8.126-7.954,16.071-16.093,24.285-23.958.972-.931,1.488-1.116,2.307-.044a11.579,11.579,0,0,0,1.137,1.15c33.024,32.453,65.688,65.266,98.44,97.993.489.489,1.027.929,1.556,1.4M634.984,33.371c-.412.394-.868.8-1.29,1.236-7.321,7.576-14.871,14.923-22.2,22.494-7.789,8.043-15.876,15.815-24.018,23.53-16.894,16.007-33.058,32.784-49.538,49.23-.784.783-.989,1.14,0,2.121q12.968,12.927,26.027,25.762c23.3,22.981,46.327,46.243,69.715,69.139a4.379,4.379,0,0,1,.486.494c.676.914,1.226.775,2.012.006,8.357-8.178,16.616-16.456,24.953-24.654,23.526-23.133,46.687-46.637,70.146-69.838,1.869-1.848,1.31-2.4-.047-3.757q-35.278-35.207-70.5-70.464Q648.7,46.649,636.663,34.644c-.473-.472-.834-1.122-1.679-1.274" transform="translate(-286.432 -15.787)"/>
              <path id="Trazado_824184" data-name="Trazado 824184" d="M639.74,38c.846.151,1.206.8,1.68,1.274q12.04,12,24.056,24.023,35.245,35.239,70.5,70.464c1.357,1.355,1.916,1.909.047,3.758-23.459,23.2-46.62,46.705-70.146,69.838-8.336,8.2-16.6,16.476-24.953,24.654-.786.769-1.336.908-2.013-.006a4.446,4.446,0,0,0-.486-.494c-23.388-22.9-46.413-46.157-69.715-69.139q-13.037-12.858-26.027-25.762c-.984-.981-.78-1.338,0-2.121,16.48-16.445,32.644-33.223,49.538-49.229,8.142-7.715,16.229-15.486,24.018-23.53,7.33-7.571,14.881-14.918,22.2-22.493.422-.437.877-.842,1.29-1.236m17.313,50.9a3.113,3.113,0,0,0-.291-.273c2.162-7.279,1.029-14.043-3.4-21.017a37.909,37.909,0,0,1-1.4,10.875,4.109,4.109,0,0,1-3.159,3.413,5.942,5.942,0,0,1-.074-1.481c.7-3.123-.493-5.871-1.634-8.64-2.194-5.329-5.552-10.193-6.312-16.107a4.13,4.13,0,0,0-1.277-2.812c-1.248,2.789-2.267,5.564-2.157,8.493a66.3,66.3,0,0,1-.728,12.119,14.708,14.708,0,0,1-2.307,6.451,17.559,17.559,0,0,1-1.855-4.787c-.631-2.922-1.729-5.644-4.94-6.785-.451-.16-.961-.44-1.248-.122a1.411,1.411,0,0,0-.15,1.283,5.084,5.084,0,0,1,.281,3.371c-.846,4.35-2.108,8.666-.464,13.2a2.887,2.887,0,0,1-2.463-1.6c-.57-1.4-1.789-2.275-2.506-3.525-.49-.853-1.41-1.76-2.108-1.471-.892.369-1.006,1.8-.609,2.644.925,1.959-.211,3.738-.226,5.6,0,.483,0,.966,0,1.447-.034,3.675,1.423,6.905,3,10.157a4.2,4.2,0,0,1-2.574-.128c-2.565-.9-3.749-3.282-5.644-4.883-.45-.38-.8-1.317-1.51-.843-.545.364-.333,1.094-.169,1.828,1.108,4.985,2.505,9.9,3.7,14.853,1.244,5.141,4.681,8.161,9.025,10.068,5.178,2.273,10.88,2.419,16.49,2.631.469.018.776-.1.851-.491.145-.763-.487-.625-.888-.605a10.75,10.75,0,0,1-3.6-.472c-4.4-1.3-9.508-5.358-9.68-10.393,1.282,2.839,4.033,1.617,6.042,2.458a1.09,1.09,0,0,0,1.447-.367c.342-.649-.14-1.094-.509-1.558a17.019,17.019,0,0,1-2.213-2.907c-1-2.07-2.3-4.174-1.239-6.812a19.534,19.534,0,0,0,7.5,5.221,7.36,7.36,0,0,0-.02-1.806,13.567,13.567,0,0,1,.514-8.678c.721-1.97,1.543-3.9,2.292-5.862.146-.382-.257-1,.367-1.165.661-.172.942.468,1.217.875,2.423,3.585,4.1,7.335,3.121,11.873a23.867,23.867,0,0,0-.051,4.821,23.192,23.192,0,0,0,7.757-5.408,12.125,12.125,0,0,1-3.218,9.528c-.655.764-2.287,1.363-1.8,2.259.6,1.1,2.258.547,3.409.367.847-.132,1.582-.87,2.424-1.186.59-.222,1.145-.914,1.928-.336-2.084,4.768-5.784,7.907-10.749,10.151,1.914.965,3.63.5,5.113.294,6.259-.85,11.346-3.723,14.573-9.4a24.768,24.768,0,0,0,2.8-9.622,76.568,76.568,0,0,0,.677-14.658,19.3,19.3,0,0,0-.715,3.029c-.169,1.07-.214,2.163-.281,3.231-.252,4.006-1.313,5.321-5,6.208-.379.091-.67.315-.963-.1-.275-.393.117-.589.289-.724,2.177-1.7,2.247-4.382,3.139-6.68,1.738-4.476-.033-8.429-1.662-12.754-1.9,3.041-3.261,6.011-6.166,7.723M641.08,126.345H621.423c-3.692,0-3.692,0-3.691,3.781,0,2.977,0,2.97,2.8,2.708.535-.05,1.078-.01,1.618-.01H660.08c4.371,0,4.253,0,4.4-4.3.065-1.945-.649-2.238-2.353-2.217-7.014.085-14.029.035-21.045.035" transform="translate(-291.189 -20.412)" fill="#dd3832"/>
              <path id="Trazado_824185" data-name="Trazado 824185" d="M737.063,106.139c2.9-1.711,4.268-4.682,6.166-7.723,1.629,4.326,3.4,8.278,1.662,12.755-.892,2.3-.963,4.976-3.139,6.679-.173.136-.565.332-.29.725.292.418.584.194.963.1,3.688-.887,4.75-2.2,5-6.209.067-1.068.112-2.16.281-3.23a19.431,19.431,0,0,1,.715-3.03,76.571,76.571,0,0,1-.677,14.658,24.771,24.771,0,0,1-2.805,9.622c-3.226,5.674-8.314,8.547-14.573,9.4-1.483.2-3.2.67-5.113-.295,4.966-2.244,8.666-5.382,10.749-10.151-.783-.578-1.338.115-1.928.337-.841.316-1.576,1.054-2.423,1.186-1.151.18-2.808.735-3.409-.367-.489-.9,1.143-1.5,1.8-2.259a12.126,12.126,0,0,0,3.218-9.528,23.213,23.213,0,0,1-7.758,5.408,23.872,23.872,0,0,1,.051-4.822c.981-4.538-.7-8.287-3.12-11.872-.275-.407-.556-1.047-1.217-.876-.623.162-.22.784-.366,1.166-.749,1.96-1.572,3.892-2.293,5.862a13.572,13.572,0,0,0-.514,8.678,7.359,7.359,0,0,1,.02,1.805,19.538,19.538,0,0,1-7.5-5.221c-1.057,2.639.235,4.743,1.239,6.813a17.022,17.022,0,0,0,2.212,2.908c.369.463.851.909.509,1.557a1.091,1.091,0,0,1-1.447.367c-2.01-.841-4.761.381-6.042-2.458.172,5.035,5.277,9.092,9.68,10.393a10.751,10.751,0,0,0,3.6.472c.4-.019,1.033-.157.889.605-.074.391-.382.509-.852.491-5.61-.212-11.312-.358-16.49-2.631-4.344-1.908-7.781-4.928-9.025-10.069-1.2-4.956-2.6-9.867-3.7-14.853-.163-.735-.375-1.465.169-1.829.71-.474,1.059.463,1.509.843,1.9,1.6,3.08,3.983,5.645,4.883a4.2,4.2,0,0,0,2.574.128c-1.574-3.252-3.031-6.482-3-10.157,0-.481,0-.963,0-1.447.015-1.86,1.151-3.639.226-5.6-.4-.84-.283-2.274.609-2.643.7-.29,1.619.618,2.108,1.471.718,1.251,1.937,2.121,2.506,3.525a2.887,2.887,0,0,0,2.463,1.6c-1.644-4.53-.383-8.847.463-13.2a5.082,5.082,0,0,0-.281-3.371,1.412,1.412,0,0,1,.15-1.283c.287-.318.8-.038,1.248.122,3.21,1.141,4.308,3.863,4.94,6.785a17.552,17.552,0,0,0,1.854,4.786,14.709,14.709,0,0,0,2.307-6.45,66.344,66.344,0,0,0,.728-12.119c-.11-2.929.909-5.705,2.157-8.494a4.131,4.131,0,0,1,1.277,2.812c.759,5.914,4.117,10.778,6.312,16.107,1.14,2.769,2.33,5.517,1.633,8.64a5.952,5.952,0,0,0,.074,1.482,4.11,4.11,0,0,0,3.159-3.413,37.929,37.929,0,0,0,1.4-10.876c4.433,6.974,5.566,13.738,3.405,21.018q-.034.27-.069.54l.359-.267" transform="translate(-371.198 -37.657)"/>
              <path id="Trazado_824186" data-name="Trazado 824186" d="M728.968,228.868c7.015,0,14.031.049,21.045-.036,1.7-.02,2.418.273,2.353,2.217-.145,4.292-.027,4.3-4.4,4.3H710.04c-.54,0-1.083-.04-1.618.01-2.8.262-2.8.27-2.8-2.708,0-3.781,0-3.781,3.691-3.781h19.658" transform="translate(-379.076 -122.934)"/>
              <path id="Trazado_824187" data-name="Trazado 824187" d="M790.173,147.664l-.359.267q.035-.27.069-.54a3.231,3.231,0,0,1,.29.273" transform="translate(-424.308 -79.182)" fill="#dd3832"/>
            </g>
          </g>
          <text id="_3" data-name="3" transform="translate(339.629 196.509)" font-size="31" font-family="Roboto-Bold, Roboto" font-weight="700"><tspan x="0" y="0">3</tspan></text>
          <g id="Grupo_1074309" data-name="Grupo 1074309">
            <g id="Grupo_1074308" data-name="Grupo 1074308" clip-path="url(#clip-path-2)">
              <path id="Trazado_824188" data-name="Trazado 824188" d="M117.037,1.333c-.046,1.112.907,1.554,1.528,2.176Q155.853,40.867,193.17,78.2c.159.291.315.587.732.384l-.079-.075c-.1.461.085.646.548.548l-.086-.086c-.1.461.085.646.548.548l-.086-.086c-.1.46.085.646.548.548l-.086-.086c-.1.461.085.646.548.548l-.086-.086c-.1.461.085.646.548.548l-.086-.086c-.1.461.085.646.548.548l-.086-.086c-.1.461.085.646.548.548l-.086-.086c-.1.46.085.646.548.548l-.086-.086c-.1.461.085.646.548.548l-.086-.086c-.1.461.085.646.548.548l-.086-.086c-.1.461.085.646.548.548l-.086-.086c-.1.461.085.646.548.548l-.086-.086c-.1.46.085.646.548.548l-.086-.086c-.1.461.085.646.548.548l-.086-.086c-.1.461.085.646.548.548l-.086-.086c-.1.46.085.646.548.548l-.086-.086c-.1.461.085.646.548.548l-.086-.086c-.1.46.085.646.548.548l-.086-.086c-.1.461.085.646.548.548l-.086-.086c-.1.461.085.646.548.548l-.086-.086c-.1.46.085.646.548.548l-.086-.086c-.1.461.085.646.548.548L204,88.682c-.1.46.085.646.548.548l-.086-.086c-.1.461.085.646.548.548l-.086-.086c-.1.461.085.646.548.548l-.086-.086c-.1.46.085.646.548.548l-.086-.086c-.1.461.085.646.548.548l-.086-.086c-.1.461.085.646.548.548l-.086-.086c-.1.461.085.646.548.548l-.086-.086c-.1.461.085.646.548.548l-.086-.086c-.1.46.085.646.548.548l-.086-.086c-.1.461.085.646.548.548l-.086-.086c-.1.461.085.646.548.548l-.086-.086c-.1.46.085.646.548.548l-.086-.086c-.1.461.085.646.548.548l-.086-.086c-.1.46.085.646.548.548l-.086-.086c-.1.461.085.646.548.548l-.086-.086c-.1.461.085.646.548.548l-.086-.086c-.1.46.085.646.548.548l-.086-.086c-.1.461.085.646.548.548l-.086-.086c-.1.46.085.646.548.548l-.086-.086c-.1.461.085.646.548.548l-.086-.086c-.1.461.085.647.548.548l-.086-.086c-.1.46.085.646.548.548l-.086-.086c-.1.461.085.646.548.548l-.086-.086c-.1.461.085.646.548.548l-.086-.086c-.1.461.085.646.548.548l-.086-.086c-.1.461.085.647.548.548l-.086-.086c-.1.46.085.646.548.548l-.086-.086c-.1.461.085.646.548.548l-.086-.086c-.1.461.085.646.548.548l-.086-.086c-.1.46.085.646.548.548l-.086-.086c-.1.461.085.646.548.548l-.086-.086c-.1.46.085.646.548.548l-.086-.086c-.1.461.085.646.548.548l-.086-.086c-.1.461.085.646.548.548l-.086-.086c-.1.46.085.646.548.548l-.086-.086c-.1.461.085.646.548.548l-.086-.086c-.1.46.085.646.548.548l-.086-.086c-.1.461.085.646.548.548l-.086-.086c-.1.461.085.646.548.548l-.086-.086c-.1.46.085.646.548.548l-.086-.086c-.1.461.085.646.548.548l-.086-.086c-.1.461.085.646.548.548l-.086-.086c-.1.461.085.646.548.548l-.086-.086c-.1.461.085.646.548.548l-.086-.086c-.1.46.085.646.548.548l-.086-.086c-.1.461.085.647.548.548l-.086-.086c-.1.461.085.646.548.548l-.086-.086c-.1.461.085.646.548.548l-.086-.086c-.1.461.085.646.548.548l-.086-.086c-.1.46.085.646.548.548l-.086-.086c-.1.461.085.646.548.548l-.086-.086c-.1.461.085.646.548.548l-.086-.086c-.1.46.085.646.548.548l-.086-.086c-.1.461.085.646.548.548l-.086-.086c-.1.46.085.646.548.548l-.086-.086c-.1.461.085.646.548.548l-.086-.086c-.095.46.086.646.548.548l-.086-.086c-.094.46.086.645.548.548l-.083-.083q.033.73.065,1.461a2.616,2.616,0,0,1-1.457,1.339l.026-.063c-11.773,11.725-23.578,23.419-35.271,35.223-1.159,1.17-2.381,2.272-3.543,3.435q-36.281,36.312-72.573,72.613c-.618.619-1.593,1.053-1.506,2.182h-1.85c.516-.931-.478-1.124-.842-1.489q-36.822-36.906-73.7-73.755Q22.088,138.367,3.994,120.273A10.14,10.14,0,0,0,0,117.444v-1.388c.286-.066.617-.094.46-.539l-.079.081c.459.093.646-.086.549-.549l-.086.086c.46.095.646-.085.548-.548l-.086.086c.46.095.646-.085.548-.548l-.086.086c.461.1.646-.085.548-.548l-.086.086c.461.1.646-.085.548-.548l-.086.086c.461.1.646-.085.548-.548l-.086.086c.461.1.646-.085.548-.548l-.086.086c.46.1.646-.085.548-.548l-.086.086c.461.1.646-.085.548-.548l-.086.086c.461.1.646-.085.548-.548l-.086.086c.46.1.646-.085.548-.548l-.086.086c.461.1.646-.085.548-.548l-.086.086c.46.1.646-.085.548-.548l-.086.086c.461.1.646-.085.548-.548l-.086.086c.461.1.646-.085.548-.548l-.086.086c.46.1.646-.085.548-.548l-.086.086c.461.1.646-.085.548-.548l-.086.086c.461.1.646-.085.548-.548l-.086.086c.461.1.646-.085.548-.548l-.086.086c.461.1.646-.085.548-.548l-.086.086c.46.1.646-.085.548-.548l-.086.086c.461.1.646-.085.548-.548l-.086.086c.461.1.646-.085.548-.548l-.086.086c.461.1.646-.085.548-.548l-.086.086c.46.1.646-.085.548-.548l-.086.086c.46.095.646-.085.548-.548l-.072.065c.471.245.684-.059.874-.41l.788-.7.09-.145-.032.1c.9-.83,1.852-1.616,2.7-2.5,7.207-7.463,14.533-14.824,21.9-22.115,9.014-8.924,17.776-18.119,27.085-26.734,4.911-4.545,9.584-9.312,14.329-14.012Q97.181,20.173,114.041,3.148c.485-.486,1.479-.768,1.145-1.815ZM217.93,116.21c-.529-.475-1.066-.916-1.556-1.4-32.751-32.727-65.416-65.54-98.44-97.993a11.587,11.587,0,0,1-1.137-1.15c-.819-1.072-1.335-.887-2.307.044-8.214,7.865-16.159,16-24.285,23.957-25.036,24.506-49.768,49.322-74.615,74.02-2.573,2.557-2.578,2.576-.041,5.1C32.7,135.818,49.6,153.093,66.985,169.893c15.9,15.366,31.348,31.21,46.911,46.927,1.507,1.522,2.191,1.289,3.546-.068q46.22-46.32,92.536-92.543c2.219-2.216,4.215-4.674,6.815-6.5a6.791,6.791,0,0,0,1.137-1.494" transform="translate(0 -0.716)" fill="#dd3832"/>
              <path id="Trazado_824189" data-name="Trazado 824189" d="M233.779,132a6.781,6.781,0,0,1-1.137,1.494c-2.6,1.831-4.6,4.289-6.815,6.5Q179.52,186.229,133.29,232.54c-1.355,1.358-2.038,1.591-3.545.068-15.562-15.717-31.007-31.56-46.911-46.927C65.448,168.881,48.544,151.6,31.4,134.569c-2.537-2.52-2.531-2.539.041-5.1,24.848-24.7,49.579-49.514,74.615-74.019C114.18,47.5,122.125,39.361,130.339,31.5c.972-.931,1.488-1.116,2.307-.044a11.587,11.587,0,0,0,1.137,1.15c33.024,32.453,65.689,65.266,98.44,97.993.489.489,1.027.929,1.556,1.4M131.317,34.7c-.412.394-.868.8-1.29,1.236-7.321,7.576-14.871,14.923-22.2,22.494-7.789,8.043-15.876,15.815-24.018,23.53-16.894,16.007-33.058,32.784-49.538,49.23-.784.783-.989,1.14,0,2.121q12.968,12.927,26.027,25.762c23.3,22.981,46.327,46.243,69.715,69.139a4.374,4.374,0,0,1,.486.494c.676.914,1.226.775,2.012.006,8.357-8.178,16.616-16.456,24.953-24.654,23.526-23.133,46.687-46.637,70.146-69.838,1.869-1.848,1.31-2.4-.047-3.757Q192.278,95.258,157.052,60,145.032,47.982,133,35.977c-.473-.472-.834-1.122-1.679-1.274" transform="translate(-15.849 -16.503)" fill="#fffffe"/>
              <path id="Trazado_824190" data-name="Trazado 824190" d="M136.074,39.329c.845.151,1.206.8,1.68,1.274q12.04,12,24.056,24.023,35.245,35.239,70.5,70.464c1.357,1.355,1.916,1.909.047,3.758-23.459,23.2-46.62,46.705-70.146,69.838-8.336,8.2-16.6,16.476-24.953,24.654-.786.769-1.336.908-2.013-.006a4.445,4.445,0,0,0-.486-.494c-23.388-22.9-46.413-46.157-69.715-69.139q-13.037-12.858-26.027-25.762c-.984-.981-.78-1.338,0-2.121,16.48-16.445,32.644-33.223,49.538-49.23,8.143-7.715,16.23-15.486,24.018-23.53,7.33-7.571,14.881-14.918,22.2-22.493.423-.437.877-.842,1.29-1.236m17.313,50.9a3.116,3.116,0,0,0-.291-.273c2.162-7.279,1.029-14.043-3.4-21.017a37.909,37.909,0,0,1-1.4,10.875,4.109,4.109,0,0,1-3.159,3.413,5.941,5.941,0,0,1-.074-1.481c.7-3.123-.493-5.871-1.634-8.64-2.194-5.329-5.552-10.193-6.312-16.107a4.13,4.13,0,0,0-1.277-2.812c-1.248,2.789-2.267,5.564-2.157,8.493a66.3,66.3,0,0,1-.728,12.119,14.709,14.709,0,0,1-2.306,6.451,17.555,17.555,0,0,1-1.855-4.787c-.631-2.922-1.729-5.644-4.94-6.785-.451-.16-.961-.44-1.248-.122a1.41,1.41,0,0,0-.15,1.283,5.085,5.085,0,0,1,.281,3.371c-.846,4.35-2.108,8.666-.464,13.2a2.887,2.887,0,0,1-2.463-1.6c-.57-1.4-1.789-2.275-2.506-3.525-.49-.853-1.41-1.76-2.108-1.471-.892.369-1.006,1.8-.609,2.644.925,1.959-.211,3.738-.226,5.6,0,.483,0,.966,0,1.447-.033,3.675,1.423,6.905,3,10.157a4.2,4.2,0,0,1-2.574-.128c-2.565-.9-3.748-3.282-5.644-4.883-.45-.38-.8-1.317-1.51-.843-.545.364-.333,1.094-.169,1.828,1.108,4.985,2.5,9.9,3.7,14.853,1.244,5.141,4.681,8.161,9.025,10.068,5.178,2.273,10.88,2.419,16.49,2.631.469.018.777-.1.851-.492.145-.762-.487-.625-.889-.6a10.75,10.75,0,0,1-3.6-.472c-4.4-1.3-9.508-5.358-9.68-10.393,1.282,2.839,4.033,1.617,6.042,2.458a1.09,1.09,0,0,0,1.447-.367c.342-.649-.14-1.094-.509-1.558a17.02,17.02,0,0,1-2.213-2.907c-1-2.07-2.3-4.174-1.239-6.812a19.535,19.535,0,0,0,7.5,5.221,7.361,7.361,0,0,0-.02-1.806,13.567,13.567,0,0,1,.514-8.678c.721-1.97,1.543-3.9,2.292-5.862.146-.382-.257-1,.367-1.165.661-.172.942.468,1.217.875,2.423,3.585,4.1,7.335,3.121,11.873a23.866,23.866,0,0,0-.051,4.821,23.193,23.193,0,0,0,7.757-5.408,12.127,12.127,0,0,1-3.218,9.528c-.656.764-2.287,1.363-1.8,2.259.6,1.1,2.258.547,3.409.367.847-.132,1.582-.87,2.424-1.186.59-.222,1.145-.914,1.928-.336-2.084,4.768-5.784,7.907-10.749,10.151,1.914.965,3.63.5,5.113.294,6.259-.85,11.346-3.723,14.573-9.4a24.768,24.768,0,0,0,2.8-9.622,76.565,76.565,0,0,0,.677-14.658,19.311,19.311,0,0,0-.715,3.029c-.169,1.07-.214,2.163-.281,3.231-.252,4.006-1.313,5.321-5,6.208-.379.091-.67.315-.963-.1-.275-.393.117-.589.289-.724,2.177-1.7,2.247-4.382,3.139-6.68,1.738-4.476-.033-8.429-1.662-12.754-1.9,3.041-3.261,6.011-6.166,7.723m-15.973,37.451H117.757c-3.692,0-3.692,0-3.691,3.781,0,2.977,0,2.97,2.8,2.708.535-.05,1.078-.01,1.618-.01h37.927c4.371,0,4.253,0,4.4-4.3.065-1.945-.649-2.238-2.353-2.217-7.014.085-14.029.035-21.045.035" transform="translate(-20.607 -21.129)" fill="#dd3832"/>
              <path id="Trazado_824191" data-name="Trazado 824191" d="M233.4,107.473c2.9-1.712,4.268-4.682,6.166-7.723,1.629,4.326,3.4,8.278,1.662,12.755-.892,2.3-.963,4.976-3.139,6.68-.173.135-.565.331-.29.725.292.418.584.195.963.1,3.688-.887,4.75-2.2,5-6.208.067-1.068.112-2.16.281-3.231a19.435,19.435,0,0,1,.715-3.03,76.564,76.564,0,0,1-.677,14.658,24.773,24.773,0,0,1-2.805,9.622c-3.226,5.674-8.315,8.547-14.573,9.4-1.483.2-3.2.67-5.113-.295,4.966-2.244,8.666-5.382,10.749-10.15-.783-.578-1.338.115-1.928.337-.841.316-1.576,1.054-2.423,1.186-1.151.18-2.808.735-3.409-.367-.489-.9,1.143-1.5,1.8-2.259a12.126,12.126,0,0,0,3.218-9.528,23.212,23.212,0,0,1-7.757,5.408,23.871,23.871,0,0,1,.051-4.822c.981-4.538-.7-8.287-3.12-11.872-.275-.407-.556-1.047-1.217-.876-.623.162-.22.784-.366,1.166-.749,1.96-1.572,3.892-2.293,5.862a13.572,13.572,0,0,0-.514,8.678,7.36,7.36,0,0,1,.02,1.805,19.538,19.538,0,0,1-7.5-5.221c-1.057,2.639.235,4.743,1.239,6.813a17.027,17.027,0,0,0,2.213,2.908c.369.463.851.909.509,1.557a1.091,1.091,0,0,1-1.447.367c-2.01-.841-4.761.381-6.042-2.458.172,5.035,5.277,9.092,9.68,10.393a10.75,10.75,0,0,0,3.6.472c.4-.019,1.033-.157.888.605-.074.391-.382.509-.851.491-5.61-.211-11.313-.358-16.49-2.631-4.344-1.908-7.781-4.928-9.025-10.069-1.2-4.956-2.6-9.867-3.7-14.853-.163-.735-.375-1.465.169-1.829.71-.474,1.059.463,1.509.843,1.9,1.6,3.08,3.983,5.645,4.883a4.2,4.2,0,0,0,2.574.128c-1.574-3.252-3.031-6.482-3-10.157,0-.481,0-.963,0-1.447.015-1.86,1.151-3.639.226-5.6-.4-.84-.283-2.274.609-2.643.7-.29,1.619.618,2.108,1.471.718,1.251,1.937,2.121,2.506,3.525a2.888,2.888,0,0,0,2.463,1.6c-1.644-4.53-.383-8.847.464-13.2a5.082,5.082,0,0,0-.281-3.371,1.412,1.412,0,0,1,.15-1.283c.287-.318.8-.038,1.248.122,3.21,1.141,4.308,3.863,4.94,6.785a17.55,17.55,0,0,0,1.854,4.786,14.71,14.71,0,0,0,2.307-6.45,66.344,66.344,0,0,0,.728-12.119c-.11-2.929.909-5.7,2.157-8.493a4.13,4.13,0,0,1,1.277,2.812c.759,5.914,4.117,10.778,6.312,16.107,1.14,2.769,2.33,5.517,1.633,8.64a5.948,5.948,0,0,0,.074,1.482,4.11,4.11,0,0,0,3.159-3.413,37.93,37.93,0,0,0,1.4-10.876c4.433,6.974,5.566,13.738,3.405,21.018q-.034.27-.069.54l.359-.267" transform="translate(-100.615 -38.374)" fill="#fffffe"/>
              <path id="Trazado_824192" data-name="Trazado 824192" d="M225.3,230.2c7.015,0,14.031.05,21.045-.036,1.7-.02,2.418.273,2.353,2.217-.145,4.292-.027,4.3-4.4,4.3H206.374c-.54,0-1.083-.04-1.618.01-2.8.262-2.8.27-2.8-2.708,0-3.78,0-3.78,3.691-3.78H225.3" transform="translate(-108.494 -123.65)" fill="#fffffe"/>
              <path id="Trazado_824193" data-name="Trazado 824193" d="M286.506,149l-.359.267q.035-.27.069-.54a3.167,3.167,0,0,1,.29.273" transform="translate(-153.725 -79.898)" fill="#dd3832"/>
            </g>
          </g>
          <text id="_3-2" data-name="3" transform="translate(106.544 197.126)" fill="#fff" font-size="31" font-family="Roboto-Bold, Roboto" font-weight="700"><tspan x="0" y="0">3</tspan></text>
        </g>
      </g>
    </g>
  </g>
</svg>
