<svg xmlns="http://www.w3.org/2000/svg" xmlns:xlink="http://www.w3.org/1999/xlink" width="464" height="344" viewBox="0 0 464 344">
  <defs>
    <clipPath id="clip-path">
      <rect id="Rectángulo_378313" data-name="Rectángulo 378313" width="464" height="344" transform="translate(0.446)" fill="none"/>
    </clipPath>
    <clipPath id="clip-path-2">
      <rect id="Rectángulo_378330" data-name="Rectángulo 378330" width="318" height="318" transform="translate(0.446)" fill="none"/>
    </clipPath>
  </defs>
  <g id="Grupo_1074336" data-name="Grupo 1074336" transform="translate(-0.446)">
    <g id="Grupo_1071412" data-name="Grupo 1071412">
      <g id="Enmascarar_grupo_402" data-name="Enmascarar grupo 402" clip-path="url(#clip-path)">
        <g id="Grupo_1074321" data-name="Grupo 1074321" transform="translate(73 13)">
          <g id="Grupo_1074352" data-name="Grupo 1074352">
            <g id="Grupo_1074352-2" data-name="Grupo 1074352" clip-path="url(#clip-path-2)">
              <path id="Trazado_824387" data-name="Trazado 824387" d="M318,159.207,159.208,318,0,158.792,158.793,0,318,159.207M4.449,159.1,158.962,313.6,313.615,158.956,159.106,4.444,4.449,159.1"/>
              <path id="Trazado_824388" data-name="Trazado 824388" d="M6.878,161.521,161.535,6.869,316.044,161.381,161.39,316.03,6.878,161.521m154.27,144.6L305.9,161.37,161.424,16.892,16.671,161.643,161.148,306.123" transform="translate(-2.429 -2.425)" fill="#fff"/>
              <path id="Trazado_824389" data-name="Trazado 824389" d="M166.493,311.594,22.017,167.115,166.77,22.364,311.247,166.842,166.493,311.594M307.028,166.951,166.957,26.881,26.886,166.951Z" transform="translate(-7.774 -7.897)"/>
              <path id="Trazado_824390" data-name="Trazado 824390" d="M308.8,169.121H28.658L168.73,29.051,308.8,169.121M92.768,143.228c-4.524,0-9.048-.014-13.573,0-3.956.014-5.016,1.057-5.053,4.889-.008.862.028,1.727-.047,2.583-.421,4.747.495,5.8,5.191,5.8q33.286.008,66.571.008a14.958,14.958,0,0,1,3.209.161c8.492,1.888,11.1-.261,10.669-8.894-.146-2.936-1.714-4.527-4.6-4.54-6.14-.027-12.281.065-18.42-.034a18.061,18.061,0,0,0-11.433,3.4c-1.6,1.164-3.041,2.482-5.894,2.142-3.283-.39-5.336-1.728-7.732-3.524a11.6,11.6,0,0,0-5.965-1.9c-4.291-.279-8.612-.085-12.921-.088M132.389,85.49l-.12-.721a12.386,12.386,0,0,0-2.824.326c-2.854,1.011-5.583,2.145-8.514-.064-.354-.267-3.114,1.486-3.022,1.985a132.429,132.429,0,0,0,3.249,13.681c.617,2.086,2.36,1.992,3.931.289a7.493,7.493,0,0,1,3.225-2.214c10.2-2.785,20.441-5.457,30.686-8.1,3.152-.812,4.7-2.8,4.589-6.32-.082-2.71-2.014-5.372-4.6-5.282a93.227,93.227,0,0,0-10.564,1.5l.188,1.043c3.112-.528,6.21-1.17,9.339-1.546a3.8,3.8,0,0,1,4.472,3.243c.511,2.592-.055,5.021-2.792,6.166a13.084,13.084,0,0,1-4.63,1.15c-11.19.226-22.383.334-33.576.4-.557,0-1.608-.752-1.577-1.072a2.726,2.726,0,0,1,1.115-1.927,11.379,11.379,0,0,1,3.078-.8c2.78-.59,5.565-1.158,8.348-1.734m82.824,5.076q-.152.463-.3.925a2.992,2.992,0,0,1-.856.276c-10.121.019-20.264.415-30.354-.151-4.531-.254-9.818-.777-12.207-6.979-.418,4.224,2.235,5.314,4.529,6.072,7.59,2.506,15.346,4.516,22.912,7.088,3.669,1.247,8.114,1.043,10.506,5.288.826,1.467,2.819,1.261,3.47-.7,1.412-4.255,2.758-8.544,3.8-12.9.188-.791-1.043-2.225-1.967-2.846-.446-.3-1.672.721-2.594.921a9.322,9.322,0,0,1-2.375-.032c-.79-.041-1.58-.116-2.369-.177q0,.193.009.386l7.8,2.83m-28.677,14.928c.846,1.463,1.558,2.773,2.349,4.035.773,1.236,1.363,2.875,2.5,3.535,2.378,1.382,4.693,2.447,4.408,5.836-.041.492,1.138,1.14,1.816,1.627a26.676,26.676,0,0,0,3.418,2.227,17.028,17.028,0,0,0,2.983.9c.087-1.28-.126-2.124-.634-2.377a9.382,9.382,0,0,1-5.384-6.61c-.261-1.131-1.339-2.126-2.181-3.059-1.51-1.671-3.283-3.125-4.651-4.9-1.415-1.834-2.832-2.232-4.625-1.221m-80.272,9.565c-3.194,4.02-2.79,5.983-.878,9.864,1.3,2.645.646,6.235,3.818,8.085.05.029.049.219.012.311-1.448,3.631,1.371,5.54,3.535,7.843.324-1.155.488-2.507-.108-3.238-1.254-1.54-2.029-2.859-1.1-4.9.265-.585-.458-1.667-.82-2.48a36.416,36.416,0,0,0-2.24-4.647c-1.653-2.62-1.608-5.35-1.131-8.243.107-.649-.573-1.429-1.086-2.59m24.988,20.976,1.148.569a30.893,30.893,0,0,1,3.454-4.406,5.63,5.63,0,0,0,1.961-5.71c-.15-.816-.015-2.315.429-2.512,4.713-2.09,3.863-6.747,5.394-10.612-2.989-.118-4.069,1.745-4.132,3.713-.071,2.229-1.026,3.451-2.56,4.816-.963.857-1.966,2.63-1.714,3.7.606,2.58-.27,4.245-1.841,6.087-1.017,1.192-1.446,2.885-2.139,4.354m92.427-11.906a28.382,28.382,0,0,0,3.718-4.019c1.81-2.884,2.931-6.266,5.034-8.882a8.606,8.606,0,0,0,1.927-7.974,6.257,6.257,0,0,0-1.08-1.7c-.4.627-1.205,1.3-1.139,1.873.295,2.561-.861,4.322-2.32,6.318-3.027,4.138-5.931,8.448-6.139,14.386M98.787,120.745c-1.11,2.954-5.92,5.7-.686,9.022-.251,3.665,1.43,5.962,4.072,8.617a11.249,11.249,0,0,0,5.859,3.363c-5.473-5.961-9.64-12.407-9.245-21m132.069,4.129a11.093,11.093,0,0,1,2.879-1.164c3.784-.235,5.086-2.46,5.394-5.915a3.772,3.772,0,0,1,1.913-2.512c2.375-1.148,1.539-3.183,1.363-4.781-.122-1.113-1.329-2.108-2.051-3.155l-1.389.244c2.507,4.107-.828,6.26-2.316,8.929a100.772,100.772,0,0,1-5.793,8.353m-22.975-2.641c.792-2.9-4.6-12.3-8.482-14.775-.985,2.538,4.883,12.759,8.482,14.775m-79.554,15.543c1.6-5.347,3.224-10.688,4.74-16.059.089-.316-.695-.877-1.463-1.785-1.91,6.151-4.9,11.461-3.278,17.844M171.668,83.07c2.432-3.236,4.538-3.849,8.968-2.491,1.478.453,3.011.721,4.519,1.074l.208-1.026c-2.95-.562-5.879-1.337-8.855-1.622-2.828-.27-4.174,1.7-4.839,4.065" transform="translate(-10.119 -10.258)" fill="#fff"/>
              <path id="Trazado_824391" data-name="Trazado 824391" d="M117.519,205.519c4.309,0,8.63-.195,12.921.085a11.6,11.6,0,0,1,5.965,1.9c2.4,1.8,4.449,3.134,7.732,3.524,2.853.34,4.3-.978,5.893-2.143a18.061,18.061,0,0,1,11.433-3.395c6.138.1,12.279.006,18.42.034,2.889.013,4.457,1.6,4.6,4.54.427,8.633-2.177,10.783-10.669,8.894a14.952,14.952,0,0,0-3.209-.161q-33.286-.012-66.571-.008c-4.7,0-5.612-1.05-5.191-5.8.076-.856.039-1.721.048-2.583.037-3.833,1.1-4.875,5.053-4.889,4.524-.017,9.048,0,13.573,0" transform="translate(-34.87 -72.546)"/>
              <path id="Trazado_824392" data-name="Trazado 824392" d="M181.1,112.792c-2.783.576-5.567,1.145-8.347,1.734a11.4,11.4,0,0,0-3.078.8,2.725,2.725,0,0,0-1.115,1.928c-.031.32,1.02,1.075,1.576,1.072,11.193-.069,22.386-.177,33.577-.4a13.083,13.083,0,0,0,4.63-1.15c2.737-1.146,3.3-3.575,2.791-6.167a3.8,3.8,0,0,0-4.471-3.243c-3.13.376-6.228,1.018-9.339,1.546l-.188-1.043a93.331,93.331,0,0,1,10.564-1.5c2.584-.091,4.517,2.572,4.6,5.282.106,3.517-1.437,5.508-4.589,6.32-10.244,2.64-20.48,5.312-30.686,8.1a7.488,7.488,0,0,0-3.224,2.214c-1.572,1.7-3.315,1.8-3.931-.289a132.221,132.221,0,0,1-3.249-13.681c-.092-.5,2.668-2.251,3.022-1.985,2.931,2.209,5.66,1.075,8.514.064a12.392,12.392,0,0,1,2.824-.326l.12.721" transform="translate(-58.834 -37.561)"/>
              <path id="Trazado_824393" data-name="Trazado 824393" d="M293.153,120.906l-7.8-2.83c0-.129-.006-.257-.009-.386.79.06,1.578.136,2.369.177a9.3,9.3,0,0,0,2.376.032c.921-.2,2.147-1.22,2.593-.921.924.62,2.156,2.055,1.967,2.846-1.037,4.356-2.383,8.645-3.8,12.9-.65,1.96-2.644,2.166-3.47.7-2.392-4.245-6.837-4.041-10.506-5.288-7.565-2.572-15.322-4.582-22.912-7.088-2.294-.758-4.947-1.848-4.529-6.072,2.389,6.2,7.677,6.726,12.208,6.98,10.089.565,20.232.169,30.354.15a2.962,2.962,0,0,0,.855-.276q.152-.462.3-.925" transform="translate(-88.06 -40.598)"/>
              <path id="Trazado_824394" data-name="Trazado 824394" d="M272.711,146.922c1.793-1.012,3.209-.613,4.624,1.22,1.368,1.773,3.141,3.227,4.651,4.9.843.933,1.921,1.928,2.182,3.059a9.384,9.384,0,0,0,5.384,6.611c.508.252.72,1.1.634,2.376a17.01,17.01,0,0,1-2.983-.9,26.748,26.748,0,0,1-3.418-2.227c-.679-.486-1.858-1.135-1.816-1.627.284-3.389-2.03-4.455-4.409-5.836-1.136-.661-1.726-2.3-2.5-3.535-.79-1.263-1.5-2.573-2.348-4.035" transform="translate(-96.295 -51.687)"/>
              <path id="Trazado_824395" data-name="Trazado 824395" d="M147.336,162.005c.513,1.161,1.194,1.94,1.086,2.59-.477,2.894-.522,5.624,1.131,8.244a36.29,36.29,0,0,1,2.24,4.647c.363.813,1.086,1.894.82,2.479-.928,2.045-.153,3.365,1.1,4.9.6.732.431,2.084.107,3.239-2.164-2.3-4.982-4.212-3.535-7.843.036-.091.038-.281-.012-.311-3.172-1.85-2.515-5.44-3.818-8.085-1.913-3.881-2.317-5.843.877-9.864" transform="translate(-51.192 -57.204)"/>
              <path id="Trazado_824396" data-name="Trazado 824396" d="M187.25,182.054c.693-1.468,1.122-3.161,2.139-4.354,1.57-1.841,2.447-3.506,1.841-6.086-.252-1.072.751-2.845,1.714-3.7,1.534-1.364,2.489-2.586,2.56-4.816.063-1.967,1.144-3.831,4.132-3.713-1.531,3.866-.681,8.522-5.394,10.612-.444.2-.579,1.7-.43,2.512a5.629,5.629,0,0,1-1.961,5.709,30.894,30.894,0,0,0-3.454,4.407l-1.148-.57" transform="translate(-66.118 -56.277)"/>
              <path id="Trazado_824397" data-name="Trazado 824397" d="M330.127,163.7c.208-5.937,3.112-10.247,6.139-14.386,1.459-2,2.615-3.757,2.32-6.317-.067-.573.736-1.247,1.139-1.874a6.3,6.3,0,0,1,1.08,1.7,8.608,8.608,0,0,1-1.927,7.975c-2.1,2.616-3.224,6-5.034,8.882a28.415,28.415,0,0,1-3.718,4.018" transform="translate(-116.568 -49.832)"/>
              <path id="Trazado_824398" data-name="Trazado 824398" d="M135.384,170.8c-.395,8.6,3.773,15.042,9.245,21a11.251,11.251,0,0,1-5.859-3.363c-2.641-2.656-4.323-4.952-4.072-8.617-5.235-3.324-.424-6.068.686-9.022" transform="translate(-46.716 -60.308)"/>
              <path id="Trazado_824399" data-name="Trazado 824399" d="M166.092,147.784c1.727,4.231,5.743,6.975,3.636,10.345a3.932,3.932,0,0,1-1.63,1.565,3.671,3.671,0,0,1-3.949-.591,3.036,3.036,0,0,1-1.393-2.6c.392-2.961,2.505-5.819,3.335-8.721" transform="translate(-57.464 -52.183)"/>
              <path id="Trazado_824400" data-name="Trazado 824400" d="M313.277,143.651c1.727,4.231,5.743,6.975,3.636,10.345a3.932,3.932,0,0,1-1.63,1.565,3.671,3.671,0,0,1-3.949-.591,3.036,3.036,0,0,1-1.393-2.6c.392-2.961,2.505-5.819,3.335-8.721" transform="translate(-109.435 -50.723)"/>
              <path id="Trazado_824401" data-name="Trazado 824401" d="M318,160.037c1.727,4.231,5.743,6.975,3.636,10.345a3.93,3.93,0,0,1-1.63,1.564,3.67,3.67,0,0,1-3.949-.591,3.036,3.036,0,0,1-1.393-2.6c.392-2.961,2.505-5.819,3.335-8.722" transform="translate(-111.103 -56.509)"/>
              <path id="Trazado_824402" data-name="Trazado 824402" d="M166.092,172.733c1.727,4.231,5.743,6.976,3.636,10.345a3.927,3.927,0,0,1-1.63,1.564,3.668,3.668,0,0,1-3.949-.591,3.035,3.035,0,0,1-1.393-2.6c.392-2.961,2.505-5.819,3.335-8.722" transform="translate(-57.464 -60.992)"/>
              <path id="Trazado_824403" data-name="Trazado 824403" d="M341.223,167.611a101.032,101.032,0,0,0,5.793-8.353c1.488-2.669,4.823-4.823,2.316-8.929l1.389-.244c.722,1.047,1.928,2.042,2.051,3.155.176,1.6,1.012,3.632-1.363,4.781a3.775,3.775,0,0,0-1.914,2.511c-.307,3.456-1.609,5.68-5.393,5.916a11.061,11.061,0,0,0-2.879,1.164" transform="translate(-120.486 -52.995)"/>
              <path id="Trazado_824404" data-name="Trazado 824404" d="M301.017,165.03c-3.6-2.016-9.467-12.237-8.482-14.775,3.879,2.474,9.274,11.871,8.482,14.775" transform="translate(-103.256 -53.055)"/>
              <path id="Trazado_824405" data-name="Trazado 824405" d="M182.476,187.382c-1.617-6.383,1.368-11.693,3.278-17.844.767.908,1.551,1.47,1.462,1.785-1.516,5.371-3.139,10.712-4.74,16.059" transform="translate(-64.269 -59.864)"/>
              <path id="Trazado_824406" data-name="Trazado 824406" d="M249.728,110.324c.666-2.361,2.011-4.336,4.839-4.065,2.976.285,5.906,1.06,8.855,1.622l-.208,1.026c-1.508-.353-3.042-.621-4.519-1.074-4.43-1.358-6.536-.745-8.968,2.491" transform="translate(-88.179 -37.511)"/>
              <path id="Trazado_824407" data-name="Trazado 824407" d="M313.417,233.688q-.634,0-1.326-.035c-7.362-.378-42.334-.193-42.688-.19l-.074,0c-1.135-.081-6.856-.631-8.066-3.519-.515-1.228-.155-2.58,1.071-4.02l1.477,1.258c-.712.836-.967,1.513-.758,2.011.556,1.327,4.05,2.159,6.378,2.331,1.338-.007,35.451-.182,42.76.193,6.644.343,8.3-2.183,8.316-2.209,1.38-2.3,5.5-2.56,5.964-2.582l14.588-.384.051,1.939-14.568.384c-1.336.067-3.729.572-4.369,1.637-.182.324-2,3.189-8.757,3.189" transform="translate(-92.172 -79.773)"/>
              <path id="Trazado_824408" data-name="Trazado 824408" d="M281.469,223.236l-26.26-.384c-.466-.036-4.026-.389-5.194-2.751-.653-1.32-.4-2.9.75-4.687l1.633,1.05c-.755,1.175-.972,2.108-.644,2.775.569,1.155,2.753,1.6,3.52,1.673l26.223.383Z" transform="translate(-88.156 -76.063)"/>
              <path id="Trazado_824409" data-name="Trazado 824409" d="M275.737,212.482l-25.241-.191c-.508.054-3.343.276-5.2-1.346a4.857,4.857,0,0,1-1.576-3.841,4.394,4.394,0,0,1,1.555-3.61c1.99-1.612,5.206-1.118,5.836-1l27.7.191-.014,1.941-27.89-.192-.1-.021c-.794-.165-3.122-.382-4.32.593a2.526,2.526,0,0,0-.833,2.1,2.975,2.975,0,0,0,.909,2.377c1.331,1.172,3.722.882,3.745.878l.133-.008,25.3.192Z" transform="translate(-86.059 -71.443)"/>
              <path id="Trazado_824410" data-name="Trazado 824410" d="M306.945,206.627c-.272-.043-6.676-1.1-9.356-6.875a7.781,7.781,0,0,0-7.3-4.424c-.3,0-24.627.194-27.663.194-3.332,0-3.63.494-3.63,1.9,0,1.333.676,1.508.967,1.522l-.021,1.941c-.8,0-2.887-.622-2.887-3.462,0-3.845,3.353-3.845,5.57-3.845,3.029,0,27.349-.19,27.594-.192a9.685,9.685,0,0,1,9.129,5.545c2.236,4.815,7.841,5.766,7.9,5.776Z" transform="translate(-90.767 -68.283)"/>
              <path id="Trazado_824411" data-name="Trazado 824411" d="M343.351,190.64c-4.2,0-9.964-.311-11.271-1.945-1.138-1.421-10.889-6.921-15.418-6.789a1.966,1.966,0,0,0-1.622.606,10.682,10.682,0,0,1-9.067,4.061,3.791,3.791,0,0,1-3.342-1.911c-.713-1.546-3.947-1.778-5.023-1.738h-8.189l-.1-.021a2.531,2.531,0,0,0-1.86.35,2.191,2.191,0,0,0-.611,1.767c0,2.844,2,3.222,2.227,3.256l-.252,1.924c-1.355-.169-3.916-1.47-3.916-5.18a3.988,3.988,0,0,1,1.336-3.278,4.381,4.381,0,0,1,3.365-.758h7.961c.521-.024,5.442-.13,6.823,2.864.191.414.847.71,1.752.791a8.855,8.855,0,0,0,7.305-3.242,3.742,3.742,0,0,1,3.149-1.432c5.382-.17,15.629,5.807,17,7.516.683.832,6.464,1.364,12.629,1.17l.063,1.939c-.789.025-1.806.048-2.936.048" transform="translate(-100.601 -63.545)"/>
              <line id="Línea_1057" data-name="Línea 1057" y1="6.858" x2="28.42" transform="translate(113.922 70.108)"/>
              <rect id="Rectángulo_378328" data-name="Rectángulo 378328" width="29.235" height="1.293" transform="matrix(0.972, -0.235, 0.235, 0.972, 113.771, 76.339)"/>
              <line id="Línea_1058" data-name="Línea 1058" x2="34.501" y2="9.584" transform="translate(168.793 69.341)"/>
              <rect id="Rectángulo_378329" data-name="Rectángulo 378329" width="1.294" height="35.807" transform="matrix(0.268, -0.964, 0.964, 0.268, 168.62, 69.966)"/>
              <path id="Trazado_824412" data-name="Trazado 824412" d="M251.278,412.6a5.673,5.673,0,0,1-.888,3.147,6.385,6.385,0,0,1-2.445,2.193,7.064,7.064,0,0,1,2.813,2.351,6.035,6.035,0,0,1,1.038,3.524,6.388,6.388,0,0,1-2.21,5.131,10.54,10.54,0,0,1-12.037-.008,6.372,6.372,0,0,1-2.227-5.123,6.074,6.074,0,0,1,1.038-3.532,6.945,6.945,0,0,1,2.8-2.344,6.325,6.325,0,0,1-2.436-2.193,5.71,5.71,0,0,1-.879-3.147,6.318,6.318,0,0,1,2.076-4.964,9.55,9.55,0,0,1,11.275-.017,6.3,6.3,0,0,1,2.084,4.981m-4.337,10.865a3.512,3.512,0,0,0-.92-2.545,3.684,3.684,0,0,0-4.938-.008,3.969,3.969,0,0,0-.017,5.064,3.776,3.776,0,0,0,4.981.034,3.5,3.5,0,0,0,.895-2.544m-.5-10.631a3.349,3.349,0,0,0-.754-2.285,3.064,3.064,0,0,0-4.236-.025,3.33,3.33,0,0,0-.753,2.309,3.5,3.5,0,0,0,.753,2.344,2.981,2.981,0,0,0,4.244,0,3.525,3.525,0,0,0,.745-2.344" transform="translate(-83.093 -143.283)" fill="#fff"/>
            </g>
          </g>
        </g>
      </g>
    </g>
  </g>
</svg>
