<svg xmlns="http://www.w3.org/2000/svg" xmlns:xlink="http://www.w3.org/1999/xlink" width="464" height="344" viewBox="0 0 464 344">
  <defs>
    <clipPath id="clip-path">
      <rect id="Rect치ngulo_378313" data-name="Rect치ngulo 378313" width="464" height="344" transform="translate(0.446)" fill="none"/>
    </clipPath>
    <clipPath id="clip-path-2">
      <rect id="Rect치ngulo_378325" data-name="Rect치ngulo 378325" width="464" height="232.341" fill="none"/>
    </clipPath>
  </defs>
  <g id="Grupo_1074342" data-name="Grupo 1074342" transform="translate(-0.446)">
    <g id="Grupo_1071412" data-name="Grupo 1071412">
      <g id="Enmascarar_grupo_402" data-name="Enmascarar grupo 402" clip-path="url(#clip-path)">
        <g id="Grupo_1074348" data-name="Grupo 1074348" transform="translate(0 51.063)">
          <g id="Grupo_1074347" data-name="Grupo 1074347" clip-path="url(#clip-path-2)">
            <path id="Trazado_824349" data-name="Trazado 824349" d="M116.06,1.295,231.728,116.958,115.661,233.026,0,117.355,116.06,1.295M3.392,117.073,115.941,229.622l112.493-112.49L115.886,4.583,3.392,117.073" transform="translate(0 -0.685)"/>
            <path id="Trazado_824350" data-name="Trazado 824350" d="M7.2,120.761,119.69,8.271,232.238,120.82,119.746,233.31,7.2,120.761m112,105.565,105.75-105.749L119.807,15.44,14.057,121.189,119.194,226.327" transform="translate(-3.804 -4.373)" fill="#fff"/>
            <path id="Trazado_824351" data-name="Trazado 824351" d="M126.889,234.368,21.752,129.231,127.5,23.482,232.639,128.619,126.889,234.368m.685-207.585L25.25,129.108,127.157,231.017,229.483,128.69,127.575,26.784" transform="translate(-11.5 -12.414)"/>
            <path id="Trazado_824352" data-name="Trazado 824352" d="M131.5,30.486,233.407,132.393,131.081,234.719,29.173,132.81,131.5,30.486M123.05,85.834q.016.458.031.917c-4.82,1.764-9.1,4.921-14.614,4.946-1.232.006-3.205.738-3.5,1.595-.362,1.056.62,2.613,1.127,3.913a16.5,16.5,0,0,0,1.5,3.03c.419.64,1.271,1.642,1.669,1.533,1.568-.429,3.854-.844,4.389-1.97,1.872-3.936,5.362-5.628,8.865-7.273,1.966-.923,4.051-2.5,6.526-.854,2.938,1.956,5.724,1.419,8.391-.723a2.35,2.35,0,0,1,1.938-.405,81.665,81.665,0,0,1,9.213,4,5.2,5.2,0,0,1,2.5,3.444c.21,2.6,1.721,3.354,3.757,3.7,2.329.4,3.294-1.158,4.12-3.02a8.616,8.616,0,0,1,2.071-2.9c2.23-1.972,1.985-4.407-.854-5.313-1.314-.419-2.861-.119-4.3-.122-1.5,0-3.113.378-4.482-.042a81.2,81.2,0,0,1-7.6-3.111c-1.7-.717-1.471-1.8-.207-2.555a68.831,68.831,0,0,1,7.842-4.185c2.333-1.017,4.734-1.88,7.425-.388.791.439,2.787-.222,3.5-1.027a4.512,4.512,0,0,0,.464-3.6,22.29,22.29,0,0,0-2.3-5.161c-.371-.659-1.472-1.559-1.913-1.405-1.439.5-3.235,1.11-3.98,2.266a17.739,17.739,0,0,1-8.663,6.736c.663-2.109,2-4.469,1.973-6.815a11.208,11.208,0,0,1,1.249-6.217,8.637,8.637,0,0,0,.957-2.891c.456-2.664.733-5.459-1.519-7.454-4.162-3.687-8.575-7.112-13.867-9.025a7.09,7.09,0,0,0-4.747.032,116.541,116.541,0,0,0-12.39,6.1c-2.765,1.584-5.111,3.9-4.429,7.572.477,2.566,1.378,5.052,2.035,7.588a25.617,25.617,0,0,1,1.036,4.822c.167,2.855.442,5.5,3.6,6.715a5.246,5.246,0,0,1,1.177.9,8.347,8.347,0,0,1-4.185-1.339c-3.575-2.492-6.968-5.251-10.6-7.654a5.7,5.7,0,0,0-3.856-.463c-.536.1-1.32,1.759-1.106,2.426.533,1.662,1.554,3.163.2,4.9l2.512-2.6c-.9-1.067-1.711-1.619-1.839-2.3-.107-.57.5-1.767.935-1.844a3.858,3.858,0,0,1,2.712.521c2.807,2.084,5.382,4.487,8.237,6.5,2.032,1.431,4.413,2.358,6.552,3.652.562.34.8,1.21,1.192,1.837-.759.128-1.61.541-2.259.33-2.067-.67-4.027-1.668-6.088-2.359-2.691-.9-5.306-2.251-8.338-.82-1.945.918-3.681.372-4.32-2.141-.073,3,2.025,4.528,4.52,3.228a6.409,6.409,0,0,1,5.187-.217c1.717.516,3.436,1.054,5.1,1.727,2.509,1.018,4.967,2.162,7.447,3.252m12.474,121.384c-.5-2.564-1.817-4.043-4.211-4.42a5.994,5.994,0,0,0-6.035,2.341c-2.375,3.06-2.424,11-.131,14.175a6.041,6.041,0,0,0,7.15,2.033,6.145,6.145,0,0,0,3.666-6.489c-.235-2.925-2.008-5.17-4.634-5.43a18.443,18.443,0,0,0-4.114.537,13.864,13.864,0,0,1,.9-2.943c.769-1.353,2.323-2.023,3.243-.652,1.254,1.869,2.508,1.258,4.167.847" transform="translate(-15.423 -16.117)" fill="#fff"/>
            <path id="Trazado_824353" data-name="Trazado 824353" d="M203.392,102.193c-2.48-1.09-4.939-2.234-7.448-3.252-1.659-.673-3.378-1.211-5.1-1.727a6.408,6.408,0,0,0-5.186.216c-2.5,1.3-4.593-.224-4.52-3.228.639,2.513,2.375,3.059,4.32,2.141,3.033-1.431,5.646-.083,8.338.82,2.062.692,4.021,1.689,6.088,2.359.649.21,1.5-.2,2.259-.33-.388-.627-.63-1.5-1.192-1.838-2.139-1.295-4.52-2.221-6.552-3.652-2.854-2.01-5.43-4.413-8.237-6.5a3.86,3.86,0,0,0-2.712-.521c-.437.077-1.042,1.274-.935,1.844.129.681.938,1.234,1.84,2.3l-2.512,2.6c1.35-1.742.328-3.242-.2-4.9-.214-.667.569-2.326,1.106-2.426a5.7,5.7,0,0,1,3.856.464c3.632,2.4,7.024,5.162,10.6,7.654a8.353,8.353,0,0,0,4.185,1.339,5.249,5.249,0,0,0-1.177-.9c-3.156-1.214-3.432-3.86-3.6-6.715a25.623,25.623,0,0,0-1.036-4.822c-.658-2.536-1.559-5.021-2.036-7.588-.682-3.674,1.664-5.988,4.43-7.572a116.494,116.494,0,0,1,12.39-6.1,7.089,7.089,0,0,1,4.747-.032c5.292,1.913,9.7,5.338,13.867,9.025,2.252,1.995,1.974,4.789,1.519,7.454a8.644,8.644,0,0,1-.957,2.891,11.209,11.209,0,0,0-1.249,6.218c.026,2.345-1.31,4.706-1.973,6.814a17.733,17.733,0,0,0,8.663-6.736c.745-1.156,2.54-1.765,3.98-2.265.441-.154,1.542.747,1.914,1.405a22.325,22.325,0,0,1,2.3,5.161,4.517,4.517,0,0,1-.464,3.6c-.713.8-2.709,1.465-3.5,1.027-2.691-1.492-5.093-.628-7.425.388a68.872,68.872,0,0,0-7.842,4.185c-1.264.758-1.494,1.837.207,2.555a81.251,81.251,0,0,0,7.6,3.111c1.369.42,2.98.04,4.482.043,1.442,0,2.989-.3,4.3.121,2.839.905,3.084,3.341.854,5.313a8.607,8.607,0,0,0-2.071,2.9c-.826,1.862-1.792,3.415-4.121,3.02-2.037-.346-3.547-1.1-3.757-3.7a5.2,5.2,0,0,0-2.5-3.444,81.664,81.664,0,0,0-9.213-4,2.351,2.351,0,0,0-1.939.405c-2.667,2.142-5.453,2.679-8.391.723-2.474-1.647-4.56-.069-6.525.854-3.5,1.645-6.994,3.338-8.866,7.274-.535,1.126-2.82,1.541-4.389,1.97-.4.109-1.25-.894-1.669-1.533a16.468,16.468,0,0,1-1.5-3.03c-.508-1.3-1.489-2.857-1.127-3.913.293-.856,2.267-1.589,3.5-1.594,5.516-.025,9.794-3.183,14.614-4.947q-.015-.458-.03-.917m18.356,1.547V96.149c-.784,2.01-1.032,4.091-2.2,5.244a8.394,8.394,0,0,1-5.207,2.409c-4.272.059-8.664-.373-9.748-6.046-.9,5.065,3.961,10.574,8.819,10.332a5.205,5.205,0,0,0,2.165-.743c2.1-1.18,4.164-2.441,6.24-3.671l-1.167,1.915,11.8,5.969c0,.635,0,1.257,0,1.878.01,2.868.734,3.889,2.8,3.951,2.03.06,2.784-1.031,2.907-3.839a16.4,16.4,0,0,1,.7-3.031l.662.167c-.121.6-.242,1.2-.452,2.235,1.173-.864,2.237-1.3,2.7-2.1.378-.646.267-2.379-.025-2.48-1.634-.565-3.625-1.464-5.052-.97a9.4,9.4,0,0,1-7.6-.621c-2.39-1.124-4.886-2.022-7.342-3.013M226.933,80.3a6.537,6.537,0,0,0-.4-9.9,56.96,56.96,0,0,0-6.253-4.562c-2.794-1.664-5.818-4.124-9.119-2.769a78.764,78.764,0,0,0-13.571,7.306c-3.211,2.134-3.076,8.163-.33,10.838.172-2.365.345-4.751.518-7.137l1.162.054c0,4.3.185,8.6-.06,12.887a6.923,6.923,0,0,0,3.786,6.959,27.353,27.353,0,0,1,3.116,2.1c.518.41,1.192,1.053,1.2,1.6.031,1.879,1.438,1.9,2.585,1.991a28.685,28.685,0,0,0,5.878-.032c.9-.116,2.433-1.071,2.418-1.613-.065-2.538,1.862-3.179,3.4-4.29a23.322,23.322,0,0,0,3.791-3.1,4.5,4.5,0,0,0,1.087-2.94c-.263-4.736-.734-9.461-1.132-14.19l.625-.1c.422,2.242.844,4.484,1.3,6.9m13.5,11.313a22.644,22.644,0,0,0-.044-3.337c-.109-.772-.462-1.85-1.027-2.119-.547-.261-1.565.223-2.26.6-.51.275-.8.935-1.245,1.364a49.061,49.061,0,0,1-5.205,4.835,51.991,51.991,0,0,1-6.2,3.312c-1.521.8-1.778,1.841-.414,3.419,1.686-.85,3.358-1.814,5.123-2.556,3.092-1.3,5.989-3.431,9.74-1.7a2.591,2.591,0,0,0,3.565-1.79,2.014,2.014,0,0,0-.187-1.69c-.3-.331-1.088-.222-1.843-.332m-53.171,22.347,1.206-2.01.4.049v5.177c2.973.75,3.939-1.382,5.338-2.883a30.844,30.844,0,0,1,4.291-4.066c1.763-1.277,3.832-2.127,5.658-3.329.462-.3.51-1.238.748-1.882-.719-.207-1.568-.767-2.133-.558-1.973.73-3.846,1.73-5.761,2.618-2.542,1.177-4.971,2.579-8,2.322a4,4,0,0,0-2.9,1.372c-.3.356.585,1.717,1.152,3.19" transform="translate(-95.764 -32.476)"/>
            <path id="Trazado_824354" data-name="Trazado 824354" d="M241.285,400.388c-1.658.411-2.912,1.022-4.167-.846-.92-1.371-2.474-.7-3.243.652a13.865,13.865,0,0,0-.9,2.943,18.414,18.414,0,0,1,4.114-.537c2.626.259,4.4,2.5,4.634,5.43a6.145,6.145,0,0,1-3.666,6.489,6.042,6.042,0,0,1-7.15-2.033c-2.293-3.176-2.244-11.115.131-14.175a5.994,5.994,0,0,1,6.035-2.341c2.393.377,3.707,1.856,4.211,4.42m-7.906,8.684c.065,1.064.485,2.663,2.482,2.707,2.2.049,2.278-1.7,2.276-3.336,0-1.734-.5-3.3-2.522-3.218-1.858.072-2.3,1.587-2.236,3.847" transform="translate(-121.184 -209.287)"/>
            <path id="Trazado_824355" data-name="Trazado 824355" d="M242.695,81.7c-.456-2.421-.878-4.663-1.3-6.9l-.624.1c.4,4.729.869,9.454,1.132,14.19a4.5,4.5,0,0,1-1.087,2.94,23.324,23.324,0,0,1-3.791,3.1c-1.534,1.111-3.462,1.752-3.4,4.29.014.542-1.516,1.5-2.418,1.613a28.651,28.651,0,0,1-5.878.032c-1.146-.09-2.554-.112-2.585-1.99-.009-.548-.682-1.191-1.2-1.6a27.357,27.357,0,0,0-3.117-2.1,6.922,6.922,0,0,1-3.786-6.959c.246-4.283.06-8.59.06-12.887l-1.162-.055c-.173,2.386-.346,4.772-.518,7.138-2.746-2.675-2.881-8.7.33-10.839a78.811,78.811,0,0,1,13.571-7.306c3.3-1.356,6.326,1.1,9.119,2.769A56.9,56.9,0,0,1,242.3,71.8a6.537,6.537,0,0,1,.4,9.9m-6.995,2.25-4.459,2.485c1.468,1.3,2.779,3.178,4.472,3.629.782.208,2.961-2.217,3.333-3.736.479-1.956-1.666-1.681-3.346-2.377m-10.109,1.7c-1.92-1.812-4.018-1.211-5.982-.754a4.862,4.862,0,0,0-2.148,1.515,9.683,9.683,0,0,0,2.429,3.406c.487.366,2.037-.172,2.754-.74a23.759,23.759,0,0,0,2.947-3.426M231.8,95.807c-1.4-1.627-2.355-3.214-3.742-4.154-.83-.562-2.868,2.8-2.449,4.655.518,2.294,3.048-.462,3.919,1.333l2.272-1.834" transform="translate(-111.526 -33.875)" fill="#fff"/>
            <path id="Trazado_824356" data-name="Trazado 824356" d="M266.073,151.119c2.449,1,4.946,1.9,7.336,3.019a9.394,9.394,0,0,0,7.6.622c1.427-.494,3.418.405,5.052.97.292.1.4,1.834.025,2.48-.463.792-1.527,1.232-2.7,2.1l.452-2.235-.662-.167a16.4,16.4,0,0,0-.7,3.031c-.124,2.808-.878,3.9-2.907,3.839-2.066-.061-2.79-1.082-2.8-3.951,0-.622,0-1.243,0-1.878l-11.8-5.969,1.167-1.915Z" transform="translate(-140.084 -79.862)" fill="#fff"/>
            <path id="Trazado_824357" data-name="Trazado 824357" d="M287.541,119.275c.755.111,1.54,0,1.843.332a2.014,2.014,0,0,1,.187,1.69,2.591,2.591,0,0,1-3.565,1.79c-3.751-1.728-6.648.4-9.74,1.7-1.765.742-3.437,1.706-5.123,2.556-1.364-1.579-1.106-2.622.414-3.419a51.985,51.985,0,0,0,6.2-3.311,49.113,49.113,0,0,0,5.205-4.835c.445-.429.734-1.089,1.245-1.364.694-.374,1.713-.857,2.26-.6.565.269.918,1.347,1.027,2.119a22.649,22.649,0,0,1,.044,3.337" transform="translate(-142.877 -60.134)" fill="#fff"/>
            <path id="Trazado_824358" data-name="Trazado 824358" d="M192.76,162.18c-.567-1.473-1.454-2.834-1.152-3.19a3.994,3.994,0,0,1,2.9-1.372c3.028.257,5.457-1.144,8-2.322,1.915-.888,3.788-1.888,5.761-2.618.565-.209,1.414.351,2.133.558-.238.644-.286,1.578-.748,1.882-1.826,1.2-3.9,2.051-5.658,3.328a30.844,30.844,0,0,0-4.291,4.066c-1.4,1.5-2.366,3.633-5.338,2.883V160.22l-.4-.049-1.206,2.01" transform="translate(-101.266 -80.694)" fill="#fff"/>
            <path id="Trazado_824359" data-name="Trazado 824359" d="M248.008,142.62c-2.077,1.23-4.136,2.49-6.24,3.671a5.2,5.2,0,0,1-2.165.742c-4.857.242-9.716-5.267-8.819-10.331,1.084,5.673,5.476,6.105,9.748,6.046a8.4,8.4,0,0,0,5.207-2.409c1.166-1.153,1.413-3.235,2.2-5.244,0,2.731,0,5.161,0,7.587l.069-.062" transform="translate(-121.952 -71.421)" fill="#fff"/>
            <path id="Trazado_824360" data-name="Trazado 824360" d="M238.036,419.562c-.063-2.259.378-3.775,2.236-3.846,2.017-.078,2.52,1.485,2.522,3.218,0,1.635-.08,3.385-2.277,3.336-2-.044-2.416-1.643-2.482-2.707" transform="translate(-125.841 -219.777)" fill="#fff"/>
            <path id="Trazado_824361" data-name="Trazado 824361" d="M209.794,277.086c-.006,3.661-1.364,5.8-3.709,5.832-2.418.037-3.955-2.282-3.928-5.927.025-3.583,1.478-5.685,3.906-5.658,2.445.027,3.737,2.02,3.731,5.753" transform="translate(-106.875 -143.447)" fill="#fff"/>
            <path id="Trazado_824362" data-name="Trazado 824362" d="M279.813,277.258c-.279,1.241-.286,2.7-.941,3.754a4.134,4.134,0,0,1-2.858,1.931,4.356,4.356,0,0,1-3.132-1.874,7.551,7.551,0,0,1-.115-7.425,4.064,4.064,0,0,1,3.036-1.975,5.105,5.105,0,0,1,3.19,2.122c.63.845.557,2.213.82,3.468" transform="translate(-143.72 -143.623)" fill="#fff"/>
            <path id="Trazado_824363" data-name="Trazado 824363" d="M176.677,276.509v-5.632A18.419,18.419,0,0,1,181,272.331a2.852,2.852,0,0,1,.046,2.643,19.073,19.073,0,0,1-4.37,1.535" transform="translate(-93.405 -143.206)" fill="#fff"/>
            <path id="Trazado_824364" data-name="Trazado 824364" d="M258.454,106.249c1.68.7,3.825.421,3.346,2.377-.372,1.519-2.551,3.945-3.334,3.736-1.693-.451-3-2.333-4.472-3.629l4.459-2.485" transform="translate(-134.281 -56.171)"/>
            <path id="Trazado_824365" data-name="Trazado 824365" d="M232.885,108.472a23.737,23.737,0,0,1-2.947,3.426c-.718.569-2.267,1.107-2.754.74a9.686,9.686,0,0,1-2.429-3.406,4.861,4.861,0,0,1,2.149-1.514c1.964-.457,4.061-1.058,5.982.754" transform="translate(-118.821 -56.697)"/>
            <path id="Trazado_824366" data-name="Trazado 824366" d="M248.185,126.67l-2.272,1.834c-.871-1.8-3.4.961-3.919-1.333-.42-1.857,1.618-5.218,2.449-4.655,1.388.94,2.338,2.526,3.742,4.154" transform="translate(-127.906 -64.738)"/>
            <path id="Trazado_824367" data-name="Trazado 824367" d="M724.495,115.8,608.5,231.825,492.731,116.018,608.72,0,724.495,115.8M608.6,3.241l-112.677,112.7L608.513,228.562l112.675-112.7L608.6,3.241" transform="translate(-260.495)"/>
            <path id="Trazado_824368" data-name="Trazado 824368" d="M612.171,6.875,724.765,119.5,612.089,232.2l-112.6-112.619L612.171,6.875m105.484,112.7L612.373,14.263,506.984,119.677,612.266,224.985,717.655,119.57" transform="translate(-264.07 -3.635)" fill="#fff"/>
            <path id="Trazado_824369" data-name="Trazado 824369" d="M726.057,127.857,620.667,233.272,515.386,127.964,620.775,22.55,726.057,127.857M530.187,140.22l-.074-.062c.251.3.481.621.757.9q44.156,44.175,88.324,88.339a13.669,13.669,0,0,0,1.234.984c.393-.371.684-.633.961-.91q44-44,87.987-88.009a16.222,16.222,0,0,0,1.032-1.252l-.067.067,12.058-12.8L620.73,25.781,518.484,128.05l11.7,12.17" transform="translate(-272.472 -11.922)"/>
            <path id="Trazado_824370" data-name="Trazado 824370" d="M624.864,233.092c-.277.276-.567.538-.961.91a14.088,14.088,0,0,1-1.234-.984c-28.725-28.614-91.582-91.279-100.708-101.343L624.206,29.4,725.873,131.1c-4.372,5.221-71.678,72.661-101.009,102M627.7,45.709q-.08.33-.159.661c1.049.376,2.094.766,3.148,1.126a17.367,17.367,0,0,1,11.2,15.355c.276,8.373-5.429,16.42-14.413,17.745a5.662,5.662,0,0,0-1.712.962c.387.624.63,1.475,1.188,1.832,1.924,1.229,3.15,2.689,3.041,5.159-.027.6.815,1.454,1.466,1.8.389.209,1.3-.185,1.769-.567,1.2-.984,2.193-2.243,3.44-3.158,3.639-2.666,7.729-2.927,12.181-2.871,7.464.1,15.28,8.861,14.818,16.013-.14,2.174-.295,4.347-.442,6.52l.847.194c.559-2.311,1.51-4.6,1.609-6.936.456-10.788-3.859-19.105-13.5-24.289a4.192,4.192,0,0,1-2.62-4.327A24.98,24.98,0,0,0,631.54,46.524c-1.246-.379-2.556-.549-3.836-.815m-2.194,71.212c8.581,5.7,17.263,6.952,26.421,2.54,4.218-2.032,8.289-5.92,8.23-7.844-1.038.9-1.957,1.716-2.905,2.5a16.684,16.684,0,0,1-23.264-1.868c-4.526-4.983-5.588-11.027-3.565-17.555a2.384,2.384,0,0,0-.534-2.1,3.717,3.717,0,0,0-2.256-.286c-1.64.076-3.275.259-4.912.4-.8.067-1.787-.12-2.342.285-.378.276-.239,1.384-.182,2.109.216,2.749.965,5.545.665,8.229-1.291,11.554-14.52,18.57-24.538,12.9-2.119-1.2-4.08-2.674-6.328-4.164,1.268,3.2,6.515,7.1,11.264,8.84,8.861,3.243,16.828,1.213,24.244-3.992m-38.925-10.138.955-.213c-1.4-5.371-1.2-10.491,1.84-15.307a17.109,17.109,0,0,1,16.238-7.646,17.333,17.333,0,0,1,11.169,5.758c.488.506,1.665,1.048,2.036.811.625-.4.849-1.417,1.262-2.163.752-1.358,1.494-2.723,2.29-4.055.428-.717.96-1.372,1.445-2.055a7.6,7.6,0,0,0-2.139-1.309,17.329,17.329,0,0,1-12.572-9.7c-4.744-9.222.935-21.675,10.6-23.824a17.947,17.947,0,0,0,2-.693c-.419-.5-.722-.635-.995-.589a24.293,24.293,0,0,0-16.028,9.622,23.679,23.679,0,0,0-4.67,17.028,2.7,2.7,0,0,1-1.657,2.972,30.4,30.4,0,0,0-5.573,3.834c-6.363,5.67-8.66,13.006-8.024,21.3.162,2.112,1.187,4.159,1.816,6.235m41.762,99.384c-.762-3.065-2.014-4.277-4.545-4.587a5.866,5.866,0,0,0-6.1,3.149,15,15,0,0,0-.072,12.768,5.9,5.9,0,0,0,11.019-1.579,6.4,6.4,0,0,0-1.678-6.3c-2.009-1.941-4.315-1.721-7.027-.344a16.668,16.668,0,0,1,1.12-3.506c.819-1.335,2.391-1.86,3.268-.433,1.176,1.913,2.449,1,4.017.831M611.069,70.226l3.181,4.068a41.464,41.464,0,0,1,4.591-2.148,17.854,17.854,0,0,1,14.289.968,3.3,3.3,0,0,0,2.85.107,13.822,13.822,0,0,0,2.418-3.247c-7.974-6.369-20.414-5.633-27.328.254m36.54,15.681c-1.113,0-2.266-.072-3.406.019-1.323.1-1.912.719-1.968,2.251-.268,7.306-3.556,12.779-10.462,16.143l2.132,4.73c8.739-2.56,15.493-14.047,13.7-23.143m-45.306.3c-.8,4.213.513,7.82,1.935,11.351,2.114,5.251,6.049,8.793,11.055,11.268,1.578.78,2.226-.1,2.536-1.338s1.878-2.592-.438-3.717c-6.206-3.016-9.156-8.3-9.6-14.979-.136-2.027-.929-2.6-2.67-2.587-.918.006-1.836,0-2.814,0" transform="translate(-275.948 -15.546)" fill="#fff"/>
            <path id="Trazado_824371" data-name="Trazado 824371" d="M744.141,64c1.28.267,2.59.436,3.837.815A24.98,24.98,0,0,1,766,89.219a4.191,4.191,0,0,0,2.62,4.327c9.64,5.184,13.955,13.5,13.5,24.29-.1,2.33-1.05,4.624-1.609,6.935l-.847-.194c.148-2.174.3-4.347.443-6.52.461-7.152-7.356-15.918-14.818-16.013-4.453-.057-8.543.2-12.181,2.871-1.248.914-2.237,2.173-3.441,3.157-.467.382-1.38.776-1.769.567-.65-.35-1.492-1.2-1.465-1.8.109-2.47-1.117-3.93-3.041-5.159-.558-.356-.8-1.207-1.188-1.832a5.668,5.668,0,0,1,1.711-.962c8.984-1.324,14.689-9.372,14.413-17.745a17.367,17.367,0,0,0-11.2-15.355c-1.055-.36-2.1-.749-3.149-1.126q.079-.331.159-.661" transform="translate(-392.385 -33.833)"/>
            <path id="Trazado_824372" data-name="Trazado 824372" d="M701.831,187.447c-7.416,5.2-15.384,7.235-24.244,3.992-4.75-1.738-10-5.641-11.264-8.84,2.248,1.49,4.209,2.966,6.328,4.164,10.017,5.664,23.247-1.351,24.538-12.9.3-2.684-.449-5.48-.665-8.229-.057-.724-.2-1.833.181-2.109.555-.4,1.54-.217,2.342-.285,1.637-.138,3.272-.32,4.913-.4a3.714,3.714,0,0,1,2.256.286,2.384,2.384,0,0,1,.534,2.1c-2.023,6.528-.962,12.572,3.564,17.555a16.685,16.685,0,0,0,23.265,1.868c.948-.785,1.867-1.605,2.905-2.5.059,1.923-4.012,5.811-8.231,7.844-9.158,4.412-17.84,3.155-26.421-2.54" transform="translate(-352.268 -86.071)"/>
            <path id="Trazado_824373" data-name="Trazado 824373" d="M656.922,125.159c-.629-2.077-1.654-4.123-1.816-6.235-.636-8.291,1.661-15.627,8.024-21.3a30.4,30.4,0,0,1,5.573-3.834,2.7,2.7,0,0,0,1.657-2.972,23.677,23.677,0,0,1,4.67-17.028,24.293,24.293,0,0,1,16.028-9.622c.272-.047.576.091.995.589a17.854,17.854,0,0,1-2,.692c-9.67,2.149-15.349,14.6-10.6,23.825a17.329,17.329,0,0,0,12.572,9.7,7.6,7.6,0,0,1,2.139,1.309c-.485.682-1.017,1.338-1.445,2.055-.8,1.332-1.537,2.7-2.29,4.055-.413.746-.637,1.763-1.262,2.163-.371.237-1.548-.3-2.036-.811a17.335,17.335,0,0,0-11.169-5.757,17.109,17.109,0,0,0-16.239,7.646c-3.041,4.816-3.236,9.936-1.84,15.307Z" transform="translate(-346.284 -33.921)"/>
            <path id="Trazado_824374" data-name="Trazado 824374" d="M734.1,399.24c-1.567.174-2.84,1.081-4.016-.831-.878-1.427-2.449-.9-3.268.433a16.652,16.652,0,0,0-1.12,3.505c2.712-1.377,5.018-1.6,7.026.344a6.4,6.4,0,0,1,1.679,6.3,5.905,5.905,0,0,1-11.02,1.579,15.007,15.007,0,0,1,.072-12.769,5.866,5.866,0,0,1,6.1-3.148c2.532.31,3.783,1.522,4.545,4.586m-3.1,8.434c-.029-2.461-.989-3.857-2.449-3.712-1.873.187-2.351,1.528-2.334,3.187.022,2.123,1.091,3.59,2.652,3.441,2.027-.194,2.112-1.744,2.131-2.915" transform="translate(-381.697 -208.618)"/>
            <path id="Trazado_824375" data-name="Trazado 824375" d="M711.019,110.709c6.915-5.887,19.354-6.623,27.328-.254a13.81,13.81,0,0,1-2.418,3.247,3.3,3.3,0,0,1-2.85-.107,17.854,17.854,0,0,0-14.289-.968,41.5,41.5,0,0,0-4.59,2.148l-3.181-4.068" transform="translate(-375.898 -56.028)"/>
            <path id="Trazado_824376" data-name="Trazado 824376" d="M770.782,149.254c1.79,9.1-4.964,20.583-13.7,23.143l-2.132-4.73c6.906-3.365,10.194-8.838,10.462-16.143.057-1.532.646-2.146,1.968-2.251,1.14-.09,2.292-.019,3.405-.019" transform="translate(-399.121 -78.893)"/>
            <path id="Trazado_824377" data-name="Trazado 824377" d="M692.146,149.921c.978,0,1.9,0,2.814,0,1.742-.011,2.534.559,2.67,2.587.448,6.678,3.4,11.963,9.6,14.979,2.316,1.125.747,2.481.438,3.717s-.959,2.118-2.536,1.338c-5.006-2.476-8.942-6.017-11.055-11.268-1.422-3.531-2.739-7.138-1.935-11.351" transform="translate(-365.791 -79.259)"/>
            <path id="Trazado_824378" data-name="Trazado 824378" d="M735.736,418.157c-.019,1.171-.1,2.721-2.131,2.915-1.561.149-2.63-1.318-2.652-3.441-.017-1.659.461-3,2.333-3.187,1.461-.145,2.42,1.251,2.449,3.712" transform="translate(-386.437 -219.101)" fill="#fff"/>
          </g>
        </g>
      </g>
    </g>
  </g>
</svg>
