<svg xmlns="http://www.w3.org/2000/svg" xmlns:xlink="http://www.w3.org/1999/xlink" width="464" height="344" viewBox="0 0 464 344">
  <defs>
    <clipPath id="clip-path">
      <rect id="Rect치ngulo_378313" data-name="Rect치ngulo 378313" width="464" height="344" transform="translate(0.088)" fill="none"/>
    </clipPath>
    <clipPath id="clip-path-2">
      <rect id="Rect치ngulo_378323" data-name="Rect치ngulo 378323" width="464" height="231.761" fill="none"/>
    </clipPath>
  </defs>
  <g id="Grupo_1074323" data-name="Grupo 1074323" transform="translate(-0.088)">
    <g id="Grupo_1071412" data-name="Grupo 1071412">
      <g id="Enmascarar_grupo_402" data-name="Enmascarar grupo 402" clip-path="url(#clip-path)">
        <g id="Grupo_1074330" data-name="Grupo 1074330" transform="translate(0 56.119)">
          <g id="Grupo_1074327" data-name="Grupo 1074327">
            <g id="Grupo_1074326" data-name="Grupo 1074326" clip-path="url(#clip-path-2)">
              <path id="Trazado_824336" data-name="Trazado 824336" d="M619.036,2.059c-.046,1.114.908,1.557,1.53,2.181q37.359,37.428,74.747,74.827c.159.292.315.588.733.385l-.079-.076c-.1.462.085.648.549.549l-.086-.086c-.1.462.085.648.549.549l-.086-.086c-.1.461.085.647.549.549l-.086-.086c-.1.462.085.648.549.549l-.086-.086c-.1.462.085.648.549.549l-.086-.086c-.1.462.085.648.549.549l-.086-.086c-.1.462.085.648.549.549l-.086-.086c-.1.461.085.647.549.549l-.086-.086c-.1.462.085.648.549.549l-.086-.086c-.1.462.085.648.549.549l-.086-.086c-.1.462.085.648.549.549l-.086-.086c-.1.462.085.648.549.549l-.086-.086c-.1.461.085.647.549.549l-.086-.086c-.1.462.085.648.549.549l-.086-.086c-.1.462.085.648.549.549l-.086-.086c-.1.461.085.647.549.549l-.086-.086c-.1.462.085.648.549.549l-.086-.086c-.1.461.085.647.549.549l-.086-.086c-.1.462.085.648.549.549l-.086-.086c-.1.462.085.648.549.549l-.086-.086c-.1.461.085.647.549.549l-.086-.086c-.1.462.085.648.549.549l-.086-.086c-.1.461.085.647.549.549l-.086-.086c-.1.462.085.648.549.549l-.086-.086c-.1.462.085.648.549.549l-.086-.086c-.1.461.085.647.549.549l-.086-.086c-.1.462.085.648.55.549l-.086-.086c-.1.462.085.648.549.549l-.086-.086c-.1.462.085.648.549.549l-.086-.086c-.1.462.085.648.549.549l-.086-.086c-.1.461.085.647.549.549l-.086-.086c-.1.462.085.648.549.549l-.086-.086c-.1.462.085.648.549.549l-.086-.086c-.1.461.085.647.549.549l-.086-.086c-.1.462.085.648.549.549l-.086-.086c-.1.461.085.647.549.549l-.086-.086c-.1.462.085.648.549.549l-.086-.086c-.1.462.085.648.549.549l-.086-.086c-.1.461.085.647.549.549l-.086-.086c-.1.462.085.648.549.549l-.086-.086c-.1.461.085.647.549.549l-.086-.086c-.1.462.085.648.549.549l-.086-.086c-.1.462.085.648.549.549l-.086-.086c-.1.461.085.647.549.549l-.086-.086c-.1.462.085.648.549.549l-.086-.086c-.1.462.085.648.549.549l-.086-.086c-.1.462.085.648.549.549l-.086-.086c-.1.462.085.648.549.549l-.086-.086c-.1.461.085.647.549.549l-.086-.086c-.1.462.085.648.549.549l-.086-.086c-.1.462.085.648.549.549l-.086-.086c-.1.461.085.647.549.549l-.086-.086c-.1.462.085.648.549.549l-.086-.086c-.1.461.085.647.549.549l-.086-.086c-.1.462.085.648.549.549l-.086-.086c-.1.462.085.648.549.549l-.086-.086c-.1.461.085.647.549.549l-.086-.086c-.1.462.085.648.549.549l-.086-.086c-.1.461.085.647.549.549l-.086-.086c-.1.462.085.648.549.549l-.086-.086c-.1.462.085.648.55.549l-.086-.086c-.1.461.085.647.549.549l-.086-.086c-.1.462.085.648.549.549l-.086-.086c-.1.462.085.648.549.549l-.086-.086c-.1.462.085.648.549.549l-.086-.086c-.1.462.085.648.549.549l-.086-.086c-.1.461.085.647.549.549l-.086-.086c-.1.462.085.648.549.549l-.086-.086c-.1.462.085.648.549.549l-.086-.086c-.1.462.085.648.549.549l-.086-.086c-.1.462.085.648.549.549l-.086-.086c-.1.461.085.647.549.549l-.086-.086c-.1.462.085.648.549.549l-.086-.086c-.1.462.085.648.549.549l-.086-.086c-.1.461.085.647.549.549l-.086-.086c-.1.462.085.648.549.549l-.086-.086c-.1.461.085.647.549.549l-.086-.086c-.1.462.085.647.549.549l-.086-.086c-.1.461.086.647.549.549l-.086-.086c-.094.46.086.646.549.549l-.083-.083q.033.732.065,1.464a2.62,2.62,0,0,1-1.459,1.341l.026-.063c-11.8,11.747-23.622,23.463-35.338,35.289-1.161,1.172-2.385,2.276-3.55,3.442q-36.35,36.38-72.71,72.75c-.619.62-1.6,1.055-1.509,2.187h-1.854c.516-.932-.479-1.126-.844-1.492q-36.891-36.975-73.839-73.894-18.128-18.128-36.255-36.255a10.162,10.162,0,0,0-4-2.835V117c.287-.066.618-.095.461-.54l-.079.082c.46.094.647-.086.55-.55l-.086.086c.461.1.647-.085.549-.549l-.086.086c.461.1.647-.085.549-.549l-.086.086c.462.1.648-.085.549-.549l-.086.086c.461.1.648-.085.549-.549l-.086.086c.462.1.648-.085.549-.549l-.086.086c.462.1.648-.085.549-.549l-.086.086c.461.1.647-.085.549-.549l-.086.086c.462.1.648-.085.549-.549l-.086.086c.462.1.648-.085.549-.549l-.086.086c.462.1.648-.085.549-.549l-.086.086c.462.1.648-.085.549-.549l-.086.086c.461.1.647-.085.549-.549l-.086.086c.462.1.648-.085.549-.549l-.086.086c.462.1.648-.085.549-.549l-.086.086c.461.1.647-.085.549-.549l-.086.086c.462.1.648-.085.549-.549l-.086.086c.461.1.647-.085.549-.549l-.086.086c.462.1.648-.085.549-.549l-.086.086c.462.1.648-.085.549-.549l-.086.086c.461.1.647-.085.549-.549l-.086.086c.462.1.648-.085.549-.549l-.086.086c.462.1.648-.085.549-.549l-.086.086c.462.1.648-.085.549-.549l-.086.086c.461.1.647-.085.549-.549l-.086.086c.461.1.647-.085.549-.549l-.071.065c.471.246.685-.059.876-.411l.789-.7.09-.146-.032.1c.905-.832,1.856-1.62,2.709-2.5,7.221-7.477,14.56-14.852,21.938-22.157,9.031-8.941,17.81-18.153,27.136-26.784,4.92-4.554,9.6-9.33,14.356-14.038q17.057-16.891,33.949-33.949c.485-.487,1.482-.77,1.148-1.818ZM720.119,117.153c-.53-.476-1.069-.918-1.559-1.407-32.812-32.788-65.539-65.664-98.625-98.177a11.586,11.586,0,0,1-1.139-1.152c-.821-1.074-1.338-.888-2.312.045-8.23,7.88-16.19,16.034-24.331,24-25.083,24.552-49.862,49.415-74.756,74.16-2.577,2.562-2.583,2.581-.041,5.106,17.179,17.068,34.114,34.376,51.534,51.208,15.934,15.4,31.408,31.269,47,47.016,1.51,1.525,2.195,1.292,3.552-.068q46.307-46.407,92.711-92.718c2.224-2.22,4.223-4.683,6.828-6.517a6.8,6.8,0,0,0,1.139-1.5" transform="translate(-269.13 -1.104)" fill="#ffe41f"/>
              <path id="Trazado_824337" data-name="Trazado 824337" d="M638.035,40.055c.847.152,1.209.8,1.683,1.276q12.063,12.022,24.1,24.068Q699.132,100.7,734.457,136c1.36,1.357,1.92,1.913.047,3.765-23.5,23.245-46.708,46.793-70.278,69.97-8.352,8.213-16.627,16.507-25,24.7-.787.771-1.339.909-2.016-.006a4.463,4.463,0,0,0-.487-.495c-23.432-22.939-46.5-46.244-69.847-69.269q-13.062-12.882-26.076-25.811c-.986-.983-.781-1.341,0-2.125,16.511-16.476,32.705-33.286,49.632-49.322,8.158-7.729,16.26-15.516,24.064-23.575,7.344-7.585,14.909-14.946,22.244-22.536.423-.438.879-.844,1.292-1.238m17.346,50.994a3.131,3.131,0,0,0-.291-.274c2.166-7.293,1.031-14.07-3.411-21.057a37.978,37.978,0,0,1-1.4,10.9,4.117,4.117,0,0,1-3.165,3.419,5.957,5.957,0,0,1-.074-1.484c.7-3.129-.494-5.882-1.637-8.656-2.2-5.339-5.562-10.212-6.324-16.138a4.138,4.138,0,0,0-1.279-2.817c-1.25,2.794-2.271,5.575-2.161,8.509a66.433,66.433,0,0,1-.729,12.142,14.736,14.736,0,0,1-2.311,6.463,17.586,17.586,0,0,1-1.858-4.8c-.632-2.928-1.733-5.655-4.949-6.8-.452-.16-.963-.44-1.25-.122a1.413,1.413,0,0,0-.15,1.285A5.094,5.094,0,0,1,624.672,75c-.848,4.358-2.112,8.683-.465,13.221a2.892,2.892,0,0,1-2.468-1.607c-.571-1.407-1.792-2.279-2.511-3.532-.491-.854-1.413-1.763-2.112-1.473-.894.37-1.008,1.807-.61,2.649.926,1.963-.211,3.745-.227,5.608,0,.484,0,.968,0,1.449-.033,3.682,1.425,6.918,3,10.176a4.2,4.2,0,0,1-2.579-.128c-2.57-.9-3.755-3.288-5.655-4.892-.451-.381-.8-1.32-1.512-.844-.546.364-.333,1.1-.169,1.832,1.11,4.995,2.51,9.916,3.712,14.881,1.246,5.151,4.69,8.176,9.042,10.087,5.187,2.277,10.9,2.424,16.521,2.636.47.018.778-.1.853-.493.145-.764-.488-.626-.89-.606a10.771,10.771,0,0,1-3.606-.473c-4.412-1.3-9.526-5.368-9.7-10.412,1.284,2.844,4.041,1.62,6.054,2.462a1.092,1.092,0,0,0,1.45-.368c.343-.65-.141-1.1-.51-1.561a17.053,17.053,0,0,1-2.217-2.913c-1.006-2.074-2.3-4.182-1.241-6.825a19.571,19.571,0,0,0,7.512,5.231,7.375,7.375,0,0,0-.02-1.809,13.593,13.593,0,0,1,.515-8.694c.722-1.974,1.546-3.909,2.3-5.873.147-.383-.257-1.005.367-1.167.662-.172.943.469,1.219.877,2.427,3.592,4.109,7.348,3.127,11.9a23.908,23.908,0,0,0-.051,4.83,23.235,23.235,0,0,0,7.772-5.418,12.149,12.149,0,0,1-3.224,9.546c-.657.765-2.291,1.365-1.8,2.263.6,1.1,2.263.548,3.415.368.848-.132,1.585-.871,2.428-1.188.591-.222,1.147-.916,1.932-.337-2.088,4.777-5.8,7.922-10.77,10.17,1.917.967,3.637.5,5.122.295,6.27-.851,11.368-3.73,14.6-9.414a24.814,24.814,0,0,0,2.81-9.641,76.708,76.708,0,0,0,.678-14.686,19.356,19.356,0,0,0-.716,3.035c-.169,1.072-.215,2.167-.282,3.237-.252,4.014-1.316,5.331-5.011,6.219-.38.091-.671.315-.964-.1-.275-.394.117-.59.29-.726,2.181-1.707,2.251-4.391,3.145-6.693,1.741-4.485-.033-8.444-1.665-12.778-1.9,3.047-3.267,6.023-6.178,7.737m-16,37.522H619.683c-3.7,0-3.7,0-3.7,3.788,0,2.983,0,2.975,2.808,2.713.536-.05,1.08-.01,1.621-.01h38c4.38,0,4.261,0,4.406-4.3.065-1.948-.65-2.242-2.357-2.221-7.027.085-14.056.035-21.084.035" transform="translate(-289.702 -21.484)" fill="#ffe41f"/>
              <path id="Trazado_824338" data-name="Trazado 824338" d="M501.778,115.895H733.111L617.043,0Z" transform="translate(-269.129 0)" fill="#dd3832"/>
              <path id="Trazado_824339" data-name="Trazado 824339" d="M735.943,132.915a6.79,6.79,0,0,1-1.139,1.5c-2.6,1.834-4.6,4.3-6.828,6.517q-46.4,46.32-92.712,92.718c-1.357,1.36-2.042,1.594-3.552.068-15.592-15.747-31.065-31.62-47-47.016-17.42-16.831-34.355-34.14-51.534-51.208-2.542-2.525-2.536-2.544.041-5.106,24.895-24.744,49.673-49.608,74.756-74.159,8.141-7.969,16.1-16.123,24.331-24,.974-.933,1.491-1.118,2.312-.045a11.6,11.6,0,0,0,1.139,1.152c33.086,32.514,65.812,65.389,98.625,98.177.49.49,1.029.931,1.559,1.407M633.287,35.437c-.413.395-.869.8-1.293,1.238-7.335,7.59-14.9,14.951-22.244,22.536-7.8,8.059-15.906,15.845-24.064,23.574-16.926,16.037-33.12,32.846-49.631,49.322-.786.784-.991,1.142,0,2.125q12.993,12.952,26.077,25.811c23.346,23.024,46.414,46.33,69.846,69.269a4.379,4.379,0,0,1,.487.495c.677.915,1.229.776,2.016.006,8.373-8.193,16.648-16.487,25-24.7,23.57-23.176,46.775-46.725,70.278-69.97,1.873-1.852,1.313-2.408-.047-3.764q-35.344-35.273-70.637-70.6-12.043-12.041-24.1-24.068c-.474-.472-.835-1.124-1.683-1.276" transform="translate(-284.953 -16.866)"/>
              <path id="Trazado_824340" data-name="Trazado 824340" d="M788.285,149.724l-.36.268q.035-.271.069-.541a3.18,3.18,0,0,1,.291.274" transform="translate(-422.605 -80.158)" fill="#dd3832"/>
              <path id="Trazado_824341" data-name="Trazado 824341" d="M117.258,2.059c-.046,1.114.908,1.557,1.531,2.181q37.359,37.428,74.747,74.827c.159.292.315.588.733.385l-.079-.076c-.1.462.085.648.549.549l-.086-.086c-.1.462.085.648.549.549l-.086-.086c-.1.461.085.647.549.549l-.086-.086c-.1.462.085.648.549.549l-.086-.086c-.1.462.085.648.549.549l-.086-.086c-.1.462.085.648.549.549l-.086-.086c-.1.462.085.648.549.549l-.086-.086c-.1.461.085.647.549.549l-.086-.086c-.1.462.085.648.549.549l-.086-.086c-.1.462.085.648.549.549l-.086-.086c-.1.462.085.648.549.549l-.086-.086c-.1.462.085.648.549.549l-.086-.086c-.1.461.085.647.549.549l-.086-.086c-.1.462.085.648.549.549l-.086-.086c-.1.462.085.648.549.549l-.086-.086c-.1.461.085.647.549.549l-.086-.086c-.1.462.085.648.549.549l-.086-.086c-.1.461.085.647.549.549l-.086-.086c-.1.462.085.648.549.549l-.086-.086c-.1.462.085.648.549.549l-.086-.086c-.1.461.085.647.549.549l-.086-.086c-.1.462.085.648.549.549l-.086-.086c-.1.461.085.647.549.549l-.086-.086c-.1.462.085.648.549.549l-.086-.086c-.1.462.085.648.549.549l-.086-.086c-.1.461.085.647.549.549l-.086-.086c-.1.462.085.648.549.549l-.086-.086c-.1.462.085.648.549.549l-.086-.086c-.1.462.085.648.549.549l-.086-.086c-.1.462.085.648.549.549l-.086-.086c-.1.461.085.647.549.549l-.086-.086c-.1.462.085.648.549.549l-.086-.086c-.1.462.085.648.549.549l-.086-.086c-.1.461.085.647.549.549l-.086-.086c-.1.462.085.648.549.549l-.086-.086c-.1.461.085.647.549.549l-.086-.086c-.1.462.085.648.549.549l-.086-.086c-.1.462.085.648.549.549l-.086-.086c-.1.461.085.647.549.549l-.086-.086c-.1.462.085.648.549.549l-.086-.086c-.1.461.085.647.549.549l-.086-.086c-.1.462.085.648.549.549l-.086-.086c-.1.462.085.648.549.549l-.086-.086c-.1.461.085.647.549.549l-.086-.086c-.1.462.085.648.549.549l-.086-.086c-.1.462.085.648.549.549l-.086-.086c-.1.462.085.648.549.549l-.086-.086c-.1.462.085.648.549.549l-.086-.086c-.1.461.085.647.549.549l-.086-.086c-.1.462.085.648.549.549l-.086-.086c-.1.462.085.648.549.549l-.086-.086c-.1.461.085.647.549.549l-.086-.086c-.1.462.085.648.549.549l-.086-.086c-.1.461.085.647.549.549l-.086-.086c-.1.462.085.648.549.549l-.086-.086c-.1.462.085.648.549.549l-.086-.086c-.1.461.085.647.549.549l-.086-.086c-.1.462.085.648.549.549l-.086-.086c-.1.461.085.647.549.549l-.086-.086c-.1.462.085.648.549.549l-.086-.086c-.1.462.085.648.549.549l-.086-.086c-.1.461.085.647.549.549l-.086-.086c-.1.462.085.648.549.549l-.086-.086c-.1.462.085.648.549.549l-.086-.086c-.1.462.085.648.549.549l-.086-.086c-.1.462.085.648.549.549l-.086-.086c-.1.461.085.647.549.549l-.086-.086c-.1.462.085.648.549.549l-.086-.086c-.1.462.085.648.549.549l-.086-.086c-.1.462.085.648.549.549l-.086-.086c-.1.462.085.648.549.549l-.086-.086c-.1.461.085.647.549.549l-.086-.086c-.1.462.085.648.549.549l-.086-.086c-.1.462.085.648.549.549l-.086-.086c-.1.461.085.647.549.549l-.086-.086c-.1.462.085.648.549.549l-.086-.086c-.1.461.085.647.549.549l-.086-.086c-.1.462.085.647.549.549l-.086-.086c-.1.461.086.647.549.549l-.086-.086c-.094.46.086.646.549.549l-.083-.083q.033.732.065,1.464a2.62,2.62,0,0,1-1.46,1.341l.026-.063c-11.8,11.747-23.622,23.463-35.338,35.289-1.161,1.172-2.385,2.276-3.55,3.442q-36.35,36.38-72.71,72.75c-.619.62-1.6,1.055-1.509,2.187H114.94c.517-.932-.479-1.126-.844-1.492Q77.205,194.4,40.257,157.479,22.13,139.351,4,121.224a10.158,10.158,0,0,0-4-2.835V117c.287-.066.619-.095.461-.54l-.079.082c.46.094.647-.086.55-.55l-.086.086c.461.1.647-.085.549-.549l-.086.086c.461.1.647-.085.549-.549l-.086.086c.462.1.648-.085.549-.549l-.086.086c.462.1.648-.085.549-.549l-.086.086c.462.1.648-.085.549-.549l-.086.086c.462.1.648-.085.549-.549l-.086.086c.461.1.647-.085.549-.549l-.086.086c.462.1.648-.085.549-.549l-.086.086c.462.1.648-.085.549-.549l-.086.086c.461.1.647-.085.549-.549l-.086.086c.462.1.648-.085.549-.549l-.086.086c.461.1.647-.085.549-.549l-.086.086c.462.1.648-.085.549-.549l-.086.086c.462.1.648-.085.549-.549l-.086.086c.461.1.647-.085.549-.549l-.086.086c.462.1.648-.085.549-.549l-.086.086c.462.1.648-.085.549-.549l-.086.086c.462.1.648-.085.549-.549l-.086.086c.462.1.648-.085.549-.549l-.086.086c.461.1.647-.085.549-.549l-.086.086c.462.1.648-.085.549-.549l-.086.086c.462.1.648-.085.549-.549l-.086.086c.462.1.648-.085.549-.549l-.086.086c.461.1.647-.085.549-.549l-.086.086c.461.1.647-.085.549-.549l-.072.065c.472.246.685-.059.876-.411l.789-.7.09-.146-.032.1c.905-.832,1.856-1.62,2.709-2.5,7.221-7.477,14.56-14.852,21.938-22.157,9.031-8.941,17.81-18.153,27.136-26.784,4.92-4.554,9.6-9.33,14.356-14.038Q97.364,20.935,114.256,3.877c.485-.487,1.482-.77,1.148-1.818ZM218.341,117.153c-.53-.476-1.068-.918-1.559-1.407-32.812-32.788-65.539-65.664-98.625-98.177a11.608,11.608,0,0,1-1.139-1.152c-.821-1.074-1.338-.888-2.312.045-8.23,7.88-16.19,16.034-24.331,24-25.083,24.552-49.862,49.415-74.756,74.16-2.577,2.562-2.583,2.581-.041,5.106,17.179,17.068,34.114,34.376,51.534,51.208,15.934,15.4,31.408,31.269,47,47.016,1.51,1.525,2.195,1.292,3.552-.068q46.307-46.407,92.711-92.718c2.224-2.22,4.223-4.683,6.828-6.517a6.8,6.8,0,0,0,1.139-1.5" transform="translate(0 -1.104)" fill="#ffe41f"/>
              <path id="Trazado_824342" data-name="Trazado 824342" d="M136.259,40.055c.847.152,1.209.8,1.683,1.276Q150,53.353,162.043,65.4,197.355,100.7,232.68,136c1.36,1.357,1.92,1.913.047,3.765-23.5,23.245-46.708,46.793-70.278,69.97-8.352,8.213-16.627,16.507-25,24.7-.787.771-1.339.909-2.016-.006a4.461,4.461,0,0,0-.487-.495c-23.432-22.939-46.5-46.244-69.847-69.269q-13.062-12.882-26.076-25.811c-.986-.983-.781-1.341,0-2.125C55.538,120.249,71.732,103.44,88.659,87.4c8.158-7.729,16.26-15.516,24.064-23.575,7.344-7.585,14.909-14.946,22.244-22.536.423-.438.879-.844,1.292-1.238m1.343,88.516H117.906c-3.7,0-3.7,0-3.7,3.788,0,2.983,0,2.975,2.808,2.713.536-.05,1.08-.01,1.621-.01h38c4.38,0,4.261,0,4.407-4.3.065-1.948-.65-2.242-2.357-2.221-7.027.085-14.056.035-21.084.035" transform="translate(-20.573 -21.484)" fill="#ffe41f"/>
              <path id="Trazado_824343" data-name="Trazado 824343" d="M234.165,132.915a6.792,6.792,0,0,1-1.139,1.5c-2.6,1.834-4.6,4.3-6.828,6.517q-46.395,46.32-92.712,92.718c-1.357,1.36-2.042,1.594-3.552.068-15.592-15.747-31.065-31.62-47-47.016-17.42-16.831-34.355-34.14-51.534-51.208-2.542-2.525-2.536-2.544.041-5.106C56.337,105.641,81.115,80.778,106.2,56.226c8.141-7.969,16.1-16.123,24.331-24,.974-.933,1.491-1.118,2.312-.045a11.61,11.61,0,0,0,1.139,1.152c33.086,32.514,65.813,65.389,98.625,98.177.49.49,1.029.931,1.559,1.407M131.509,35.437c-.413.395-.869.8-1.293,1.238-7.335,7.59-14.9,14.951-22.244,22.536-7.8,8.059-15.906,15.845-24.064,23.574-16.926,16.037-33.12,32.846-49.631,49.322-.786.784-.991,1.142,0,2.125q12.993,12.952,26.076,25.811c23.346,23.024,46.414,46.33,69.846,69.269a4.383,4.383,0,0,1,.487.495c.677.915,1.229.776,2.016.006,8.373-8.193,16.648-16.487,25-24.7,23.57-23.176,46.775-46.725,70.278-69.97,1.873-1.852,1.313-2.408-.047-3.764q-35.345-35.273-70.637-70.6-12.043-12.041-24.1-24.068c-.474-.472-.835-1.124-1.683-1.276" transform="translate(-15.823 -16.866)"/>
              <path id="Trazado_824344" data-name="Trazado 824344" d="M225.346,230.927c7.028,0,14.057.05,21.084-.036,1.707-.02,2.423.273,2.357,2.221-.145,4.3-.027,4.3-4.406,4.3h-38c-.541,0-1.085-.04-1.621.01-2.808.262-2.807.27-2.808-2.713,0-3.788,0-3.788,3.7-3.788h19.695" transform="translate(-108.318 -123.838)"/>
              <path id="Trazado_824345" data-name="Trazado 824345" d="M286.507,149.724l-.36.268q.035-.271.069-.541a3.171,3.171,0,0,1,.291.274" transform="translate(-153.475 -80.158)" fill="#dd3832"/>
            </g>
          </g>
          <text id="_5.2" data-name="5.2" transform="translate(332.344 188.11)" font-size="21" font-family="Roboto-Bold, Roboto" font-weight="700"><tspan x="0" y="0">5.2</tspan></text>
          <text id="_5.1" data-name="5.1" transform="translate(97.851 188.11)" font-size="21" font-family="Roboto-Bold, Roboto" font-weight="700"><tspan x="0" y="0">5.1</tspan></text>
          <g id="Grupo_1074329" data-name="Grupo 1074329">
            <g id="Grupo_1074328" data-name="Grupo 1074328" clip-path="url(#clip-path-2)">
              <path id="Trazado_824346" data-name="Trazado 824346" d="M735.928,103.922c2.91-1.715,4.276-4.691,6.178-7.738,1.632,4.334,3.406,8.294,1.665,12.779-.894,2.3-.964,4.985-3.145,6.692-.173.135-.566.332-.29.726.293.419.585.2.964.1,3.7-.888,4.759-2.206,5.012-6.22.067-1.07.113-2.164.281-3.237a19.483,19.483,0,0,1,.716-3.035,76.7,76.7,0,0,1-.678,14.686,24.819,24.819,0,0,1-2.811,9.641c-3.233,5.685-8.33,8.563-14.6,9.414-1.486.2-3.205.671-5.123-.3,4.975-2.248,8.682-5.392,10.77-10.17-.785-.579-1.341.115-1.932.338-.843.317-1.579,1.056-2.428,1.188-1.153.18-2.813.736-3.415-.368-.49-.9,1.145-1.5,1.8-2.264a12.149,12.149,0,0,0,3.224-9.546,23.256,23.256,0,0,1-7.772,5.418,23.917,23.917,0,0,1,.051-4.831c.982-4.547-.7-8.3-3.126-11.895-.276-.408-.557-1.049-1.219-.877-.624.163-.221.785-.367,1.168-.75,1.964-1.575,3.9-2.3,5.873a13.6,13.6,0,0,0-.515,8.695,7.378,7.378,0,0,1,.02,1.809,19.575,19.575,0,0,1-7.512-5.231c-1.059,2.644.235,4.751,1.241,6.825a17.062,17.062,0,0,0,2.217,2.913c.37.464.853.911.51,1.56a1.093,1.093,0,0,1-1.45.368c-2.014-.842-4.77.382-6.054-2.462.172,5.044,5.286,9.109,9.7,10.412a10.77,10.77,0,0,0,3.606.473c.4-.019,1.035-.158.89.606-.075.392-.383.51-.853.492-5.62-.212-11.334-.358-16.521-2.636-4.352-1.911-7.8-4.937-9.042-10.088-1.2-4.965-2.6-9.886-3.711-14.881-.164-.736-.376-1.468.17-1.832.711-.475,1.061.464,1.512.845,1.9,1.6,3.086,3.99,5.656,4.892a4.207,4.207,0,0,0,2.579.128c-1.577-3.258-3.036-6.494-3-10.176,0-.482,0-.965,0-1.449.015-1.864,1.153-3.646.226-5.609-.4-.842-.284-2.278.61-2.648.7-.29,1.622.619,2.112,1.473.719,1.253,1.94,2.125,2.511,3.532a2.893,2.893,0,0,0,2.468,1.607c-1.647-4.539-.384-8.864.464-13.221a5.092,5.092,0,0,0-.281-3.377,1.414,1.414,0,0,1,.15-1.286c.287-.319.8-.038,1.25.122,3.216,1.143,4.316,3.87,4.949,6.8a17.584,17.584,0,0,0,1.858,4.8,14.738,14.738,0,0,0,2.311-6.462,66.471,66.471,0,0,0,.729-12.142c-.11-2.934.911-5.715,2.161-8.509a4.138,4.138,0,0,1,1.279,2.817c.761,5.925,4.125,10.8,6.324,16.138,1.142,2.774,2.334,5.527,1.636,8.656a5.957,5.957,0,0,0,.074,1.485,4.118,4.118,0,0,0,3.165-3.419,38,38,0,0,0,1.4-10.9c4.441,6.988,5.577,13.764,3.411,21.058q-.034.271-.069.541l.36-.268" transform="translate(-369.939 -36.371)"/>
              <path id="Trazado_824347" data-name="Trazado 824347" d="M727.791,226.582c7.028,0,14.057.05,21.084-.036,1.707-.02,2.423.273,2.357,2.221-.145,4.3-.027,4.3-4.407,4.3h-38c-.541,0-1.085-.04-1.621.01-2.808.262-2.807.27-2.808-2.713,0-3.788,0-3.788,3.7-3.788h19.695" transform="translate(-377.805 -121.508)"/>
              <path id="Trazado_824348" data-name="Trazado 824348" d="M242.569,99.669a2.062,2.062,0,0,0-2.626-1.826,33.4,33.4,0,0,0-1.427-4.322l-.279-.735a2.061,2.061,0,0,0-3.678-.364c-.194.312-.383.623-.568.932a23.141,23.141,0,0,0-3.929-11.932,2.061,2.061,0,0,0-3.8,1.148,27.05,27.05,0,0,1-.3,4.6c-.232-.645-.488-1.267-.736-1.868l-.076-.184c-.575-1.4-1.24-2.747-1.883-4.053-1.392-2.828-2.708-5.5-3.089-8.469a5.361,5.361,0,0,0-1.74-3.581,2.061,2.061,0,0,0-3.219.726,17.5,17.5,0,0,0-1.925,7.8,50.366,50.366,0,0,1-.453,8.6,7.633,7.633,0,0,0-4.755-4.958c-.039-.014-.079-.03-.119-.045a2.584,2.584,0,0,0-3.112.507,3.174,3.174,0,0,0-.432,3.347,2.156,2.156,0,0,1,.045,1.41c-.085.433-.174.865-.263,1.3a40.931,40.931,0,0,0-.691,4.039c-1.068-1.456-2.582-2.058-3.918-1.506A3.076,3.076,0,0,0,197.917,92a4.14,4.14,0,0,0,.116,3.154c.167.354.1.749-.093,1.631a9.37,9.37,0,0,0-.287,2c0,.2,0,.408,0,.612,0,.187,0,.373,0,.558a14.336,14.336,0,0,0,.555,4,14.075,14.075,0,0,0-1.336-1.344l-.06-.076a2.59,2.59,0,0,0-3.694-.795,3.1,3.1,0,0,0-1.029,3.529l.026.113c.542,2.44,1.174,4.881,1.786,7.242.41,1.581.833,3.216,1.222,4.822a12.946,12.946,0,0,0,3.969,6.706,18.734,18.734,0,0,0,37.1.508,17.2,17.2,0,0,0,3.295-4.168,22.272,22.272,0,0,0,2.527-8.571,64.158,64.158,0,0,0,.556-12.262M197.891,111.6c-.24-.928-.484-1.868-.723-2.814a7.285,7.285,0,0,0,2.206,1.258,5.463,5.463,0,0,0,3.239.165,2.072,2.072,0,0,0,.519-.2,18.683,18.683,0,0,0-3.693,7.51,9.961,9.961,0,0,1-.31-1.03c-.4-1.638-.824-3.289-1.238-4.886m19.783,24.443a14.255,14.255,0,0,1-14.2-13.182l.237-.408c-.092-.053-.179-.109-.268-.164-.006-.161-.013-.322-.013-.485a14.239,14.239,0,1,1,14.24,14.24m20.244-24.59a18.383,18.383,0,0,1-1.864,6.724,18.72,18.72,0,0,0-32-9.221,2.059,2.059,0,0,0-.06-1.651c-1.228-2.537-2.244-4.837-2.221-7.308,0-.2,0-.407,0-.612,0-.186,0-.374,0-.561a6.134,6.134,0,0,1,.188-1.14c.061-.272.127-.568.18-.885a1.645,1.645,0,0,1,.073.154,4.359,4.359,0,0,0,3.62,2.566,2.061,2.061,0,0,0,2.222-2.744c-.965-2.66-.405-5.372.189-8.243.092-.448.185-.9.272-1.345.029-.151.058-.313.083-.485a8.986,8.986,0,0,1,.783,2.351,16.3,16.3,0,0,0,1.7,4.419,2.062,2.062,0,0,0,3.516.185,14.035,14.035,0,0,0,2.205-6.088,56.293,56.293,0,0,0,.634-9.359c.629,1.621,1.387,3.161,2.132,4.674.641,1.3,1.247,2.532,1.77,3.8l.077.187c.83,2.012,1.547,3.75,1.14,5.574a4.114,4.114,0,0,0-.019,1.468c.012.1.026.2.033.308a2.061,2.061,0,0,0,2.537,1.878,5.407,5.407,0,0,0,4.071-4.244c.114-.434.229-.888.339-1.362a16.823,16.823,0,0,1-.418,8.464,2.053,2.053,0,0,0-.069.331l-.056.436a2.061,2.061,0,0,0,3.277,1.909l.205-.153a11.144,11.144,0,0,0,3.332-3.241,7.408,7.408,0,0,1-.061,4.853,18.212,18.212,0,0,0-.569,1.815c-.366,1.33-.625,2.172-1.31,2.708a2.361,2.361,0,0,0-.664,3.4,2.444,2.444,0,0,0,2.93.915l.02-.008a12.238,12.238,0,0,0,1.791-.563l-.011.094" transform="translate(-102.941 -36.751)"/>
            </g>
          </g>
        </g>
      </g>
    </g>
  </g>
</svg>
