<svg xmlns="http://www.w3.org/2000/svg" xmlns:xlink="http://www.w3.org/1999/xlink" width="464" height="344" viewBox="0 0 464 344">
  <defs>
    <clipPath id="clip-path">
      <rect id="Rect치ngulo_378313" data-name="Rect치ngulo 378313" width="464" height="344" transform="translate(0.088)" fill="none"/>
    </clipPath>
    <clipPath id="clip-path-2">
      <rect id="Rect치ngulo_378320" data-name="Rect치ngulo 378320" width="453.956" height="341.287" fill="none"/>
    </clipPath>
  </defs>
  <g id="Grupo_1074313" data-name="Grupo 1074313" transform="translate(-0.088)">
    <g id="Grupo_1071412" data-name="Grupo 1071412">
      <g id="Enmascarar_grupo_402" data-name="Enmascarar grupo 402" clip-path="url(#clip-path)">
        <g id="Grupo_1074321" data-name="Grupo 1074321" transform="translate(6 2.812)">
          <g id="Grupo_1074316" data-name="Grupo 1074316">
            <g id="Grupo_1074315" data-name="Grupo 1074315" clip-path="url(#clip-path-2)">
              <path id="Trazado_824194" data-name="Trazado 824194" d="M370.2,2.059c-.045,1.079.88,1.509,1.483,2.113Q407.9,40.448,444.133,76.7c.154.283.306.57.71.373L444.766,77c-.093.448.083.628.533.533l-.083-.083c-.093.448.082.628.533.533l-.083-.083c-.093.447.082.627.532.532l-.084-.083c-.093.448.082.628.533.533l-.083-.083c-.093.448.082.628.532.533l-.083-.084c-.093.448.082.628.532.533l-.083-.083c-.093.448.082.628.533.533l-.083-.083c-.093.447.082.627.532.532l-.084-.083c-.093.448.082.628.533.533l-.083-.083c-.093.448.082.628.532.533l-.083-.084c-.093.448.082.628.533.532l-.084-.083c-.093.448.082.628.533.533l-.083-.083c-.093.447.082.627.533.532l-.084-.083c-.093.448.082.628.533.533l-.083-.083c-.093.448.082.628.533.533l-.083-.083c-.093.447.082.627.533.532l-.084-.083c-.093.448.082.628.533.533l-.083-.083c-.093.447.082.627.532.532l-.083-.083c-.093.448.082.628.532.533l-.083-.083c-.093.448.082.628.532.532l-.083-.083c-.093.447.082.627.533.532l-.084-.083c-.093.448.082.628.533.533l-.083-.083c-.093.447.082.627.533.533l-.083-.084c-.093.448.082.628.532.533l-.083-.083c-.093.448.082.628.533.533L456,88.225c-.093.447.082.627.533.532l-.084-.083c-.093.448.082.628.533.533l-.083-.083c-.093.448.082.628.533.533l-.083-.084c-.093.448.082.628.532.532l-.083-.083c-.093.448.082.628.532.533l-.083-.083c-.093.447.082.627.533.532l-.084-.083c-.093.448.082.628.532.533l-.083-.083c-.093.448.082.628.533.533l-.083-.084c-.093.448.082.628.533.533l-.084-.083c-.093.448.082.628.533.533l-.083-.083c-.093.447.082.627.533.533l-.084-.084c-.092.448.083.628.533.533l-.083-.083c-.093.448.082.628.533.533l-.083-.083c-.093.447.082.627.533.532l-.084-.083c-.093.448.082.628.532.533l-.083-.083c-.093.447.082.627.533.532l-.083-.084c-.093.448.082.628.532.533l-.083-.083c-.093.448.082.628.533.533l-.083-.083c-.093.447.082.627.533.532l-.084-.083c-.093.448.082.628.533.533l-.083-.083c-.093.448.082.628.533.533l-.083-.084c-.093.448.082.628.533.532l-.084-.083c-.093.448.082.628.533.533l-.083-.083c-.093.447.082.627.533.532l-.084-.083c-.093.448.082.628.532.533l-.083-.083c-.093.448.082.628.533.533l-.083-.084c-.093.448.082.628.533.533l-.084-.083c-.093.448.082.628.533.533l-.083-.083c-.093.447.082.627.533.532l-.084-.083c-.093.448.083.628.533.533l-.083-.083c-.093.448.082.628.533.533l-.083-.083c-.093.447.082.627.533.532l-.084-.083c-.093.448.082.628.533.533l-.083-.083c-.093.447.082.627.533.532l-.083-.084c-.093.448.082.628.532.533l-.083-.083c-.093.448.082.628.533.532l-.083-.083c-.093.447.082.627.533.532l-.084-.083c-.093.448.082.628.533.532l-.083-.083c-.093.447.082.628.533.533l-.083-.084c-.093.448.082.628.532.532l-.084-.083c-.093.448.082.628.533.533l-.083-.083c-.093.447.082.627.533.532l-.084-.083c-.093.448.083.628.533.533l-.083-.083c-.093.448.082.628.533.533l-.083-.083c-.093.447.082.628.533.532l-.084-.083c-.093.448.082.628.533.533l-.083-.083c-.093.447.082.627.533.532l-.083-.083c-.093.448.082.628.532.533l-.083-.083c-.093.448.082.628.533.533l-.083-.083c-.093.447.082.627.532.532l-.084-.083c-.093.448.082.628.533.533l-.083-.083c-.093.447.082.627.533.533l-.083-.084c-.093.448.082.627.532.533l-.083-.083c-.092.447.083.627.533.532l-.084-.083c-.091.446.084.626.533.532l-.08-.08q.032.709.063,1.419a2.54,2.54,0,0,1-1.415,1.3l.026-.061c-11.432,11.385-22.895,22.74-34.25,34.2-1.125,1.136-2.312,2.206-3.441,3.336q-35.23,35.26-70.471,70.509c-.6.6-1.547,1.022-1.462,2.119h-1.8c.5-.9-.465-1.092-.818-1.446q-35.755-35.837-71.565-71.619-17.569-17.57-35.139-35.139a9.849,9.849,0,0,0-3.879-2.747v-1.348c.278-.064.6-.092.447-.524l-.077.079c.446.091.627-.084.533-.533l-.084.084c.447.092.627-.083.533-.533l-.083.083c.447.092.627-.082.532-.533l-.083.083c.448.093.628-.082.532-.533l-.083.084c.447.093.628-.082.533-.532l-.084.083c.448.093.628-.082.533-.533l-.083.083c.448.093.628-.082.533-.533l-.083.084c.447.093.627-.082.532-.533l-.083.083c.448.093.628-.082.533-.533l-.083.084c.448.093.628-.082.532-.533l-.084.083c.448.093.628-.082.533-.533l-.083.083c.448.093.628-.082.533-.533l-.083.084c.447.093.627-.082.532-.533l-.083.083c.448.093.628-.082.533-.533l-.083.084c.448.093.628-.083.532-.533l-.083.083c.447.093.627-.082.532-.533l-.083.083c.448.093.628-.082.533-.533l-.083.084c.447.093.627-.082.532-.533l-.083.083c.448.093.628-.082.533-.533l-.083.083c.448.093.628-.082.533-.532l-.083.083c.447.093.627-.082.532-.533l-.083.083c.448.093.628-.082.533-.532l-.083.084c.448.093.627-.082.533-.533l-.084.083c.448.093.628-.082.533-.533l-.083.083c.447.093.627-.082.533-.532l-.083.083c.447.093.627-.083.532-.533l-.069.063c.457.238.664-.058.849-.4l.765-.681.087-.141-.031.095c.877-.806,1.8-1.57,2.625-2.426,7-7.247,14.112-14.395,21.262-21.475,8.753-8.666,17.261-17.594,26.3-25.959,4.769-4.414,9.306-9.043,13.914-13.606q16.532-16.371,32.9-32.9c.47-.472,1.436-.746,1.112-1.762Zm97.971,111.55c-.514-.461-1.036-.889-1.511-1.364-31.8-31.779-63.521-63.642-95.588-95.154a11.244,11.244,0,0,1-1.1-1.116c-.8-1.041-1.3-.861-2.241.043-7.976,7.637-15.691,15.54-23.582,23.263-24.311,23.8-48.326,47.893-72.454,71.876-2.5,2.483-2.5,2.5-.04,4.949,16.65,16.542,33.064,33.318,49.947,49.631,15.444,14.921,30.44,30.306,45.552,45.568,1.464,1.478,2.127,1.252,3.443-.066q44.881-44.978,89.856-89.863c2.155-2.152,4.093-4.539,6.617-6.316a6.592,6.592,0,0,0,1.1-1.451" transform="translate(-141.268 -1.134)" fill="#dd3832"/>
              <path id="Trazado_824195" data-name="Trazado 824195" d="M389.8,40.055c.821.147,1.172.778,1.631,1.237q11.692,11.652,23.36,23.327,34.224,34.218,68.461,68.423c1.318,1.315,1.86,1.854.046,3.649-22.78,22.529-45.27,45.352-68.114,67.815-8.095,7.96-16.115,16-24.23,23.94-.763.747-1.3.881-1.954-.006a4.322,4.322,0,0,0-.472-.479c-22.711-22.232-45.069-44.82-67.7-67.136q-12.659-12.486-25.273-25.016c-.956-.953-.757-1.3,0-2.059,16-15.969,31.7-32.261,48.1-47.8,7.907-7.491,15.759-15.038,23.323-22.849,7.118-7.351,14.45-14.486,21.559-21.842.41-.424.852-.818,1.252-1.2m16.812,49.424a3.082,3.082,0,0,0-.282-.265c2.1-7.069,1-13.637-3.306-20.409a36.812,36.812,0,0,1-1.359,10.56,3.99,3.99,0,0,1-3.067,3.314,5.77,5.77,0,0,1-.071-1.438c.677-3.033-.479-5.7-1.586-8.39-2.131-5.175-5.391-9.9-6.129-15.641a4.011,4.011,0,0,0-1.24-2.73,18.646,18.646,0,0,0-2.095,8.247,64.378,64.378,0,0,1-.707,11.768,14.283,14.283,0,0,1-2.24,6.264,17.047,17.047,0,0,1-1.8-4.648c-.613-2.837-1.679-5.481-4.8-6.589-.438-.155-.933-.427-1.212-.118a1.369,1.369,0,0,0-.146,1.246,4.937,4.937,0,0,1,.273,3.273c-.822,4.224-2.047,8.415-.45,12.814a2.8,2.8,0,0,1-2.392-1.557c-.553-1.364-1.737-2.208-2.433-3.423-.475-.828-1.369-1.709-2.047-1.428-.866.359-.976,1.751-.591,2.567.9,1.9-.2,3.63-.22,5.436,0,.469,0,.938,0,1.4-.033,3.568,1.381,6.705,2.91,9.862a4.074,4.074,0,0,1-2.5-.124c-2.491-.874-3.64-3.186-5.481-4.741-.437-.369-.776-1.279-1.466-.818-.529.353-.323,1.062-.164,1.775,1.076,4.842,2.432,9.611,3.6,14.423,1.208,4.992,4.545,7.925,8.763,9.777,5.028,2.207,10.565,2.349,16.012,2.555.455.017.754-.1.826-.477.141-.741-.473-.607-.863-.588a10.439,10.439,0,0,1-3.495-.459c-4.276-1.263-9.233-5.2-9.4-10.092,1.245,2.756,3.916,1.57,5.867,2.387a1.058,1.058,0,0,0,1.405-.356c.332-.63-.136-1.063-.494-1.513a16.529,16.529,0,0,1-2.148-2.823c-.975-2.01-2.23-4.053-1.2-6.615a18.968,18.968,0,0,0,7.28,5.07,7.146,7.146,0,0,0-.02-1.753,13.174,13.174,0,0,1,.5-8.427c.7-1.913,1.5-3.789,2.226-5.692.142-.371-.249-.974.356-1.132.642-.167.914.455,1.181.85,2.352,3.481,3.982,7.122,3.031,11.529a23.177,23.177,0,0,0-.049,4.682,22.521,22.521,0,0,0,7.532-5.251,11.775,11.775,0,0,1-3.124,9.252c-.637.742-2.221,1.323-1.747,2.193.584,1.07,2.193.531,3.31.356.822-.128,1.536-.844,2.353-1.152.572-.215,1.112-.888,1.872-.327-2.024,4.63-5.617,7.678-10.438,9.856,1.858.937,3.525.481,4.965.286,6.077-.825,11.018-3.615,14.151-9.124a24.05,24.05,0,0,0,2.724-9.344,74.349,74.349,0,0,0,.657-14.233,18.751,18.751,0,0,0-.694,2.942c-.164,1.039-.208,2.1-.273,3.138-.244,3.89-1.275,5.167-4.857,6.028-.368.089-.651.306-.935-.1-.267-.382.113-.572.281-.7,2.114-1.655,2.182-4.256,3.048-6.487,1.687-4.347-.032-8.184-1.614-12.385-1.843,2.953-3.167,5.837-5.988,7.5M391.1,125.845H372.014c-3.586,0-3.586,0-3.584,3.671,0,2.891,0,2.884,2.721,2.629.519-.049,1.047-.009,1.571-.009h36.829c4.245,0,4.13,0,4.271-4.171.063-1.888-.63-2.173-2.285-2.153-6.811.082-13.623.034-20.435.034" transform="translate(-162.389 -22.055)" fill="#dd3832"/>
              <path id="Trazado_824196" data-name="Trazado 824196" d="M256.558,112.326h224.21L368.273,0Z" transform="translate(-141.268 0)" fill="#fffffe"/>
              <path id="Trazado_824197" data-name="Trazado 824197" d="M484.42,129.79a6.583,6.583,0,0,1-1.1,1.451c-2.524,1.778-4.462,4.165-6.617,6.316q-44.966,44.893-89.857,89.863c-1.315,1.318-1.979,1.544-3.443.066-15.111-15.262-30.109-30.646-45.552-45.568-16.883-16.313-33.3-33.088-49.947-49.631-2.463-2.447-2.458-2.466.04-4.949,24.128-23.982,48.143-48.08,72.454-71.875C368.285,47.74,376,39.836,383.977,32.2c.944-.9,1.445-1.084,2.241-.043a11.244,11.244,0,0,0,1.1,1.116c32.067,31.513,63.786,63.376,95.588,95.154.475.475,1,.9,1.511,1.364M384.926,35.314c-.4.382-.843.776-1.253,1.2C376.564,43.87,369.232,51,362.114,58.356,354.55,66.167,346.7,73.713,338.791,81.2c-16.4,15.543-32.1,31.835-48.1,47.8-.762.76-.96,1.107,0,2.06q12.593,12.553,25.274,25.016c22.627,22.315,44.985,44.9,67.7,67.136a4.253,4.253,0,0,1,.472.479c.656.887,1.191.752,1.954.005,8.115-7.941,16.135-15.98,24.231-23.94,22.844-22.463,45.334-45.286,68.114-67.815,1.815-1.795,1.272-2.334-.045-3.648q-34.256-34.187-68.462-68.423-11.673-11.671-23.36-23.327c-.46-.458-.81-1.09-1.631-1.237" transform="translate(-157.513 -17.315)"/>
              <path id="Trazado_824198" data-name="Trazado 824198" d="M488.618,107.155c2.821-1.662,4.144-4.547,5.987-7.5,1.582,4.2,3.3,8.038,1.614,12.385-.866,2.231-.935,4.832-3.048,6.486-.168.131-.548.322-.281.7.284.406.567.189.935.1,3.582-.861,4.613-2.138,4.857-6.028.065-1.038.109-2.1.273-3.137a18.875,18.875,0,0,1,.694-2.942,74.342,74.342,0,0,1-.657,14.233,24.055,24.055,0,0,1-2.724,9.344c-3.133,5.51-8.073,8.3-14.151,9.124-1.44.2-3.106.651-4.965-.286,4.822-2.179,8.415-5.226,10.438-9.856-.76-.561-1.3.112-1.872.327-.817.307-1.531,1.023-2.353,1.152-1.118.174-2.727.714-3.31-.356-.475-.87,1.11-1.452,1.746-2.194a11.774,11.774,0,0,0,3.125-9.252,22.54,22.54,0,0,1-7.533,5.251,23.181,23.181,0,0,1,.049-4.682c.952-4.407-.678-8.047-3.03-11.529-.267-.4-.54-1.017-1.182-.85-.6.158-.214.761-.355,1.132-.727,1.9-1.526,3.779-2.226,5.692a13.179,13.179,0,0,0-.5,8.427,7.145,7.145,0,0,1,.019,1.753,18.968,18.968,0,0,1-7.28-5.07c-1.027,2.562.228,4.6,1.2,6.615a16.534,16.534,0,0,0,2.148,2.823c.358.45.826.883.494,1.512a1.059,1.059,0,0,1-1.405.357c-1.952-.817-4.623.37-5.867-2.387.167,4.889,5.124,8.828,9.4,10.092a10.439,10.439,0,0,0,3.5.458c.39-.019,1-.153.863.588-.072.38-.371.494-.827.477-5.447-.205-10.985-.347-16.012-2.555-4.218-1.852-7.555-4.785-8.764-9.777-1.165-4.812-2.521-9.581-3.6-14.423-.159-.714-.364-1.423.164-1.776.689-.461,1.028.449,1.465.819,1.841,1.554,2.991,3.867,5.481,4.741a4.077,4.077,0,0,0,2.5.124c-1.529-3.158-2.943-6.294-2.911-9.862,0-.467,0-.936,0-1.4.015-1.806,1.118-3.533.219-5.436-.385-.816-.275-2.208.591-2.567.679-.281,1.572.6,2.047,1.428.7,1.215,1.881,2.059,2.433,3.423a2.8,2.8,0,0,0,2.392,1.557c-1.6-4.4-.372-8.591.45-12.814a4.935,4.935,0,0,0-.273-3.273,1.371,1.371,0,0,1,.146-1.246c.279-.309.774-.037,1.212.119,3.117,1.108,4.184,3.751,4.8,6.589a17.043,17.043,0,0,0,1.8,4.648,14.284,14.284,0,0,0,2.24-6.263,64.424,64.424,0,0,0,.707-11.768,18.644,18.644,0,0,1,2.095-8.247,4.01,4.01,0,0,1,1.24,2.73c.737,5.743,4,10.466,6.129,15.641,1.107,2.689,2.263,5.357,1.586,8.389a5.777,5.777,0,0,0,.072,1.439,3.991,3.991,0,0,0,3.067-3.314,36.83,36.83,0,0,0,1.359-10.561c4.3,6.772,5.405,13.34,3.306,20.409q-.033.262-.067.524l.349-.259" transform="translate(-244.394 -39.731)"/>
              <path id="Trazado_824199" data-name="Trazado 824199" d="M481.182,230.925c6.812,0,13.624.048,20.435-.035,1.655-.02,2.348.265,2.285,2.153-.141,4.168-.026,4.172-4.271,4.172H462.8c-.524,0-1.052-.039-1.571.01-2.721.254-2.72.262-2.721-2.629,0-3.671,0-3.671,3.584-3.671h19.088" transform="translate(-252.469 -127.135)"/>
              <path id="Trazado_824200" data-name="Trazado 824200" d="M543.054,149.715l-.349.259q.034-.262.067-.524a3.078,3.078,0,0,1,.282.265" transform="translate(-298.83 -82.292)" fill="#dd3832"/>
            </g>
          </g>
          <text id="_4" data-name="4" transform="translate(218.748 190.582)" font-size="28" font-family="Roboto-Bold, Roboto" font-weight="700"><tspan x="0" y="0">4</tspan></text>
          <g id="Grupo_1074318" data-name="Grupo 1074318">
            <g id="Grupo_1074317" data-name="Grupo 1074317" clip-path="url(#clip-path-2)">
              <path id="Trazado_824201" data-name="Trazado 824201" d="M624.871,259.393c-.045,1.079.88,1.509,1.483,2.113q36.209,36.276,72.446,72.523c.154.283.305.57.71.373l-.077-.073c-.092.448.082.628.532.532l-.083-.083c-.093.448.082.628.533.533l-.083-.083c-.093.447.082.627.532.532l-.084-.083c-.093.448.082.628.533.533l-.083-.083c-.093.448.082.628.532.533l-.083-.084c-.093.448.082.628.532.533l-.084-.083c-.093.448.082.628.533.533l-.083-.083c-.093.447.082.627.533.532l-.084-.083c-.093.448.082.628.533.533l-.083-.083c-.093.448.082.628.533.533l-.083-.084c-.093.448.082.628.532.533l-.084-.083c-.093.448.082.628.533.533l-.083-.083c-.092.447.082.627.532.532l-.083-.083c-.093.448.083.628.533.533l-.083-.083c-.093.448.082.628.532.533l-.083-.083c-.093.447.082.627.532.532l-.084-.083c-.093.448.082.628.532.533l-.083-.083c-.092.447.082.627.533.532l-.083-.083c-.093.448.082.628.532.533l-.083-.083c-.093.448.082.628.532.533l-.083-.083c-.093.447.082.627.532.532l-.084-.083c-.093.448.082.628.532.533l-.083-.083c-.092.448.082.628.533.532l-.083-.084c-.093.448.082.628.532.532l-.083-.083c-.092.448.082.628.533.533l-.083-.083c-.093.447.082.627.532.532l-.084-.083c-.093.448.082.628.533.533l-.083-.083c-.093.448.082.628.533.533l-.083-.084c-.093.448.082.628.532.532l-.084-.083c-.092.448.082.628.533.533l-.083-.083c-.093.447.082.627.532.532l-.083-.083c-.093.448.082.628.532.533l-.083-.083c-.093.448.082.628.533.533l-.083-.083c-.093.447.082.627.532.532l-.084-.083c-.093.448.082.628.533.533l-.083-.083c-.093.447.082.627.532.532l-.083-.083c-.093.448.082.628.532.532l-.083-.083c-.093.448.082.628.533.533l-.083-.083c-.093.447.082.627.532.532l-.084-.083c-.092.448.082.628.533.533l-.083-.083c-.093.447.082.627.532.533l-.083-.084c-.093.448.082.628.532.533l-.083-.083c-.093.448.082.628.533.533l-.083-.083c-.093.447.082.627.532.532l-.084-.083c-.093.448.082.628.533.533l-.083-.083c-.093.448.082.628.532.533l-.083-.084c-.093.448.082.628.533.533l-.084-.083c-.093.448.082.628.533.532l-.083-.083c-.093.447.082.627.532.532l-.084-.083c-.093.448.083.628.533.533l-.083-.083c-.093.448.082.628.532.533l-.083-.083c-.093.447.082.627.533.532l-.084-.083c-.093.448.082.628.533.532l-.083-.083c-.093.447.082.627.532.532l-.083-.083c-.093.448.082.628.532.533l-.083-.083c-.093.448.082.628.532.533l-.083-.083c-.093.447.082.627.533.532l-.084-.083c-.093.448.082.628.532.532l-.083-.083c-.093.447.082.627.533.532l-.083-.084c-.093.448.082.628.533.533l-.084-.083c-.093.448.082.628.532.533l-.083-.083c-.093.447.082.627.533.532l-.084-.083c-.093.448.082.628.532.532l-.083-.083c-.093.448.082.628.533.532l-.083-.084c-.093.448.082.628.532.532l-.084-.083c-.092.448.082.628.532.533l-.083-.083c-.093.447.082.627.533.532l-.084-.083c-.093.448.083.628.532.533l-.083-.083c-.093.448.082.628.533.533l-.083-.084c-.093.448.082.628.533.532l-.084-.083c-.093.448.082.628.532.533l-.083-.083c-.093.447.082.627.533.532l-.083-.083c-.093.448.082.628.532.532l-.083-.083c-.093.448.082.628.533.533l-.083-.083c-.093.447.082.627.532.532l-.084-.083c-.093.448.082.628.532.532l-.083-.083c-.093.447.082.627.532.533l-.083-.084c-.093.448.082.627.532.532l-.083-.083c-.092.447.083.627.532.533l-.084-.083c-.091.446.084.626.533.533l-.08-.08q.032.709.063,1.419a2.539,2.539,0,0,1-1.415,1.3l.026-.061c-11.432,11.385-22.895,22.74-34.25,34.2-1.125,1.136-2.312,2.206-3.441,3.336q-35.23,35.26-70.471,70.509c-.6.6-1.547,1.022-1.462,2.119h-1.8c.5-.9-.464-1.091-.818-1.446q-35.755-35.837-71.565-71.619-17.569-17.57-35.139-35.139a9.845,9.845,0,0,0-3.879-2.747v-1.348c.278-.064.6-.092.447-.524l-.077.079c.446.091.627-.084.533-.533l-.084.084c.447.092.627-.083.532-.533l-.083.083c.447.092.627-.082.532-.533l-.083.083c.448.093.628-.082.533-.533l-.083.084c.448.093.628-.082.533-.533l-.084.083c.448.093.628-.082.533-.533l-.083.083c.448.093.628-.082.533-.533l-.083.084c.447.093.627-.082.532-.533l-.083.083c.448.093.628-.082.533-.533l-.083.084c.448.093.628-.082.532-.532l-.084.083c.448.093.628-.082.533-.533l-.083.083c.448.093.628-.082.532-.533l-.083.084c.447.093.627-.082.532-.532l-.083.083c.448.093.628-.082.532-.533l-.083.084c.448.093.628-.083.533-.533l-.083.083c.447.093.627-.082.532-.533l-.083.083c.448.093.628-.082.533-.532l-.083.084c.448.093.628-.082.533-.533l-.084.083c.448.093.628-.082.533-.533l-.083.083c.448.093.628-.082.532-.532l-.083.083c.447.093.627-.082.532-.533l-.083.083c.448.093.628-.082.532-.532l-.083.084c.448.093.628-.082.533-.532l-.084.083c.448.093.628-.082.532-.533l-.083.083c.447.093.627-.082.533-.532l-.083.083c.447.092.627-.083.532-.533l-.069.063c.457.238.664-.057.849-.4l.765-.681.087-.141-.031.095c.877-.806,1.8-1.57,2.625-2.426,7-7.247,14.112-14.395,21.262-21.474,8.753-8.666,17.261-17.594,26.3-25.959,4.769-4.414,9.306-9.043,13.914-13.606q16.532-16.371,32.9-32.9c.47-.472,1.436-.746,1.112-1.762Zm97.971,111.55c-.514-.462-1.036-.889-1.511-1.364-31.8-31.779-63.521-63.642-95.588-95.154a11.252,11.252,0,0,1-1.1-1.116c-.8-1.041-1.3-.861-2.241.043-7.976,7.637-15.691,15.54-23.582,23.263-24.311,23.8-48.326,47.893-72.454,71.876-2.5,2.483-2.5,2.5-.04,4.949,16.65,16.542,33.064,33.318,49.947,49.631,15.443,14.921,30.44,30.306,45.552,45.568,1.464,1.478,2.127,1.252,3.443-.066q44.881-44.978,89.856-89.863c2.155-2.152,4.093-4.539,6.617-6.316a6.594,6.594,0,0,0,1.1-1.451" transform="translate(-281.495 -142.829)" fill="#1dbaff"/>
              <path id="Trazado_824202" data-name="Trazado 824202" d="M644.468,297.389c.821.147,1.171.778,1.631,1.237q11.691,11.652,23.36,23.327,34.224,34.218,68.461,68.423c1.318,1.315,1.86,1.854.046,3.649-22.78,22.529-45.27,45.352-68.114,67.815-8.095,7.96-16.115,16-24.23,23.94-.763.747-1.3.881-1.954-.006a4.316,4.316,0,0,0-.472-.479c-22.711-22.232-45.069-44.82-67.7-67.136q-12.66-12.486-25.273-25.016c-.956-.953-.757-1.3,0-2.059,16-15.969,31.7-32.261,48.1-47.8,7.907-7.491,15.759-15.038,23.323-22.849,7.118-7.351,14.45-14.486,21.559-21.842.41-.424.852-.818,1.252-1.2m16.812,49.424a3.083,3.083,0,0,0-.282-.265c2.1-7.069,1-13.637-3.306-20.409a36.814,36.814,0,0,1-1.359,10.56,3.99,3.99,0,0,1-3.067,3.314,5.773,5.773,0,0,1-.071-1.438c.677-3.033-.479-5.7-1.586-8.39-2.131-5.174-5.391-9.9-6.129-15.641a4.011,4.011,0,0,0-1.24-2.73,18.646,18.646,0,0,0-2.094,8.247,64.389,64.389,0,0,1-.707,11.768,14.283,14.283,0,0,1-2.24,6.264,17.049,17.049,0,0,1-1.8-4.648c-.613-2.837-1.679-5.48-4.8-6.589-.438-.155-.933-.427-1.212-.118a1.37,1.37,0,0,0-.146,1.246,4.938,4.938,0,0,1,.273,3.273c-.822,4.224-2.047,8.415-.45,12.814a2.8,2.8,0,0,1-2.392-1.557c-.553-1.364-1.737-2.209-2.433-3.423-.475-.828-1.369-1.709-2.047-1.428-.866.359-.977,1.751-.591,2.567.9,1.9-.2,3.63-.219,5.436,0,.469,0,.938,0,1.4-.033,3.568,1.381,6.705,2.91,9.862a4.074,4.074,0,0,1-2.5-.124c-2.491-.874-3.64-3.186-5.481-4.741-.437-.369-.776-1.279-1.466-.818-.529.353-.323,1.062-.164,1.775,1.076,4.841,2.432,9.611,3.6,14.423,1.208,4.992,4.545,7.925,8.763,9.776,5.028,2.207,10.565,2.349,16.012,2.555.455.017.754-.1.826-.477.141-.741-.473-.607-.863-.588a10.437,10.437,0,0,1-3.495-.459c-4.276-1.263-9.233-5.2-9.4-10.091,1.245,2.756,3.916,1.57,5.867,2.387a1.058,1.058,0,0,0,1.405-.356c.332-.63-.136-1.063-.494-1.513a16.528,16.528,0,0,1-2.148-2.823c-.975-2.01-2.23-4.053-1.2-6.615a18.969,18.969,0,0,0,7.28,5.07,7.143,7.143,0,0,0-.02-1.753,13.174,13.174,0,0,1,.5-8.427c.7-1.913,1.5-3.789,2.226-5.692.142-.371-.249-.974.356-1.131.642-.167.914.455,1.181.85,2.352,3.481,3.982,7.122,3.031,11.529a23.144,23.144,0,0,0-.049,4.682,22.522,22.522,0,0,0,7.532-5.251,11.774,11.774,0,0,1-3.125,9.252c-.636.742-2.22,1.323-1.746,2.193.584,1.07,2.193.531,3.31.356.822-.128,1.536-.844,2.353-1.152.572-.215,1.112-.888,1.872-.327-2.023,4.63-5.617,7.678-10.438,9.856,1.858.937,3.525.481,4.965.286,6.077-.825,11.018-3.615,14.151-9.124a24.048,24.048,0,0,0,2.724-9.344,74.348,74.348,0,0,0,.657-14.233,18.744,18.744,0,0,0-.694,2.942c-.164,1.039-.208,2.1-.273,3.138-.245,3.89-1.275,5.167-4.857,6.028-.368.089-.651.306-.935-.1-.267-.382.113-.572.281-.7,2.114-1.655,2.182-4.255,3.048-6.487,1.687-4.347-.032-8.184-1.614-12.385-1.843,2.953-3.167,5.837-5.988,7.5m-15.51,36.367H626.681c-3.586,0-3.586,0-3.584,3.671,0,2.891,0,2.884,2.721,2.629.519-.049,1.047-.009,1.571-.009h36.829c4.244,0,4.13,0,4.27-4.172.064-1.888-.63-2.173-2.284-2.153-6.811.082-13.623.034-20.435.034" transform="translate(-302.616 -163.751)" fill="#1dbaff"/>
              <path id="Trazado_824203" data-name="Trazado 824203" d="M739.087,387.123a6.582,6.582,0,0,1-1.1,1.451c-2.524,1.778-4.462,4.165-6.617,6.316q-44.966,44.894-89.856,89.863c-1.315,1.318-1.979,1.544-3.443.066-15.111-15.262-30.109-30.646-45.552-45.568-16.883-16.313-33.3-33.088-49.947-49.631-2.463-2.447-2.458-2.466.04-4.949,24.128-23.982,48.143-48.08,72.454-71.875,7.891-7.723,15.605-15.626,23.582-23.264.944-.9,1.445-1.084,2.241-.043a11.258,11.258,0,0,0,1.1,1.116c32.068,31.513,63.786,63.376,95.588,95.154.475.475,1,.9,1.511,1.364m-99.495-94.476c-.4.382-.843.776-1.253,1.2-7.109,7.356-14.441,14.49-21.559,21.842-7.563,7.811-15.416,15.357-23.323,22.848-16.4,15.543-32.1,31.835-48.1,47.8-.762.76-.96,1.107,0,2.06q12.593,12.553,25.273,25.016c22.627,22.315,44.985,44.9,67.7,67.136a4.248,4.248,0,0,1,.472.479c.656.887,1.191.752,1.954.005,8.115-7.941,16.135-15.98,24.231-23.94,22.844-22.463,45.334-45.286,68.114-67.815,1.815-1.795,1.272-2.334-.045-3.648q-34.256-34.187-68.462-68.423-11.673-11.671-23.36-23.327c-.46-.458-.81-1.09-1.631-1.237" transform="translate(-297.74 -159.01)"/>
              <path id="Trazado_824204" data-name="Trazado 824204" d="M743.285,364.488c2.82-1.662,4.144-4.547,5.987-7.5,1.582,4.2,3.3,8.038,1.614,12.385-.866,2.231-.934,4.832-3.048,6.486-.168.131-.549.322-.282.7.284.406.568.189.935.1,3.582-.861,4.612-2.138,4.858-6.028.065-1.037.109-2.1.273-3.137a18.767,18.767,0,0,1,.694-2.942,74.377,74.377,0,0,1-.657,14.233,24.052,24.052,0,0,1-2.724,9.344c-3.133,5.51-8.073,8.3-14.151,9.124-1.44.2-3.106.651-4.965-.286,4.822-2.179,8.415-5.226,10.438-9.856-.76-.561-1.3.112-1.872.327-.817.307-1.531,1.024-2.352,1.152-1.118.174-2.727.714-3.31-.356-.474-.87,1.11-1.452,1.746-2.194a11.777,11.777,0,0,0,3.125-9.252,22.547,22.547,0,0,1-7.533,5.251,23.175,23.175,0,0,1,.049-4.682c.952-4.406-.678-8.047-3.03-11.529-.268-.4-.541-1.017-1.182-.85-.6.158-.214.761-.355,1.132-.727,1.9-1.526,3.779-2.226,5.692a13.182,13.182,0,0,0-.5,8.427,7.115,7.115,0,0,1,.02,1.753,18.966,18.966,0,0,1-7.28-5.07c-1.026,2.562.228,4.6,1.2,6.615a16.514,16.514,0,0,0,2.148,2.823c.359.45.827.883.495,1.512a1.06,1.06,0,0,1-1.406.357c-1.952-.816-4.623.37-5.867-2.387.167,4.889,5.124,8.828,9.4,10.092a10.438,10.438,0,0,0,3.5.458c.39-.019,1-.153.863.588-.072.38-.371.494-.826.477-5.448-.205-10.985-.347-16.012-2.555-4.218-1.852-7.555-4.785-8.764-9.777-1.165-4.812-2.52-9.581-3.6-14.423-.159-.714-.364-1.423.165-1.776.689-.461,1.029.449,1.465.819,1.841,1.554,2.991,3.867,5.481,4.741a4.077,4.077,0,0,0,2.5.125c-1.528-3.158-2.943-6.294-2.91-9.862,0-.467,0-.936,0-1.4.015-1.806,1.118-3.533.22-5.436-.385-.816-.275-2.208.591-2.567.678-.281,1.572.6,2.047,1.428.7,1.215,1.881,2.059,2.434,3.423a2.8,2.8,0,0,0,2.392,1.557c-1.6-4.4-.372-8.591.449-12.814a4.935,4.935,0,0,0-.272-3.273,1.37,1.37,0,0,1,.145-1.246c.279-.309.774-.037,1.212.119,3.116,1.108,4.183,3.751,4.8,6.589a17.041,17.041,0,0,0,1.8,4.648,14.278,14.278,0,0,0,2.241-6.263,64.421,64.421,0,0,0,.707-11.768,18.639,18.639,0,0,1,2.094-8.247,4.008,4.008,0,0,1,1.24,2.73c.737,5.743,4,10.466,6.129,15.641,1.107,2.689,2.263,5.357,1.586,8.389a5.779,5.779,0,0,0,.072,1.439,3.99,3.99,0,0,0,3.067-3.314,36.83,36.83,0,0,0,1.359-10.561c4.3,6.772,5.405,13.34,3.307,20.409q-.034.262-.067.524l.349-.259" transform="translate(-384.621 -181.426)"/>
              <path id="Trazado_824205" data-name="Trazado 824205" d="M735.849,488.258c6.812,0,13.624.048,20.435-.035,1.655-.02,2.348.265,2.284,2.153-.14,4.168-.026,4.172-4.27,4.172H717.47c-.524,0-1.052-.039-1.571.01-2.721.254-2.72.262-2.721-2.629,0-3.671,0-3.671,3.584-3.671h19.088" transform="translate(-392.696 -268.83)"/>
              <path id="Trazado_824206" data-name="Trazado 824206" d="M797.721,407.048l-.349.259.067-.524a3.074,3.074,0,0,1,.282.265" transform="translate(-439.057 -223.987)" fill="#dd3832"/>
            </g>
          </g>
          <text id="_4-2" data-name="4" transform="translate(333.187 306.22)" font-size="28" font-family="Roboto-Bold, Roboto" font-weight="700"><tspan x="0" y="0">4</tspan></text>
          <g id="Grupo_1074320" data-name="Grupo 1074320">
            <g id="Grupo_1074319" data-name="Grupo 1074319" clip-path="url(#clip-path-2)">
              <path id="Trazado_824207" data-name="Trazado 824207" d="M261.572,733.242c1.24.584,1.453,1.2.338,2.258-2.413,2.284-4.727,4.673-7.065,7.035-.557.563-1.308,1.02-1.3,1.965H253.1a4.266,4.266,0,0,1-2.29-1.786c.009-.953.784-1.394,1.339-1.969,2.28-2.358,4.577-4.7,6.867-7.047l.406-.419c.667-.186.878-1.219,1.784-.962.044.34-.125.765.371.924" transform="translate(-138.101 -403.214)" fill="#121415"/>
              <path id="Trazado_824208" data-name="Trazado 824208" d="M0,509.827A2.193,2.193,0,0,0,1.839,508.4c.215.052.5.033.635.166,2.911,2.864,5.789,5.76,8.714,8.609.644.628.412,1.372.539,2.074-1.228,1.326-2.154,1.051-3.327-.27-2.019-2.274-4.262-4.349-6.43-6.489C1.4,511.934.952,511.17,0,511.175Z" transform="translate(0 -279.941)" fill="#121415"/>
              <path id="Trazado_824209" data-name="Trazado 824209" d="M474.357,483.629c.96-.072,1.426.674,1.988,1.231,2.305,2.284,4.587,4.593,6.894,6.875.562.556,1.017,1.307,1.96,1.3v.9c-.1.474-1.241-.177-.869.805a1.974,1.974,0,0,1-2.669-.454c-2.46-2.657-5.034-5.216-7.682-7.686a1.956,1.956,0,0,1-.462-2.476c.293-.144.823.111.841-.5" transform="translate(-260.599 -266.298)" fill="#121415"/>
              <path id="Trazado_824210" data-name="Trazado 824210" d="M497.784,507.38c-.372-.982.769-.332.868-.805v1.348l-.188-.027-.19.019-.491-.534" transform="translate(-274.054 -278.935)" fill="#fffffe"/>
              <path id="Trazado_824211" data-name="Trazado 824211" d="M13.981,496.284c-.128-.7.105-1.446-.539-2.074-2.925-2.849-5.8-5.745-8.715-8.609-.135-.133-.42-.114-.635-.166.246-1.289,1.791-1.436,2.24-2.547,1.02,1.049,1.752.643,2.695-.275,2.71-2.637,5.087-5.629,8.206-7.837.619-.439.7-.87.078-1.4-.391-.33-.807-.693-.632-1.316a13.879,13.879,0,0,0,5.362-5.374c.96.543,1.8,2.015,3.043.407.024.8,0,1.612.082,2.409.208,1.909-.508,3.89.446,5.738L14.359,485.794,25.676,496.3l-.124,9.888q-2.013-1.938-4.028-3.875c-.507-.487-.939-1.255-1.8-.521l-5.741-5.508" transform="translate(-2.253 -256.974)" fill="#d73629"/>
              <path id="Trazado_824212" data-name="Trazado 824212" d="M248.016,721.641c-2.29,2.348-4.588,4.689-6.867,7.047-.555.574-1.331,1.016-1.339,1.969l-5-3.995c.626-.754,1.052-1.371-.016-2.258a44.19,44.19,0,0,1-3.506-3.6l-.454-.484.018.028c.008-.155.016-.31.025-.465q.057-4.708.115-9.417.187-.013.373-.045l7.587,8.069c3.614-2.314,5.924-5.617,8.973-8.108q.076,5.4.153,10.8c-.021.153-.042.306-.062.459" transform="translate(-127.105 -391.156)" fill="#d73629"/>
              <path id="Trazado_824213" data-name="Trazado 824213" d="M168.7,660.451l-6.232-5.346c.894-1,.8-1.775-.249-2.716-1.5-1.336-2.8-2.883-4.19-4.341q-.053-.285-.1-.57.05-4.475.1-8.951l.392-.044q8.53,8.111,16.639,16.642.025.236.05.471-.067,4.735-.134,9.469c-1.516-1.471-3.025-2.951-4.553-4.41-.5-.479-1.015-1.251-1.717-.2" transform="translate(-86.96 -351.568)" fill="#d73629"/>
              <path id="Trazado_824214" data-name="Trazado 824214" d="M97.249,589.355c-1.838-1.877-3.345-4.113-5.781-5.344.557-1.137.135-1.931-.749-2.745-1.346-1.239-2.564-2.617-3.837-3.936.631-.615.3-1.4.32-2.095.078-2.651.095-5.3.135-7.956,1.358,1.449,2.746,2.871,4.068,4.351,3.8,4.251,8.5,7.58,12.178,11.948.012.3.026.609.039.914q-.059,4.5-.119,8.993c-1.913-.634-2.829-2.434-4.228-3.666-.653-.575-1.173-1.058-2.025-.464" transform="translate(-47.84 -312.361)" fill="#d73629"/>
              <path id="Trazado_824215" data-name="Trazado 824215" d="M150.509,654.623c1.387,1.457,2.694,3,4.189,4.34,1.052.94,1.143,1.719.249,2.716-.871.779-1.526.668-2.367-.223-2.4-2.538-4.848-5.032-7.409-7.4-1.247-1.153-1.132-2.077-.135-3.181l.867-.452,4.026,3.717.58.484" transform="translate(-79.435 -358.141)" fill="#121415"/>
              <path id="Trazado_824216" data-name="Trazado 824216" d="M37.884,544.43c.863-.734,1.295.034,1.8.521q2.016,1.935,4.027,3.875l4.97,5.38c-.3.016-.468.145-.42.47-.687,1.523-1.594,1.232-2.577.312-2.486-2.33-4.936-4.7-7.473-6.976-1.295-1.161-1.593-2.26-.331-3.582" transform="translate(-20.416 -299.613)" fill="#121415"/>
              <path id="Trazado_824217" data-name="Trazado 824217" d="M181.149,686.73c.7-1.047,1.215-.275,1.717.2,1.528,1.459,3.037,2.939,4.553,4.41l4.571,4.894c-.488.288.011.577,0,.866-1.561,1.014-2.656.561-3.87-.807-2.118-2.387-4.422-4.62-6.768-6.787-1.071-.99-1.052-1.786-.2-2.78" transform="translate(-99.404 -377.846)" fill="#121415"/>
              <path id="Trazado_824218" data-name="Trazado 824218" d="M109.059,616.072c.852-.594,1.372-.111,2.025.464,1.4,1.232,2.315,3.031,4.228,3.666a2.655,2.655,0,0,1,.14.4c-.122.319.076.425.329.494a24.2,24.2,0,0,0,4.166,4.021l-.529.844c-.8,1.346-1.618,1.476-2.768.271q-3.7-3.875-7.575-7.581c-1-.954-.985-1.712-.017-2.579" transform="translate(-59.65 -339.078)" fill="#121415"/>
              <path id="Trazado_824219" data-name="Trazado 824219" d="M222.9,726.945a44.179,44.179,0,0,0,3.506,3.6c1.068.887.641,1.5.016,2.259-.93.618-1.621.276-2.337-.455-2.605-2.658-5.167-5.369-7.92-7.869-1.549-1.406.61-1.789.465-2.734l.433-.212c1.938,1.195,3.133,3.2,4.949,4.53l.452.424-.018-.027.454.484" transform="translate(-118.72 -397.299)" fill="#121415"/>
              <path id="Trazado_824220" data-name="Trazado 824220" d="M78.919,584.511c1.273,1.319,2.491,2.7,3.837,3.937.883.813,1.305,1.608.749,2.745a1.746,1.746,0,0,1-2.531-.417c-2.542-2.614-5.1-5.216-7.74-7.727-1.286-1.222-.971-1.965.411-2.659a.768.768,0,0,0,.368-.067c1.873,1.119,3.253,2.815,4.908,4.19" transform="translate(-39.876 -319.542)" fill="#121415"/>
              <path id="Trazado_824221" data-name="Trazado 824221" d="M211.533,714.373l-.433.212-5.33-5.191c.012-.289-.487-.578,0-.866a14.15,14.15,0,0,1,5.761,5.846" transform="translate(-113.186 -390.136)" fill="#f7d5d2"/>
              <path id="Trazado_824222" data-name="Trazado 824222" d="M165.129,329.458c1.481-1.431,2.956-2.868,4.446-4.29.52-.5.921-1.186,1.773-1.2,1.436,2.043,2.476.481,3.591-.395q.063,4.046.126,8.092l-.049.471a6.514,6.514,0,0,1-.9,1.5c-5.288,5-9.922,10.689-15.737,15.142l-.392-.045-.1-8.053-.013-.49-.022.029.453-.477c2.289-2.191,4.485-4.492,6.9-6.536,1.715-1.452,1.842-2.535-.074-3.752" transform="translate(-86.917 -178.171)" fill="#d73629"/>
              <path id="Trazado_824223" data-name="Trazado 824223" d="M239.034,263.64a14.878,14.878,0,0,1,4.738,3.8c-.618.607-.712,1.087.033,1.781,1.469,1.368,2.809,2.873,4.2,4.321.019.156.038.312.058.469l-.143,9.457c-2.439-2.386-4.908-4.743-7.3-7.172-.843-.856-1.237-.972-2.172.067-2.228,2.475-4.707,4.726-7.084,7.066a3.259,3.259,0,0,0-.373-.046l-.116-8.068c-.008-.155-.016-.311-.023-.467l-.02.027.455-.484c2.185-2.235,4.3-4.551,6.585-6.673,1.2-1.113,1.31-2.006.237-3.143l.926-.939" transform="translate(-127.102 -145.168)" fill="#d73629"/>
              <path id="Trazado_824224" data-name="Trazado 824224" d="M94.836,400.406l5.427-5.444c1.4,1.792,2.493.776,3.572-.385q.068,4.042.135,8.083-.019.457-.038.914c-5.155,5.695-11.308,10.394-16.25,16.3q-.083-4.1-.165-8.209.044-.614.087-1.227c2.17-2.1,4.269-4.277,6.539-6.261,1.344-1.176,1.974-2.232.694-3.772" transform="translate(-48.189 -217.266)" fill="#d73629"/>
              <path id="Trazado_824225" data-name="Trazado 824225" d="M234.151,265.691c1.073,1.137.964,2.03-.237,3.143-2.29,2.121-4.4,4.438-6.585,6.673l-.455.484.02-.027-.466.412c-.675.451-1.207,1.557-2.216.486l-.457-.488a1.794,1.794,0,0,1,.456-1.989c2.695-2.594,5.321-5.26,7.95-7.921a2.16,2.16,0,0,1,1.989-.773" transform="translate(-123.145 -146.281)" fill="#121415"/>
              <path id="Trazado_824226" data-name="Trazado 824226" d="M47.065,454.4c-1.247,1.609-2.083.136-3.042-.407a1.839,1.839,0,0,1,.775-1.526q4.03-4.024,8.054-8.055a1.91,1.91,0,0,1,1.534-.771A2.613,2.613,0,0,0,55.641,445c.248.966-.63,1.266-1.1,1.757-2.468,2.57-4.979,5.1-7.475,7.642" transform="translate(-24.235 -244.281)" fill="#121415"/>
              <path id="Trazado_824227" data-name="Trazado 824227" d="M119.454,382.525c-1.079,1.161-2.174,2.177-3.572.385,2.694-4.208,5.921-7.871,10.436-10.221a1.285,1.285,0,0,0,.789.905c.785.732.027,1.1-.38,1.52q-3.626,3.716-7.273,7.411" transform="translate(-63.808 -205.214)" fill="#121415"/>
              <path id="Trazado_824228" data-name="Trazado 824228" d="M90.694,407.543c1.28,1.54.65,2.6-.694,3.772-2.27,1.984-4.368,4.163-6.539,6.261L83.11,418c-.845-.025-1.034,1.827-2.235.781-.214-.363-.336-.821-.877-.844a1.937,1.937,0,0,1,.788-1.512c2.664-2.659,5.333-5.314,7.979-7.991a2.426,2.426,0,0,1,1.93-.893" transform="translate(-44.047 -224.403)" fill="#121415"/>
              <path id="Trazado_824229" data-name="Trazado 824229" d="M191.479,311.534c-1.115.876-2.155,2.438-3.591.395a1.871,1.871,0,0,1,.434-1.443c2.83-2.821,5.651-5.652,8.5-8.45.228-.223.673-.225,1.017-.33l1.244.925c.381.994-.352,1.479-.919,2.057q-3.353,3.414-6.688,6.846" transform="translate(-103.457 -166.128)" fill="#121415"/>
              <path id="Trazado_824230" data-name="Trazado 824230" d="M161.9,336.665c1.916,1.216,1.788,2.3.074,3.752-2.414,2.044-4.611,4.345-6.9,6.536l-.454.477.022-.029-.451.439c-.59.65-1.184.489-1.779.007-.07-.311.151-.775-.43-.815.109-.345.114-.8.342-1.019,3.18-3.129,6.1-6.523,9.575-9.349" transform="translate(-83.685 -185.378)" fill="#121415"/>
              <path id="Trazado_824231" data-name="Trazado 824231" d="M19.006,478.648c-.175.622.24.985.632,1.316.623.525.541.957-.079,1.4-3.119,2.208-5.5,5.2-8.206,7.837-.943.918-1.675,1.324-2.694.275-.34-.615-.6-1.223.106-1.777,3.39-2.676,6.212-5.954,9.4-8.848.187-.17.559-.136.845-.2" transform="translate(-4.581 -263.558)" fill="#121415"/>
              <path id="Trazado_824232" data-name="Trazado 824232" d="M471.414,485.371l.491.534-4.12,4.464c-.742-.007-1.4-.256-2.114.511-2.59,2.767-5.3,5.428-8.028,8.056a1.455,1.455,0,0,0-.221,2.239l-5.765,5.506-1.388-.619c0-2.318.067-4.639-.039-6.952-.065-1.429.485-2.936-.411-4.289,2.6-2.646,5.138-5.352,7.821-7.908,1.031-.983.925-1.524-.013-2.441-2.65-2.591-5.211-5.274-7.807-7.921.819-.522.4-1.338.417-2.008.076-2.645.07-5.293.1-7.94.914.857,1.9,1.652,2.721,2.592.724.83,1.354.645,2.086.141l5.461,5.418a1.956,1.956,0,0,0,.462,2.476c2.648,2.47,5.223,5.029,7.682,7.685a1.975,1.975,0,0,0,2.669.455" transform="translate(-247.684 -256.926)" fill="#d73629"/>
              <path id="Trazado_824233" data-name="Trazado 824233" d="M384.091,586.893c-1.715,1.919-4.061,3.179-5.559,5.325-.738.057-1.521-.074-2.136.506a1.043,1.043,0,0,0-.323-.057q-.09-5.423-.182-10.846L393.43,564.3q.094,5.223.188,10.446l.12.6q.028.365.055.728a2.962,2.962,0,0,0-.981.41c-2.867,2.826-5.658,5.731-8.587,8.491-.814.767-.122,1.288-.134,1.921" transform="translate(-206.977 -310.719)" fill="#d73629"/>
              <path id="Trazado_824234" data-name="Trazado 824234" d="M312.235,660.592c-2.433,1.1-3.645,3.577-5.73,5.07-1.42-.529-2.2.519-3.107,1.26a1.91,1.91,0,0,0-.36-.054l-.155-10.82c5.412-5.64,10.9-11.2,16.6-16.558q.192.018.383.041l.128,10.781c-2.4,2.453-4.722,4.987-7.231,7.32-1.069.994-1.3,1.8-.524,2.961" transform="translate(-166.776 -352.122)" fill="#d73629"/>
              <path id="Trazado_824235" data-name="Trazado 824235" d="M415.108,555.527q-.094-5.223-.188-10.445L430.6,529.4c.9,1.353.346,2.86.411,4.289.106,2.313.035,4.634.039,6.951-.722.68-1.484,1.323-2.159,2.047-2.572,2.761-5.115,5.549-7.669,8.327-2.335,1.041-3.746,3.08-5.308,4.95-.027.032.226.3.348.456l-.157.9a.469.469,0,0,0-.293,0l-.531-.464q-.027-.365-.054-.729c.022-.071.078-.152.06-.21a2.864,2.864,0,0,0-.181-.388" transform="translate(-228.467 -291.502)" fill="#fffffe"/>
              <path id="Trazado_824236" data-name="Trazado 824236" d="M323.132,672.616c-.777-1.159-.545-1.967.524-2.961,2.51-2.333,4.833-4.867,7.231-7.32.641-.243.9-1.168,1.782-.985.07.551.457.532.863.48.931.985.858,1.767-.184,2.751q-4.039,3.81-7.851,7.858a1.454,1.454,0,0,1-2.365.179" transform="translate(-177.673 -364.145)" fill="#121415"/>
              <path id="Trazado_824237" data-name="Trazado 824237" d="M366.392,626.935c.615-.579,1.4-.448,2.136-.506,1.365,1.222,1.066,2.149-.252,3.324a85.9,85.9,0,0,0-6.469,6.458c-1.22,1.346-2.437,1.816-4.084,1.017q.022-.405.043-.811,0-.285,0-.57l8.19-8.467.436-.446" transform="translate(-196.972 -344.93)" fill="#121415"/>
              <path id="Trazado_824238" data-name="Trazado 824238" d="M294.03,698.816c.905-.74,1.686-1.789,3.107-1.26,1,1.409.577,2.4-.666,3.521-2.429,2.2-4.731,4.551-6.966,6.95-.985,1.057-1.778,1.12-2.77.188.011-.588-.492-.663-.866-.867l7.719-8.082.443-.45" transform="translate(-157.407 -384.016)" fill="#121415"/>
              <path id="Trazado_824239" data-name="Trazado 824239" d="M403.519,590.5l.53.464a.353.353,0,0,0,.367.434c.86.391,1.158.923.4,1.685-2.826,2.833-5.7,5.622-8.465,8.512-1.1,1.149-1.677-.368-2.531-.273.012-.633-.68-1.154.133-1.921,2.929-2.76,5.72-5.665,8.587-8.491a2.955,2.955,0,0,1,.982-.41" transform="translate(-216.702 -325.145)" fill="#121415"/>
              <path id="Trazado_824240" data-name="Trazado 824240" d="M466.216,530.241a1.455,1.455,0,0,1,.221-2.239c2.733-2.628,5.438-5.29,8.028-8.056.718-.767,1.372-.518,2.114-.511,1,1.569.559,2.687-.834,3.87-2.484,2.106-4.821,4.39-7.155,6.666a1.7,1.7,0,0,1-2.373.271" transform="translate(-256.477 -285.992)" fill="#121415"/>
              <path id="Trazado_824241" data-name="Trazado 824241" d="M428.949,564.787c2.554-2.778,5.1-5.566,7.67-8.327.674-.724,1.437-1.367,2.159-2.047l1.388.619a2.425,2.425,0,0,1-.742,3.12c-2.34,2.182-4.623,4.435-6.785,6.792-1.15,1.253-2.132,1.4-3.355.289l-.334-.445" transform="translate(-236.192 -305.276)" fill="#121415"/>
              <path id="Trazado_824242" data-name="Trazado 824242" d="M279.3,719.524c.374.2.876.279.866.866a16.488,16.488,0,0,0-5.856,5.83c-.5-.159-.327-.584-.37-.924,1.191-2.477,3.407-4,5.36-5.772" transform="translate(-150.84 -396.191)" fill="#f7d5d2"/>
              <path id="Trazado_824243" data-name="Trazado 824243" d="M350.713,648.567q-.022.405-.043.811c-1.674,1.756-3.865,3.042-4.891,5.385-.406.053-.793.071-.863-.48,1.254-2.449,3.444-4.022,5.425-5.791a.947.947,0,0,1,.372.075" transform="translate(-189.921 -357.079)" fill="#f7d5d2"/>
              <path id="Trazado_824244" data-name="Trazado 824244" d="M422.442,577.5l.334.445-5.294,4.96c-.122-.157-.375-.423-.348-.456,1.563-1.869,2.974-3.909,5.308-4.95" transform="translate(-229.685 -317.988)" fill="#f7d5d2"/>
              <path id="Trazado_824245" data-name="Trazado 824245" d="M417.272,591.934a.354.354,0,0,1-.367-.434.469.469,0,0,1,.293,0l.074.438" transform="translate(-229.558 -325.684)" fill="#f7d5d2"/>
              <path id="Trazado_824246" data-name="Trazado 824246" d="M263.259,276.884c-1.394-1.448-2.734-2.953-4.2-4.321-.745-.693-.651-1.174-.033-1.781.369-.317.926-.463.967-1.072a1.911,1.911,0,0,1,1.53.78q4.023,4.032,8.055,8.055a1.909,1.909,0,0,1,.777,1.531,2.919,2.919,0,0,0-1.345,1.262c-.93.276-1.464-.294-2.045-.882-1.066-1.078-2.189-2.1-3.288-3.145l-.417-.426" transform="translate(-142.353 -148.507)" fill="#121415"/>
              <path id="Trazado_824247" data-name="Trazado 824247" d="M367.068,376.659a1.932,1.932,0,0,1,1.531.782q4.025,4.035,8.058,8.06c.423.423.878.829.772,1.52a1.042,1.042,0,0,0-.845.833c-.826.792-1.371.268-2-.347-1.187-1.17-2.2-2.553-3.791-3.257-.1-.3.01-.7-.415-.839a32.235,32.235,0,0,0-4.019-4.029c-1.13-.809-.594-1.19-.118-1.827.355-.224.78-.385.822-.9" transform="translate(-201.361 -207.397)" fill="#121415"/>
              <path id="Trazado_824248" data-name="Trazado 824248" d="M295.816,305.739c.35.1.807.083,1.032.3q4.626,4.556,9.182,9.183c.173.176.135.56.2.847-.661-.176-.968.074-.914.759-.82.682-1.378.318-2.029-.356-1.493-1.547-3.076-3.006-4.623-4.5l-.424-.448a17.121,17.121,0,0,0-2.953-2.979c-1.392-.857-1.144-1.5-.261-2.408.3-.071.712.092.794-.4" transform="translate(-162.05 -168.349)" fill="#121415"/>
              <path id="Trazado_824249" data-name="Trazado 824249" d="M447.73,458.8c-.731.5-1.362.689-2.086-.141-.82-.94-1.806-1.735-2.721-2.592a40.234,40.234,0,0,0-6.022-5.874c-.936-.679-.487-.985.131-1.393l1.754-1.331c2.465,3.009,5.443,5.521,8.1,8.345.548.583,1.332,1.015,1.381,1.956-.479.187-.411.658-.534,1.031" transform="translate(-240.275 -246.389)" fill="#121415"/>
              <path id="Trazado_824250" data-name="Trazado 824250" d="M332.381,341.583c3.216,2.644,5.933,5.8,8.933,8.667a2,2,0,0,1,.568,1.62l-.453.166c-.932.789-1.691.97-2.631-.171a43.535,43.535,0,0,0-3.628-3.537c-1.281-1.337-2.485-2.762-3.868-3.983-1.025-.9-1.133-1.664-.247-2.635l1.326-.127" transform="translate(-181.959 -188.086)" fill="#121415"/>
              <path id="Trazado_824251" data-name="Trazado 824251" d="M402.85,412.591a2.027,2.027,0,0,1,1.626.573c2.777,2.811,5.575,5.6,8.345,8.422.186.189.2.543.3.821-.472.151-.446.549-.46.927-.741.639-1.382,1.109-2.207-.027a19.517,19.517,0,0,0-2.366-2.341c-1.847-1.893-3.644-3.839-5.565-5.654a1.38,1.38,0,0,1-.084-2.234l.414-.487" transform="translate(-221.301 -227.184)" fill="#121415"/>
              <path id="Trazado_824252" data-name="Trazado 824252" d="M276.506,695.744c-1.953,1.77-4.169,3.295-5.36,5.772-.906-.257-1.117.776-1.784.962a.473.473,0,0,0-.343-.04q-.076-5.4-.153-10.8,7.441-7.851,15.286-15.3.078,5.41.155,10.82l-.082.5-7.718,8.082" transform="translate(-148.046 -372.411)" fill="#fffffe"/>
              <path id="Trazado_824253" data-name="Trazado 824253" d="M269.13,734.4a.474.474,0,0,1,.343.04l-.406.419c.021-.153.042-.306.063-.459" transform="translate(-148.156 -404.374)" fill="#f7d5d2"/>
              <path id="Trazado_824254" data-name="Trazado 824254" d="M150.94,463.775q-7.83,7.463-15.286,15.3c-3.049,2.491-5.359,5.795-8.973,8.108l-7.587-8.069-.414-.443c-5.033-5.019-9.678-10.438-15.312-14.836l-.436-.426q-8.1-8.536-16.64-16.642l-.432-.45-14.368-14.4a1.334,1.334,0,0,0-.916-.851c-3.68-4.368-8.38-7.7-12.178-11.948-1.322-1.48-2.71-2.9-4.068-4.35-4.985-5.581-10.775-10.334-16.074-15.594L26.939,388.67,38.191,378.12c5.214-5.39,11.046-10.143,16.134-15.662,4.943-5.907,11.1-10.606,16.25-16.3a1.331,1.331,0,0,0,.916-.851l14.369-14.4.432-.449c5.815-4.454,10.449-10.138,15.737-15.142a6.514,6.514,0,0,0,.9-1.5l.435-.426c5.287-4.757,10.492-9.6,15.313-14.837l.413-.442c2.377-2.341,4.855-4.591,7.084-7.066.935-1.038,1.329-.922,2.173-.067,2.4,2.429,4.864,4.787,7.3,7.172q7.442,7.849,15.285,15.3c5.415,5.638,10.9,11.2,16.6,16.559l.412.45c5.077,5.347,10.313,10.535,15.646,15.626q8.633,9.065,17.689,17.709l15.688,15.682c2.6,2.647,5.157,5.329,7.807,7.921.938.917,1.044,1.458.013,2.441-2.683,2.556-5.223,5.262-7.821,7.908l-15.683,15.683-17.538,17.523-15.8,15.814-.412.451c-5.694,5.357-11.184,10.919-16.6,16.558M118.565,303.033l.013-.026-.457.414-15.26,15.31L85.734,335.383,70.941,350.155,70,351.1,53.961,367.085,37.832,383.3c-5.93,5.04-5.931,5.041-.4,10.388a7.153,7.153,0,0,0,.7.531l15.83,15.92,16.512,16.453c5.017,5.029,9.7,10.4,15.306,14.821,5.494,5.9,11.241,11.547,17.072,17.11l15.671,15.652c2.6,2.658,5.212,5.3,7.792,7.982.6.619,1.015.639,1.629,0,2.574-2.683,5.192-5.324,7.794-7.98l.417-.43,14.856-14.819.438-.45,16.6-16.582,15.851-15.79c.632.08.926-.425,1.28-.779q8.246-8.259,16.475-16.536l15.829-15.92c5.377-5.293,5.383-3.215,0-8.52l-15.829-15.92q-8.04-8.077-16.079-16.154c-.368-.369-.706-.782-1.3-.752l-.431-.448-15.772-15.728a1.686,1.686,0,0,0-.732-1.311c-5.337-5.055-10.086-10.72-15.886-15.293l-.438-.451-14.856-14.819-.416-.43c-2.546-2.6-5.117-5.175-7.621-7.814-.731-.77-1.2-.821-1.954-.029-2.348,2.478-4.762,4.895-7.151,7.335l-.448.494" transform="translate(-14.833 -159.85)" fill="#121415"/>
              <path id="Trazado_824255" data-name="Trazado 824255" d="M51.971,532.581c5.3,5.26,11.089,10.012,16.074,15.594-.04,2.651-.057,5.3-.135,7.955-.021.7.312,1.479-.32,2.095-1.654-1.375-3.035-3.071-4.908-4.19-1.075-2.9-3.322-4.682-5.866-6.185l-4.971-5.379q.063-4.944.124-9.888" transform="translate(-28.549 -293.255)" fill="#fffffe"/>
              <path id="Trazado_824256" data-name="Trazado 824256" d="M67.467,439.833c-5.089,5.519-10.921,10.272-16.135,15.662-.954-1.849-.238-3.83-.446-5.739-.087-.8-.058-1.606-.082-2.409,2.5-2.543,5.007-5.072,7.474-7.642.472-.491,1.349-.792,1.1-1.757.516-1.943,2.377-2.761,3.512-4.189.6-.75,1.271-1.439,1.91-2.156,1.2,1.046,1.39-.806,2.236-.781l.264.8q.082,4.1.165,8.209" transform="translate(-27.975 -237.224)" fill="#fffffe"/>
              <path id="Trazado_824257" data-name="Trazado 824257" d="M196.382,676.465c5.634,4.4,10.279,9.818,15.311,14.836q.02.245.041.489-.057,4.709-.115,9.418l-.477.041c-1.816-1.328-3.011-3.335-4.949-4.53a14.156,14.156,0,0,0-5.761-5.846l-4.571-4.894L196,676.51a1.055,1.055,0,0,0,.387-.045" transform="translate(-107.847 -372.482)" fill="#fffffe"/>
              <path id="Trazado_824258" data-name="Trazado 824258" d="M231.134,709.968c-.014-.163-.028-.327-.041-.489l.414.444q-.185.032-.373.045" transform="translate(-127.247 -390.66)" fill="#e0655b"/>
              <path id="Trazado_824259" data-name="Trazado 824259" d="M229.87,731.566l.476-.041q-.013.232-.024.465l-.452-.424" transform="translate(-126.573 -402.799)" fill="#e0655b"/>
              <path id="Trazado_824260" data-name="Trazado 824260" d="M231.29,732.982l-.454-.484.454.484" transform="translate(-127.105 -403.335)" fill="#e0655b"/>
              <path id="Trazado_824261" data-name="Trazado 824261" d="M124.863,605.444l14.368,14.4.04.5q-.05,4.476-.1,8.951l-.474.086-4.026-3.717a19.209,19.209,0,0,0-6.171-6.241,24.188,24.188,0,0,1-4.166-4.021l-.329-.494a2.687,2.687,0,0,0-.14-.4l.119-8.992.878-.063" transform="translate(-68.205 -333.375)" fill="#fffffe"/>
              <path id="Trazado_824262" data-name="Trazado 824262" d="M158.1,637.975l-.04-.5.432.451-.392.044" transform="translate(-87.031 -351.015)" fill="#e0655b"/>
              <path id="Trazado_824263" data-name="Trazado 824263" d="M156.872,658.587l.475-.086q.051.285.1.57l-.579-.484" transform="translate(-86.378 -362.59)" fill="#e0655b"/>
              <path id="Trazado_824264" data-name="Trazado 824264" d="M196.485,675.943a1.055,1.055,0,0,1-.387.045c-.017-.157-.034-.314-.05-.471l.437.426" transform="translate(-107.95 -371.96)" fill="#f7d5d2"/>
              <path id="Trazado_824265" data-name="Trazado 824265" d="M124.961,604.4l-.878.063q-.02-.456-.039-.914a1.332,1.332,0,0,1,.916.851" transform="translate(-68.303 -332.333)" fill="#f7d5d2"/>
              <path id="Trazado_824266" data-name="Trazado 824266" d="M124.134,626.485l.329.494c-.253-.069-.451-.175-.329-.494" transform="translate(-68.331 -344.961)" fill="#f7d5d2"/>
              <path id="Trazado_824267" data-name="Trazado 824267" d="M211.7,298.115c-4.821,5.238-10.026,10.08-15.313,14.837a.985.985,0,0,0-.386-.045q-.063-4.046-.126-8.092,3.343-3.424,6.688-6.846c.567-.578,1.3-1.063.919-2.057l5.437-5.921c1.009,1.07,1.541-.035,2.216-.487l.489.055.116,8.068-.04.488" transform="translate(-107.857 -159.41)" fill="#fffffe"/>
              <path id="Trazado_824268" data-name="Trazado 824268" d="M139.212,370.132l-14.368,14.4-.878-.062q-.067-4.042-.135-8.083,3.639-3.7,7.273-7.411c.407-.417,1.164-.787.38-1.52l5.428-5.911c.594.482,1.188.643,1.778-.007l.465.05q.049,4.027.1,8.054c-.014.164-.027.329-.04.494" transform="translate(-68.184 -199.071)" fill="#fffffe"/>
              <path id="Trazado_824269" data-name="Trazado 824269" d="M157.36,361.046,156.9,361l.452-.439c0,.163.009.326.014.489" transform="translate(-86.391 -198.533)" fill="#e0655b"/>
              <path id="Trazado_824270" data-name="Trazado 824270" d="M157.85,360.035l.454-.477-.454.477" transform="translate(-86.917 -197.983)" fill="#e0655b"/>
              <path id="Trazado_824271" data-name="Trazado 824271" d="M158.059,380.061c.013-.165.026-.329.04-.494l.392.045-.432.449" transform="translate(-87.032 -209.001)" fill="#e0655b"/>
              <path id="Trazado_824272" data-name="Trazado 824272" d="M196.1,341.58a.978.978,0,0,1,.386.045l-.435.426c.017-.157.033-.314.049-.471" transform="translate(-107.951 -188.082)" fill="#f7d5d2"/>
              <path id="Trazado_824273" data-name="Trazado 824273" d="M284.151,311.428q-7.828-7.464-15.285-15.3.071-4.729.143-9.457l.183.006.176-.049c1.1,1.045,2.222,2.066,3.288,3.144.581.588,1.115,1.158,2.045.883,1.625.289,2.239,1.845,3.4,2.716.982.737,1.489,2.089,2.917,2.247-.883.907-1.131,1.55.261,2.407a17.151,17.151,0,0,1,2.952,2.979l.07.5-.15,9.923" transform="translate(-148.046 -157.828)" fill="#fffffe"/>
              <path id="Trazado_824274" data-name="Trazado 824274" d="M230.831,288.056l.455-.484-.455.484" transform="translate(-127.102 -158.346)" fill="#e0655b"/>
              <path id="Trazado_824275" data-name="Trazado 824275" d="M269.471,286.107l-.177.049-.183-.007-.058-.469.418.426" transform="translate(-148.149 -157.304)" fill="#f7d5d2"/>
              <path id="Trazado_824276" data-name="Trazado 824276" d="M231.1,308.068l.04-.488a3.336,3.336,0,0,1,.373.046l-.413.442" transform="translate(-127.248 -169.363)" fill="#e0655b"/>
              <path id="Trazado_824277" data-name="Trazado 824277" d="M230.328,289.055l-.489-.055.466-.412c.008.155.015.311.023.466" transform="translate(-126.556 -158.906)" fill="#e0655b"/>
              <path id="Trazado_824278" data-name="Trazado 824278" d="M87.193,431.1q-.132-.4-.264-.8l.351-.426q-.044.614-.087,1.227" transform="translate(-47.866 -236.701)" fill="#f7d5d2"/>
              <path id="Trazado_824279" data-name="Trazado 824279" d="M124.084,412.565l.878.063a1.333,1.333,0,0,1-.917.851l.039-.914" transform="translate(-68.303 -227.171)" fill="#f7d5d2"/>
              <path id="Trazado_824280" data-name="Trazado 824280" d="M430.6,457.076,414.91,441.393c.426-3.377-.221-6.789.335-10.161a19.49,19.49,0,0,1,2.366,2.341c.825,1.136,1.467.666,2.207.027,1.074,1.7,2.733,2.853,4.042,4.333.523.591,1.306,1,1.358,1.927-.617.408-1.066.714-.13,1.393a40.257,40.257,0,0,1,6.022,5.875c-.025,2.647-.019,5.295-.1,7.94-.019.67.4,1.486-.417,2.008" transform="translate(-228.462 -237.449)" fill="#fffffe"/>
              <path id="Trazado_824281" data-name="Trazado 824281" d="M340.7,619.108l15.8-15.814q.091,5.423.182,10.845l-.113.5-8.19,8.467c-.238.08-.437.189-.373.5-1.981,1.769-4.171,3.342-5.425,5.791-.877-.183-1.141.742-1.782.985q-.063-5.39-.128-10.781c.01-.164.019-.328.028-.492" transform="translate(-187.581 -332.192)" fill="#fffffe"/>
              <path id="Trazado_824282" data-name="Trazado 824282" d="M415.339,587.544a2.862,2.862,0,0,1,.181.388c.018.058-.038.139-.06.21q-.061-.3-.121-.6" transform="translate(-228.698 -323.519)" fill="#f7d5d2"/>
              <path id="Trazado_824283" data-name="Trazado 824283" d="M376.044,627.931l.113-.5a1.049,1.049,0,0,1,.323.056l-.436.446" transform="translate(-207.061 -345.481)" fill="#e0655b"/>
              <path id="Trazado_824284" data-name="Trazado 824284" d="M340.226,638.486c-.009.164-.018.328-.028.492q-.191-.023-.383-.041l.412-.451" transform="translate(-187.112 -351.569)" fill="#e0655b"/>
              <path id="Trazado_824285" data-name="Trazado 824285" d="M303.044,700.92l.082-.5a1.95,1.95,0,0,1,.36.054l-.443.45" transform="translate(-166.865 -385.67)" fill="#e0655b"/>
              <path id="Trazado_824286" data-name="Trazado 824286" d="M356.973,647.885c-.063-.306.136-.416.373-.5q0,.285,0,.57a.948.948,0,0,0-.373-.075" transform="translate(-196.554 -356.472)"/>
              <path id="Trazado_824287" data-name="Trazado 824287" d="M393.572,410.486c-.556,3.372.091,6.784-.335,10.161Q384.189,412,375.55,402.939c.633-3.085.014-6.214.336-9.31a.81.81,0,0,0,.339-.074c1.59.7,2.6,2.087,3.791,3.257.624.615,1.169,1.139,2,.347l1.961,1.236.419.415.449.449.449.449.449.449.449.449.449.449.449.449.417.42.419.672a1.38,1.38,0,0,0,.084,2.234c1.921,1.814,3.718,3.761,5.565,5.654" transform="translate(-206.789 -216.704)" fill="#d73629"/>
              <path id="Trazado_824288" data-name="Trazado 824288" d="M356.678,373.277c-.321,3.1.3,6.225-.336,9.31-5.334-5.092-10.57-10.279-15.647-15.626q-.014-.245-.029-.492.063-4.938.125-9.875a43.455,43.455,0,0,1,3.628,3.537c.941,1.141,1.7.959,2.631.171.681,1.981,2.6,2.892,3.818,4.409.5.624,1.062,1.2,1.6,1.8-.476.636-1.012,1.017.118,1.826a32.2,32.2,0,0,1,4.018,4.028q.038.456.076.914" transform="translate(-187.581 -196.351)" fill="#fffffe"/>
              <path id="Trazado_824289" data-name="Trazado 824289" d="M376.2,392.6q-.038-.457-.076-.914c.426.138.316.541.415.84a.808.808,0,0,1-.339.074" transform="translate(-207.107 -215.674)" fill="#e0655b"/>
              <path id="Trazado_824290" data-name="Trazado 824290" d="M319.986,336.233q-.063,4.937-.126,9.875c-.127.015-.255.029-.383.041-5.695-5.356-11.182-10.921-16.6-16.558q.075-4.962.15-9.923a2.117,2.117,0,0,0,.355-.05c1.546,1.5,3.129,2.955,4.623,4.5.652.674,1.209,1.039,2.029.357l2.032,1.321.417.409.449.449.449.449.448.449.449.449.449.449.449.449.424.427a1.466,1.466,0,0,0,.268.288c-.887.971-.778,1.73.247,2.635,1.383,1.221,2.587,2.645,3.868,3.983" transform="translate(-166.775 -175.991)" fill="#d73629"/>
              <path id="Trazado_824291" data-name="Trazado 824291" d="M303.483,319.069a2.1,2.1,0,0,1-.355.05q-.035-.249-.07-.5l.425.448" transform="translate(-166.873 -175.442)" fill="#e0655b"/>
              <path id="Trazado_824292" data-name="Trazado 824292" d="M157.777,370.217,174.9,353.565q0,12.384-.008,24.768c-2.491-.012-1.251,1.682-1.066,2.633.386,1.984,1.5,3.8,1.465,5.9-.263.049-.382.179-.257.45-.018.9-.052,1.792-.052,2.688q0,50.224-.006,100.447c0,.969-.054,1.939-.084,2.908-5.832-5.563-11.578-11.211-17.072-17.11.024-.373.067-.745.067-1.118q.005-51.114,0-102.229c0-.895-.074-1.79-.113-2.685" transform="translate(-86.877 -194.683)" fill="#d73629"/>
              <path id="Trazado_824293" data-name="Trazado 824293" d="M319.926,476.75l-16.6,16.581a1.812,1.812,0,0,0-.355-.053q-.017-39.047-.034-78.093a4.183,4.183,0,0,0-.08-5.137.181.181,0,0,1,.044-.274c.061-.038.176-.081.172-.112a2.008,2.008,0,0,0-.1-.36q-.048-5-.1-10,.051-.2.1-.4c.257-.524.481-1.068.778-1.569a21.924,21.924,0,0,0,3.124-12.408c-.059-1.347-.479-1.622-1.572-.8-.717.54-1.277,1.52-2.432.936l-.111-2.641a18.2,18.2,0,0,0,.151-15.853q.028-6.457.056-12.914a1.846,1.846,0,0,0,.355-.053c5.8,4.573,10.549,10.239,15.886,15.293a1.684,1.684,0,0,1,.731,1.311c-.034.6-.1,1.19-.1,1.786q-.007,51.6,0,103.2c0,.522.05,1.043.077,1.565" transform="translate(-166.714 -194.703)" fill="#d73629"/>
              <path id="Trazado_824294" data-name="Trazado 824294" d="M195.873,534.666c.029-.969.084-1.939.084-2.908q.007-50.223.006-100.447c0-.9.034-1.792.052-2.688h.181l.177-.039c.778,2.811.968,6,2.466,8.35,2.5,3.927,5.346,7.87,10.571,8.82a4.534,4.534,0,0,1,2.643.884c-.893,1.487-.245,3.125-.457,4.679-2.609.029-5.219.071-7.828.084-3.026.015-2.952,0-2.973,3.107-.009,1.3.392,1.616,1.635,1.591,3.056-.062,6.114.028,9.171.057a.219.219,0,0,0,.052.284l.09.465c-.019.9-.055,1.795-.055,2.692q0,43.23-.009,86.46c0,1.42-.089,2.84-.136,4.26l-15.67-15.652" transform="translate(-107.854 -235.991)" fill="#fffffe"/>
              <path id="Trazado_824295" data-name="Trazado 824295" d="M230.855,490.227a.221.221,0,0,1-.052-.284l17.138.005q.042.368.084.737c-.016.97-.045,1.94-.046,2.91-.016,25.235-.008,86.132.042,90.039l-.059.471c-2.6,2.656-5.221,5.3-7.795,7.98-.614.64-1.033.62-1.629,0-2.58-2.678-5.192-5.324-7.792-7.982.047-1.42.135-2.84.135-4.26q.012-43.23.009-86.46c0-.9.036-1.794.055-2.692.048-.052.146-.132.135-.152a2.519,2.519,0,0,0-.226-.313" transform="translate(-127.056 -269.777)" fill="#d73629"/>
              <path id="Trazado_824296" data-name="Trazado 824296" d="M340.851,497.1c-.027-.522-.077-1.043-.077-1.565q-.006-51.6,0-103.2c0-.6.063-1.19.1-1.786l15.772,15.728.091.52q-.016,37.254-.033,74.508L340.851,497.1" transform="translate(-187.638 -215.048)" fill="#fffffe"/>
              <path id="Trazado_824297" data-name="Trazado 824297" d="M139.078,390.622c.039.895.112,1.79.113,2.685q.008,51.114,0,102.229c0,.373-.044.745-.067,1.118-5.6-4.424-10.29-9.793-15.306-14.821.033-.894.093-1.788.094-2.681q.009-23.072,0-46.145c-.007-8.734-.046-17.469-.07-26.2.578-.334.426-.9.443-1.408l14.792-14.771" transform="translate(-68.178 -215.088)" fill="#fffffe"/>
              <path id="Trazado_824298" data-name="Trazado 824298" d="M268.923,569.1q.02-37.853.041-75.706c0-.97.03-1.94.046-2.91l.339-.725c4.061-.034,8.123-.1,12.184-.08.909,0,1.919-.4,2.735.381q.017,39.046.034,78.092-.042.252-.083.5l-14.857,14.82a.569.569,0,0,0-.356-.042q-.074-5.861-.149-11.722a.551.551,0,0,0,.032-.339,1.606,1.606,0,0,0,.034-2.272" transform="translate(-148.041 -269.574)" fill="#fffffe"/>
              <path id="Trazado_824299" data-name="Trazado 824299" d="M376.223,501.125q.016-37.254.033-74.508a1.133,1.133,0,0,0,.34-.072c.6-.031.935.383,1.3.752l16.08,16.154a7.18,7.18,0,0,0-.232,1.28q-.019,18.9,0,37.8a7.14,7.14,0,0,0,.232,1.28q-8.235,8.271-16.475,16.536c-.354.354-.648.858-1.28.779" transform="translate(-207.16 -234.868)" fill="#d73629"/>
              <path id="Trazado_824300" data-name="Trazado 824300" d="M103.611,426.058c.024,8.734.063,17.469.07,26.2q.018,23.073,0,46.145c0,.893-.061,1.787-.094,2.681L87.073,484.635c.381-.452.244-.995.244-1.5q.009-20.024,0-40.048c0-.509.135-1.051-.244-1.5l16.034-15.986.5.464" transform="translate(-47.945 -234.345)" fill="#d73629"/>
              <path id="Trazado_824301" data-name="Trazado 824301" d="M67.309,461.169c.38.452.244.994.244,1.5q.009,20.024,0,40.048c0,.509.136,1.052-.244,1.5L51.48,488.3q-.15-5.459-.3-10.919l16.129-16.216" transform="translate(-28.181 -253.933)" fill="#fffffe"/>
              <path id="Trazado_824302" data-name="Trazado 824302" d="M415.438,504.527a7.173,7.173,0,0,1-.231-1.28q-.019-18.9,0-37.8a7.184,7.184,0,0,1,.232-1.28l15.829,15.919v8.52l-15.829,15.92" transform="translate(-228.62 -255.585)" fill="#fffffe"/>
              <path id="Trazado_824303" data-name="Trazado 824303" d="M195.871,359.575l.008-24.768,15.26-15.309.49.043q-.01,7.866-.021,15.732l-.439.075c-2.505-.453-2.5-.453-2.263,2.139a5.2,5.2,0,0,1-.012,1.345c-.773,4.465-2.335,8.889-.344,13.656a6.133,6.133,0,0,1-4.058-3.6,10.037,10.037,0,0,0-2.384-3.164c-.24-.243-.456-.664-.9-.522-.6.191-.439.768-.359,1.126.619,2.787.2,5.628.487,8.415.257,2.5.641,5.077,2.12,7.227a8.08,8.08,0,0,1,1.342,3.227c-2.64.76-4.715-.245-6.458-2.136-.738-.8-1.353-1.713-2.024-2.574l-.312-.518q-.055-.2-.129-.4" transform="translate(-107.852 -175.925)" fill="#fffffe"/>
              <path id="Trazado_824304" data-name="Trazado 824304" d="M230.862,324.5q.011-7.866.021-15.732c-.011-.152-.022-.305-.033-.457l-.013.025.448-.494c2.388-2.44,4.8-4.856,7.151-7.335.75-.791,1.223-.741,1.954.03,2.5,2.639,5.076,5.214,7.621,7.814.019.157.04.315.06.472q-.074,8.778-.148,17.556c-1.256-.858-1.61-2.306-2.132-3.567a93.772,93.772,0,0,1-4.9-13.193,16.123,16.123,0,0,0-2.033,7.393c-.158,4.873.629,9.784-.748,14.623a14.631,14.631,0,0,1-1.987,4.46,8.6,8.6,0,0,1-2.154-4.682c-.34-2.452-.684-5.006-3.076-6.537a1.41,1.41,0,0,0-.031-.373" transform="translate(-127.106 -165.154)" fill="#d73629"/>
              <path id="Trazado_824305" data-name="Trazado 824305" d="M268.86,337.217q.074-8.778.147-17.556l.182.007.175-.049,14.856,14.819.084.5q-.028,6.457-.056,12.914c-.979.747-1.091,2.007-1.756,2.948-1.385,1.959-2.928,3.67-5.091,4.314,1.481-6.3,1.658-12.268-1.807-18.45-1.753,4.362-.686,9.449-5.194,12.165a18.821,18.821,0,0,0-1.1-9.839c.024-.521.149-1.07-.4-1.43a.539.539,0,0,0-.032-.348" transform="translate(-148.042 -175.992)" fill="#fffffe"/>
              <path id="Trazado_824306" data-name="Trazado 824306" d="M45.666,497.255q.15,5.46.3,10.919a7.168,7.168,0,0,1-.7-.531c-5.532-5.347-5.531-5.347.4-10.388" transform="translate(-22.668 -273.803)" fill="#d73629"/>
              <path id="Trazado_824307" data-name="Trazado 824307" d="M450.959,508.114v-8.52c5.383,5.3,5.377,3.227,0,8.52" transform="translate(-248.311 -275.091)" fill="#d73629"/>
              <path id="Trazado_824308" data-name="Trazado 824308" d="M123.258,424.9l-.5-.464.946-.944c-.017.511.135,1.074-.443,1.408" transform="translate(-67.593 -233.188)" fill="#f7d5d2"/>
              <path id="Trazado_824309" data-name="Trazado 824309" d="M339.814,378.61c.128-.012.256-.026.383-.041.009.164.019.328.028.492l-.412-.451" transform="translate(-187.112 -208.451)" fill="#e0655b"/>
              <path id="Trazado_824310" data-name="Trazado 824310" d="M303.126,353.1l-.084-.5.438.451a1.854,1.854,0,0,1-.355.053" transform="translate(-166.864 -194.15)" fill="#e0655b"/>
              <path id="Trazado_824311" data-name="Trazado 824311" d="M303.042,664.934q.042-.252.083-.5a1.776,1.776,0,0,1,.355.054l-.438.45" transform="translate(-166.864 -365.855)" fill="#e0655b"/>
              <path id="Trazado_824312" data-name="Trazado 824312" d="M269.472,319.093l-.175.049-.182-.007c-.02-.157-.04-.315-.06-.472l.417.43" transform="translate(-148.15 -175.465)" fill="#f7d5d2"/>
              <path id="Trazado_824313" data-name="Trazado 824313" d="M230.3,318.575q.016.229.033.457l-.49-.043.457-.414" transform="translate(-126.561 -175.417)" fill="#e0655b"/>
              <path id="Trazado_824314" data-name="Trazado 824314" d="M231.285,317.532l-.448.494.448-.494" transform="translate(-127.106 -174.843)" fill="#e0655b"/>
              <path id="Trazado_824315" data-name="Trazado 824315" d="M269.115,698.423a.571.571,0,0,1,.356.042l-.417.429q.03-.235.06-.471" transform="translate(-148.15 -384.566)" fill="#f7d5d2"/>
              <path id="Trazado_824316" data-name="Trazado 824316" d="M376.524,426a1.132,1.132,0,0,1-.34.072q-.046-.26-.091-.52l.431.448" transform="translate(-207.088 -234.32)" fill="#e0655b"/>
              <path id="Trazado_824317" data-name="Trazado 824317" d="M227.22,340.023a18.817,18.817,0,0,1,1.1,9.839c4.508-2.716,3.441-7.8,5.194-12.165,3.465,6.182,3.288,12.146,1.807,18.45,2.163-.643,3.706-2.354,5.091-4.314.665-.941.778-2.2,1.756-2.948a18.2,18.2,0,0,1-.15,15.852c-1.362.753-1.735,2.209-2.562,3.421a2.508,2.508,0,0,0,2.672-.78c1.154.584,1.714-.4,2.432-.936,1.092-.821,1.513-.547,1.572.8a21.92,21.92,0,0,1-3.124,12.407c-.3.5-.52,1.045-.779,1.569-.311.036-.557.141-.552.514-1.25,2-3.417,2.817-5.262,4.024-2.9,1.9-6.262,2.312-9.614,2.681a.735.735,0,0,1-.659-.647c-.007-.061.448-.175.69-.265.29.045.394-.133.448-.372,3.608-2.638,7.328-5.175,8.943-9.907-2.627.069-4.969,2.193-7.741,1.062,4.369-5.553,5.227-7.884,4.162-11.53-1.4,2.25-3.481,3.6-5.386,5.147-.506.021-.715.429-.985.758-.654-1.96-.164-3.977-.3-5.964-.3-4.5-1.572-8.585-4.823-11.872-.3-.3-.549-.884-1.027-.717-.567.2-.5.821-.53,1.355a13.4,13.4,0,0,1-.175,3.336c-1.21,4.029-3.45,7.868-2.1,12.369.339,1.127-.357,1.1-1.28.716a7.591,7.591,0,0,1-4.806-5.2c-2.707,5.078.847,8.048,3.293,11.435H209.8a14.152,14.152,0,0,1-3.739-2.282c-.306,3.27,1.6,5.277,3.6,7.234,1.265,2.264,3.83,2.847,5.622,4.077-1.64,1.468-3.4.29-5.117.492a4.531,4.531,0,0,0-2.643-.884c-5.226-.95-8.073-4.894-10.571-8.82-1.5-2.354-1.688-5.538-2.466-8.35a1.8,1.8,0,0,0-.1-.411c.04-2.1-1.079-3.914-1.465-5.9-.185-.951-1.424-2.645,1.066-2.633.049.13.092.262.129.4-.12.308.063.433.312.518.671.861,1.287,1.775,2.024,2.574,1.744,1.891,3.818,2.9,6.458,2.137a8.073,8.073,0,0,0-1.342-3.228c-1.479-2.149-1.863-4.726-2.12-7.227-.286-2.787.133-5.628-.486-8.415-.08-.358-.244-.935.359-1.126.447-.142.663.279.9.522a10.037,10.037,0,0,1,2.384,3.164,6.132,6.132,0,0,0,4.058,3.6c-1.992-4.767-.43-9.192.344-13.656a5.221,5.221,0,0,0,.011-1.345c-.236-2.592-.243-2.591,2.263-2.139l.471.3c2.392,1.531,2.736,4.085,3.076,6.537a8.6,8.6,0,0,0,2.154,4.682,14.623,14.623,0,0,0,1.987-4.459c1.377-4.839.59-9.75.748-14.623a16.121,16.121,0,0,1,2.033-7.393,93.842,93.842,0,0,0,4.9,13.193c.522,1.261.876,2.708,2.132,3.566a.531.531,0,0,1,.032.348c-.5.655.081,1.006.4,1.43" transform="translate(-105.968 -177.02)" fill="#121415"/>
              <path id="Trazado_824318" data-name="Trazado 824318" d="M196.382,427.669a1.8,1.8,0,0,1,.1.411l-.177.039h-.182c-.125-.271-.007-.4.257-.45" transform="translate(-107.965 -235.487)" fill="#f7d5d2"/>
              <path id="Trazado_824319" data-name="Trazado 824319" d="M250.111,484.321c-.816-.784-1.826-.377-2.734-.38-4.061-.018-8.123.046-12.184.08a.4.4,0,0,0-.424-.012l-17.138,0c-3.057-.029-6.115-.118-9.171-.057-1.243.025-1.644-.3-1.635-1.591.022-3.1-.052-3.093,2.974-3.107,2.609-.013,5.219-.055,7.828-.084l17.141.01.429-.018,14.835.026a4.184,4.184,0,0,1,.08,5.137" transform="translate(-113.884 -263.838)" fill="#121415"/>
              <path id="Trazado_824320" data-name="Trazado 824320" d="M284.214,466.043l-14.835-.027-.342-.714q-.065-1.593-.132-3.187c3.352-.369,6.714-.784,9.614-2.681,1.845-1.207,4.012-2.027,5.262-4.024l.453-.118q.048,5,.1,10l-.071.472a.181.181,0,0,0-.044.274" transform="translate(-148.067 -250.698)" fill="#fffffe"/>
              <path id="Trazado_824321" data-name="Trazado 824321" d="M299.74,420.375a2.508,2.508,0,0,1-2.672.779c.827-1.212,1.2-2.667,2.562-3.42l.111,2.641" transform="translate(-163.574 -230.017)" fill="#fffffe"/>
              <path id="Trazado_824322" data-name="Trazado 824322" d="M303.072,478.027l.071-.472a2.019,2.019,0,0,1,.1.36c0,.031-.111.074-.172.112" transform="translate(-166.88 -262.956)" fill="#e0655b"/>
              <path id="Trazado_824323" data-name="Trazado 824323" d="M302.463,454.807l-.453.118c0-.373.241-.478.552-.514-.031.132-.065.264-.1.4" transform="translate(-166.296 -250.212)" fill="#e0655b"/>
              <path id="Trazado_824324" data-name="Trazado 824324" d="M247.9,428.4q.066,1.593.132,3.187-.043.365-.087.732l-17.141-.01c.212-1.554-.435-3.192.457-4.68,1.713-.2,3.477.976,5.117-.493-1.792-1.23-4.358-1.813-5.622-4.077q.067-2.476.134-4.952h4.742c-2.446-3.387-6-6.356-3.293-11.435a7.591,7.591,0,0,0,4.806,5.2c.923.382,1.619.411,1.28-.716-1.353-4.5.887-8.34,2.1-12.369a13.378,13.378,0,0,0,.175-3.336c.026-.534-.037-1.157.53-1.355.478-.167.73.416,1.027.716,3.25,3.287,4.524,7.376,4.822,11.871.132,1.987-.358,4,.3,5.965l.577.516q.031,6.957.062,13.914a.507.507,0,0,0-.082.411c-.242.09-.7.2-.689.265a.735.735,0,0,0,.659.647" transform="translate(-127.06 -216.986)" fill="#d73629"/>
              <path id="Trazado_824325" data-name="Trazado 824325" d="M230.988,490.576a2.519,2.519,0,0,1,.226.313c.011.021-.087.1-.135.152l-.09-.465" transform="translate(-127.189 -270.126)" fill="#e0655b"/>
              <path id="Trazado_824326" data-name="Trazado 824326" d="M268.283,668.814c-.876-.4-.238-1.235-.527-1.8l.56-.469a1.606,1.606,0,0,1-.034,2.272" transform="translate(-147.434 -367.018)" fill="#f7d5d2"/>
              <path id="Trazado_824327" data-name="Trazado 824327" d="M269.01,489.888a.4.4,0,0,1,.424.012l-.339.725q-.042-.369-.085-.737" transform="translate(-148.125 -269.717)" fill="#f7d5d2"/>
              <path id="Trazado_824328" data-name="Trazado 824328" d="M230.385,354.976l-.471-.3.439-.075a1.409,1.409,0,0,1,.031.373" transform="translate(-126.597 -195.255)" fill="#e0655b"/>
              <path id="Trazado_824329" data-name="Trazado 824329" d="M196.424,410.084c-.249-.085-.433-.21-.312-.518l.312.518" transform="translate(-107.964 -225.519)" fill="#f7d5d2"/>
              <path id="Trazado_824330" data-name="Trazado 824330" d="M269.094,360.986c-.321-.424-.9-.775-.4-1.43.551.359.426.909.4,1.43" transform="translate(-147.843 -197.982)" fill="#f7d5d2"/>
              <path id="Trazado_824331" data-name="Trazado 824331" d="M269.079,442.615q-.031-6.957-.062-13.914c.525-.3.351-.824.407-1.274,1.9-1.548,3.99-2.9,5.386-5.147,1.065,3.645.207,5.977-4.162,11.529,2.772,1.131,5.114-.993,7.741-1.062-1.615,4.732-5.334,7.269-8.943,9.907a1.047,1.047,0,0,0-.366-.039" transform="translate(-148.129 -232.52)" fill="#fffffe"/>
              <path id="Trazado_824332" data-name="Trazado 824332" d="M226.432,444.776q-.067,2.476-.134,4.952c-2.005-1.956-3.91-3.963-3.6-7.234a14.14,14.14,0,0,0,3.738,2.282" transform="translate(-122.604 -243.65)" fill="#fffffe"/>
              <path id="Trazado_824333" data-name="Trazado 824333" d="M268.717,433.733c-.056.45.117.974-.408,1.274l-.577-.516c.27-.329.479-.737.985-.758" transform="translate(-147.421 -238.826)" fill="#f7d5d2"/>
              <path id="Trazado_824334" data-name="Trazado 824334" d="M269.04,467.529a1.047,1.047,0,0,1,.366.039c-.054.239-.157.417-.448.372a.506.506,0,0,1,.082-.411" transform="translate(-148.089 -257.434)" fill="#f7d5d2"/>
              <path id="Trazado_824335" data-name="Trazado 824335" d="M269.005,478.3q.043-.366.087-.732l.342.714-.429.018" transform="translate(-148.122 -262.963)" fill="#f7d5d2"/>
            </g>
          </g>
        </g>
      </g>
    </g>
  </g>
</svg>
