<svg xmlns="http://www.w3.org/2000/svg" xmlns:xlink="http://www.w3.org/1999/xlink" width="121.333" height="111.727" viewBox="0 0 121.333 111.727">
  <defs>
    <clipPath id="clip-path">
      <rect id="Rectángulo_377517" data-name="Rectángulo 377517" width="121.333" height="111.727" fill="#fccd32"/>
    </clipPath>
    <clipPath id="clip-path-2">
      <path id="Trazado_608638" data-name="Trazado 608638" d="M80.366,0h-39.4a21.078,21.078,0,0,0-18.3,10.621L2.779,45.4a21.09,21.09,0,0,0,0,20.929l19.883,34.778a21.078,21.078,0,0,0,18.3,10.621h39.4a21.085,21.085,0,0,0,18.307-10.621l19.881-34.778a21.09,21.09,0,0,0,0-20.929L98.673,10.621A21.085,21.085,0,0,0,80.366,0" fill="#fccd32"/>
    </clipPath>
    <clipPath id="clip-path-3">
      <rect id="Rectángulo_377529" data-name="Rectángulo 377529" width="72.134" height="76.219" fill="#590e00"/>
    </clipPath>
  </defs>
  <g id="Grupo_1071841" data-name="Grupo 1071841" transform="translate(-878.333 -412)">
    <g id="Grupo_1071837" data-name="Grupo 1071837" transform="translate(878.333 412)">
      <g id="Grupo_1071839" data-name="Grupo 1071839" clip-path="url(#clip-path)">
        <g id="Grupo_1071838" data-name="Grupo 1071838" transform="translate(0)">
          <g id="Grupo_1071837-2" data-name="Grupo 1071837" clip-path="url(#clip-path-2)">
            <rect id="Rectángulo_377516" data-name="Rectángulo 377516" width="163.489" height="165.679" transform="translate(-54.749 70.826) rotate(-52.768)" fill="#fccd32"/>
          </g>
        </g>
      </g>
    </g>
    <g id="Grupo_1071840" data-name="Grupo 1071840" transform="translate(904.333 435)" clip-path="url(#clip-path-3)">
      <path id="Trazado_608639" data-name="Trazado 608639" d="M1.483,62.974H46.808a1.251,1.251,0,0,0,.145-.007c.021,0,.042-.006.062-.008l.081-.012c.024,0,.047-.011.07-.018l.07-.018c.022-.006.044-.016.068-.023s.046-.016.069-.025l.063-.03c.022-.01.045-.02.068-.032s.04-.023.059-.034.044-.025.065-.039l.061-.044.055-.041c.023-.019.046-.041.069-.062s.024-.02.035-.031L56.3,54.241l1.674,4.272-.139.055a1.059,1.059,0,0,0-.636,1.264,4.242,4.242,0,0,0,.134.406l5.244,13.39a4.13,4.13,0,0,0,3.9,2.591,4.471,4.471,0,0,0,1.634-.31l1.233-.483a4.239,4.239,0,0,0,2.514-5.432L66.616,56.6a3.975,3.975,0,0,0-.177-.389,1.06,1.06,0,0,0-1.326-.5l-.139.055-1.86-4.751a14.586,14.586,0,0,0-.042-23.5V1.484A1.483,1.483,0,0,0,61.59,0H16.264l-.056,0c-.028,0-.057,0-.084,0l-.072.01-.071.01-.075.019c-.022,0-.044.01-.066.017s-.048.016-.072.024S15.724.1,15.7.111l-.068.031-.064.031c-.021.011-.043.024-.063.037l-.062.037-.064.046-.053.04c-.024.019-.048.042-.072.064s-.022.019-.032.03L.444,14.952l0,0c-.028.027-.054.056-.079.084-.006.008-.015.017-.022.025-.031.037-.059.076-.086.116-.014.019-.025.041-.037.061s-.027.042-.038.063-.021.044-.031.065-.022.044-.031.066-.015.041-.022.06-.019.051-.028.077l-.014.055c-.008.031-.017.064-.023.1s-.016.088-.02.132l0,.044C0,15.934,0,15.969,0,16V61.491a1.483,1.483,0,0,0,1.483,1.483m43.842-2.966H2.966V17.493H17.034v22.9l3.912-2.715,3,2.715,2.945-2.829,4.582,2.829v-22.9h13.85v10.5a14.589,14.589,0,0,0,0,22.64ZM62.309,48.967c-.283.229-.578.445-.883.65s-.6.385-.919.56l-.158.087a12.309,12.309,0,0,1-2.893,1.111c-.349.087-.7.157-1.055.212s-.725.1-1.09.121c-.23.015-.46.025-.692.027-.043,0-.085,0-.128,0a12.45,12.45,0,0,1-6.2-1.64,12.3,12.3,0,0,1-2.966-2.376,12.467,12.467,0,0,1,0-16.828,12.326,12.326,0,0,1,2.966-2.379,12.469,12.469,0,0,1,11.815-.327,12.264,12.264,0,0,1,2.966,2.1,12.464,12.464,0,0,1-.763,18.681m.7,7.607-3.052,1.2-.011-.029-1.716-4.38a14.275,14.275,0,0,0,3.053-1.195L63,56.545Zm5.561,16.879-1.233.483a2.351,2.351,0,0,1-.861.164,2.024,2.024,0,0,1-1.927-1.244l-4.966-12.68a1.058,1.058,0,0,0,.16-.046l5.026-1.968a1.064,1.064,0,0,0,.148-.076l4.966,12.682a2.121,2.121,0,0,1-1.314,2.686m-20.282-15.5V52.487a14.525,14.525,0,0,0,4.3,1.247Zm6.192-33.213a14.5,14.5,0,0,0-5.3,1.005c-.3.119-.6.25-.888.386V16.619L60.107,4.657v21.2a14.629,14.629,0,0,0-5.623-1.116m-8.3-10.214H33.237L44.571,2.967H57.606ZM16.871,2.967h13.14L18.276,14.526H5.109Z" transform="translate(0 0)" fill="#590e00"/>
      <path id="Trazado_608640" data-name="Trazado 608640" d="M20.7,51.852H5.1a.53.53,0,0,0-.53.53v8.95a.53.53,0,0,0,.53.53H20.7a.53.53,0,0,0,.53-.53v-8.95a.53.53,0,0,0-.53-.53m-.53,8.95H5.63v-7.89H20.173Z" transform="translate(-0.337 -3.82)" fill="#590e00"/>
      <rect id="Rectángulo_377520" data-name="Rectángulo 377520" width="0.833" height="6.105" transform="translate(6.175 50.022)" fill="#590e00"/>
      <rect id="Rectángulo_377521" data-name="Rectángulo 377521" width="0.704" height="6.105" transform="translate(18.163 50.022)" fill="#590e00"/>
      <rect id="Rectángulo_377522" data-name="Rectángulo 377522" width="0.833" height="6.105" transform="translate(7.609 50.022)" fill="#590e00"/>
      <rect id="Rectángulo_377523" data-name="Rectángulo 377523" width="0.833" height="6.105" transform="translate(10.779 50.022)" fill="#590e00"/>
      <rect id="Rectángulo_377524" data-name="Rectángulo 377524" width="0.704" height="6.105" transform="translate(13.725 50.022)" fill="#590e00"/>
      <rect id="Rectángulo_377525" data-name="Rectángulo 377525" width="0.704" height="6.105" transform="translate(14.929 50.022)" fill="#590e00"/>
      <rect id="Rectángulo_377526" data-name="Rectángulo 377526" width="1.165" height="6.105" transform="translate(12.162 50.022)" fill="#590e00"/>
      <rect id="Rectángulo_377527" data-name="Rectángulo 377527" width="1.345" height="6.105" transform="translate(8.864 50.022)" fill="#590e00"/>
      <rect id="Rectángulo_377528" data-name="Rectángulo 377528" width="1.345" height="6.105" transform="translate(16.216 50.022)" fill="#590e00"/>
      <path id="Trazado_608641" data-name="Trazado 608641" d="M63.653,33.46a9.933,9.933,0,0,0-11.814.444q-.378.3-.721.638a9.58,9.58,0,0,0-.654.7,9.953,9.953,0,0,0-1.656,10c.02.052.043.1.064.155a9.844,9.844,0,0,0,9.007,6.141l.1,0h.057c.322,0,.643-.017.962-.047a10.007,10.007,0,0,0,1.073-.168,9.862,9.862,0,0,0,1.235-.346c.115-.04.229-.08.342-.124a10.1,10.1,0,0,0,1.477-.725c.2-.122.4-.25.6-.385.1-.071.2-.145.3-.22a9.823,9.823,0,0,0,.854-.724,9.49,9.49,0,0,0,.812-.88,9.863,9.863,0,0,0,.929-1.346,10.225,10.225,0,0,0,.493-.975,9.844,9.844,0,0,0,.147-7.582,10.094,10.094,0,0,0-.64-1.338,9.851,9.851,0,0,0-2.967-3.226m0,2.775A7.822,7.822,0,0,1,65.287,38.8a7.8,7.8,0,0,1-1.634,8.239c-.082.086-.167.17-.254.253a7.772,7.772,0,0,1-2.525,1.6c-.114.044-.229.086-.344.126a7.731,7.731,0,0,1-2.494.412c-.033,0-.066,0-.1,0a7.73,7.73,0,0,1-6.1-3.066,7.789,7.789,0,0,1,0-9.438,7.789,7.789,0,0,1,11.814-.685" transform="translate(-3.546 -2.337)" fill="#590e00"/>
    </g>
  </g>
</svg>
