<svg xmlns="http://www.w3.org/2000/svg" xmlns:xlink="http://www.w3.org/1999/xlink" width="125" height="125" viewBox="0 0 125 125">
  <defs>
    <clipPath id="clip-path">
      <rect id="Rectángulo_377788" data-name="Rectángulo 377788" width="85.904" height="84.321" fill="none"/>
    </clipPath>
  </defs>
  <g id="Grupo_1072955" data-name="Grupo 1072955" transform="translate(-386 -2145.602)">
    <path id="Trazado_608385" data-name="Trazado 608385" d="M62.5,0A62.5,62.5,0,1,1,0,62.5,62.5,62.5,0,0,1,62.5,0Z" transform="translate(386 2145.602)" fill="#590e00"/>
    <g id="Grupo_1072959" data-name="Grupo 1072959" transform="translate(406 2166.601)">
      <g id="Grupo_1072958" data-name="Grupo 1072958" transform="translate(0 0)" clip-path="url(#clip-path)">
        <path id="Trazado_819399" data-name="Trazado 819399" d="M68.53,13.926A40.143,40.143,0,1,0,11.758,70.7,40.143,40.143,0,0,0,68.53,13.926" transform="translate(0 1.867)" fill="#134f9d"/>
        <path id="Trazado_819400" data-name="Trazado 819400" d="M57.553,32.823A46.2,46.2,0,0,0,51.162,14.71c-1.5-2.569-3.353-4.978-6.778-5.2L36.45,8.984a8.661,8.661,0,0,0-9.215,8.122l-.465,7.727a8.661,8.661,0,0,0,7.4,9.094l2.238.326a6.226,6.226,0,0,1,4.79,3.584l3.969,12.312a.677.677,0,0,0,.047.121,2.992,2.992,0,0,0,2.692,1.787h.065a2.989,2.989,0,0,0,2.7-1.674A21.788,21.788,0,0,1,53.057,46.9c2.5-3.206,5.614-7.2,4.5-14.081" transform="translate(23.051 7.723)" fill="#fef0c1"/>
        <path id="Trazado_819401" data-name="Trazado 819401" d="M29.909,2.986a1.2,1.2,0,0,0-1.035-.847,44.37,44.37,0,0,0-8.736.007,1.2,1.2,0,0,0-.92.7c-.549,1.227-1.716,4.244-.706,5.806a2.07,2.07,0,0,0,1.8.935c2.5,0,7.675-4.069,9.2-5.318a1.2,1.2,0,0,0,.391-1.279" transform="translate(15.606 1.647)" fill="#e6d2d0"/>
        <path id="Trazado_819402" data-name="Trazado 819402" d="M31.869,34.682A5.217,5.217,0,0,0,27.2,27.129H23.017a2.772,2.772,0,0,1-.862-.136l-9.82-3.159a5.22,5.22,0,0,0-6.8,4.54l-.579,7.1A5.237,5.237,0,0,0,7.151,40.16L11.7,43.37a2.82,2.82,0,0,1,1.069,1.478l1.582,5.177A5.193,5.193,0,0,0,16.691,53l8.223,4.84a3.1,3.1,0,0,0,1.575.436,3.1,3.1,0,0,0,2.8-4.373l-2.792-6.143a2.8,2.8,0,0,1,.047-2.422Z" transform="translate(4.257 20.316)" fill="#fef0c1"/>
        <path id="Trazado_819403" data-name="Trazado 819403" d="M28.634,11.64c-1.917-1.726-3.987-.464-5.648.553a7.279,7.279,0,0,1-3.377,1.391c-.084,0-.158,0-.223,0a18.384,18.384,0,0,1,1.493-2.009c.2-.251.408-.5.594-.735C22.692,9.29,23.762,6.394,22.6,4.97a1.981,1.981,0,0,0-2.612-.35C18.025,5.6,7.021,12.807,2.257,23.36c-2.046,4.527-1.117,9.4,2.681,14.09a28.5,28.5,0,0,0,6.2,5.607,1.2,1.2,0,0,0,1.64-1.683,2.853,2.853,0,0,1-.277-3.247,6.9,6.9,0,0,0,.557-3.1,5.2,5.2,0,0,0-.678-2.206c1.433.918,2.692,1.59,3.749,1.273,1.415-.423,2.1-2.39,3.049-5.112a22.394,22.394,0,0,1,1.891-4.462c.787-1.18,1.558-1.244,2.954-1.357a9.8,9.8,0,0,0,3.165-.648c1.525-.637,2.664-2.364,3.049-4.622.434-2.535-.194-4.991-1.6-6.255" transform="translate(1.032 3.708)" fill="#fef0c1"/>
        <path id="Trazado_819404" data-name="Trazado 819404" d="M37.116,30.477v0Z" transform="translate(31.978 0.555)" fill="#27aae1"/>
        <path id="Trazado_819405" data-name="Trazado 819405" d="M37.672,32.235a1.2,1.2,0,0,1-1.2-1.2V1.2a1.2,1.2,0,1,1,2.4,0v29.83a1.2,1.2,0,0,1-1.2,1.2" transform="translate(31.422 -0.001)" fill="#fff"/>
        <path id="Trazado_819406" data-name="Trazado 819406" d="M49.885,6.651l4.278-4.635A1.2,1.2,0,0,0,53.279,0H37.672a1.2,1.2,0,0,0-1.2,1.2V12.1a1.2,1.2,0,0,0,1.2,1.2H53.279a1.2,1.2,0,0,0,.884-2.016Z" transform="translate(31.422 -0.001)" fill="#fccd32"/>
        <path id="Trazado_819407" data-name="Trazado 819407" d="M25.941,51.4a1.2,1.2,0,0,1-1.046-.612L5.1,15.656a1.2,1.2,0,0,1-.028-1.128L6.79,11.094a1.2,1.2,0,0,1,1.355-.629L60.6,23.062a1.2,1.2,0,0,1,.758.562l3.734,6.383a1.2,1.2,0,0,1-.484,1.672L31.777,48.748l-.037.019-5.281,2.513a1.192,1.192,0,0,1-.518.117M7.5,15.033l18.936,33.6,4.25-2.022L62.38,30.13l-2.837-4.851L8.51,13.022Z" transform="translate(4.257 8.986)" fill="#fff"/>
        <path id="Trazado_819408" data-name="Trazado 819408" d="M6.933,7.915A5.885,5.885,0,1,0,12.82,13.8,5.891,5.891,0,0,0,6.933,7.915" transform="translate(0.904 6.819)" fill="#fccd32"/>
        <path id="Trazado_819409" data-name="Trazado 819409" d="M39.42,15.81A5.885,5.885,0,1,0,45.3,21.7,5.893,5.893,0,0,0,39.42,15.81" transform="translate(28.892 13.621)" fill="#fccd32"/>
        <path id="Trazado_819410" data-name="Trazado 819410" d="M19.919,28.629a5.885,5.885,0,1,0,5.886,5.886,5.893,5.893,0,0,0-5.886-5.886" transform="translate(12.092 24.665)" fill="#fccd32"/>
      </g>
    </g>
  </g>
</svg>
