<svg xmlns="http://www.w3.org/2000/svg" xmlns:xlink="http://www.w3.org/1999/xlink" width="125" height="125" viewBox="0 0 125 125">
  <defs>
    <clipPath id="clip-path">
      <rect id="Rect치ngulo_377789" data-name="Rect치ngulo 377789" width="71.962" height="99.13" fill="#fff"/>
    </clipPath>
  </defs>
  <g id="Grupo_1072956" data-name="Grupo 1072956" transform="translate(-738 -2146)">
    <path id="Trazado_608386" data-name="Trazado 608386" d="M62.5,0A62.5,62.5,0,1,1,0,62.5,62.5,62.5,0,0,1,62.5,0Z" transform="translate(738 2146)" fill="#590e00"/>
    <g id="Grupo_1072961" data-name="Grupo 1072961" transform="translate(764.519 2158.935)">
      <g id="Grupo_1072960" data-name="Grupo 1072960" clip-path="url(#clip-path)">
        <path id="Trazado_819412" data-name="Trazado 819412" d="M53.3,201.216a29.47,29.47,0,0,1,3.2,0c10.51,0,22.753,0,33.262,0,.089,0,.437,0,.525,0,.279-.015-1.678,3.089-1.777,3.311a3.156,3.156,0,0,0,.555,3.263c.621.9,1.212,1.822,1.829,2.727a.73.73,0,0,1,.134.625c-.351,1.369-.52,2.775-.741,4.164-.175,1.1-.457,2.181-.525,3.3a15.8,15.8,0,0,1-.333,1.556c-.221,1.337-.4,2.682-.633,4.016-.14.783-.262,1.566-.346,2.356-.033.309-.075.455-.45.246-.747-.417-1.529-.772-2.3-1.136-.489-.23-.525-.286-.289-.756q1.035-2.061,2.077-4.118a2.117,2.117,0,0,0,.261-1.018,1.227,1.227,0,0,0-1.239-1.338c-.471-.034-.947,0-1.42,0l-12.346.01c-.178,0-.355-.012-.532-.024a.426.426,0,0,1-.456-.473,11.955,11.955,0,0,0-.439-1.84,8.679,8.679,0,0,0-1.193-3.365,4.225,4.225,0,0,0-1.084-1.073c-2.135-1.492-4.288-2.958-6.421-4.454a1.76,1.76,0,0,0-2.381.011,10.57,10.57,0,0,1-2.085-1.364c-.445-.328-.919-.619-1.392-.906-.3-.184-7.457-2.028-7.659-2.32" transform="translate(-36.021 -131.349)" fill="#ff223d"/>
        <path id="Uni칩n_13" data-name="Uni칩n 13" d="M7194.675,9215.707a3.452,3.452,0,0,0-1.27-.209c-.023-.039-.049-.039-.074,0-1.763,0-3.523.015-5.283.015h-33.56c-.146,0-.294-.01-.442-.017q-.038-.056-.076,0l-.185,0c-1.05.009-2.1.012-3.153.032-.3.007-.322-.135-.322-.38.012-2.327-.042-4.653.028-6.979a13.966,13.966,0,0,0-1.827-7.5c-.294-.511-.509-1.066-.8-1.582a1.884,1.884,0,0,1-.021-1.774c.506-1.161.962-2.341,1.39-3.532a3.014,3.014,0,0,0,.37-.977c0-.222.243-.132.352-.1.292.088.566.23.856.333a2.828,2.828,0,0,0,3.231-1.009c.9-1.034,1.73-2.14,2.593-3.213.528-.657,1.037-1.333,1.592-1.969a7.33,7.33,0,0,0,1.587-3.75,13.26,13.26,0,0,0,.067-2.2,1.4,1.4,0,0,1,.393-1.046c.856-.86,1.705-1.728,2.582-2.567a3.069,3.069,0,0,1,2.2-.772c1.215-.009,2.429,0,3.644,0a6.287,6.287,0,0,0,4.608-1.906c1.522-1.516,3.063-3.012,4.547-4.56a4.188,4.188,0,0,1,3.359-1.362c.358.014.719.012,1.08.009.248,0,.493,0,.74,0a.506.506,0,0,0,.081-.009c.088-.012.181-.025.222.1.056.174-.053.257-.187.348a13.147,13.147,0,0,0-2.806,2.438,33.1,33.1,0,0,0-2,2.861c-.275.4-.553.8-.828,1.2-.583.872-1.212,1.717-1.774,2.6-1,1.568-2.107,3.069-3.04,4.68a2.985,2.985,0,0,0,2.241,4.443,1.827,1.827,0,0,0,.689.086c.15-.037.162.076.164.188.028,1.437.514,2.819.465,4.27a13.523,13.523,0,0,0,.261,1.624c.063.71.144,1.423.266,2.124a7.947,7.947,0,0,0,.522,2.456,2.918,2.918,0,0,0,2.739,1.693c2.975,0,5.952,0,8.927,0a3.647,3.647,0,0,0,.979.007c.259-.069.421.069.569.3.579.894,1.2,1.758,1.768,2.66a3.179,3.179,0,0,0,2.808,1.7c.009.044.025.047.044,0l8.478.019.028.014.03-.014h.208a.087.087,0,0,0,.13,0l.428,0a.339.339,0,0,0,.264.017c.153.019.134.113.111.225-.3,1.376-.56,2.759-.81,4.145a8.075,8.075,0,0,0-.224,1.636,9.254,9.254,0,0,0,.513,2.491,20.6,20.6,0,0,1,.65,2.033c.1.514.116.514-.373.5-.118,0-.236-.012-.354-.019-.025-.042-.051-.042-.079,0h-.28a.155.155,0,0,0-.252,0q-1.426,0-2.854,0c-.028-.041-.056-.039-.081,0-.282.036-.567.064-.849.115a1.564,1.564,0,0,0-.84,1.105c-.014.1-.014.2-.018.306q-1.673.01-3.343.023C7195.374,9216.507,7195.26,9215.975,7194.675,9215.707Zm-41.172-1.245c0-.179,0-.358,0-.537C7153.5,9214.1,7153.5,9214.283,7153.5,9214.462Zm-.085-8.6c.1,1.253.124,2.507.123,3.762,0-1.255-.023-2.509-.123-3.762,0-.056-.008-.112-.011-.169C7153.409,9205.747,7153.413,9205.8,7153.417,9205.859Zm-2.186-6.9q.2.379.4.765-.195-.385-.4-.765a1.959,1.959,0,0,1-.319-.893A1.959,1.959,0,0,0,7151.231,9198.955Zm11.6-16.16c0-.026,0-.052,0-.077C7162.832,9182.743,7162.832,9182.769,7162.832,9182.795Zm5.443-3.068h0Zm.3,0a9.634,9.634,0,0,0,2.442-.313A9.631,9.631,0,0,1,7168.577,9179.724Zm-1.107-.011c-.393-.012-.785-.028-1.177-.041C7166.684,9179.685,7167.077,9179.7,7167.469,9179.713Zm-1.177-.041-.162,0Zm11.068-4.053a1.112,1.112,0,0,0-.3-.044A1.112,1.112,0,0,1,7177.361,9175.619Z" transform="translate(-7139.025 -9165.827)" fill="#fccd32" stroke="rgba(0,0,0,0)" stroke-miterlimit="10" stroke-width="1"/>
        <path id="Trazado_819414" data-name="Trazado 819414" d="M61.689,143.6l3.344-.022c.051.792-.91-2.339,2.09-1.539a23.171,23.171,0,0,1,3.744,0c.91,0,1.577,3.135,1.652,4.064a2.919,2.919,0,0,1-.393,1.609,4.564,4.564,0,0,0-.677,2.541,8.644,8.644,0,0,0,.544,1.89,18.425,18.425,0,0,0,.794,2.254c.124.255-.033.277-.209.3-.57.059-1.147.083-1.711.178-1.927.321-3.891.32-5.813.694a15.728,15.728,0,0,1-1.585.1,5.135,5.135,0,0,0-2.63.769,2.845,2.845,0,0,0-1.011,1.149,2.631,2.631,0,0,0-.176,1.6,2.98,2.98,0,0,0,.25.784,1.258,1.258,0,0,1-.07,1.4c-.551,1.022-.531,1.024-1.676.925-.368-.032-.74-.015-1.11-.015H29.775c-1.983,0-3.965-.055-5.949.034a12.9,12.9,0,0,0-3.536.744c-.126.042-.248.1-.373.142a2.911,2.911,0,0,1-2.842-.3c-2.568-1.691-5.208-3.271-7.821-4.893-.289-.179-.585-.347-.881-.514-.277-.156-.3-.309-.06-.541.907-.872,1.791-1.764,2.617-2.718a24.552,24.552,0,0,0,2.508-3.652,42.807,42.807,0,0,0,2.36-4.111,4.439,4.439,0,0,0,.368-1.088c.052-.317.6-3.347.908-3.346,5.255.007,11.192,0,16.447,0,9.163,0,16.965-.006,26.128,0,.577,0,1.643.453,2.038,0,.211-.241-.15,1.813,0,1.561" transform="translate(-5.242 -92.369)" fill="#074ea3"/>
        <path id="Trazado_819416" data-name="Trazado 819416" d="M183.261,108.318A.331.331,0,0,1,183,108.3a.238.238,0,0,1,.265.015" transform="translate(-117.731 -69.655)" fill="#e5636d"/>
        <path id="Trazado_819417" data-name="Trazado 819417" d="M180.665,139.157a.155.155,0,0,1,.251,0h-.251" transform="translate(-116.231 -89.486)" fill="#fecf63"/>
        <path id="Trazado_819418" data-name="Trazado 819418" d="M180.739,108.219l-.03.015-.029-.014c0-.036-.018-.081.043-.076.007,0,.011.049.016.075" transform="translate(-116.238 -69.574)" fill="#e5636d"/>
        <path id="Trazado_819419" data-name="Trazado 819419" d="M181.565,108.3a.087.087,0,0,1-.13,0,.08.08,0,0,1,.13,0" transform="translate(-116.727 -69.65)" fill="#e5636d"/>
        <path id="Trazado_819420" data-name="Trazado 819420" d="M156.837,108.269c-.018.042-.033.04-.045,0l.024-.015Z" transform="translate(-100.872 -69.643)" fill="#e5636d"/>
        <path id="Trazado_819421" data-name="Trazado 819421" d="M41.905,139.217c.026-.038.051-.039.076,0l-.038.015Z" transform="translate(-26.96 -89.547)" fill="#fecf63"/>
        <path id="Trazado_819422" data-name="Trazado 819422" d="M152.265,139.219q.039-.059.076,0l-.038.013Z" transform="translate(-97.96 -89.548)" fill="#fecf63"/>
        <path id="Trazado_819423" data-name="Trazado 819423" d="M172.436,139.235c.025-.04.051-.044.079,0l-.039.013Z" transform="translate(-110.937 -89.557)" fill="#fecf63"/>
        <path id="Trazado_819424" data-name="Trazado 819424" d="M182.156,139.223c.027-.04.053-.039.078,0l-.04.012Z" transform="translate(-117.19 -89.55)" fill="#fecf63"/>
        <path id="Trazado_819425" data-name="Trazado 819425" d="M98.579,114.892a9.879,9.879,0,1,0-19.758,0s-.245,9.937,9.879,20.061c10.125-10.125,9.879-20.061,9.879-20.061" transform="translate(-35.34 -90.347)" fill="#fbb040"/>
        <path id="Trazado_819426" data-name="Trazado 819426" d="M88.844,105.015l-.144,0a9.879,9.879,0,0,0-9.879,9.879s-.245,9.937,9.879,20.061l.144-.146Z" transform="translate(-35.34 -90.347)" fill="#f7941e"/>
        <path id="Trazado_819427" data-name="Trazado 819427" d="M99.563,121.672a4.036,4.036,0,1,1-4.037-4.037,4.036,4.036,0,0,1,4.037,4.037" transform="translate(-42.167 -97.149)" fill="#fff"/>
      </g>
    </g>
  </g>
</svg>
