<svg xmlns="http://www.w3.org/2000/svg" xmlns:xlink="http://www.w3.org/1999/xlink" width="1240" height="590" viewBox="0 0 1240 590">
  <defs>
    <linearGradient id="linear-gradient" x1="0.5" x2="0.5" y2="1" gradientUnits="objectBoundingBox">
      <stop offset="0" stop-color="#fef0c1"/>
      <stop offset="1" stop-color="#fccd32"/>
    </linearGradient>
    <clipPath id="clip-path">
      <rect id="Rectángulo_376022" data-name="Rectángulo 376022" width="1240" height="590" transform="translate(180 8464.333)" fill="url(#linear-gradient)"/>
    </clipPath>
    <clipPath id="clip-path-2">
      <rect id="Rectángulo_378559" data-name="Rectángulo 378559" width="1330.519" height="571.639" fill="none"/>
    </clipPath>
    <clipPath id="clip-path-3">
      <rect id="Rectángulo_378558" data-name="Rectángulo 378558" width="1330.519" height="571.639" fill="#f8e1c3"/>
    </clipPath>
    <clipPath id="clip-path-4">
      <path id="Trazado_824787" data-name="Trazado 824787" d="M1326.963,199.427V141.564H1225.5v-62.2H1095.04V237.038H1064.73v36.888h-23.719v88.24h-27.673V240.654H944.816v-35.44H905.942V261.99L869.7,281.881V396.159H784.052V145.181H691.809v47.013H619.333l-19.766,10.849v26.039H508.643l-17.132,9.4v88.24H453.3V190.747H382.138v23.869H269.472v57.5l-20.425,11.212v56.479H215.076V200.422L168.955,190.3v-37.61H45.088V311.807H34V651H445.81v-.4l918.709-.6V220.04Z" transform="translate(-34 -79.362)" fill="#f8e1c3"/>
    </clipPath>
    <clipPath id="clip-path-5">
      <path id="Trazado_824788" data-name="Trazado 824788" d="M300.742,156.615v30.666l-17.935,19.712V518.029H262.216v-249.7H250.258V244.231H144.645L126.71,263.944v27.745H85V546.322H733.827V363.971H707.257V270.515H652.789V425.3H627.548v29.206l-31.883-55.491h-55.8V198.963H432.262l-9.3,10.221V339.146H392.407V156.615Zm854.194-18.253V539.955l-26.763-29.419V279.3H930.248v58.837H825.684v208.19H1325V227.3h-42.468l-18.673,20.524v62.941h-19.917v-172.4Z" transform="translate(-85 -138.362)" fill="#f6d8b2"/>
    </clipPath>
    <clipPath id="clip-path-6">
      <path id="Trazado_824789" data-name="Trazado 824789" d="M862.5,143.667v15.341H799.439v61.365H740.4l-14.76,20.919V492.331H675.323V441.426l-31.532-32.774V288.711H533.763v99.02H493.509V471.41L445.2,527.2H414.342V262.211l-85.876-61.365v245.46H308.341V277.552H206.364v58.576H159.4V616.456H139.273V495.121H85V635.568H1325V455.629l-41.17-42.793V228.74h-57.7l-33.546-34.865h-42.936V379.362H1046.33V589.956h-26.836V295.685l-75.142,40.444V511.857H924.226V241.292h-25.5V161.8H873.237V143.667Z" transform="translate(-85 -143.667)" fill="none"/>
    </clipPath>
    <clipPath id="clip-path-7">
      <rect id="Rectángulo_378270" data-name="Rectángulo 378270" width="515.046" height="482.625" transform="translate(0 96)" fill="none"/>
    </clipPath>
    <clipPath id="clip-path-8">
      <rect id="Rectángulo_378267" data-name="Rectángulo 378267" width="107.722" height="62.184" fill="none"/>
    </clipPath>
    <clipPath id="clip-path-9">
      <rect id="Rectángulo_378268" data-name="Rectángulo 378268" width="17.571" height="19.581" fill="none"/>
    </clipPath>
  </defs>
  <g id="Grupo_1074676" data-name="Grupo 1074676" transform="translate(-180 -8464.333)">
    <g id="Enmascarar_grupo_407" data-name="Enmascarar grupo 407" clip-path="url(#clip-path)">
      <g id="Rectángulo_378569" data-name="Rectángulo 378569" transform="translate(1427 9066) rotate(180)" stroke="#707070" stroke-width="1" opacity="0.51" fill="url(#linear-gradient)">
        <rect width="1272" height="615" stroke="none"/>
        <rect x="0.5" y="0.5" width="1271" height="614" fill="none"/>
      </g>
      <g id="Grupo_1074671" data-name="Grupo 1074671" transform="translate(2938 10657.58)" opacity="0.35">
        <g id="Grupo_1074666" data-name="Grupo 1074666" transform="translate(-2758 -2256.002)">
          <g id="Grupo_1074674" data-name="Grupo 1074674" transform="translate(0 0)">
            <g id="Grupo_1074664" data-name="Grupo 1074664" transform="translate(-63.24 98.41)" opacity="0.71">
              <g id="Grupo_1074663" data-name="Grupo 1074663">
                <g id="Grupo_1074662" data-name="Grupo 1074662" clip-path="url(#clip-path-2)">
                  <g id="Grupo_1074661" data-name="Grupo 1074661" opacity="0.71">
                    <g id="Grupo_1074660" data-name="Grupo 1074660">
                      <g id="Grupo_1074659" data-name="Grupo 1074659" clip-path="url(#clip-path-3)">
                        <g id="Grupo_1074658" data-name="Grupo 1074658">
                          <g id="Grupo_1074657" data-name="Grupo 1074657" clip-path="url(#clip-path-4)">
                            <rect id="Rectángulo_378557" data-name="Rectángulo 378557" width="1330.519" height="571.639" fill="#f8e1c3"/>
                          </g>
                        </g>
                      </g>
                    </g>
                  </g>
                </g>
              </g>
            </g>
          </g>
        </g>
        <g id="Grupo_1074668" data-name="Grupo 1074668" transform="translate(-2758 -2084.432)">
          <g id="Grupo_1074667" data-name="Grupo 1074667" transform="translate(0 0)" clip-path="url(#clip-path-5)">
            <rect id="Rectángulo_378561" data-name="Rectángulo 378561" width="1239.999" height="407.96" transform="translate(0)" fill="#f6d8b2"/>
          </g>
        </g>
        <g id="Grupo_1074670" data-name="Grupo 1074670" transform="translate(-2758 -2077.854)">
          <g id="Grupo_1074669" data-name="Grupo 1074669" transform="translate(0 0)" clip-path="url(#clip-path-6)">
            <path id="Trazado_824790" data-name="Trazado 824790" d="M0,0H1240V491.9H0Z" transform="translate(0 0)" fill="#ecb062"/>
          </g>
        </g>
      </g>
    </g>
    <g id="Grupo_1074675" data-name="Grupo 1074675" transform="translate(542 8449.333)">
      <g id="Grupo_1074046" data-name="Grupo 1074046" clip-path="url(#clip-path-7)">
        <g id="Grupo_1074045" data-name="Grupo 1074045" transform="translate(0 6)">
          <g id="Grupo_1074355" data-name="Grupo 1074355">
            <g id="Grupo_1074356" data-name="Grupo 1074356" transform="translate(0 88.938)">
              <path id="Trazado_824431" data-name="Trazado 824431" d="M406.13,151.23a.658.658,0,0,0,.527-1.055l-3.162-4.227a.661.661,0,1,0-1.058.792l3.164,4.227A.663.663,0,0,0,406.13,151.23Zm-6.329-8.453a.653.653,0,0,0,.4-.132.66.66,0,0,0,.134-.924l-3.164-4.227a.661.661,0,0,0-1.058.792l3.164,4.227A.665.665,0,0,0,399.8,142.776Zm-6.329-8.455a.66.66,0,0,0,.529-1.056l-3.164-4.227a.66.66,0,1,0-1.056.792l3.164,4.227A.66.66,0,0,0,393.472,134.321Zm-6.327-8.455a.66.66,0,0,0,.529-1.056l-3.164-4.226a.66.66,0,1,0-1.058.79l3.164,4.227A.66.66,0,0,0,387.145,125.867Zm-6.329-8.453a.66.66,0,0,0,.529-1.056l-3.164-4.227a.661.661,0,0,0-1.058.792l3.164,4.227A.665.665,0,0,0,380.816,117.413Zm-6.329-8.455a.66.66,0,0,0,.529-1.056l-3.164-4.227a.66.66,0,0,0-1.056.792l3.164,4.227A.659.659,0,0,0,374.488,108.958ZM368.16,100.5a.659.659,0,0,0,.529-1.055l-3.164-4.227a.66.66,0,1,0-1.058.79l3.164,4.227A.66.66,0,0,0,368.16,100.5Zm-6.329-8.455a.652.652,0,0,0,.4-.131.662.662,0,0,0,.134-.925L359.2,86.767a.661.661,0,1,0-1.058.792l3.164,4.226A.66.66,0,0,0,361.831,92.049ZM355.5,83.6a.66.66,0,0,0,.529-1.056l-3.164-4.227a.66.66,0,1,0-1.056.792l3.164,4.226A.657.657,0,0,0,355.5,83.6Zm-6.327-8.455a.661.661,0,0,0,.529-1.056l-3.164-4.227a.661.661,0,0,0-1.058.792l3.164,4.227A.665.665,0,0,0,349.175,75.141Zm-6.329-8.455a.658.658,0,0,0,.529-1.055L340.212,61.4a.661.661,0,0,0-1.058.792l3.164,4.227A.66.66,0,0,0,342.846,66.686Zm-6.329-8.455a.658.658,0,0,0,.529-1.055l-3.164-4.227a.66.66,0,1,0-1.056.792l3.164,4.226A.655.655,0,0,0,336.518,58.231Zm-6.327-8.455a.652.652,0,0,0,.4-.131.661.661,0,0,0,.134-.924l-3.164-4.227a.661.661,0,0,0-1.058.792l3.164,4.227A.663.663,0,0,0,330.19,49.776Zm-6.329-8.453a.66.66,0,0,0,.529-1.056l-3.164-4.227a.661.661,0,0,0-1.058.792l3.164,4.227A.664.664,0,0,0,323.861,41.323Zm-6.327-8.455a.659.659,0,0,0,.529-1.056L314.9,27.586a.659.659,0,1,0-1.056.79l3.164,4.227A.66.66,0,0,0,317.534,32.868Zm-6.327-8.453a.66.66,0,0,0,.527-1.056l-3.164-4.227a.66.66,0,1,0-1.058.79l3.165,4.229A.664.664,0,0,0,311.207,24.415Zm-6.329-8.455a.653.653,0,0,0,.4-.132.66.66,0,0,0,.134-.924l-2.461-3.287H301.11a.66.66,0,1,0,0,1.32h1.176l2.063,2.758A.665.665,0,0,0,304.878,15.96ZM195.5,12.937h5.28a.66.66,0,0,0,0-1.32H195.5a.66.66,0,0,0,0,1.32Zm10.561,0h5.28a.66.66,0,0,0,0-1.32h-5.28a.66.66,0,0,0,0,1.32Zm10.561,0h5.28a.66.66,0,0,0,0-1.32h-5.28a.66.66,0,1,0,0,1.32Zm10.559,0h5.28a.66.66,0,1,0,0-1.32h-5.28a.66.66,0,0,0,0,1.32Zm10.561,0h5.28a.66.66,0,0,0,0-1.32h-5.28a.66.66,0,0,0,0,1.32Zm10.561,0h5.28a.66.66,0,0,0,0-1.32h-5.28a.66.66,0,0,0,0,1.32Zm10.561,0h5.28a.66.66,0,0,0,0-1.32h-5.28a.66.66,0,1,0,0,1.32Zm10.559,0h5.28a.66.66,0,1,0,0-1.32h-5.28a.66.66,0,0,0,0,1.32Zm10.561,0h5.28a.66.66,0,0,0,0-1.32h-5.28a.66.66,0,0,0,0,1.32Zm10.561,0h5.28a.66.66,0,0,0,0-1.32h-5.28a.66.66,0,0,0,0,1.32Z" transform="translate(706.314 438.445) rotate(180)" fill="none" stroke="#590e00" stroke-miterlimit="10" stroke-width="1"/>
              <path id="Trazado_824432" data-name="Trazado 824432" d="M393.644,139.921a.66.66,0,0,0,.361-1.213l-4.421-2.887a.659.659,0,1,0-.721,1.1l4.42,2.888A.648.648,0,0,0,393.644,139.921Zm-8.841-5.775a.66.66,0,0,0,.361-1.213l-4.421-2.888a.66.66,0,0,0-.721,1.105l4.42,2.888A.661.661,0,0,0,384.8,134.146Zm-8.841-5.775a.66.66,0,0,0,.361-1.213l-4.421-2.888a.66.66,0,1,0-.723,1.105l4.421,2.888A.657.657,0,0,0,375.963,128.37Zm-8.841-5.777a.661.661,0,0,0,.361-1.213l-4.421-2.887a.66.66,0,1,0-.723,1.1l4.421,2.888A.657.657,0,0,0,367.122,122.593Zm-8.841-5.777a.659.659,0,0,0,.36-1.211l-4.42-2.888a.66.66,0,1,0-.723,1.105l4.421,2.887A.645.645,0,0,0,358.281,116.816Zm-8.841-5.775a.66.66,0,0,0,.36-1.213l-4.42-2.887a.66.66,0,1,0-.723,1.1l4.421,2.888A.645.645,0,0,0,349.441,111.041Zm-8.841-5.775a.66.66,0,0,0,.36-1.213l-4.42-2.888a.66.66,0,1,0-.723,1.105l4.421,2.888A.657.657,0,0,0,340.6,105.265Zm-8.842-5.777a.66.66,0,0,0,.36-1.213l-.444-.291h-5.141a.66.66,0,1,0,0,1.32h4.749l.117.075A.663.663,0,0,0,331.758,99.488ZM222.79,99.306h3.417a.66.66,0,0,0,0-1.32H222.79a.66.66,0,0,0,0,1.32Zm8.7,0h5.28a.66.66,0,0,0,0-1.32h-5.28a.66.66,0,0,0,0,1.32Zm10.561,0h5.28a.66.66,0,0,0,0-1.32h-5.28a.66.66,0,1,0,0,1.32Zm10.559,0h5.28a.66.66,0,1,0,0-1.32h-5.28a.66.66,0,0,0,0,1.32Zm10.561,0h5.28a.66.66,0,0,0,0-1.32h-5.28a.66.66,0,0,0,0,1.32Zm10.561,0h5.28a.66.66,0,0,0,0-1.32h-5.28a.66.66,0,0,0,0,1.32Zm10.561,0h5.28a.66.66,0,0,0,0-1.32h-5.28a.66.66,0,1,0,0,1.32Zm10.559,0h5.28a.66.66,0,1,0,0-1.32h-5.28a.66.66,0,0,0,0,1.32Zm10.561,0h5.28a.66.66,0,0,0,0-1.32h-5.28a.66.66,0,0,0,0,1.32Zm10.561,0h5.28a.66.66,0,0,0,0-1.32h-5.28a.66.66,0,0,0,0,1.32Z" transform="translate(735.773 392.043) rotate(180)" fill="none" stroke="#590e00" stroke-miterlimit="10" stroke-width="1"/>
              <path id="Trazado_824433" data-name="Trazado 824433" d="M233.25,191.863h5.28a.66.66,0,0,0,0-1.32h-5.28a.66.66,0,0,0,0,1.32Zm10.561,0h5.28a.66.66,0,0,0,0-1.32h-5.28a.66.66,0,1,0,0,1.32Zm10.559,0h5.28a.66.66,0,1,0,0-1.32h-5.28a.66.66,0,0,0,0,1.32Zm10.561,0h5.28a.66.66,0,0,0,0-1.32h-5.28a.66.66,0,0,0,0,1.32Zm10.561,0h5.28a.66.66,0,0,0,0-1.32h-5.28a.66.66,0,0,0,0,1.32Zm10.561,0h5.28a.66.66,0,0,0,0-1.32h-5.28a.66.66,0,1,0,0,1.32Zm10.559,0h5.28a.66.66,0,1,0,0-1.32h-5.28a.66.66,0,0,0,0,1.32Zm10.561,0h5.28a.66.66,0,0,0,0-1.32h-5.28a.66.66,0,0,0,0,1.32Zm10.561,0h5.28a.66.66,0,0,0,0-1.32h-5.28a.66.66,0,0,0,0,1.32Zm10.561,0h5.28a.66.66,0,0,0,0-1.32h-5.28a.66.66,0,1,0,0,1.32Zm10.542-.129a.708.708,0,0,0,.184-.025l5.071-1.47a.661.661,0,0,0-.369-1.27l-5.071,1.47a.66.66,0,0,0,.184,1.294Zm10.143-2.941a.688.688,0,0,0,.183-.025l5.073-1.47a.662.662,0,0,0,.449-.819.656.656,0,0,0-.818-.449L348.8,187.5a.659.659,0,0,0,.184,1.293Zm10.143-2.939a.645.645,0,0,0,.184-.026l5.071-1.47a.66.66,0,1,0-.369-1.268l-5.07,1.47a.66.66,0,0,0,.183,1.294Zm10.143-2.941a.645.645,0,0,0,.184-.026l5.07-1.47a.66.66,0,1,0-.367-1.268l-5.071,1.47a.66.66,0,0,0,.184,1.294Zm10.143-2.941a.644.644,0,0,0,.184-.026l5.071-1.47a.66.66,0,1,0-.367-1.268l-5.073,1.47a.66.66,0,0,0,.184,1.294Z" transform="translate(742.688 349.495) rotate(180)" fill="#590e00" stroke="#590e00" stroke-miterlimit="10" stroke-width="1"/>
              <path id="Trazado_824434" data-name="Trazado 824434" d="M263.118,95.844H371.805a.33.33,0,0,0,0-.659H263.118a.33.33,0,1,0,0,.659Z" transform="translate(776.102 393.549) rotate(180)" fill="none" stroke="#590e00" stroke-miterlimit="10" stroke-width="1"/>
              <path id="Trazado_824435" data-name="Trazado 824435" d="M263.117,9.625h109.65a.33.33,0,1,0,0-.659H263.117a.33.33,0,1,0,0,.659Z" transform="translate(777.063 439.868) rotate(180)" fill="none" stroke="#590e00" stroke-miterlimit="10" stroke-width="1"/>
              <path id="Trazado_824436" data-name="Trazado 824436" d="M2.795,151a.656.656,0,0,0,.529-.264l3.165-4.226a.661.661,0,1,0-1.058-.792L2.267,149.94a.663.663,0,0,0,.132.925A.655.655,0,0,0,2.795,151Zm6.329-8.455a.656.656,0,0,0,.529-.264l3.164-4.226a.66.66,0,1,0-1.056-.792l-3.165,4.226a.662.662,0,0,0,.134.925A.652.652,0,0,0,9.124,142.541Zm6.327-8.453a.665.665,0,0,0,.53-.264l3.164-4.227a.661.661,0,0,0-1.058-.792l-3.164,4.227a.66.66,0,0,0,.527,1.056Zm6.329-8.455a.66.66,0,0,0,.529-.264l3.165-4.227a.661.661,0,0,0-1.058-.792l-3.164,4.227a.66.66,0,0,0,.527,1.056Zm6.329-8.455a.658.658,0,0,0,.529-.264l3.164-4.226a.66.66,0,1,0-1.056-.792l-3.165,4.227a.66.66,0,0,0,.134.924A.652.652,0,0,0,28.109,117.178Zm6.327-8.455a.664.664,0,0,0,.53-.263l3.164-4.227a.661.661,0,1,0-1.058-.792l-3.164,4.227a.658.658,0,0,0,.527,1.055Zm6.329-8.453a.662.662,0,0,0,.529-.264l3.164-4.227a.661.661,0,0,0-1.058-.792l-3.164,4.227a.66.66,0,0,0,.134.924A.653.653,0,0,0,40.765,100.27Zm6.327-8.455a.656.656,0,0,0,.529-.264l3.165-4.227a.66.66,0,0,0-1.058-.79l-3.164,4.226a.66.66,0,0,0,.527,1.056Zm6.329-8.453a.66.66,0,0,0,.529-.264l3.164-4.229a.659.659,0,1,0-1.056-.79l-3.164,4.227a.66.66,0,0,0,.527,1.056Zm6.329-8.455a.664.664,0,0,0,.529-.264l3.164-4.227a.661.661,0,0,0-1.058-.792l-3.164,4.227a.66.66,0,0,0,.134.924A.653.653,0,0,0,59.75,74.907Zm6.327-8.455a.66.66,0,0,0,.529-.264l3.165-4.227a.661.661,0,0,0-1.058-.792L65.55,65.4a.66.66,0,0,0,.527,1.056ZM72.406,58a.656.656,0,0,0,.529-.264L76.1,53.507a.66.66,0,1,0-1.056-.792l-3.165,4.226a.662.662,0,0,0,.134.925A.655.655,0,0,0,72.406,58Zm6.327-8.455a.659.659,0,0,0,.53-.264l3.164-4.226a.661.661,0,1,0-1.058-.792l-3.164,4.227a.658.658,0,0,0,.527,1.055Zm6.329-8.453a.66.66,0,0,0,.529-.264L88.756,36.6a.661.661,0,0,0-1.058-.792l-3.164,4.227a.66.66,0,0,0,.527,1.056Zm6.329-8.455a.66.66,0,0,0,.529-.264l3.164-4.227a.66.66,0,1,0-1.056-.792l-3.165,4.227A.66.66,0,0,0,91,32.5.653.653,0,0,0,91.391,32.634Zm6.329-8.455a.66.66,0,0,0,.529-.264l3.164-4.227a.661.661,0,0,0-1.058-.792l-3.164,4.229a.66.66,0,0,0,.134.924A.652.652,0,0,0,97.72,24.179Zm6.327-8.455a.659.659,0,0,0,.529-.263l1.889-2.524h1.467a.66.66,0,1,0,0-1.32H105.8L103.52,14.67a.658.658,0,0,0,.527,1.055Zm9.165-2.787h5.28a.66.66,0,0,0,0-1.32h-5.28a.66.66,0,0,0,0,1.32Zm10.561,0h5.28a.66.66,0,0,0,0-1.32h-5.28a.66.66,0,0,0,0,1.32Zm10.561,0h5.28a.66.66,0,0,0,0-1.32h-5.28a.66.66,0,1,0,0,1.32Zm10.559,0h5.28a.66.66,0,1,0,0-1.32h-5.28a.66.66,0,0,0,0,1.32Zm10.561,0h5.28a.66.66,0,0,0,0-1.32h-5.28a.66.66,0,0,0,0,1.32Zm10.561,0h5.28a.66.66,0,0,0,0-1.32h-5.28a.66.66,0,0,0,0,1.32Zm10.561,0h5.28a.66.66,0,0,0,0-1.32h-5.28a.66.66,0,1,0,0,1.32Zm10.559,0h5.28a.66.66,0,1,0,0-1.32h-5.28a.66.66,0,0,0,0,1.32Zm10.561,0h5.28a.66.66,0,0,0,0-1.32H197.7a.66.66,0,0,0,0,1.32Zm10.561,0h5.28a.66.66,0,0,0,0-1.32h-5.28a.66.66,0,0,0,0,1.32Z" transform="translate(217.48 438.445) rotate(180)" fill="none" stroke="#590e00" stroke-miterlimit="10" stroke-width="1"/>
              <path id="Trazado_824437" data-name="Trazado 824437" d="M77.29,307.03c2.043,0,2.043-1.32-1.585-4.151a.66.66,0,1,0-1.038.815Zm-5.365-7.236a.659.659,0,0,0,.518-1.067l-3.264-4.151a.66.66,0,1,0-1.038.815l3.264,4.151A.655.655,0,0,0,71.925,299.794Zm-6.526-8.3a.669.669,0,0,0,.407-.141.662.662,0,0,0,.111-.927l-3.264-4.152a.66.66,0,1,0-1.038.815l3.264,4.152A.656.656,0,0,0,65.4,291.493Zm-6.527-8.3a.668.668,0,0,0,.409-.14.662.662,0,0,0,.111-.927l-3.264-4.152a.66.66,0,1,0-1.038.815l3.264,4.152A.654.654,0,0,0,58.872,283.188Zm-6.524-8.3a.66.66,0,0,0,.518-1.067L49.6,269.667a.66.66,0,1,0-1.038.815l3.264,4.152A.655.655,0,0,0,52.348,274.886Zm-6.526-8.3a.658.658,0,0,0,.518-1.067l-3.264-4.151a.66.66,0,0,0-1.038.815l3.264,4.151A.655.655,0,0,0,45.823,266.582Zm-6.527-8.3a.658.658,0,0,0,.518-1.067l-3.262-4.152a.66.66,0,1,0-1.038.815l3.262,4.152A.659.659,0,0,0,39.3,258.279Zm-6.526-8.3a.658.658,0,0,0,.518-1.067l-3.262-4.152a.66.66,0,1,0-1.038.815l3.262,4.152A.659.659,0,0,0,32.77,249.976Zm-6.526-8.3a.658.658,0,0,0,.518-1.067L23.5,236.455a.66.66,0,1,0-1.038.815l3.262,4.152A.659.659,0,0,0,26.244,241.674Zm-6.526-8.3a.66.66,0,0,0,.518-1.068l-3.262-4.151a.66.66,0,1,0-1.038.815l3.262,4.151A.656.656,0,0,0,19.719,233.371Zm-6.526-8.3A.658.658,0,0,0,13.711,224l-3.262-4.151a.66.66,0,1,0-1.038.815l3.262,4.151A.657.657,0,0,0,13.193,225.067Zm-6.526-8.3a.658.658,0,0,0,.518-1.067l-3.262-4.152a.66.66,0,1,0-1.038.815l3.262,4.152A.659.659,0,0,0,6.667,216.764Z" transform="matrix(-0.788, -0.616, 0.616, -0.788, 138.772, 303.29)" fill="none" stroke="#590e00" stroke-miterlimit="10" stroke-width="1"/>
              <path id="Trazado_824438" data-name="Trazado 824438" d="M1.572,139.28a.664.664,0,0,0,.358-.1l4.436-2.864A.66.66,0,1,0,5.65,135.2l-4.436,2.862a.66.66,0,0,0,.358,1.214Zm8.873-5.726a.644.644,0,0,0,.357-.106l4.436-2.864a.659.659,0,1,0-.715-1.108l-4.436,2.864a.66.66,0,0,0,.358,1.214Zm8.873-5.728a.644.644,0,0,0,.357-.106l4.436-2.864a.659.659,0,1,0-.715-1.108l-4.436,2.864a.66.66,0,0,0,.358,1.214Zm8.873-5.726a.664.664,0,0,0,.357-.106l4.436-2.864a.659.659,0,0,0-.715-1.108l-4.436,2.864a.66.66,0,0,0,.358,1.214Zm8.871-5.728a.653.653,0,0,0,.358-.106l4.436-2.864a.66.66,0,0,0-.716-1.108L36.7,115.158a.66.66,0,0,0,.358,1.214Zm8.873-5.728a.655.655,0,0,0,.357-.1l4.436-2.864a.66.66,0,0,0-.715-1.11l-4.436,2.864a.66.66,0,0,0,.358,1.214Zm8.873-5.728a.655.655,0,0,0,.357-.1l4.436-2.864a.66.66,0,0,0-.716-1.11L54.45,103.7a.66.66,0,0,0,.358,1.214Zm8.905-5.611h5.28a.66.66,0,1,0,0-1.32h-5.28a.66.66,0,0,0,0,1.32Zm10.561,0h5.28a.66.66,0,0,0,0-1.32h-5.28a.66.66,0,0,0,0,1.32Zm10.561,0h5.28a.66.66,0,0,0,0-1.32h-5.28a.66.66,0,0,0,0,1.32Zm10.561,0h5.28a.66.66,0,0,0,0-1.32H95.4a.66.66,0,1,0,0,1.32Zm10.559,0h5.28a.66.66,0,1,0,0-1.32h-5.28a.66.66,0,0,0,0,1.32Zm10.561,0h5.28a.66.66,0,0,0,0-1.32h-5.28a.66.66,0,0,0,0,1.32Zm10.561,0h5.28a.66.66,0,0,0,0-1.32h-5.28a.66.66,0,0,0,0,1.32Zm10.561,0h5.28a.66.66,0,0,0,0-1.32h-5.28a.66.66,0,1,0,0,1.32Zm10.559,0h5.28a.66.66,0,1,0,0-1.32H148.2a.66.66,0,0,0,0,1.32Zm10.561,0h5.28a.66.66,0,0,0,0-1.32h-5.28a.66.66,0,0,0,0,1.32Zm10.561,0h2.868a.66.66,0,0,0,0-1.32h-2.868a.66.66,0,0,0,0,1.32Z" transform="translate(174.249 392.043) rotate(180)" fill="none" stroke="#590e00" stroke-miterlimit="10" stroke-width="1"/>
              <path id="Trazado_824439" data-name="Trazado 824439" d="M48.148,191.76h.7a.66.66,0,1,0,0-1.321h-.513l-4.4-1.276a.661.661,0,0,0-.367,1.27Zm5.981,0h5.28a.66.66,0,0,0,0-1.321H54.13a.66.66,0,0,0,0,1.321Zm10.561,0h5.28a.66.66,0,0,0,0-1.321h-5.28a.66.66,0,0,0,0,1.321Zm10.561,0h5.28a.66.66,0,0,0,0-1.321h-5.28a.66.66,0,1,0,0,1.321Zm10.559,0h5.28a.66.66,0,1,0,0-1.321h-5.28a.66.66,0,0,0,0,1.321Zm10.561,0h5.28a.66.66,0,0,0,0-1.321h-5.28a.66.66,0,0,0,0,1.321Zm10.561,0h5.28a.66.66,0,0,0,0-1.321h-5.28a.66.66,0,0,0,0,1.321Zm10.561,0h5.28a.66.66,0,0,0,0-1.321h-5.28a.66.66,0,1,0,0,1.321Zm10.559,0h5.28a.66.66,0,1,0,0-1.321h-5.28a.66.66,0,0,0,0,1.321Zm10.561,0h5.28a.66.66,0,0,0,0-1.321h-5.28a.66.66,0,0,0,0,1.321Zm10.561,0h5.28a.66.66,0,0,0,0-1.321h-5.28a.66.66,0,0,0,0,1.321ZM38.682,188.989a.66.66,0,0,0,.184-1.294l-5.071-1.47a.66.66,0,1,0-.367,1.268l5.071,1.47A.633.633,0,0,0,38.682,188.989Zm-10.143-2.941a.66.66,0,0,0,.184-1.294l-5.071-1.47a.66.66,0,0,0-.367,1.268l5.071,1.47A.633.633,0,0,0,28.539,186.048ZM18.4,183.107a.66.66,0,0,0,.184-1.294l-5.071-1.47a.66.66,0,0,0-.367,1.268l5.071,1.47A.627.627,0,0,0,18.4,183.107ZM8.254,180.167a.66.66,0,0,0,.184-1.294L3.367,177.4A.66.66,0,1,0,3,178.671l5.071,1.47A.626.626,0,0,0,8.254,180.167Z" transform="translate(158.991 349.393) rotate(180)" fill="none" stroke="#590e00" stroke-miterlimit="10" stroke-width="1"/>
              <path id="Trazado_824440" data-name="Trazado 824440" d="M1.8,270.32H109.957a.33.33,0,0,0,0-.659H1.8a.33.33,0,1,0,0,.659Z" transform="translate(515.783 435.145) rotate(180)" fill="none" stroke="#590e00" stroke-miterlimit="10" stroke-width="1"/>
              <path id="Trazado_824441" data-name="Trazado 824441" d="M1.457,183.17H110.143a.33.33,0,1,0,0-.659H1.457a.33.33,0,1,0,0,.659Z" transform="translate(112.204 346.632) rotate(180)" fill="none" stroke="#590e00" stroke-miterlimit="10" stroke-width="1"/>
              <path id="Trazado_824442" data-name="Trazado 824442" d="M1.457,95.844H110.143a.33.33,0,1,0,0-.659H1.457a.33.33,0,1,0,0,.659Z" transform="translate(112.204 393.549) rotate(180)" fill="none" stroke="#590e00" stroke-miterlimit="10" stroke-width="1"/>
              <path id="Trazado_824443" data-name="Trazado 824443" d="M.831,9.625h109.65a.33.33,0,0,0,0-.659H.831a.33.33,0,1,0,0,.659Z" transform="translate(111.578 439.868) rotate(180)" fill="none" stroke="#590e00" stroke-miterlimit="10" stroke-width="1"/>
              <path id="Trazado_824444" data-name="Trazado 824444" d="M203.689,303.649l1.187-.006a.659.659,0,0,0-.006-1.319h-.006l-1.174.006q-2.043,0-4.072-.08a.633.633,0,0,0-.686.633.662.662,0,0,0,.633.687Q201.619,303.649,203.689,303.649Zm6.453-.2.042,0c1.752-.106,3.533-.263,5.291-.46a.661.661,0,0,0-.149-1.313c-1.734.2-3.493.35-5.224.455a.66.66,0,0,0,.04,1.319Zm-15.818-.22a.66.66,0,0,0,.058-1.317c-1.736-.157-3.486-.358-5.21-.6a.66.66,0,0,0-.184,1.307c1.743.247,3.519.452,5.276.61C194.284,303.231,194.3,303.233,194.324,303.233Zm26.3-.964a.647.647,0,0,0,.108-.008c1.72-.284,3.476-.62,5.216-1a.659.659,0,1,0-.28-1.288c-1.719.372-3.451.7-5.151.982a.66.66,0,0,0,.108,1.311Zm-36.751-.515a.66.66,0,0,0,.126-1.308c-1.7-.331-3.423-.71-5.122-1.131a.66.66,0,0,0-.317,1.282c1.719.426,3.463.81,5.185,1.145A.731.731,0,0,0,183.877,301.754Zm47.061-1.731a.683.683,0,0,0,.174-.023c1.7-.464,3.413-.978,5.088-1.53a.659.659,0,1,0-.412-1.253c-1.654.543-3.343,1.05-5.024,1.508a.66.66,0,0,0,.174,1.3Zm-57.3-.807a.661.661,0,0,0,.192-1.293c-1.666-.5-3.342-1.061-4.978-1.651a.661.661,0,0,0-.449,1.244c1.659.6,3.354,1.159,5.042,1.671A.648.648,0,0,0,173.634,299.216Zm67.341-2.49a.681.681,0,0,0,.238-.045c1.648-.636,3.3-1.325,4.913-2.048a.659.659,0,1,0-.538-1.2c-1.593.712-3.224,1.391-4.85,2.018a.661.661,0,0,0,.237,1.277Zm-77.256-1.084a.66.66,0,0,0,.255-1.268c-1.606-.673-3.211-1.4-4.775-2.146a.659.659,0,0,0-.572,1.188c1.583.761,3.21,1.493,4.836,2.175A.674.674,0,0,0,163.719,295.642Zm86.908-3.233a.662.662,0,0,0,.3-.072c1.58-.806,3.153-1.66,4.675-2.538a.66.66,0,1,0-.661-1.142c-1.5.865-3.055,1.709-4.613,2.5a.66.66,0,0,0,.3,1.248Zm-96.4-1.333a.66.66,0,0,0,.317-1.239c-1.52-.83-3.045-1.714-4.533-2.626a.659.659,0,0,0-.69,1.124c1.507.925,3.051,1.82,4.592,2.659A.647.647,0,0,0,154.225,291.076Zm105.553-3.943a.667.667,0,0,0,.36-.106c1.487-.962,2.962-1.972,4.389-3a.661.661,0,1,0-.773-1.071c-1.407,1.016-2.865,2.014-4.333,2.964a.661.661,0,0,0,.358,1.214ZM145.24,285.559a.66.66,0,0,0,.374-1.2c-1.442-.992-2.87-2.026-4.243-3.074a.661.661,0,0,0-.8,1.05c1.391,1.062,2.838,2.109,4.3,3.113A.659.659,0,0,0,145.24,285.559Zm123.1-4.607a.66.66,0,0,0,.412-.144c1.384-1.11,2.749-2.263,4.058-3.428a.66.66,0,0,0-.876-.988c-1.294,1.151-2.643,2.292-4.008,3.387a.659.659,0,0,0,.414,1.174Zm-131.485-1.794a.65.65,0,0,0,.5-.234.657.657,0,0,0-.075-.928c-1.334-1.134-2.65-2.309-3.912-3.493a.659.659,0,0,0-.9.961c1.276,1.2,2.609,2.389,3.961,3.537A.658.658,0,0,0,136.859,279.158Zm139.373-5.219a.663.663,0,0,0,.463-.191c1.257-1.239,2.5-2.524,3.689-3.82a.66.66,0,0,0-.973-.893c-1.174,1.281-2.4,2.55-3.642,3.772a.661.661,0,0,0,.463,1.131Zm-147.065-2a.659.659,0,0,0,.475-1.118c-1.208-1.254-2.4-2.556-3.542-3.871a.66.66,0,1,0-.995.867c1.156,1.33,2.363,2.649,3.585,3.92A.664.664,0,0,0,129.166,271.934Zm154.2-5.769a.66.66,0,0,0,.509-.238c1.119-1.351,2.223-2.755,3.282-4.175a.66.66,0,0,0-1.058-.789c-1.045,1.4-2.135,2.787-3.241,4.12a.661.661,0,0,0,.507,1.082Zm-161.125-2.2a.659.659,0,0,0,.52-1.067c-1.078-1.376-2.132-2.793-3.13-4.212a.661.661,0,0,0-1.081.761c1.013,1.437,2.078,2.872,3.171,4.266A.657.657,0,0,0,122.241,263.965Zm167.432-6.254a.662.662,0,0,0,.549-.292c.981-1.465,1.935-2.973,2.839-4.483a.66.66,0,1,0-1.133-.678c-.892,1.491-1.835,2.981-2.8,4.426a.661.661,0,0,0,.549,1.027ZM116.16,255.334a.653.653,0,0,0,.352-.1.66.66,0,0,0,.206-.91c-.933-1.48-1.839-3-2.687-4.512a.66.66,0,0,0-1.15.647c.859,1.533,1.774,3.068,2.721,4.569A.655.655,0,0,0,116.16,255.334Zm178.924-6.667a.661.661,0,0,0,.584-.35c.826-1.557,1.622-3.153,2.366-4.745a.66.66,0,0,0-1.2-.56c-.735,1.573-1.52,3.15-2.335,4.686a.657.657,0,0,0,.272.892A.645.645,0,0,0,295.084,248.667Zm-184.1-2.546a.662.662,0,0,0,.592-.953c-.776-1.566-1.522-3.17-2.212-4.765a.66.66,0,1,0-1.211.526c.7,1.614,1.454,3.239,2.24,4.825A.663.663,0,0,0,110.985,246.121Zm188.557-7a.658.658,0,0,0,.61-.412c.663-1.628,1.293-3.3,1.874-4.971a.66.66,0,1,0-1.247-.433c-.575,1.648-1.2,3.3-1.848,4.907a.659.659,0,0,0,.363.861A.64.64,0,0,0,299.542,239.123Zm-192.76-2.7a.636.636,0,0,0,.231-.042.66.66,0,0,0,.389-.849c-.613-1.637-1.188-3.308-1.714-4.971a.659.659,0,0,0-1.257.4c.53,1.685,1.115,3.379,1.734,5.036A.662.662,0,0,0,106.782,236.421Zm196.223-7.265a.656.656,0,0,0,.632-.477c.495-1.7.948-3.425,1.353-5.137a.659.659,0,0,0-.492-.792.653.653,0,0,0-.793.49c-.4,1.691-.847,3.4-1.333,5.07a.657.657,0,0,0,.449.819A.637.637,0,0,0,303.006,229.156ZM103.6,226.346a.626.626,0,0,0,.166-.023.657.657,0,0,0,.472-.8c-.438-1.685-.839-3.4-1.188-5.107a.661.661,0,0,0-1.294.266c.355,1.726.759,3.467,1.207,5.173A.661.661,0,0,0,103.6,226.346Zm201.826-7.463a.66.66,0,0,0,.649-.541c.315-1.737.59-3.5.818-5.248a.66.66,0,1,0-1.31-.171c-.223,1.723-.5,3.466-.806,5.18a.66.66,0,0,0,.53.769A.772.772,0,0,0,305.427,218.882Zm-203.958-2.872a.6.6,0,0,0,.1-.009.659.659,0,0,0,.552-.752c-.263-1.714-.486-3.465-.663-5.2a.659.659,0,0,0-1.311.134c.177,1.762.4,3.534.669,5.271A.661.661,0,0,0,101.468,216.011Zm205.316-7.591a.662.662,0,0,0,.658-.609c.138-1.76.231-3.545.28-5.3a.66.66,0,1,0-1.319-.035c-.048,1.736-.143,3.5-.277,5.236a.657.657,0,0,0,.6.709Zm-206.376-2.907.032,0a.66.66,0,0,0,.626-.692c-.088-1.729-.131-3.493-.131-5.244a.68.68,0,0,0-.06-.275.692.692,0,0,0,.06-.277c.011-1.734.063-3.5.16-5.244a.656.656,0,0,0-.623-.695.644.644,0,0,0-.695.623c-.1,1.768-.152,3.554-.161,5.308a.649.649,0,0,0,.061.28.659.659,0,0,0-.061.28c0,1.772.045,3.559.132,5.31A.66.66,0,0,0,100.408,205.513Zm206.667-7.643h.017a.661.661,0,0,0,.644-.676c-.038-1.769-.125-3.554-.252-5.3a.65.65,0,0,0-.709-.612.658.658,0,0,0-.607.707c.126,1.728.209,3.491.249,5.24A.659.659,0,0,0,307.075,197.87Zm-206.209-8.727a.659.659,0,0,0,.655-.59c.18-1.714.412-3.463.689-5.2a.661.661,0,0,0-1.305-.209c-.278,1.757-.513,3.53-.7,5.267a.663.663,0,0,0,.589.726A.54.54,0,0,0,100.866,189.143Zm205.44-1.8a.475.475,0,0,0,.081-.006.661.661,0,0,0,.575-.736c-.218-1.754-.483-3.522-.79-5.253a.66.66,0,1,0-1.3.231c.3,1.708.566,3.453.781,5.185A.661.661,0,0,0,306.306,187.346Zm-203.789-8.622a.663.663,0,0,0,.646-.524c.358-1.7.769-3.42,1.216-5.1a.66.66,0,1,0-1.276-.34c-.452,1.7-.867,3.442-1.233,5.167a.661.661,0,0,0,.51.782A.593.593,0,0,0,102.517,178.723Zm201.952-1.769a.681.681,0,0,0,.149-.015.661.661,0,0,0,.5-.792c-.394-1.714-.841-3.445-1.324-5.144a.66.66,0,1,0-1.27.36c.478,1.679.918,3.388,1.305,5.079A.662.662,0,0,0,304.469,176.954Zm-199.241-8.43a.656.656,0,0,0,.627-.457c.532-1.651,1.116-3.316,1.736-4.95a.66.66,0,0,0-1.234-.467c-.629,1.654-1.219,3.34-1.757,5.011a.657.657,0,0,0,.629.862Zm196.352-1.719a.658.658,0,0,0,.623-.873c-.569-1.673-1.193-3.353-1.848-4.991a.661.661,0,0,0-1.227.49c.649,1.619,1.262,3.276,1.828,4.928A.658.658,0,0,0,301.581,166.805Zm-192.612-8.137a.661.661,0,0,0,.606-.394c.7-1.59,1.447-3.182,2.227-4.738a.66.66,0,0,0-1.181-.592c-.79,1.574-1.55,3.19-2.257,4.8a.66.66,0,0,0,.34.87A.648.648,0,0,0,108.968,158.669Zm188.684-1.68a.661.661,0,0,0,.6-.936c-.736-1.6-1.526-3.2-2.35-4.772a.659.659,0,1,0-1.168.612c.813,1.551,1.594,3.138,2.32,4.712A.659.659,0,0,0,297.653,156.988ZM113.7,149.253a.659.659,0,0,0,.573-.334c.864-1.52,1.772-3.031,2.7-4.489a.66.66,0,1,0-1.115-.709c-.941,1.476-1.862,3.005-2.735,4.544a.66.66,0,0,0,.573.987Zm179.047-1.622a.661.661,0,0,0,.567-1c-.9-1.519-1.851-3.035-2.824-4.5a.66.66,0,1,0-1.1.729c.962,1.451,1.9,2.948,2.789,4.449A.658.658,0,0,0,292.743,147.631ZM119.36,140.363a.659.659,0,0,0,.538-.278c1.01-1.419,2.068-2.829,3.147-4.192a.66.66,0,0,0-1.036-.819c-1.091,1.38-2.163,2.81-3.185,4.246a.66.66,0,0,0,.536,1.044Zm167.546-1.536a.659.659,0,0,0,.529-1.051c-1.05-1.422-2.149-2.832-3.265-4.194a.66.66,0,0,0-1.021.838c1.1,1.345,2.186,2.736,3.225,4.14A.656.656,0,0,0,286.906,138.827Zm-161-6.738a.663.663,0,0,0,.5-.224c1.145-1.307,2.343-2.6,3.556-3.855a.66.66,0,1,0-.947-.919c-1.23,1.268-2.441,2.581-3.6,3.9a.661.661,0,0,0,.5,1.1Zm154.3-1.422a.66.66,0,0,0,.487-1.1c-1.191-1.31-2.427-2.6-3.674-3.838a.66.66,0,0,0-.93.936c1.231,1.222,2.452,2.5,3.628,3.789A.655.655,0,0,0,280.207,130.668Zm-146.953-6.151a.664.664,0,0,0,.45-.178c1.271-1.184,2.593-2.354,3.929-3.474a.66.66,0,0,0-.849-1.011c-1.354,1.136-2.692,2.321-3.981,3.52a.66.66,0,0,0,.45,1.144Zm139.465-1.287a.659.659,0,0,0,.44-1.15c-1.31-1.176-2.67-2.335-4.041-3.445a.66.66,0,0,0-.83,1.025c1.354,1.1,2.7,2.24,3.991,3.4A.66.66,0,0,0,272.719,123.23Zm-131.382-5.5a.656.656,0,0,0,.4-.135c1.385-1.048,2.821-2.078,4.264-3.059a.66.66,0,0,0-.742-1.091c-1.462.993-2.915,2.035-4.318,3.1a.661.661,0,0,0,.4,1.187ZM264.518,116.6a.661.661,0,0,0,.39-1.194c-1.425-1.038-2.895-2.051-4.369-3.015a.66.66,0,0,0-.721,1.105c1.454.95,2.905,1.952,4.312,2.978A.662.662,0,0,0,264.518,116.6ZM150.073,111.79a.666.666,0,0,0,.343-.1c1.482-.9,3.015-1.779,4.555-2.61a.66.66,0,1,0-.627-1.162c-1.559.842-3.111,1.732-4.613,2.644a.661.661,0,0,0,.343,1.225Zm105.618-.962a.66.66,0,0,0,.334-1.23c-1.52-.885-3.084-1.745-4.649-2.553a.66.66,0,1,0-.606,1.173c1.545.8,3.088,1.646,4.589,2.521A.669.669,0,0,0,255.691,110.828Zm-96.319-4.055a.66.66,0,0,0,.283-.065c1.576-.749,3.191-1.465,4.8-2.131a.661.661,0,0,0-.506-1.221c-1.631.675-3.267,1.4-4.864,2.16a.66.66,0,0,0,.284,1.256Zm86.959-.778a.66.66,0,0,0,.272-1.262c-1.6-.726-3.244-1.42-4.882-2.063a.66.66,0,1,0-.483,1.228c1.617.635,3.239,1.32,4.821,2.037A.654.654,0,0,0,246.33,105.995Zm-77.187-3.262a.658.658,0,0,0,.221-.038c1.645-.583,3.322-1.128,4.985-1.623a.66.66,0,1,0-.377-1.265c-1.685.5-3.385,1.055-5.05,1.645a.66.66,0,0,0,.22,1.282Zm67.374-.592a.66.66,0,0,0,.209-1.285c-1.679-.561-3.388-1.084-5.079-1.554a.66.66,0,1,0-.354,1.271c1.669.464,3.357.981,5.014,1.534A.661.661,0,0,0,236.518,102.141ZM179.26,99.726a.594.594,0,0,0,.154-.02c1.694-.409,3.419-.781,5.127-1.1a.66.66,0,0,0-.244-1.3c-1.729.326-3.477.7-5.191,1.118a.66.66,0,0,0,.155,1.3Zm47.092-.412a.66.66,0,0,0,.143-1.305c-1.722-.384-3.476-.73-5.21-1.025a.66.66,0,1,0-.221,1.3c1.712.292,3.443.633,5.144,1.013A.673.673,0,0,0,226.352,99.314Zm-36.726-1.545a.868.868,0,0,0,.089,0c1.72-.235,3.474-.427,5.214-.575a.659.659,0,0,0-.111-1.314c-1.763.148-3.539.344-5.28.58a.66.66,0,0,0,.088,1.314Zm26.325-.228a.66.66,0,0,0,.077-1.316c-1.754-.208-3.534-.372-5.29-.489a.66.66,0,1,0-.088,1.317c1.732.115,3.49.277,5.222.483A.669.669,0,0,0,215.951,97.542Zm-15.809-.659h.021c1.743-.06,3.5-.075,5.247-.046h.011a.66.66,0,0,0,.011-1.319c-1.771-.029-3.549-.014-5.311.046a.66.66,0,0,0,.022,1.319Z" transform="translate(460.87 393.377) rotate(180)" fill="none" stroke="#590e00" stroke-miterlimit="10" stroke-width="1"/>
              <rect id="Rectángulo_378332" data-name="Rectángulo 378332" width="515.046" height="497.635" transform="translate(515.046 444.687) rotate(180)" fill="none"/>
            </g>
            <g id="Grupo_1074040" data-name="Grupo 1074040" transform="translate(214.637 492.686)" opacity="0.3">
              <g id="Grupo_1074039" data-name="Grupo 1074039" transform="translate(0 0)">
                <g id="Grupo_1074038" data-name="Grupo 1074038" clip-path="url(#clip-path-8)">
                  <path id="Trazado_824026" data-name="Trazado 824026" d="M120.7,293.109l31.55-18.21h44.623l31.549,18.208v25.766l-31.549,18.209H152.248L120.7,318.873Z" transform="translate(-120.705 -274.899)"/>
                </g>
              </g>
            </g>
            <path id="Trazado_824027" data-name="Trazado 824027" d="M130.658,136.76l10.912,14.034,1.642,10.684-2.828,8.882-7.6,1.679-9.4-3.994.9-11.969-4.634-11.55v-4.006l5.147-3.244Z" transform="translate(180.486 179.975)" fill="#fff"/>
            <path id="Trazado_824028" data-name="Trazado 824028" d="M144.318,95.973l4.5,7.639,8.5,44.313-5.406,3.759h-5.6l-15.422-37.238-1.382-10.834Z" transform="translate(153.826 168.81)" fill="#f0c6b4"/>
            <path id="Trazado_824029" data-name="Trazado 824029" d="M158.83,44.919l-17.65-.656-3.031,15.722,2.2,28.8,10.848,7.375,17.8-4.454-1.286-33.793Z" transform="translate(131.145 154.655)" fill="#b5afa7"/>
            <path id="Trazado_824030" data-name="Trazado 824030" d="M188.251,284.565v2.493l-.772,9.4-19.7-.515-13.938-5.8-21.214-1.286-2.057-10.822v-2.493Z" transform="translate(121.542 217.965)" fill="#efcfa3"/>
            <path id="Trazado_824031" data-name="Trazado 824031" d="M183.823,316.871l15.867,3.189v2.488L192.3,326.7l-11.672-1.574-6.953-11.842L171.1,299.375v-2.5Z" transform="translate(58.473 223.804)" fill="#efcfa3"/>
            <path id="Trazado_824032" data-name="Trazado 824032" d="M158.379,269.1l8.5,7.209,18.282,4.766,3.09,5.919-.772,9.4-19.7-.513-13.938-5.8L132.626,288.8l-2.057-10.817,3.24-11.327Z" transform="translate(121.542 215.026)" fill="#c79d5c"/>
            <path id="Trazado_824033" data-name="Trazado 824033" d="M185.233,135.735l-5.677,93.246-6.369,22.778-3.516,56.489-16.437,4.307-13.519-6.44,9.45-160.262,30.079-13.946Z" transform="translate(112.911 178.646)" fill="#377691"/>
            <path id="Trazado_824034" data-name="Trazado 824034" d="M190.877,288.107l1.441,9.991,7.017,14.724.355,9.809-7.385,4.15-11.672-1.574-6.953-11.844L171.1,299.451l1.418-11.968Z" transform="translate(58.474 221.233)" fill="#c79d5c"/>
            <path id="Trazado_824035" data-name="Trazado 824035" d="M217.01,133.429,203.1,166.648l-15.029,15.447-7.171,66.57-6.208,29.092.467,55.63-15.108,7.472-13.732-6.7v-65.15l2.51-26.519-8.561-96.7,36.176-12.362,35.538-8.5Z" transform="translate(80.425 176.738)" fill="#428aa8"/>
            <path id="Trazado_824036" data-name="Trazado 824036" d="M210.057,122.047l.357,9.08L194.028,148.9l-32.579,5.923-19.182-5.539V133.639Z" transform="translate(84.481 175.947)" fill="#944e39"/>
            <path id="Trazado_824037" data-name="Trazado 824037" d="M158.512,44.158l-1.644,8.529-1.56,7.213,4.4,9.4,24.468,10.043L190.64,60.8l-7.632-13.3L158.046,38.42Z" transform="translate(87.643 153.056)" fill="#c7a495"/>
            <path id="Trazado_824038" data-name="Trazado 824038" d="M189,56.7l-4.827,13.9-22.307-9.263-4.349-11.721-6.179,15.45-9.074,91.247,25.578,8.053,23.448-4.9,16.612-17.6-4.919-74.48L197.5,55.041Z" transform="translate(86.992 156.123)" fill="#b5afa7"/>
            <path id="Trazado_824039" data-name="Trazado 824039" d="M138.149,56.116l5.8,20.755L149.592,104l-.68,65.211,12.1-12.1-.131-82.831-9.668-19.7-9.907-7.981Z" transform="translate(139.123 155.293)" fill="#fdb053"/>
            <path id="Trazado_824040" data-name="Trazado 824040" d="M195.036,49.621l4.349,15.45,15.3,21.894,4.336,27.872v64.79l-20.769,3.349-20.982-5.254-9.222-6.11-5.062-94.464,16.6-15.806Z" transform="translate(49.474 156.123)" fill="#fdb053"/>
            <path id="Trazado_824041" data-name="Trazado 824041" d="M193.8,120.442l9.221,6.106,2.51-2.624-2.51-6.454-9.221-6.1Z" transform="translate(23.728 173.024)" fill="#e0dedc"/>
            <path id="Trazado_824042" data-name="Trazado 824042" d="M179.294,125.236l20.983,5.261v-9.08l-20.983-5.258Z" transform="translate(47.453 174.335)" fill="#f4efe9"/>
            <path id="Trazado_824043" data-name="Trazado 824043" d="M193.8,137.527l9.221,6.11,2.51-2.628-2.51-6.453-9.221-6.105Z" transform="translate(23.728 177.7)" fill="#e0dedc"/>
            <path id="Trazado_824044" data-name="Trazado 824044" d="M179.294,142.325l20.983,5.257V138.5l-20.983-5.257Z" transform="translate(47.453 179.012)" fill="#f4efe9"/>
            <path id="Trazado_824045" data-name="Trazado 824045" d="M178.408,29.96V36.57l3.2,9.9.8-3.183,1.9-11.539Z" transform="translate(64.543 150.74)" fill="#944e39"/>
            <path id="Trazado_824046" data-name="Trazado 824046" d="M189.929,39.052l-4.792,24.242-4.768,3.354-10.647-1.81L156.809,54.474l-1.418-6.5-7.209-4.756-1.057-9.5,2.1-3.471Z" transform="translate(98.777 150.818)" fill="#f0c6b4"/>
            <path id="Trazado_824047" data-name="Trazado 824047" d="M171.03,30.918l-7.608,6.817L146.5,39.456v7.4l13.932.9,2.581-5.249,1.429-.92.777,3.485,5.813-6.206Z" transform="translate(118.474 151.003)" fill="#736656"/>
            <path id="Trazado_824048" data-name="Trazado 824048" d="M160.908,48.41l2.684-5.455.588-.382.841,3.746.41.285.559-1.321,5.746-6.133V31.2l.41-1.242-.41-.285-8.428,7.557-17.263,1.758v8.461l.413.292.569-.232Zm4.04-7.712-2.254,1.46L160.213,47.2,147.2,46.363V40.031l16.6-1.688,6.779-6.076v6.421l-4.908,5.236-.488-2.188.176-.749Z" transform="translate(117.935 150.662)" fill="#6d6e71"/>
            <path id="Trazado_824049" data-name="Trazado 824049" d="M170.89,31.845l13.485,9.072.713-1.051-.713-1.8L170.9,30.918h-2l-1.452,3.04.34,1.307.99.264,1.159-3.522Z" transform="translate(77.741 151.003)" fill="#a39c95"/>
            <path id="Trazado_824050" data-name="Trazado 824050" d="M165.955,40.86l2.276,1.317.329-2.533-.329-2.151-2.276-1.315Z" transform="translate(96.161 152.442)" fill="#a39c95"/>
            <path id="Trazado_824051" data-name="Trazado 824051" d="M160.906,48.639l2.679-5.457.6-.383.838,3.743,6.715-7.169V29.9l-8.428,7.566-17.26,1.749V47.68Zm4.04-7.714-2.258,1.457-2.482,5.047-13-.839V40.26L163.8,38.572l6.779-6.076v6.422l-4.909,5.234Z" transform="translate(118.348 150.723)" fill="#a39c95"/>
            <path id="Trazado_824052" data-name="Trazado 824052" d="M165.564,35.726l5.192,12.382,6.281,7.584,1.472-3.156-7.037-7.816-5.908-11.251Z" transform="translate(86.711 151.701)" fill="#574943"/>
            <path id="Trazado_824053" data-name="Trazado 824053" d="M169.668,47.683l-8.477-.327L159.3,51.891l1.346,5.367,2.94,2.891,3.984-3.21Z" transform="translate(103.53 155.502)" fill="#f4efe9"/>
            <path id="Trazado_824054" data-name="Trazado 824054" d="M147.388,45.067l3.654-5.853-.336,6.271-1.493,6.985Z" transform="translate(137.329 153.273)" fill="#f4efe9"/>
            <path id="Trazado_824055" data-name="Trazado 824055" d="M165.577,43.484l-2.383-2.494-1.365.964-1.871,3.956-5.732,2.918-5.306,6.406-1.269,6.658,1.585,1.844,10.722,2.541,6.31-4.434,2.3-5.683-1.23-9.677Z" transform="translate(119.465 153.759)" fill="#fff"/>
            <path id="Trazado_824056" data-name="Trazado 824056" d="M164.861,51.712l.926.54,1.635-3.738-.923-.538Z" transform="translate(98.692 155.672)" fill="#574943"/>
            <path id="Trazado_824057" data-name="Trazado 824057" d="M176.139,27.651l7.572,4.371-1.921,2.349-7.372-4.289.061-1.469Z" transform="translate(70.23 150.108)" fill="#574943"/>
            <path id="Trazado_824058" data-name="Trazado 824058" d="M172.725,37.7l1.327,9.566,1.665-.959V34.016l-2.071.54Z" transform="translate(80.381 151.85)" fill="#211a1a"/>
            <path id="Trazado_824059" data-name="Trazado 824059" d="M172.726,34.4l2.158,1.383,1.665-.959-2.155-3.737-1.667.96Z" transform="translate(79.55 151.048)" fill="#362c29"/>
            <path id="Trazado_824060" data-name="Trazado 824060" d="M176.187,28.407l7.565,4.368,2.159,3.736V48.8l-2.159,1.246-7.565-4.369-2.155-3.736V29.651Z" transform="translate(68.523 150.315)" fill="#0a0808"/>
            <path id="Trazado_824061" data-name="Trazado 824061" d="M174.519,34.266l4.764-1.986,1.792,3.11-4.1,3.294Z" transform="translate(72.739 151.376)" fill="#c84030"/>
            <path id="Trazado_824062" data-name="Trazado 824062" d="M179.458,35.008l3.526.191,3.538-2.043-7.06-4.072-3.536,2.039Z" transform="translate(65.5 150.501)" fill="#fa5c52"/>
            <path id="Trazado_824063" data-name="Trazado 824063" d="M175.412,48.461l3.531-2.041v-11.7l-3.531,2.044-.893,5.309Z" transform="translate(74.871 152.044)" fill="#ab281f"/>
            <path id="Trazado_824064" data-name="Trazado 824064" d="M177.291,31.722l1.793-1.037,7.058,4.076,1.8,3.11V49.566l-1.8,1.032-7.058-4.076-1.793-3.105Z" transform="translate(62.34 150.939)" fill="#8a1c14"/>
            <path id="Trazado_824065" data-name="Trazado 824065" d="M182.867,26.857l13.356,2.275V31.68l-13.356,7.728h-18.5L145.5,28.519V25.961l18.86.9Z" transform="translate(94.549 149.646)" fill="#e09d38"/>
            <path id="Trazado_824066" data-name="Trazado 824066" d="M182.867,14.17l13.356,7.718v11.34l-13.356,7.715h-18.5L145.5,30.057V18.705L158.857,11Z" transform="translate(94.549 145.55)" fill="#ffec7a"/>
            <path id="Trazado_824067" data-name="Trazado 824067" d="M159.159,40.615l13.356-7.728V21.553l4.342,4.812.389-.148v.38l1.358,9.3.087.173v.386L165.33,44.17l-16.588-1.1-8.088-2.452v-1.7l4.9,1.078Z" transform="translate(118.257 148.44)" fill="#e09d38"/>
            <path id="Trazado_824068" data-name="Trazado 824068" d="M172.516,31.572V20.221l4.731,6.361,1.444,9.854L165.33,44.154l-16.586-1.111-8.089-3.764H159.16Z" transform="translate(118.257 148.075)" fill="#ffec7a"/>
            <path id="Trazado_824069" data-name="Trazado 824069" d="M182.491,14.787l12.784,7.38V32.608L182.5,39.99H164.411L146.119,29.432V18.989l12.788-7.376Z" transform="translate(94.712 145.718)" fill="#ffc654"/>
            <path id="Trazado_824070" data-name="Trazado 824070" d="M169.8,5.042l7.282-3.923L186.456,0,190.6,27.053l-27.328-4.885,1.546-9.548Z" transform="translate(77.546 142.539)" fill="#ffc654"/>
            <path id="Trazado_824071" data-name="Trazado 824071" d="M155.807,2.648l9.929,5.573,4.989,7.583,1.571,9.543-26.176,1.707L146.312,0Z" transform="translate(117.691 142.539)" fill="#ffc654"/>
            <path id="Trazado_824072" data-name="Trazado 824072" d="M174.125,16.574l-7.171-6.092L156.148,6.458,166.954,9.7l7.957,5.9L180.4,27.215l1.82,13.347-17.989-.125,16.338-.808-1.145-11.958Z" transform="translate(94.99 144.307)" fill="#f2b63d"/>
            <path id="Trazado_824073" data-name="Trazado 824073" d="M146.8,29.67l-.655-3.991.284-6.311Z" transform="translate(143.149 147.841)" fill="#f2b63d"/>
            <path id="Trazado_824074" data-name="Trazado 824074" d="M164.909,9.815l5.5,11.616,1.8,13.355-2.779-12.894-5.31-11.1L156.944,4.7l-10.8-4.03,10.8,3.247Z" transform="translate(117.742 142.724)" fill="#f2b63d"/>
            <g id="Grupo_1074043" data-name="Grupo 1074043" transform="translate(241.208 165.937)" opacity="0.2">
              <g id="Grupo_1074042" data-name="Grupo 1074042" transform="translate(0 -0.001)">
                <g id="Grupo_1074041" data-name="Grupo 1074041" clip-path="url(#clip-path-9)">
                  <path id="Trazado_824075" data-name="Trazado 824075" d="M183.058,22.572l5.133,8.917v6.46L170.62,27.8V21.338l5.151-2.969Z" transform="translate(-170.621 -18.369)" fill="#ab281f"/>
                </g>
              </g>
            </g>
            <path id="Trazado_824076" data-name="Trazado 824076" d="M203.263,167.461l7.535,7.376,4.894,11.847-2.317,1.8-5.8-6.956-2.126,4.891.452,5.8,4.764,7.462-1.9,4.868-9.948-5.6-8.11-10.338V168.72Z" transform="translate(17.492 188.379)" fill="#fff"/>
            <path id="Trazado_824077" data-name="Trazado 824077" d="M222.4,110.476l-6.951,18.547V146.6l-2.518,39.1-6.758,2.993-5.789-1.735-7.344-41.326,3.668-21.447,2.7-18.323,9.274-5.043Z" transform="translate(7.824 170.137)" fill="#f0c6b4"/>
            <path id="Trazado_824078" data-name="Trazado 824078" d="M207.368,69.025l-13.6,2.811-4.643,12.191-2.449,28.78,9.525,9.015,18.282-1.549,5.153-32.765Z" transform="translate(18.698 161.434)" fill="#b5afa7"/>
          </g>
        </g>
      </g>
    </g>
    <path id="Trazado_824906" data-name="Trazado 824906" d="M28.5,0h177a28.5,28.5,0,0,1,0,57H28.5a28.5,28.5,0,0,1,0-57Z" transform="translate(308 8676.808)" fill="#fff"/>
    <path id="Trazado_824907" data-name="Trazado 824907" d="M28.5,0h177a28.5,28.5,0,0,1,0,57H28.5a28.5,28.5,0,0,1,0-57Z" transform="translate(308 8809.808)" fill="#fff"/>
    <path id="Trazado_824908" data-name="Trazado 824908" d="M28.5,0h177a28.5,28.5,0,0,1,0,57H28.5a28.5,28.5,0,0,1,0-57Z" transform="translate(308 8945.808)" fill="#fff"/>
    <path id="Trazado_824909" data-name="Trazado 824909" d="M-61.972-4.263A4.528,4.528,0,0,1-63.5-1.011,5.355,5.355,0,0,1-67.122.176a4.816,4.816,0,0,1-3.872-1.657A6.793,6.793,0,0,1-72.4-6.029v-.782a7.671,7.671,0,0,1,.65-3.252A4.874,4.874,0,0,1-69.9-12.221a5.207,5.207,0,0,1,2.808-.751,5.217,5.217,0,0,1,3.568,1.187,4.866,4.866,0,0,1,1.564,3.331h-2.637a2.673,2.673,0,0,0-.69-1.8,2.555,2.555,0,0,0-1.806-.558,2.24,2.24,0,0,0-1.973.945,5.3,5.3,0,0,0-.672,2.931v.967A5.667,5.667,0,0,0-69.1-2.936a2.2,2.2,0,0,0,1.982.958A2.6,2.6,0,0,0-65.3-2.536a2.521,2.521,0,0,0,.69-1.727Zm4.043-4.21a3.17,3.17,0,0,1,2.54-1.213q3.094,0,3.138,3.595V0h-2.54V-6.021a1.767,1.767,0,0,0-.352-1.208,1.507,1.507,0,0,0-1.169-.391,1.729,1.729,0,0,0-1.617.861V0h-2.54V-13.5h2.54ZM-44.824,0a2.821,2.821,0,0,1-.255-.853,3.073,3.073,0,0,1-2.4,1.028,3.376,3.376,0,0,1-2.316-.809,2.6,2.6,0,0,1-.918-2.039,2.687,2.687,0,0,1,1.121-2.32,5.529,5.529,0,0,1,3.239-.817h1.169v-.545a1.567,1.567,0,0,0-.338-1.055,1.331,1.331,0,0,0-1.068-.4A1.513,1.513,0,0,0-47.6-7.5a1.045,1.045,0,0,0-.365.844H-50.5a2.551,2.551,0,0,1,.51-1.529,3.37,3.37,0,0,1,1.441-1.1,5.253,5.253,0,0,1,2.092-.4,4.15,4.15,0,0,1,2.791.883,3.09,3.09,0,0,1,1.033,2.483V-2.2a4.546,4.546,0,0,0,.378,2.048V0Zm-2.1-1.767a2.188,2.188,0,0,0,1.037-.25,1.645,1.645,0,0,0,.7-.672V-4.324h-.949q-1.907,0-2.03,1.318l-.009.149a1.017,1.017,0,0,0,.334.782A1.3,1.3,0,0,0-46.925-1.767ZM-38,0h-2.549V-13.5H-38Zm6.469.176a4.668,4.668,0,0,1-3.406-1.283,4.561,4.561,0,0,1-1.314-3.419v-.246A5.745,5.745,0,0,1-35.7-7.334a4.064,4.064,0,0,1,1.569-1.74,4.4,4.4,0,0,1,2.316-.611,3.947,3.947,0,0,1,3.072,1.23,5,5,0,0,1,1.121,3.489v1.037H-33.68a2.36,2.36,0,0,0,.743,1.494,2.245,2.245,0,0,0,1.569.563,2.742,2.742,0,0,0,2.294-1.063l1.248,1.4A3.813,3.813,0,0,1-29.373-.277,5.075,5.075,0,0,1-31.535.176Zm-.29-7.813a1.587,1.587,0,0,0-1.226.512,2.651,2.651,0,0,0-.6,1.466h3.533v-.2a1.891,1.891,0,0,0-.457-1.311A1.638,1.638,0,0,0-31.825-7.638Zm9.6,5.766a1.666,1.666,0,0,0,1.143-.387,1.355,1.355,0,0,0,.457-1.028h2.382a3.258,3.258,0,0,1-.527,1.771A3.48,3.48,0,0,1-20.193-.268a4.442,4.442,0,0,1-1.991.444,4.129,4.129,0,0,1-3.217-1.3A5.13,5.13,0,0,1-26.578-4.7v-.167a5.071,5.071,0,0,1,1.169-3.507A4.08,4.08,0,0,1-22.2-9.686,4,4,0,0,1-19.34-8.67a3.594,3.594,0,0,1,1.094,2.7h-2.382a1.745,1.745,0,0,0-.457-1.206,1.524,1.524,0,0,0-1.16-.464,1.53,1.53,0,0,0-1.34.647,3.749,3.749,0,0,0-.453,2.1v.264a3.8,3.8,0,0,0,.448,2.113A1.549,1.549,0,0,0-22.228-1.872Zm5.036-2.971a5.64,5.64,0,0,1,.545-2.522,3.989,3.989,0,0,1,1.569-1.714A4.577,4.577,0,0,1-12.7-9.686,4.33,4.33,0,0,1-9.558-8.508,4.727,4.727,0,0,1-8.2-5.309l.018.65A4.97,4.97,0,0,1-9.4-1.147,4.247,4.247,0,0,1-12.683.176a4.268,4.268,0,0,1-3.283-1.318,5.058,5.058,0,0,1-1.226-3.586Zm2.54.18a3.555,3.555,0,0,0,.51,2.073,1.682,1.682,0,0,0,1.459.717,1.686,1.686,0,0,0,1.441-.709,3.89,3.89,0,0,0,.519-2.267,3.519,3.519,0,0,0-.519-2.06A1.686,1.686,0,0,0-12.7-7.638a1.658,1.658,0,0,0-1.441.726A3.955,3.955,0,0,0-14.651-4.662ZM3.208-7.128a6.9,6.9,0,0,0-.914-.07A1.86,1.86,0,0,0,.4-6.223V0h-2.54V-9.51h2.4l.07,1.134a2.354,2.354,0,0,1,2.118-1.31,2.662,2.662,0,0,1,.791.114ZM8.64.176A4.668,4.668,0,0,1,5.234-1.107,4.561,4.561,0,0,1,3.92-4.526v-.246a5.745,5.745,0,0,1,.554-2.562,4.064,4.064,0,0,1,1.569-1.74,4.4,4.4,0,0,1,2.316-.611,3.947,3.947,0,0,1,3.072,1.23,5,5,0,0,1,1.121,3.489v1.037H6.5a2.36,2.36,0,0,0,.743,1.494,2.245,2.245,0,0,0,1.569.563A2.742,2.742,0,0,0,11.1-2.936l1.248,1.4A3.813,3.813,0,0,1,10.8-.277,5.075,5.075,0,0,1,8.64.176ZM8.35-7.638a1.587,1.587,0,0,0-1.226.512,2.651,2.651,0,0,0-.6,1.466h3.533v-.2A1.891,1.891,0,0,0,9.6-7.174,1.638,1.638,0,0,0,8.35-7.638Zm12.015-3.894a12.225,12.225,0,0,0-1.406-.088q-1.723,0-1.723,1.468v.642h1.89v1.863h-1.89V0H14.687V-7.646H13.271V-9.51h1.415v-.738a3.249,3.249,0,0,1,1.037-2.544,4.24,4.24,0,0,1,2.883-.892q1.327,0,4.307.281V0H20.364ZM29.4.176a4.668,4.668,0,0,1-3.406-1.283A4.561,4.561,0,0,1,24.68-4.526v-.246a5.745,5.745,0,0,1,.554-2.562A4.064,4.064,0,0,1,26.8-9.075a4.4,4.4,0,0,1,2.316-.611,3.947,3.947,0,0,1,3.072,1.23,5,5,0,0,1,1.121,3.489v1.037H27.255A2.36,2.36,0,0,0,28-2.435a2.245,2.245,0,0,0,1.569.563A2.742,2.742,0,0,0,31.86-2.936l1.248,1.4A3.813,3.813,0,0,1,31.562-.277,5.075,5.075,0,0,1,29.4.176Zm-.29-7.813a1.587,1.587,0,0,0-1.226.512,2.651,2.651,0,0,0-.6,1.466h3.533v-.2a1.891,1.891,0,0,0-.457-1.311A1.638,1.638,0,0,0,29.109-7.638Zm9.6,5.766a1.666,1.666,0,0,0,1.143-.387,1.355,1.355,0,0,0,.457-1.028h2.382a3.258,3.258,0,0,1-.527,1.771A3.48,3.48,0,0,1,40.742-.268a4.442,4.442,0,0,1-1.991.444,4.129,4.129,0,0,1-3.217-1.3A5.13,5.13,0,0,1,34.356-4.7v-.167a5.071,5.071,0,0,1,1.169-3.507,4.08,4.08,0,0,1,3.208-1.31A4,4,0,0,1,41.594-8.67a3.594,3.594,0,0,1,1.094,2.7H40.307a1.745,1.745,0,0,0-.457-1.206,1.524,1.524,0,0,0-1.16-.464,1.53,1.53,0,0,0-1.34.647,3.749,3.749,0,0,0-.453,2.1v.264a3.8,3.8,0,0,0,.448,2.113A1.549,1.549,0,0,0,38.707-1.872Zm8.473-9.976V-9.51h1.626v1.863H47.18V-2.9a1.133,1.133,0,0,0,.2.756,1.015,1.015,0,0,0,.773.229,4.051,4.051,0,0,0,.747-.062V-.053a5.229,5.229,0,0,1-1.538.229,2.425,2.425,0,0,1-2.725-2.7V-7.646H43.251V-9.51H44.64v-2.338ZM52.9,0H50.353V-9.51H52.9ZM50.2-11.971a1.251,1.251,0,0,1,.382-.94,1.436,1.436,0,0,1,1.042-.369,1.44,1.44,0,0,1,1.037.369,1.244,1.244,0,0,1,.387.94,1.247,1.247,0,0,1-.391.949,1.443,1.443,0,0,1-1.033.369,1.443,1.443,0,0,1-1.033-.369A1.247,1.247,0,0,1,50.2-11.971ZM58.553-3.1,60.319-9.51h2.654L59.766,0H57.34L54.132-9.51h2.654Zm5.01-1.74a5.64,5.64,0,0,1,.545-2.522,3.989,3.989,0,0,1,1.569-1.714,4.577,4.577,0,0,1,2.377-.606A4.33,4.33,0,0,1,71.2-8.508a4.727,4.727,0,0,1,1.358,3.2l.018.65A4.97,4.97,0,0,1,71.35-1.147,4.247,4.247,0,0,1,68.071.176a4.268,4.268,0,0,1-3.283-1.318,5.058,5.058,0,0,1-1.226-3.586Zm2.54.18a3.555,3.555,0,0,0,.51,2.073,1.682,1.682,0,0,0,1.459.717,1.686,1.686,0,0,0,1.441-.709,3.89,3.89,0,0,0,.519-2.267,3.519,3.519,0,0,0-.519-2.06,1.686,1.686,0,0,0-1.459-.731,1.658,1.658,0,0,0-1.441.726A3.955,3.955,0,0,0,66.1-4.662Z" transform="translate(407 8979.808)" fill="#12263f"/>
    <path id="Trazado_824910" data-name="Trazado 824910" d="M28.5,0h172a28.5,28.5,0,0,1,0,57H28.5a28.5,28.5,0,0,1,0-57Z" transform="translate(701 8505.433)" fill="#fff"/>
    <path id="Trazado_824911" data-name="Trazado 824911" d="M28.5,0h172a28.5,28.5,0,0,1,0,57H28.5a28.5,28.5,0,0,1,0-57Z" transform="translate(1045 8672.433)" fill="#fff"/>
    <path id="Trazado_824912" data-name="Trazado 824912" d="M28.5,0h172a28.5,28.5,0,0,1,0,57H28.5a28.5,28.5,0,0,1,0-57Z" transform="translate(1045 8812.433)" fill="#fff"/>
    <path id="Trazado_824913" data-name="Trazado 824913" d="M28.5,0h172a28.5,28.5,0,0,1,0,57H28.5a28.5,28.5,0,0,1,0-57Z" transform="translate(1045 8940.433)" fill="#fff"/>
    <path id="Trazado_824914" data-name="Trazado 824914" d="M-33.354-10.661h-3.92V0h-2.637V-10.661h-3.867V-12.8h10.424ZM-27.984,0a2.821,2.821,0,0,1-.255-.853,3.073,3.073,0,0,1-2.4,1.028,3.376,3.376,0,0,1-2.316-.809,2.6,2.6,0,0,1-.918-2.039,2.687,2.687,0,0,1,1.121-2.32,5.529,5.529,0,0,1,3.239-.817h1.169v-.545a1.567,1.567,0,0,0-.338-1.055,1.331,1.331,0,0,0-1.068-.4,1.513,1.513,0,0,0-1.006.308,1.045,1.045,0,0,0-.365.844h-2.54a2.551,2.551,0,0,1,.51-1.529,3.37,3.37,0,0,1,1.441-1.1,5.253,5.253,0,0,1,2.092-.4,4.15,4.15,0,0,1,2.791.883A3.09,3.09,0,0,1-25.8-6.319V-2.2a4.546,4.546,0,0,0,.378,2.048V0Zm-2.1-1.767a2.188,2.188,0,0,0,1.037-.25,1.645,1.645,0,0,0,.7-.672V-4.324h-.949q-1.907,0-2.03,1.318l-.009.149A1.017,1.017,0,0,0-31-2.074,1.3,1.3,0,0,0-30.085-1.767Zm14.8-2.9a5.7,5.7,0,0,1-1,3.52A3.2,3.2,0,0,1-18.976.176a2.963,2.963,0,0,1-2.329-1V3.656h-2.54V-9.51h2.355l.088.932a2.985,2.985,0,0,1,2.408-1.107,3.22,3.22,0,0,1,2.733,1.3A5.858,5.858,0,0,1-15.284-4.8Zm-2.54-.185a3.743,3.743,0,0,0-.47-2.048,1.532,1.532,0,0,0-1.367-.721,1.663,1.663,0,0,0-1.644.914v3.894a1.692,1.692,0,0,0,1.661.94Q-17.824-1.872-17.824-4.852ZM-8.2,0a2.821,2.821,0,0,1-.255-.853,3.073,3.073,0,0,1-2.4,1.028A3.376,3.376,0,0,1-13.17-.633a2.6,2.6,0,0,1-.918-2.039,2.687,2.687,0,0,1,1.121-2.32A5.529,5.529,0,0,1-9.729-5.81h1.169v-.545A1.567,1.567,0,0,0-8.9-7.409a1.331,1.331,0,0,0-1.068-.4,1.513,1.513,0,0,0-1.006.308,1.045,1.045,0,0,0-.365.844h-2.54a2.551,2.551,0,0,1,.51-1.529,3.37,3.37,0,0,1,1.441-1.1,5.253,5.253,0,0,1,2.092-.4A4.15,4.15,0,0,1-7.044-8.8,3.09,3.09,0,0,1-6.012-6.319V-2.2A4.546,4.546,0,0,0-5.634-.149V0Zm-2.1-1.767a2.188,2.188,0,0,0,1.037-.25,1.645,1.645,0,0,0,.7-.672V-4.324H-9.51q-1.907,0-2.03,1.318l-.009.149a1.017,1.017,0,0,0,.334.782A1.3,1.3,0,0,0-10.3-1.767ZM.026-4.843A5.64,5.64,0,0,1,.571-7.365,3.989,3.989,0,0,1,2.14-9.079a4.577,4.577,0,0,1,2.377-.606A4.33,4.33,0,0,1,7.66-8.508a4.727,4.727,0,0,1,1.358,3.2l.018.65A4.97,4.97,0,0,1,7.813-1.147,4.247,4.247,0,0,1,4.535.176,4.268,4.268,0,0,1,1.252-1.143,5.058,5.058,0,0,1,.026-4.729Zm2.54.18a3.555,3.555,0,0,0,.51,2.073,1.682,1.682,0,0,0,1.459.717,1.686,1.686,0,0,0,1.441-.709A3.89,3.89,0,0,0,6.5-4.847a3.519,3.519,0,0,0-.519-2.06,1.686,1.686,0,0,0-1.459-.731,1.658,1.658,0,0,0-1.441.726A3.955,3.955,0,0,0,2.566-4.662ZM13.342,0H10.8V-9.51h2.54Zm-.747-13.368h2.769l-2.435,2.725H10.863Zm2.54,8.543a5.731,5.731,0,0,1,1-3.542,3.237,3.237,0,0,1,2.729-1.318,2.913,2.913,0,0,1,2.294,1.037V-13.5H23.7V0H21.41l-.123-1.011A2.989,2.989,0,0,1,18.844.176,3.228,3.228,0,0,1,16.15-1.147,5.916,5.916,0,0,1,15.135-4.825Zm2.54.189a3.754,3.754,0,0,0,.466,2.051,1.517,1.517,0,0,0,1.354.713,1.7,1.7,0,0,0,1.661-.995V-6.625a1.675,1.675,0,0,0-1.644-.995Q17.675-7.62,17.675-4.636Zm7.6-.207a5.64,5.64,0,0,1,.545-2.522,3.989,3.989,0,0,1,1.569-1.714,4.577,4.577,0,0,1,2.377-.606,4.33,4.33,0,0,1,3.142,1.178,4.727,4.727,0,0,1,1.358,3.2l.018.65a4.97,4.97,0,0,1-1.222,3.511A4.247,4.247,0,0,1,29.786.176,4.268,4.268,0,0,1,26.5-1.143a5.058,5.058,0,0,1-1.226-3.586Zm2.54.18a3.555,3.555,0,0,0,.51,2.073,1.682,1.682,0,0,0,1.459.717,1.686,1.686,0,0,0,1.441-.709,3.89,3.89,0,0,0,.519-2.267,3.519,3.519,0,0,0-.519-2.06,1.686,1.686,0,0,0-1.459-.731,1.658,1.658,0,0,0-1.441.726A3.955,3.955,0,0,0,27.817-4.662ZM41-2.628a.818.818,0,0,0-.461-.734,5.241,5.241,0,0,0-1.481-.479q-3.393-.712-3.393-2.883a2.613,2.613,0,0,1,1.05-2.114,4.237,4.237,0,0,1,2.747-.848,4.56,4.56,0,0,1,2.9.853,2.687,2.687,0,0,1,1.085,2.215H40.9a1.229,1.229,0,0,0-.352-.9,1.488,1.488,0,0,0-1.1-.356,1.52,1.52,0,0,0-.993.29.916.916,0,0,0-.352.738.783.783,0,0,0,.4.681,4.114,4.114,0,0,0,1.349.448,11.019,11.019,0,0,1,1.6.426,2.628,2.628,0,0,1,2.013,2.558,2.481,2.481,0,0,1-1.116,2.1,4.815,4.815,0,0,1-2.883.8A5.029,5.029,0,0,1,37.349-.25a3.561,3.561,0,0,1-1.455-1.169,2.716,2.716,0,0,1-.527-1.6h2.408a1.326,1.326,0,0,0,.5,1.037,1.987,1.987,0,0,0,1.248.36,1.839,1.839,0,0,0,1.1-.277A.861.861,0,0,0,41-2.628Z" transform="translate(409 8714.308)" fill="#12263f"/>
    <path id="Trazado_824915" data-name="Trazado 824915" d="M-22.3-1.617A4.577,4.577,0,0,1-24.311-.294a8.429,8.429,0,0,1-2.883.47,5.711,5.711,0,0,1-2.914-.725,4.836,4.836,0,0,1-1.934-2.1,7.408,7.408,0,0,1-.7-3.243v-.87a7.868,7.868,0,0,1,.646-3.318A4.779,4.779,0,0,1-30.23-12.23a5.367,5.367,0,0,1,2.852-.743,5.345,5.345,0,0,1,3.56,1.085A4.639,4.639,0,0,1-22.3-8.728h-2.566a2.552,2.552,0,0,0-.778-1.608,2.484,2.484,0,0,0-1.657-.51,2.338,2.338,0,0,0-2.048,1.011,5.315,5.315,0,0,0-.712,3.006v.817a5.06,5.06,0,0,0,.765,3.041,2.618,2.618,0,0,0,2.241,1.028,2.925,2.925,0,0,0,2.118-.633V-4.781h-2.4V-6.724H-22.3Zm7.664.65a3.185,3.185,0,0,1-2.6,1.143A3,3,0,0,1-19.569-.7a3.752,3.752,0,0,1-.822-2.575V-9.51h2.54v6.151q0,1.487,1.354,1.487a1.834,1.834,0,0,0,1.775-.9V-9.51h2.549V0h-2.391ZM-4.746,0A2.821,2.821,0,0,1-5-.853,3.073,3.073,0,0,1-7.4.176,3.376,3.376,0,0,1-9.716-.633a2.6,2.6,0,0,1-.918-2.039,2.687,2.687,0,0,1,1.121-2.32A5.529,5.529,0,0,1-6.275-5.81h1.169v-.545a1.567,1.567,0,0,0-.338-1.055,1.331,1.331,0,0,0-1.068-.4A1.513,1.513,0,0,0-7.519-7.5a1.045,1.045,0,0,0-.365.844h-2.54a2.551,2.551,0,0,1,.51-1.529,3.37,3.37,0,0,1,1.441-1.1,5.253,5.253,0,0,1,2.092-.4A4.15,4.15,0,0,1-3.59-8.8,3.09,3.09,0,0,1-2.558-6.319V-2.2A4.546,4.546,0,0,0-2.18-.149V0Zm-2.1-1.767a2.188,2.188,0,0,0,1.037-.25,1.645,1.645,0,0,0,.7-.672V-4.324h-.949q-1.907,0-2.03,1.318l-.009.149a1.017,1.017,0,0,0,.334.782A1.3,1.3,0,0,0-6.847-1.767ZM1.731-9.51l.079,1.1A3.32,3.32,0,0,1,4.544-9.686a2.759,2.759,0,0,1,2.25.888A4.142,4.142,0,0,1,7.55-6.144V0H5.01V-6.082a1.648,1.648,0,0,0-.352-1.173A1.574,1.574,0,0,0,3.489-7.62a1.747,1.747,0,0,0-1.608.914V0H-.659V-9.51Zm10.784-2.338V-9.51h1.626v1.863H12.516V-2.9a1.133,1.133,0,0,0,.2.756,1.015,1.015,0,0,0,.773.229,4.051,4.051,0,0,0,.747-.062V-.053A5.229,5.229,0,0,1,12.7.176a2.425,2.425,0,0,1-2.725-2.7V-7.646H8.587V-9.51H9.976v-2.338ZM19.934.176a4.668,4.668,0,0,1-3.406-1.283,4.561,4.561,0,0,1-1.314-3.419v-.246a5.745,5.745,0,0,1,.554-2.562,4.064,4.064,0,0,1,1.569-1.74,4.4,4.4,0,0,1,2.316-.611,3.947,3.947,0,0,1,3.072,1.23,5,5,0,0,1,1.121,3.489v1.037H17.789a2.36,2.36,0,0,0,.743,1.494,2.245,2.245,0,0,0,1.569.563,2.742,2.742,0,0,0,2.294-1.063l1.248,1.4A3.813,3.813,0,0,1,22.1-.277,5.075,5.075,0,0,1,19.934.176Zm-.29-7.813a1.587,1.587,0,0,0-1.226.512,2.651,2.651,0,0,0-.6,1.466h3.533v-.2a1.891,1.891,0,0,0-.457-1.311A1.638,1.638,0,0,0,19.644-7.638Zm10.793,5.01a.818.818,0,0,0-.461-.734,5.241,5.241,0,0,0-1.481-.479Q25.1-4.553,25.1-6.724a2.613,2.613,0,0,1,1.05-2.114A4.237,4.237,0,0,1,28.9-9.686a4.56,4.56,0,0,1,2.9.853A2.687,2.687,0,0,1,32.88-6.618H30.34a1.229,1.229,0,0,0-.352-.9,1.488,1.488,0,0,0-1.1-.356,1.52,1.52,0,0,0-.993.29.916.916,0,0,0-.352.738.783.783,0,0,0,.4.681,4.114,4.114,0,0,0,1.349.448,11.019,11.019,0,0,1,1.6.426,2.628,2.628,0,0,1,2.013,2.558,2.481,2.481,0,0,1-1.116,2.1,4.815,4.815,0,0,1-2.883.8A5.029,5.029,0,0,1,26.785-.25,3.561,3.561,0,0,1,25.33-1.419a2.716,2.716,0,0,1-.527-1.6h2.408a1.326,1.326,0,0,0,.5,1.037,1.987,1.987,0,0,0,1.248.36,1.839,1.839,0,0,0,1.1-.277A.861.861,0,0,0,30.437-2.628Z" transform="translate(1166 8846.433)" fill="#12263f"/>
    <path id="Trazado_824916" data-name="Trazado 824916" d="M-22.184,0V-12.8H-17.7a5.886,5.886,0,0,1,3.533.892,3.05,3.05,0,0,1,1.2,2.615,2.891,2.891,0,0,1-.483,1.657,2.792,2.792,0,0,1-1.345,1.05,2.7,2.7,0,0,1,1.551.993,2.936,2.936,0,0,1,.567,1.828A3.377,3.377,0,0,1-13.852-.967,5.3,5.3,0,0,1-17.209,0Zm2.637-5.572v3.454h2.259a2.18,2.18,0,0,0,1.455-.444,1.522,1.522,0,0,0,.523-1.226A1.607,1.607,0,0,0-17.13-5.572Zm0-1.863H-17.6q2-.035,2-1.591a1.47,1.47,0,0,0-.505-1.252,2.658,2.658,0,0,0-1.6-.382h-1.846Zm8.288,2.593a5.64,5.64,0,0,1,.545-2.522A3.989,3.989,0,0,1-9.145-9.079a4.577,4.577,0,0,1,2.377-.606A4.33,4.33,0,0,1-3.625-8.508a4.727,4.727,0,0,1,1.358,3.2l.018.65A4.97,4.97,0,0,1-3.472-1.147,4.247,4.247,0,0,1-6.75.176a4.268,4.268,0,0,1-3.283-1.318,5.058,5.058,0,0,1-1.226-3.586Zm2.54.18a3.555,3.555,0,0,0,.51,2.073,1.682,1.682,0,0,0,1.459.717,1.686,1.686,0,0,0,1.441-.709A3.89,3.89,0,0,0-4.79-4.847a3.519,3.519,0,0,0-.519-2.06,1.686,1.686,0,0,0-1.459-.731,1.658,1.658,0,0,0-1.441.726A3.955,3.955,0,0,0-8.719-4.662ZM2.355-11.848V-9.51H3.981v1.863H2.355V-2.9a1.133,1.133,0,0,0,.2.756,1.015,1.015,0,0,0,.773.229,4.051,4.051,0,0,0,.747-.062V-.053A5.229,5.229,0,0,1,2.54.176a2.425,2.425,0,0,1-2.725-2.7V-7.646H-1.573V-9.51H-.185v-2.338ZM10.907,0a2.821,2.821,0,0,1-.255-.853A3.073,3.073,0,0,1,8.253.176,3.376,3.376,0,0,1,5.937-.633a2.6,2.6,0,0,1-.918-2.039,2.687,2.687,0,0,1,1.121-2.32A5.529,5.529,0,0,1,9.378-5.81h1.169v-.545a1.567,1.567,0,0,0-.338-1.055,1.331,1.331,0,0,0-1.068-.4A1.513,1.513,0,0,0,8.134-7.5a1.045,1.045,0,0,0-.365.844H5.229a2.551,2.551,0,0,1,.51-1.529,3.37,3.37,0,0,1,1.441-1.1,5.253,5.253,0,0,1,2.092-.4,4.15,4.15,0,0,1,2.791.883A3.09,3.09,0,0,1,13.1-6.319V-2.2a4.546,4.546,0,0,0,.378,2.048V0Zm-2.1-1.767a2.188,2.188,0,0,0,1.037-.25,1.645,1.645,0,0,0,.7-.672V-4.324H9.6q-1.907,0-2.03,1.318l-.009.149a1.017,1.017,0,0,0,.334.782A1.3,1.3,0,0,0,8.807-1.767ZM20.2-2.628a.818.818,0,0,0-.461-.734,5.241,5.241,0,0,0-1.481-.479q-3.393-.712-3.393-2.883a2.613,2.613,0,0,1,1.05-2.114,4.237,4.237,0,0,1,2.747-.848,4.56,4.56,0,0,1,2.9.853,2.687,2.687,0,0,1,1.085,2.215H20.1a1.229,1.229,0,0,0-.352-.9,1.488,1.488,0,0,0-1.1-.356,1.52,1.52,0,0,0-.993.29.916.916,0,0,0-.352.738.783.783,0,0,0,.4.681,4.114,4.114,0,0,0,1.349.448,11.019,11.019,0,0,1,1.6.426,2.628,2.628,0,0,1,2.013,2.558,2.481,2.481,0,0,1-1.116,2.1,4.815,4.815,0,0,1-2.883.8A5.029,5.029,0,0,1,16.545-.25a3.561,3.561,0,0,1-1.455-1.169,2.716,2.716,0,0,1-.527-1.6h2.408a1.326,1.326,0,0,0,.5,1.037,1.987,1.987,0,0,0,1.248.36,1.839,1.839,0,0,0,1.1-.277A.861.861,0,0,0,20.2-2.628Z" transform="translate(1163 8974.433)" fill="#12263f"/>
    <path id="Trazado_824917" data-name="Trazado 824917" d="M-33.073-10.661h-3.92V0H-39.63V-10.661H-43.5V-12.8h10.424ZM-27.7,0a2.821,2.821,0,0,1-.255-.853,3.073,3.073,0,0,1-2.4,1.028,3.376,3.376,0,0,1-2.316-.809,2.6,2.6,0,0,1-.918-2.039,2.687,2.687,0,0,1,1.121-2.32,5.529,5.529,0,0,1,3.239-.817h1.169v-.545A1.567,1.567,0,0,0-28.4-7.409a1.331,1.331,0,0,0-1.068-.4,1.513,1.513,0,0,0-1.006.308,1.045,1.045,0,0,0-.365.844h-2.54a2.551,2.551,0,0,1,.51-1.529,3.37,3.37,0,0,1,1.441-1.1,5.253,5.253,0,0,1,2.092-.4,4.15,4.15,0,0,1,2.791.883,3.09,3.09,0,0,1,1.033,2.483V-2.2a4.546,4.546,0,0,0,.378,2.048V0Zm-2.1-1.767a2.188,2.188,0,0,0,1.037-.25,1.645,1.645,0,0,0,.7-.672V-4.324h-.949q-1.907,0-2.03,1.318l-.009.149a1.017,1.017,0,0,0,.334.782A1.3,1.3,0,0,0-29.8-1.767Zm14.8-2.9a5.7,5.7,0,0,1-1,3.52A3.2,3.2,0,0,1-18.694.176a2.963,2.963,0,0,1-2.329-1V3.656h-2.54V-9.51h2.355l.088.932a2.985,2.985,0,0,1,2.408-1.107,3.22,3.22,0,0,1,2.733,1.3A5.858,5.858,0,0,1-15-4.8Zm-2.54-.185a3.743,3.743,0,0,0-.47-2.048A1.532,1.532,0,0,0-19.38-7.62a1.663,1.663,0,0,0-1.644.914v3.894a1.692,1.692,0,0,0,1.661.94Q-17.543-1.872-17.543-4.852ZM-7.919,0a2.821,2.821,0,0,1-.255-.853,3.073,3.073,0,0,1-2.4,1.028,3.376,3.376,0,0,1-2.316-.809,2.6,2.6,0,0,1-.918-2.039,2.687,2.687,0,0,1,1.121-2.32A5.529,5.529,0,0,1-9.448-5.81h1.169v-.545a1.567,1.567,0,0,0-.338-1.055,1.331,1.331,0,0,0-1.068-.4,1.513,1.513,0,0,0-1.006.308,1.045,1.045,0,0,0-.365.844H-13.6a2.551,2.551,0,0,1,.51-1.529,3.37,3.37,0,0,1,1.441-1.1,5.253,5.253,0,0,1,2.092-.4A4.15,4.15,0,0,1-6.763-8.8,3.09,3.09,0,0,1-5.73-6.319V-2.2A4.546,4.546,0,0,0-5.353-.149V0Zm-2.1-1.767a2.188,2.188,0,0,0,1.037-.25,1.645,1.645,0,0,0,.7-.672V-4.324h-.949q-1.907,0-2.03,1.318l-.009.149a1.017,1.017,0,0,0,.334.782A1.3,1.3,0,0,0-10.02-1.767Zm14.81-2.9A5.758,5.758,0,0,1,3.814-1.1,3.231,3.231,0,0,1,1.09.176,2.969,2.969,0,0,1-1.38-1.011L-1.494,0H-3.779V-13.5h2.54v4.843A2.893,2.893,0,0,1,1.072-9.686,3.258,3.258,0,0,1,3.8-8.407a5.767,5.767,0,0,1,.989,3.6ZM2.25-4.852a3.783,3.783,0,0,0-.457-2.1A1.545,1.545,0,0,0,.431-7.62a1.676,1.676,0,0,0-1.67.993v3.753a1.7,1.7,0,0,0,1.688,1A1.568,1.568,0,0,0,2.065-3.085,6.257,6.257,0,0,0,2.25-4.852Zm3.709.009A5.64,5.64,0,0,1,6.5-7.365,3.989,3.989,0,0,1,8.073-9.079a4.577,4.577,0,0,1,2.377-.606,4.33,4.33,0,0,1,3.142,1.178,4.727,4.727,0,0,1,1.358,3.2l.018.65a4.97,4.97,0,0,1-1.222,3.511A4.247,4.247,0,0,1,10.468.176,4.268,4.268,0,0,1,7.185-1.143,5.058,5.058,0,0,1,5.959-4.729Zm2.54.18a3.555,3.555,0,0,0,.51,2.073,1.682,1.682,0,0,0,1.459.717,1.686,1.686,0,0,0,1.441-.709,3.89,3.89,0,0,0,.519-2.267,3.519,3.519,0,0,0-.519-2.06,1.686,1.686,0,0,0-1.459-.731,1.658,1.658,0,0,0-1.441.726A3.955,3.955,0,0,0,8.5-4.662Zm11.988,2.79a1.666,1.666,0,0,0,1.143-.387,1.355,1.355,0,0,0,.457-1.028h2.382a3.258,3.258,0,0,1-.527,1.771A3.48,3.48,0,0,1,22.522-.268a4.442,4.442,0,0,1-1.991.444,4.129,4.129,0,0,1-3.217-1.3A5.13,5.13,0,0,1,16.137-4.7v-.167a5.071,5.071,0,0,1,1.169-3.507,4.08,4.08,0,0,1,3.208-1.31A4,4,0,0,1,23.375-8.67a3.594,3.594,0,0,1,1.094,2.7H22.087a1.745,1.745,0,0,0-.457-1.206,1.524,1.524,0,0,0-1.16-.464,1.53,1.53,0,0,0-1.34.647,3.749,3.749,0,0,0-.453,2.1v.264a3.8,3.8,0,0,0,.448,2.113A1.549,1.549,0,0,0,20.487-1.872ZM31.43,0a2.821,2.821,0,0,1-.255-.853,3.073,3.073,0,0,1-2.4,1.028,3.376,3.376,0,0,1-2.316-.809,2.6,2.6,0,0,1-.918-2.039,2.687,2.687,0,0,1,1.121-2.32A5.529,5.529,0,0,1,29.9-5.81h1.169v-.545a1.567,1.567,0,0,0-.338-1.055,1.331,1.331,0,0,0-1.068-.4,1.513,1.513,0,0,0-1.006.308,1.045,1.045,0,0,0-.365.844h-2.54a2.551,2.551,0,0,1,.51-1.529,3.37,3.37,0,0,1,1.441-1.1,5.253,5.253,0,0,1,2.092-.4,4.15,4.15,0,0,1,2.791.883,3.09,3.09,0,0,1,1.033,2.483V-2.2A4.546,4.546,0,0,0,34-.149V0Zm-2.1-1.767a2.188,2.188,0,0,0,1.037-.25,1.645,1.645,0,0,0,.7-.672V-4.324H30.12q-1.907,0-2.03,1.318l-.009.149a1.017,1.017,0,0,0,.334.782A1.3,1.3,0,0,0,29.329-1.767ZM40.72-2.628a.818.818,0,0,0-.461-.734,5.241,5.241,0,0,0-1.481-.479q-3.393-.712-3.393-2.883a2.613,2.613,0,0,1,1.05-2.114,4.237,4.237,0,0,1,2.747-.848,4.56,4.56,0,0,1,2.9.853,2.687,2.687,0,0,1,1.085,2.215h-2.54a1.229,1.229,0,0,0-.352-.9,1.488,1.488,0,0,0-1.1-.356,1.52,1.52,0,0,0-.993.29.916.916,0,0,0-.352.738.783.783,0,0,0,.4.681,4.114,4.114,0,0,0,1.349.448,11.019,11.019,0,0,1,1.6.426,2.628,2.628,0,0,1,2.013,2.558,2.481,2.481,0,0,1-1.116,2.1,4.815,4.815,0,0,1-2.883.8A5.029,5.029,0,0,1,37.068-.25a3.561,3.561,0,0,1-1.455-1.169,2.716,2.716,0,0,1-.527-1.6h2.408A1.326,1.326,0,0,0,38-1.986a1.987,1.987,0,0,0,1.248.36,1.839,1.839,0,0,0,1.1-.277A.861.861,0,0,0,40.72-2.628Z" transform="translate(1171 8706.933)" fill="#12263f"/>
    <path id="Trazado_824918" data-name="Trazado 824918" d="M-12.366-1.617A4.577,4.577,0,0,1-14.379-.294a8.429,8.429,0,0,1-2.883.47,5.711,5.711,0,0,1-2.914-.725,4.836,4.836,0,0,1-1.934-2.1,7.408,7.408,0,0,1-.7-3.243v-.87a7.868,7.868,0,0,1,.646-3.318A4.779,4.779,0,0,1-20.3-12.23a5.367,5.367,0,0,1,2.852-.743,5.345,5.345,0,0,1,3.56,1.085,4.639,4.639,0,0,1,1.521,3.16h-2.566a2.552,2.552,0,0,0-.778-1.608,2.484,2.484,0,0,0-1.657-.51,2.338,2.338,0,0,0-2.048,1.011,5.315,5.315,0,0,0-.712,3.006v.817a5.06,5.06,0,0,0,.765,3.041,2.618,2.618,0,0,0,2.241,1.028A2.925,2.925,0,0,0-15-2.575V-4.781h-2.4V-6.724h5.036ZM-4.887,0a2.821,2.821,0,0,1-.255-.853A3.073,3.073,0,0,1-7.541.176,3.376,3.376,0,0,1-9.857-.633a2.6,2.6,0,0,1-.918-2.039,2.687,2.687,0,0,1,1.121-2.32A5.529,5.529,0,0,1-6.416-5.81h1.169v-.545a1.567,1.567,0,0,0-.338-1.055,1.331,1.331,0,0,0-1.068-.4A1.513,1.513,0,0,0-7.66-7.5a1.045,1.045,0,0,0-.365.844h-2.54a2.551,2.551,0,0,1,.51-1.529,3.37,3.37,0,0,1,1.441-1.1,5.253,5.253,0,0,1,2.092-.4A4.15,4.15,0,0,1-3.731-8.8,3.09,3.09,0,0,1-2.7-6.319V-2.2A4.546,4.546,0,0,0-2.32-.149V0Zm-2.1-1.767a2.188,2.188,0,0,0,1.037-.25,1.645,1.645,0,0,0,.7-.672V-4.324H-6.2q-1.907,0-2.03,1.318l-.009.149a1.017,1.017,0,0,0,.334.782A1.3,1.3,0,0,0-6.987-1.767ZM-.053,0V-7.646H-1.468V-9.51H-.053v-.809A3.283,3.283,0,0,1,.866-12.8a3.557,3.557,0,0,1,2.571-.883,5.938,5.938,0,0,1,1.292.176L4.7-11.54a3.238,3.238,0,0,0-.773-.079q-1.433,0-1.433,1.345v.765h1.89v1.863H2.5V0ZM11.215,0a2.821,2.821,0,0,1-.255-.853A3.073,3.073,0,0,1,8.561.176,3.376,3.376,0,0,1,6.245-.633a2.6,2.6,0,0,1-.918-2.039,2.687,2.687,0,0,1,1.121-2.32A5.529,5.529,0,0,1,9.686-5.81h1.169v-.545a1.567,1.567,0,0,0-.338-1.055,1.331,1.331,0,0,0-1.068-.4A1.513,1.513,0,0,0,8.442-7.5a1.045,1.045,0,0,0-.365.844H5.537a2.551,2.551,0,0,1,.51-1.529,3.37,3.37,0,0,1,1.441-1.1,5.253,5.253,0,0,1,2.092-.4,4.15,4.15,0,0,1,2.791.883A3.09,3.09,0,0,1,13.4-6.319V-2.2a4.546,4.546,0,0,0,.378,2.048V0Zm-2.1-1.767a2.188,2.188,0,0,0,1.037-.25,1.645,1.645,0,0,0,.7-.672V-4.324H9.905Q8-4.324,7.875-3.006l-.009.149a1.017,1.017,0,0,0,.334.782A1.3,1.3,0,0,0,9.114-1.767ZM20.5-2.628a.818.818,0,0,0-.461-.734,5.241,5.241,0,0,0-1.481-.479Q15.17-4.553,15.17-6.724a2.613,2.613,0,0,1,1.05-2.114,4.237,4.237,0,0,1,2.747-.848,4.56,4.56,0,0,1,2.9.853,2.687,2.687,0,0,1,1.085,2.215h-2.54a1.229,1.229,0,0,0-.352-.9,1.488,1.488,0,0,0-1.1-.356,1.52,1.52,0,0,0-.993.29.916.916,0,0,0-.352.738.783.783,0,0,0,.4.681,4.114,4.114,0,0,0,1.349.448,11.019,11.019,0,0,1,1.6.426,2.628,2.628,0,0,1,2.013,2.558,2.481,2.481,0,0,1-1.116,2.1,4.815,4.815,0,0,1-2.883.8A5.029,5.029,0,0,1,16.853-.25,3.561,3.561,0,0,1,15.4-1.419a2.716,2.716,0,0,1-.527-1.6h2.408a1.326,1.326,0,0,0,.5,1.037,1.987,1.987,0,0,0,1.248.36,1.839,1.839,0,0,0,1.1-.277A.861.861,0,0,0,20.5-2.628Z" transform="translate(410 8842.433)" fill="#12263f"/>
    <path id="Trazado_824919" data-name="Trazado 824919" d="M-18.562-4.263a4.528,4.528,0,0,1-1.525,3.252A5.355,5.355,0,0,1-23.713.176a4.816,4.816,0,0,1-3.872-1.657A6.793,6.793,0,0,1-29-6.029v-.782a7.671,7.671,0,0,1,.65-3.252,4.874,4.874,0,0,1,1.859-2.158,5.207,5.207,0,0,1,2.808-.751,5.217,5.217,0,0,1,3.568,1.187,4.866,4.866,0,0,1,1.564,3.331h-2.637a2.673,2.673,0,0,0-.69-1.8,2.555,2.555,0,0,0-1.806-.558,2.24,2.24,0,0,0-1.973.945,5.3,5.3,0,0,0-.672,2.931v.967a5.667,5.667,0,0,0,.628,3.032,2.2,2.2,0,0,0,1.982.958,2.6,2.6,0,0,0,1.824-.558,2.521,2.521,0,0,0,.69-1.727ZM-11.487,0a2.821,2.821,0,0,1-.255-.853,3.073,3.073,0,0,1-2.4,1.028,3.376,3.376,0,0,1-2.316-.809,2.6,2.6,0,0,1-.918-2.039,2.687,2.687,0,0,1,1.121-2.32,5.529,5.529,0,0,1,3.239-.817h1.169v-.545a1.567,1.567,0,0,0-.338-1.055,1.331,1.331,0,0,0-1.068-.4A1.513,1.513,0,0,0-14.26-7.5a1.045,1.045,0,0,0-.365.844h-2.54a2.551,2.551,0,0,1,.51-1.529,3.37,3.37,0,0,1,1.441-1.1,5.253,5.253,0,0,1,2.092-.4,4.15,4.15,0,0,1,2.791.883A3.09,3.09,0,0,1-9.3-6.319V-2.2A4.546,4.546,0,0,0-8.921-.149V0Zm-2.1-1.767a2.188,2.188,0,0,0,1.037-.25,1.645,1.645,0,0,0,.7-.672V-4.324H-12.8q-1.907,0-2.03,1.318l-.009.149a1.017,1.017,0,0,0,.334.782A1.3,1.3,0,0,0-13.588-1.767ZM-2.2-2.628a.818.818,0,0,0-.461-.734A5.241,5.241,0,0,0-4.14-3.841q-3.393-.712-3.393-2.883a2.613,2.613,0,0,1,1.05-2.114,4.237,4.237,0,0,1,2.747-.848,4.56,4.56,0,0,1,2.9.853A2.687,2.687,0,0,1,.246-6.618h-2.54a1.229,1.229,0,0,0-.352-.9,1.488,1.488,0,0,0-1.1-.356,1.52,1.52,0,0,0-.993.29.916.916,0,0,0-.352.738.783.783,0,0,0,.4.681,4.114,4.114,0,0,0,1.349.448,11.019,11.019,0,0,1,1.6.426A2.628,2.628,0,0,1,.272-2.733,2.481,2.481,0,0,1-.844-.628a4.815,4.815,0,0,1-2.883.8A5.029,5.029,0,0,1-5.849-.25,3.561,3.561,0,0,1-7.3-1.419a2.716,2.716,0,0,1-.527-1.6h2.408a1.326,1.326,0,0,0,.5,1.037,1.987,1.987,0,0,0,1.248.36,1.839,1.839,0,0,0,1.1-.277A.861.861,0,0,0-2.2-2.628Zm8.06.756A1.666,1.666,0,0,0,7-2.259a1.355,1.355,0,0,0,.457-1.028H9.844a3.258,3.258,0,0,1-.527,1.771A3.48,3.48,0,0,1,7.9-.268,4.442,4.442,0,0,1,5.906.176a4.129,4.129,0,0,1-3.217-1.3A5.13,5.13,0,0,1,1.512-4.7v-.167A5.071,5.071,0,0,1,2.681-8.376a4.08,4.08,0,0,1,3.208-1.31A4,4,0,0,1,8.75-8.67a3.594,3.594,0,0,1,1.094,2.7H7.462A1.745,1.745,0,0,0,7-7.174a1.524,1.524,0,0,0-1.16-.464,1.53,1.53,0,0,0-1.34.647,3.749,3.749,0,0,0-.453,2.1v.264A3.8,3.8,0,0,0,4.5-2.515,1.549,1.549,0,0,0,5.862-1.872ZM10.9-4.843a5.64,5.64,0,0,1,.545-2.522,3.989,3.989,0,0,1,1.569-1.714,4.577,4.577,0,0,1,2.377-.606,4.33,4.33,0,0,1,3.142,1.178,4.727,4.727,0,0,1,1.358,3.2l.018.65a4.97,4.97,0,0,1-1.222,3.511A4.247,4.247,0,0,1,15.407.176a4.268,4.268,0,0,1-3.283-1.318A5.058,5.058,0,0,1,10.9-4.729Zm2.54.18a3.555,3.555,0,0,0,.51,2.073,1.682,1.682,0,0,0,1.459.717,1.686,1.686,0,0,0,1.441-.709,3.89,3.89,0,0,0,.519-2.267,3.519,3.519,0,0,0-.519-2.06,1.686,1.686,0,0,0-1.459-.731,1.658,1.658,0,0,0-1.441.726A3.955,3.955,0,0,0,13.438-4.662ZM26.622-2.628a.818.818,0,0,0-.461-.734,5.241,5.241,0,0,0-1.481-.479q-3.393-.712-3.393-2.883a2.613,2.613,0,0,1,1.05-2.114,4.237,4.237,0,0,1,2.747-.848,4.56,4.56,0,0,1,2.9.853,2.687,2.687,0,0,1,1.085,2.215h-2.54a1.229,1.229,0,0,0-.352-.9,1.488,1.488,0,0,0-1.1-.356,1.52,1.52,0,0,0-.993.29.916.916,0,0,0-.352.738.783.783,0,0,0,.4.681,4.114,4.114,0,0,0,1.349.448,11.019,11.019,0,0,1,1.6.426,2.628,2.628,0,0,1,2.013,2.558,2.481,2.481,0,0,1-1.116,2.1,4.815,4.815,0,0,1-2.883.8A5.029,5.029,0,0,1,22.97-.25a3.561,3.561,0,0,1-1.455-1.169,2.716,2.716,0,0,1-.527-1.6H23.4a1.326,1.326,0,0,0,.5,1.037,1.987,1.987,0,0,0,1.248.36,1.839,1.839,0,0,0,1.1-.277A.861.861,0,0,0,26.622-2.628Z" transform="translate(816 8542.433)" fill="#12263f"/>
  </g>
</svg>
