<svg xmlns="http://www.w3.org/2000/svg" xmlns:xlink="http://www.w3.org/1999/xlink" width="190" height="190" viewBox="0 0 190 190">
  <defs>
    <clipPath id="clip-path">
      <rect id="Rect치ngulo_377990" data-name="Rect치ngulo 377990" width="190" height="190" transform="translate(1069 908)" fill="#fff" stroke="#707070" stroke-width="1"/>
    </clipPath>
    <clipPath id="clip-path-2">
      <rect id="Rect치ngulo_377991" data-name="Rect치ngulo 377991" width="162.499" height="162" fill="none"/>
    </clipPath>
  </defs>
  <g id="Enmascarar_grupo_393" data-name="Enmascarar grupo 393" transform="translate(-1069 -908)" clip-path="url(#clip-path)">
    <g id="Grupo_1074080" data-name="Grupo 1074080" transform="translate(1083 922)">
      <g id="Grupo_1074079" data-name="Grupo 1074079" clip-path="url(#clip-path-2)">
        <path id="Trazado_819835" data-name="Trazado 819835" d="M118.5,2.347c.2-1.623.907-2.219,2.758-2.28,3.987-.13,7.981-.028,11.972-.054a10.723,10.723,0,0,1,3.452.442,5.568,5.568,0,0,1,3.091,2.677,6.2,6.2,0,0,1,.663,3.407q0,14.59-.008,29.18a1.445,1.445,0,0,0,.469,1.146c1.6,1.538,3.07,3.219,4.789,4.637a14.34,14.34,0,0,0,2.437,1.427c2.3,1.239,4.747,1.061,7.189,1.071,1.4.006,2.789.025,4.183.146a3.431,3.431,0,0,1,2.685,2.48,10.573,10.573,0,0,1,.319,2.6q0,16.15-.006,32.3a12.7,12.7,0,0,1-.3,2.39c-.192,1-2.417,2.667-3.583,2.654-5.829-.064-11.659-.019-17.488-.045-.591,0-.7.176-.692.718.027,2.516.008,5.033.013,7.549a5.173,5.173,0,0,1-2.127,4.1,7.335,7.335,0,0,1-5.063,1.423H42.326c-1.016,0-2.033.027-3.047-.013-.6-.023-.789.168-.787.783.02,9,.04,18-.012,27a2.6,2.6,0,0,0,1.284,2.579,14.277,14.277,0,0,1,3.9,3.916.976.976,0,0,0,.945.459c11.385-.274,22.773-.055,34.16-.123a12.053,12.053,0,0,1,3.006.254,2.087,2.087,0,0,1,1.778,2.228,2.136,2.136,0,0,1-1.837,2.135,6.126,6.126,0,0,1-1.154.106q-16.906,0-33.812-.018c-.446,0-.529.073-.451.52a42.334,42.334,0,0,1,.648,4.441,9.805,9.805,0,0,1-.46,3.437c-.107.354.013.368.266.372q.543.009,1.088.009,32.037,0,64.074,0a4.813,4.813,0,0,0,3.3-.979,4.434,4.434,0,0,0,1.115-5.021,3.752,3.752,0,0,0-3.927-2.693c-3.988-.1-7.979-.044-11.969-.051q-3.7-.006-7.4-.008a2.462,2.462,0,0,1-2.367-2.157,2.289,2.289,0,0,1,1.955-2.437,5.711,5.711,0,0,1,1.941-.128c.2.362.406.361.611,0,5.248,0,10.5-.016,15.744,0,1.244,0,2.482.2,3.723.291a6.054,6.054,0,0,1,1.927.828,8.525,8.525,0,0,1,3.391,3.072,8.889,8.889,0,0,1-.925,11,10.219,10.219,0,0,1-8.348,3.055c-.362-.016-.725-.019-1.087-.02l-63.7,0c-.242,0-.485.011-.725-.013a.839.839,0,0,0-.907.5,16.638,16.638,0,0,1-5.743,5.749,18.4,18.4,0,0,1-6.689,2.388,16.27,16.27,0,0,1-5.681-.079,17.174,17.174,0,0,1-6.242-2.585,17.962,17.962,0,0,1-7.429-10.229,20.18,20.18,0,0,1-.379-5.146,13.555,13.555,0,0,1,1.105-5.775,17.836,17.836,0,0,1,4.3-6.154,14.637,14.637,0,0,1,2.147-1.678,1.318,1.318,0,0,0,.624-1.049,3.6,3.6,0,0,0,0-.507q0-32.261-.007-64.521a3.031,3.031,0,0,1,1.023-2.569,1.942,1.942,0,0,1,2.157-.373,2.178,2.178,0,0,1,1.483,2.031c-.011.652.031,1.305.031,1.958q0,30.555-.007,61.11c0,.218-.008.436-.017.653-.033.776.093.9.836.74a14.462,14.462,0,0,1,6.994,0c.9.245,1.058.02,1.056-1.029q-.01-9.035,0-18.07,0-45.033.012-90.065A7.173,7.173,0,0,0,30.2,11.817a6.474,6.474,0,0,0-3.334-.93q-8.925.006-17.849.012a4.36,4.36,0,0,0-.4,8.7,20.1,20.1,0,0,0,2.752.078q4.347-.11,8.692.08a5.144,5.144,0,0,1,4.854,4.916q.03,13.317.047,26.635a4.883,4.883,0,0,1-.306,1.816,2.335,2.335,0,0,1-2.632.978,2.518,2.518,0,0,1-1.775-2.639c.03-6.9.013-13.79.013-20.685q0-2.613,0-5.225c0-1.04-.048-1.132-1.137-1.148-2.757-.042-5.515-.042-8.273-.058a.2.2,0,0,0-.206-.228c-.166-.012-.269.051-.274.23a9.57,9.57,0,0,1-8.173-3.285A8.781,8.781,0,0,1,.083,16.393,9.071,9.071,0,0,1,5.9,6.792a10.6,10.6,0,0,1,3.847-.6c5.363-.005,10.727-.046,16.09,0A12.813,12.813,0,0,1,33.595,8.51c0,.111.065.192.169.169.146-.031.162-.147.11-.275A24.538,24.538,0,0,1,33.884,5,5.262,5.262,0,0,1,37.3.492,5.216,5.216,0,0,1,39.44.029Q61.5.037,83.552.023c8.416,0,16.832-.015,25.248.016,1.148,0,2.344.15,2.845,1.489.1.266.151.55.225.825-.208,1.681-.921,2.316-2.61,2.316-2.829,0-5.659.013-8.489-.01-.557-.005-.777.2-.675.716a9.6,9.6,0,0,1,.136,1.862q0,10.233,0,20.466a9.632,9.632,0,0,1-.144,1.722,3.931,3.931,0,0,1-5.266,3.013,12.22,12.22,0,0,1-3.128-2.15c-1.349-1.013-2.626-2.123-3.922-3.2a.928.928,0,0,0-1.371.027q-2.529,2.087-5.115,4.106a5.857,5.857,0,0,1-1.937,1.3,4.062,4.062,0,0,1-5.271-4.15c.04-7.547.009-15.095.012-22.642,0-.938-.1-1.059-1-1.059H45.663c-2.008,0-4.015.008-6.022,0-.438,0-.947.055-.969.532-.02.44-.144.859-.144,1.3q.024,27.4.016,54.795,0,16.837-.037,33.675c0,.549.264.576.67.574q3.084-.016,6.167-.013l88.953.008c1.268,0,1.4-.128,1.43-1.406.033-1.425.045-2.85.066-4.275l.111-.053-.11-.054q-.016-1.246-.032-2.492a.1.1,0,0,0,.011-.128c.1-.757-.463-.587-.858-.587q-15.164-.01-30.328,0a7.4,7.4,0,0,1-2.717-.5,7.576,7.576,0,0,1-4.63-9.63c.164-.539.034-.738-.467-.917a7.558,7.558,0,0,1-4.949-7.064,6.54,6.54,0,0,1,.358-2.318c.179-.5.2-.881-.514-1.008a5.3,5.3,0,0,1-2.035-1.061,7.487,7.487,0,0,1,1.715-13.1c1.017-.4,1.031-.441.762-1.52a7.293,7.293,0,0,1,2.058-7.385,6.7,6.7,0,0,1,4.783-2.09c7.254-.109,14.509-.076,21.764-.024.172,0,.418.145.5-.113.052-.168-.141-.285-.246-.415-.439-.547-1.094-.846-1.537-1.4a11.107,11.107,0,0,1-2.023-4.306,5.457,5.457,0,0,1,.116-2.558,7.982,7.982,0,0,1,9.261-6.31,6.579,6.579,0,0,1,3.6,1.656c1.47,1.436,2.913,2.9,4.373,4.348a3,3,0,0,0,.616.488c.228.128.432.1.4-.25a.087.087,0,0,0-.008-.118c0-.1,0-.209,0-.313a.517.517,0,0,0-.006-.417q-.007-10.98-.017-21.962c0-.893-.037-1.786-.077-2.679-.025-.568-.352-.8-.91-.932a7.131,7.131,0,0,0-1.78.017c-3.913-.005-7.827-.056-11.738.023A2.526,2.526,0,0,1,118.5,2.347M100.391,44.677c-.062-.084-.118-.068-.168.012L99.8,44.7c-.053-.059-.1-.051-.149.008-.193.006-.385.015-.577.02a2.917,2.917,0,0,0-2.624,2.889,3.1,3.1,0,0,0,2.858,2.768c.984.035,1.972-.019,2.957-.033q4.278.019,8.555.039c1.837.006,3.674-.015,5.511.015a2.288,2.288,0,0,1,2.189,2.912,2.716,2.716,0,0,1-2.627,1.868q-9.716.013-19.433.02c-.916-.006-1.833-.045-2.748-.012a2.834,2.834,0,0,0-2.493,2.71,2.958,2.958,0,0,0,2.358,2.921A28.915,28.915,0,0,0,96.9,60.8c.458.016.917.045,1.374.045q8.373.005,16.745,0c.386,0,.774-.01,1.16.01a2.4,2.4,0,0,1,2.336,3.075,2.832,2.832,0,0,1-2.479,1.711q-6.958.012-13.917.019c-1.012-.005-2.024-.046-3.034-.008a2.843,2.843,0,0,0-2.606,2.881,2.887,2.887,0,0,0,2.678,2.777c.987,0,1.974-.025,2.962-.039l12.525.04c.579,0,1.161-.023,1.737.021a2.506,2.506,0,0,1,2.268,2.454A2.56,2.56,0,0,1,116.18,76.1q-4.416,0-8.832.019a10.015,10.015,0,0,0-3.713.124,2.681,2.681,0,0,0-2.1,3.038,2.776,2.776,0,0,0,2.557,2.48c.939.014,1.878-.015,2.818-.025.58.015,1.16.041,1.74.041,9.214,0,18.428-.024,27.642.012,6.863.027,13.727-.154,20.59.1.413.016.992.293.989-.637q-.047-15.929,0-31.859c0-.621-.234-.731-.752-.73-1.717,0-3.433-.019-5.15-.021a11.763,11.763,0,0,1-3.175-.469,17.981,17.981,0,0,1-7.692-4.5c-4.607-4.473-8.984-9.18-13.709-13.533-.347-.731-1.094-.557-1.651-.617a3.068,3.068,0,0,0-3.6,2.98,3.42,3.42,0,0,0,1.272,2.781c1.6,1.609,3.22,3.2,4.832,4.8.568.564,1.156,1.119,1.033,2.036a2.275,2.275,0,0,1-2.266,2.521,5.138,5.138,0,0,1-.791.057q-11,0-22.009-.006c-.844,0-1.688.019-2.532.029l-1.292-.049M78.863,4.774c-.023.127-.047.253-.07.38v.038q.01,10.514.022,21.028a.667.667,0,0,0,.047.614c.357.24.5-.133.69-.275,1.67-1.274,3.319-2.577,4.981-3.861a3.963,3.963,0,0,1,4.729-.3,68.7,68.7,0,0,1,5.432,4.22c.185.171.369.472.655.36s.128-.432.128-.653c0-7.009-.015-14.018,0-21.027,0-.62-.288-.637-.749-.636q-7.611.013-15.222.008a1.051,1.051,0,0,0-.635.079Zm-62.1,139.787a12.648,12.648,0,0,0,12.606,12.755c7.624-.156,12.541-5.047,12.73-12.8a12.294,12.294,0,0,0-12.494-12.6,12.344,12.344,0,0,0-12.841,12.644" transform="translate(0 0)"/>
        <path id="Trazado_819836" data-name="Trazado 819836" d="M163.374,88.95l.031,2.492a.073.073,0,0,0,0,.107c-.022,1.425-.033,2.85-.066,4.275-.03,1.278-.162,1.406-1.43,1.406l-88.953-.008q-3.084,0-6.167.013c-.406,0-.672-.025-.67-.574q.037-16.837.037-33.675,0-27.4-.016-54.794c0-.445.124-.863.144-1.3.022-.477.531-.533.969-.532,2.008,0,4.015,0,6.022,0H100.7c.9,0,1,.121,1,1.059,0,7.547.028,15.095-.012,22.642a4.061,4.061,0,0,0,5.271,4.15,5.857,5.857,0,0,0,1.937-1.3q2.581-2.025,5.115-4.106a.928.928,0,0,1,1.371-.027c1.3,1.082,2.574,2.191,3.923,3.2a12.205,12.205,0,0,0,3.128,2.15,3.931,3.931,0,0,0,5.266-3.013,9.643,9.643,0,0,0,.144-1.722q-.007-10.233,0-20.466a9.6,9.6,0,0,0-.136-1.862c-.1-.519.118-.721.675-.716,2.829.024,5.659.012,8.489.01,1.688,0,2.4-.634,2.61-2.316a4.106,4.106,0,0,0,1.989.1,25.8,25.8,0,0,1,3.878.034,1.031,1.031,0,0,0,.762-.14,2.526,2.526,0,0,0,2.738,2.347c3.911-.079,7.826-.028,11.738-.022a7.077,7.077,0,0,1,1.78-.017c.558.136.885.363.91.931.04.893.076,1.786.077,2.68q.016,10.98.017,21.961a.341.341,0,0,0,.006.417c0,.1,0,.208,0,.313-.012.011-.034.026-.032.034a.529.529,0,0,0,.04.084c.03.347-.174.379-.4.25a3,3,0,0,1-.616-.488c-1.461-1.447-2.9-2.912-4.373-4.348a6.579,6.579,0,0,0-3.6-1.656,7.982,7.982,0,0,0-9.261,6.31,5.457,5.457,0,0,0-.116,2.558,11.107,11.107,0,0,0,2.023,4.306c.443.558,1.1.857,1.538,1.4.1.13.3.246.245.415-.081.258-.327.114-.5.113-7.255-.052-14.51-.085-21.764.024a6.7,6.7,0,0,0-4.783,2.09,7.3,7.3,0,0,0-2.058,7.385c.268,1.079.255,1.12-.762,1.521a7.486,7.486,0,0,0-1.715,13.1,5.3,5.3,0,0,0,2.035,1.061c.713.127.693.5.514,1.008a6.541,6.541,0,0,0-.358,2.318,7.558,7.558,0,0,0,4.949,7.064c.5.179.631.378.467.917a7.577,7.577,0,0,0,4.63,9.631,7.413,7.413,0,0,0,2.717.5q15.164-.021,30.328,0c.4,0,.957-.169.858.586-.015.011-.043.024-.041.034a.525.525,0,0,0,.031.094m-62.8-3.829.413.02c.262.112.455-.1.67-.167a2.225,2.225,0,0,0,1.137-3.751,2.311,2.311,0,0,0-1.981-.814q-12.116-.032-24.233.006a2.667,2.667,0,0,0-1.879.524,2.472,2.472,0,0,0,1.5,4.206c3.215-.005,6.429.005,9.644,0q7.364-.008,14.728-.026M95.639,58.089l.295-.032a.322.322,0,0,0,.408.022c2.751.17,4.744-1.581,4.677-4.107a4.5,4.5,0,0,0-1.74-3.214c-2.567-2.376-5.118-4.768-7.689-7.139a3.946,3.946,0,0,0-4.77-.332c-.826.61-1.566,1.339-2.339,2.021q-1.9,1.674-3.791,3.355c-.957.85-1.9,1.718-2.87,2.553a3.543,3.543,0,0,0-1.308,2.943,4.34,4.34,0,0,0,4.508,4c.7-.006.841.218.837.873-.027,4.088.031,8.176-.022,12.264a4.092,4.092,0,0,0,4.093,4.153q2.793.033,5.586,0a4.269,4.269,0,0,0,2-.519,4.135,4.135,0,0,0,2.093-4c.009-4.256-.016-8.512-.029-12.767.05,0,.072-.025.065-.075" transform="translate(-27.611 -1.683)" fill="#e2ad82"/>
        <path id="Trazado_819837" data-name="Trazado 819837" d="M170.109,205.373a36.482,36.482,0,0,1-4.069-.114,4.888,4.888,0,0,1-2.408-1.34,3.362,3.362,0,0,1-1.052-2.543c-.094-1.377-.077-2.754-.066-4.132,0-.391-.117-.5-.5-.476-.626.036-1.257.006-1.885,0a4.324,4.324,0,0,1-3.9-2.914c-.754-1.747-.01-3.2,1.116-4.416,1.642-1.771,3.684-3.107,5.468-4.734q2.6-2.37,5.279-4.651a4.128,4.128,0,0,1,5.579-.028c1.5,1.224,2.817,2.638,4.221,3.962,1.8,1.7,3.6,3.408,5.407,5.1a5.287,5.287,0,0,1,1.782,3.256c.222,1.814-1.712,4.133-3.577,4.372a17.986,17.986,0,0,1-2.681,0c-.468-.009-.571.135-.563.568.024,1.354,0,2.709.01,4.064a4.117,4.117,0,0,1-3.593,3.909c-1.518.2-3.042.052-4.564.11m-8.363-13.309c.989,0,1.953-.01,2.918,0a2.351,2.351,0,0,1,2.372,1.833,21.162,21.162,0,0,1,.072,5.743c-.112.814-.019.992.8.991,1.667,0,3.335-.023,5,.012.542.012.7-.125.694-.685-.033-1.812-.021-3.625.012-5.437a2.437,2.437,0,0,1,2.526-2.457c.87-.005,1.74.009,2.61-.011.219,0,.533.157.647-.122s-.21-.39-.377-.546c-1.854-1.726-3.765-3.392-5.563-5.18-.711-.708-1.517-1.319-2.16-2.1-.26-.316-.487-.313-.832-.035-.533.432-.993.935-1.514,1.379-2.35,2-4.653,4.062-6.971,6.1a.489.489,0,0,0-.239.509" transform="translate(-65.111 -74.732)"/>
        <path id="Trazado_819838" data-name="Trazado 819838" d="M107.455,205.378c-1.118-.058-2.422.072-3.726-.08a4.232,4.232,0,0,1-3.905-3.528,26.837,26.837,0,0,1-.123-4.231c-.023-.565-.1-.762-.753-.748-1.4.03-2.853.152-4.076-.83a4.7,4.7,0,0,1-1.564-2.448,4.431,4.431,0,0,1,1.953-4.659c.472-.351.882-.79,1.334-1.177,2.808-2.412,5.57-4.876,8.353-7.318a4.53,4.53,0,0,1,3.292-1.365,4.483,4.483,0,0,1,2.684,1.073c.856.706,1.568,1.571,2.39,2.3.9.8,1.789,1.6,2.664,2.426,1.546,1.455,3.1,2.9,4.627,4.379a4.366,4.366,0,0,1,1.42,4.448,4.209,4.209,0,0,1-4.267,3.171c-.556-.006-1.113,0-1.667-.037-.437-.029-.6.115-.585.574.028,1.039-.052,2.083.009,3.118a4.562,4.562,0,0,1-4.9,4.929c-.991,0-1.983,0-3.16,0m3.273-4.744c.243-.213.134-.461.072-.7l-.024-.614a.217.217,0,0,0,.008-.282c.01-1.5,0-3,.036-4.5a2.5,2.5,0,0,1,2.577-2.457c.895,0,1.79.006,2.684-.011.189,0,.472.141.556-.15.062-.216-.173-.318-.312-.447-2.3-2.134-4.633-4.226-6.857-6.438-1.275-1.27-1.314-1.275-2.7-.08-2.538,2.189-5.05,4.409-7.571,6.619a.457.457,0,0,0-.224.507c.768,0,1.553.015,2.338,0,1.823-.043,3.2.8,3.13,3.111a32.441,32.441,0,0,1-.135,4.763c-.08.453.065.72.618.712,1.934-.03,3.869-.019,5.8-.024" transform="translate(-38.905 -74.745)"/>
        <path id="Trazado_819839" data-name="Trazado 819839" d="M162.975,231.638c-.205.359-.408.36-.611,0a1,1,0,0,1,.611,0" transform="translate(-67.802 -96.71)" fill="#485858"/>
        <path id="Trazado_819840" data-name="Trazado 819840" d="M17.822,41.649c.005-.179.108-.241.274-.23a.2.2,0,0,1,.206.228.572.572,0,0,1-.479,0" transform="translate(-7.442 -17.296)" fill="#485858"/>
        <path id="Trazado_819841" data-name="Trazado 819841" d="M57.964,14.431c.052.128.036.245-.11.275-.1.023-.167-.059-.169-.169l.28-.106" transform="translate(-24.089 -6.026)" fill="#485858"/>
        <path id="Trazado_819842" data-name="Trazado 819842" d="M176.274,97.731q4.416-.01,8.832-.019a2.56,2.56,0,0,0,2.472-2.312,2.505,2.505,0,0,0-2.268-2.454c-.577-.044-1.158-.019-1.737-.021l-12.524-.04a2.237,2.237,0,0,0-.193-.61c-.8-1.185-.575-2.463-.407-3.754.066-.506.709-.688.6-1.247q6.957-.009,13.916-.019a2.831,2.831,0,0,0,2.479-1.711,2.4,2.4,0,0,0-2.336-3.075c-.386-.02-.773-.01-1.16-.01q-8.372,0-16.744,0c-.458,0-.917-.03-1.375-.045a5.436,5.436,0,0,1-.743-3.238q.153-1.176.3-2.351,9.716-.01,19.433-.021a2.715,2.715,0,0,0,2.627-1.868,2.289,2.289,0,0,0-2.189-2.913c-1.837-.029-3.674-.008-5.511-.015q-4.278-.016-8.555-.04c-.02-.093-.011-.211-.065-.276a3.963,3.963,0,0,1-.85-3.077,11.313,11.313,0,0,0,.328-2.274c.844-.01,1.688-.029,2.532-.029q11,0,22.009.006a5.073,5.073,0,0,0,.792-.056,2.274,2.274,0,0,0,2.266-2.521c.211.04.447.162.628.106,1.084-.336,2.151.193,3.225.024.245-.038.547.338.7-.009.126-.284-.217-.5-.365-.736a3.939,3.939,0,0,0-.445-.472c-1.494-1.663-3.141-3.179-4.7-4.778-1.408-1.444-1.532-4.642-.937-6.118,4.725,4.354,9.1,9.061,13.709,13.533a17.981,17.981,0,0,0,7.692,4.5,11.762,11.762,0,0,0,3.175.469c1.717,0,3.434.026,5.151.021.518,0,.753.109.751.73q-.034,15.929,0,31.859c0,.93-.577.652-.99.637-6.862-.255-13.726-.073-20.589-.1-9.214-.037-18.428-.009-27.643-.012-.58,0-1.16-.027-1.74-.041a2.065,2.065,0,0,0-.281-1.15,3.222,3.222,0,0,1-.2-2.888c.222-.6.731-.987.916-1.579" transform="translate(-68.925 -21.613)" fill="#ffcdbe"/>
        <path id="Trazado_819843" data-name="Trazado 819843" d="M135.31,29.563q-.01-10.514-.022-21.027l.036-.018-.036-.02c.023-.127.047-.253.07-.379l.005-.025A1.055,1.055,0,0,1,136,8.014q7.612,0,15.223-.008c.461,0,.75.016.748.636-.015,7.009,0,14.017,0,21.026,0,.221.153.543-.128.653s-.469-.189-.655-.361a68.7,68.7,0,0,0-5.432-4.22,3.963,3.963,0,0,0-4.728.3c-1.663,1.284-3.312,2.586-4.981,3.861-.185.142-.333.515-.69.275a1.153,1.153,0,0,0-.047-.615" transform="translate(-56.496 -3.342)" fill="#dc4855"/>
        <path id="Trazado_819844" data-name="Trazado 819844" d="M28.77,239.148A12.345,12.345,0,0,1,41.612,226.5a12.3,12.3,0,0,1,12.495,12.6c-.189,7.757-5.107,12.648-12.73,12.8A12.649,12.649,0,0,1,28.77,239.148m4.646.069c-.46,4.4,4.1,8.276,8.247,8.129a8.157,8.157,0,0,0-.22-16.311c-4.07-.033-8.48,3.763-8.027,8.182" transform="translate(-12.012 -94.587)" fill="#485858"/>
        <path id="Trazado_819845" data-name="Trazado 819845" d="M214.964,51.3c-.6,1.476-.471,4.674.936,6.118,1.559,1.6,3.206,3.115,4.7,4.777a3.9,3.9,0,0,1,.445.473c.148.235.491.452.365.736-.155.347-.458-.029-.7.009-1.073.169-2.141-.361-3.225-.025-.181.056-.417-.066-.627-.106.123-.916-.464-1.471-1.033-2.036-1.612-1.6-3.229-3.194-4.832-4.8a3.42,3.42,0,0,1-1.272-2.781,3.067,3.067,0,0,1,3.595-2.979c.557.059,1.3-.114,1.651.616" transform="translate(-87.572 -21.154)" fill="#e2ad82"/>
        <path id="Trazado_819846" data-name="Trazado 819846" d="M171.3,112.724c.108.559-.534.741-.6,1.247-.168,1.291-.4,2.568.407,3.754a2.258,2.258,0,0,1,.193.61c-.987.014-1.974.041-2.962.039a2.888,2.888,0,0,1-2.678-2.777,2.844,2.844,0,0,1,2.606-2.881c1.01-.037,2.023,0,3.034.009" transform="translate(-69.177 -47.063)" fill="#e2ad82"/>
        <path id="Trazado_819847" data-name="Trazado 819847" d="M161.873,94.777q-.152,1.175-.3,2.351a5.437,5.437,0,0,0,.743,3.238,28.913,28.913,0,0,1-3.323.03,2.958,2.958,0,0,1-2.358-2.921,2.833,2.833,0,0,1,2.493-2.709c.915-.033,1.832.006,2.748.012" transform="translate(-65.408 -39.568)" fill="#e2ad82"/>
        <path id="Trazado_819848" data-name="Trazado 819848" d="M180.146,130.6c-.185.592-.694.98-.916,1.579a3.222,3.222,0,0,0,.2,2.888,2.065,2.065,0,0,1,.281,1.15c-.939.01-1.879.039-2.818.024a2.776,2.776,0,0,1-2.557-2.48,2.682,2.682,0,0,1,2.1-3.038,10.006,10.006,0,0,1,3.714-.124" transform="translate(-72.797 -54.485)" fill="#e2ad82"/>
        <path id="Trazado_819849" data-name="Trazado 819849" d="M170.84,76.76a11.306,11.306,0,0,1-.328,2.274,3.963,3.963,0,0,0,.85,3.077c.055.065.045.183.065.277-.986.014-1.973.068-2.957.033a3.1,3.1,0,0,1-2.859-2.768,2.919,2.919,0,0,1,2.624-2.889c.193,0,.385-.013.577-.02l.15-.008.418-.013.168-.012,1.292.048" transform="translate(-69.156 -32.035)" fill="#e2ad82"/>
        <path id="Trazado_819850" data-name="Trazado 819850" d="M135.288,45.021a1.153,1.153,0,0,1,.047.615.669.669,0,0,1-.047-.615" transform="translate(-56.474 -18.801)" fill="#485858"/>
        <path id="Trazado_819851" data-name="Trazado 819851" d="M233.061,52.317a.341.341,0,0,1-.006-.417.517.517,0,0,1,.006.417" transform="translate(-97.294 -21.673)" fill="#485858"/>
        <path id="Trazado_819852" data-name="Trazado 819852" d="M172.254,76.671l-.168.012c.05-.08.105-.1.168-.012" transform="translate(-71.862 -31.994)" fill="#485858"/>
        <path id="Trazado_819853" data-name="Trazado 819853" d="M233.086,149.747a.577.577,0,0,1-.031-.094c0-.009.027-.023.042-.034a.1.1,0,0,1-.011.128" transform="translate(-97.323 -62.48)" fill="#485858"/>
        <path id="Trazado_819854" data-name="Trazado 819854" d="M233.145,154.225a.072.072,0,0,1,0-.107l.11.054-.111.053" transform="translate(-97.351 -64.359)" fill="#485858"/>
        <path id="Trazado_819855" data-name="Trazado 819855" d="M171.261,76.726l-.15.008c.047-.058.1-.067.15-.008" transform="translate(-71.455 -32.024)" fill="#485858"/>
        <path id="Trazado_819856" data-name="Trazado 819856" d="M233.106,53.271a.53.53,0,0,1-.04-.084c0-.008.02-.023.032-.034a.088.088,0,0,1,.008.118" transform="translate(-97.328 -22.196)" fill="#485858"/>
        <path id="Trazado_819857" data-name="Trazado 819857" d="M135.288,8.85l.036.02-.036.018V8.85" transform="translate(-56.496 -3.696)" fill="#485858"/>
        <path id="Trazado_819858" data-name="Trazado 819858" d="M135.414,8.157l-.005.024.005-.024" transform="translate(-56.546 -3.406)" fill="#485858"/>
        <path id="Trazado_819859" data-name="Trazado 819859" d="M103.021,85.845c.012,4.256.038,8.512.029,12.767a4.136,4.136,0,0,1-2.094,4,4.259,4.259,0,0,1-2,.519q-2.793.029-5.586,0a4.092,4.092,0,0,1-4.094-4.153c.054-4.087,0-8.175.022-12.263,0-.656-.141-.879-.836-.873a4.34,4.34,0,0,1-4.508-4A3.541,3.541,0,0,1,85.267,78.9c.969-.836,1.912-1.7,2.87-2.554q1.892-1.68,3.791-3.355c.773-.681,1.513-1.41,2.339-2.021a3.946,3.946,0,0,1,4.769.332c2.571,2.371,5.123,4.763,7.689,7.139a4.5,4.5,0,0,1,1.74,3.214c.067,2.525-1.926,4.276-4.676,4.106a.465.465,0,0,0-.409-.022l-.294.031-.094.029.029.046m-.49-4.772.108-.192c-.169-.133-.348-.256-.507-.4q-2.459-2.257-4.912-4.519c-.722-.665-.731-.673-1.488-.017q-2.707,2.345-5.4,4.71c-.093.081-.262.157-.161.415.377,0,.779-.016,1.181,0a2.287,2.287,0,0,1,2.359,1.416,5.471,5.471,0,0,1,.351,1.876c-.014,4.524,0,9.048-.023,13.572,0,.459.13.577.571.563.991-.031,1.984-.042,2.974,0,.552.025.718-.112.715-.7-.027-4.766-.017-9.532-.014-14.3a2.356,2.356,0,0,1,2.447-2.434c.6,0,1.2,0,1.8,0" transform="translate(-35.057 -29.365)"/>
        <path id="Trazado_819860" data-name="Trazado 819860" d="M106.232,139.875q-7.364.013-14.728.026c-3.214,0-6.429-.007-9.643,0a2.472,2.472,0,0,1-1.5-4.206,2.669,2.669,0,0,1,1.879-.524q12.117-.046,24.233-.006a2.313,2.313,0,0,1,1.981.814,2.225,2.225,0,0,1-1.137,3.751c-.215.064-.409.278-.67.167-.129-.167-.27-.124-.413-.02" transform="translate(-33.266 -56.437)"/>
        <path id="Trazado_819861" data-name="Trazado 819861" d="M117.312,96.769a.463.463,0,0,1,.409.022.323.323,0,0,1-.409-.022" transform="translate(-48.989 -40.395)" fill="#485858"/>
        <path id="Trazado_819862" data-name="Trazado 819862" d="M125.284,143.2c.143-.1.284-.147.413.02l-.413-.02" transform="translate(-52.318 -59.761)" fill="#485858"/>
        <path id="Trazado_819863" data-name="Trazado 819863" d="M116.675,96.925l-.029-.046.094-.029c.006.05-.015.075-.065.075" transform="translate(-48.711 -40.444)" fill="#485858"/>
        <path id="Trazado_819864" data-name="Trazado 819864" d="M165.921,195.582a.489.489,0,0,1,.239-.509c2.318-2.041,4.621-4.1,6.971-6.1.521-.444.981-.948,1.514-1.379.344-.278.571-.281.832.035.643.78,1.449,1.391,2.16,2.1,1.8,1.788,3.708,3.454,5.563,5.18.168.156.493.262.377.546s-.428.118-.647.122c-.87.02-1.74.006-2.61.011a2.437,2.437,0,0,0-2.526,2.457c-.033,1.812-.045,3.625-.012,5.437.01.561-.153.7-.694.685-1.667-.034-3.335-.013-5-.012-.822,0-.916-.178-.8-.991a21.162,21.162,0,0,0-.072-5.743,2.351,2.351,0,0,0-2.372-1.833c-.964-.013-1.929,0-2.918,0" transform="translate(-69.285 -78.251)" fill="#e2ad82"/>
        <path id="Trazado_819865" data-name="Trazado 819865" d="M114.931,202.955q.012.307.024.613l-.072.706c-1.935,0-3.869-.005-5.8.024-.553.008-.7-.259-.618-.712a32.528,32.528,0,0,0,.135-4.763c.068-2.31-1.307-3.153-3.13-3.111-.785.019-1.571,0-2.338,0a.458.458,0,0,1,.224-.507c2.521-2.209,5.033-4.429,7.571-6.618,1.385-1.195,1.423-1.19,2.7.08,2.224,2.213,4.56,4.305,6.857,6.439.139.129.373.23.312.447-.083.291-.367.146-.556.15-.895.017-1.79.007-2.685.011a2.5,2.5,0,0,0-2.576,2.457c-.038,1.5-.026,3-.036,4.5a.222.222,0,0,0-.008.283" transform="translate(-43.061 -78.385)" fill="#e2ad82"/>
        <path id="Trazado_819866" data-name="Trazado 819866" d="M123.32,215.648l.072-.705c.062.244.171.493-.072.705" transform="translate(-51.498 -89.759)" fill="#485858"/>
        <path id="Trazado_819867" data-name="Trazado 819867" d="M123.368,213.687a.222.222,0,0,1,.008-.283.218.218,0,0,1-.008.283" transform="translate(-51.498 -89.116)" fill="#485858"/>
        <path id="Trazado_819868" data-name="Trazado 819868" d="M36.728,242.465c-.454-4.419,3.956-8.215,8.027-8.182a8.157,8.157,0,0,1,.219,16.311c-4.148.147-8.707-3.729-8.246-8.129m4.663.012c-.263,1.917,1.44,3.519,3.708,3.346a3.44,3.44,0,0,0-.405-6.864c-1.99-.063-3.309,1.4-3.3,3.518" transform="translate(-15.324 -97.835)"/>
        <path id="Trazado_819869" data-name="Trazado 819869" d="M106.97,84.757c-.6,0-1.2,0-1.8,0a2.356,2.356,0,0,0-2.447,2.434c0,4.766-.013,9.532.014,14.3,0,.584-.163.72-.715.7-.99-.045-1.983-.034-2.974,0-.44.014-.573-.1-.571-.563.02-4.524.009-9.048.023-13.572a5.471,5.471,0,0,0-.351-1.876,2.287,2.287,0,0,0-2.359-1.416c-.4-.019-.8,0-1.181,0-.1-.259.068-.334.161-.415q2.692-2.362,5.4-4.71c.757-.656.766-.647,1.488.017q2.456,2.26,4.912,4.519c.158.146.337.268.507.4l-.108.192" transform="translate(-39.496 -33.049)" fill="#f8f9fb"/>
        <path id="Trazado_819870" data-name="Trazado 819870" d="M44.738,245.829c-.007-2.113,1.312-3.581,3.3-3.518a3.44,3.44,0,0,1,.405,6.864c-2.268.173-3.97-1.429-3.708-3.346" transform="translate(-18.671 -101.187)" fill="#f8f9fb"/>
      </g>
    </g>
  </g>
</svg>
