<svg xmlns="http://www.w3.org/2000/svg" xmlns:xlink="http://www.w3.org/1999/xlink" width="464" height="344" viewBox="0 0 464 344">
  <defs>
    <clipPath id="clip-path">
      <rect id="Rect치ngulo_378313" data-name="Rect치ngulo 378313" width="464" height="344" transform="translate(0.446)" fill="none"/>
    </clipPath>
    <clipPath id="clip-path-2">
      <rect id="Rect치ngulo_378331" data-name="Rect치ngulo 378331" width="336.333" height="336.333" fill="none"/>
    </clipPath>
  </defs>
  <g id="Grupo_1074332" data-name="Grupo 1074332" transform="translate(-0.446)">
    <g id="Grupo_1071412" data-name="Grupo 1071412">
      <g id="Grupo_402" data-name="Grupo 402" clip-path="url(#clip-path)">
        <g id="Grupo_1074354" data-name="Grupo 1074354" transform="translate(64 4)">
          <g id="Grupo_1074353" data-name="Grupo 1074353" clip-path="url(#clip-path-2)">
            <path id="Trazado_824413" data-name="Trazado 824413" d="M336.333,168.222,168.223,336.333,0,168.109,168.11,0,336.333,168.222M167.507,316.133l147.5-147.5h-295l147.5,147.5m.15,14.99,162.5-162.492c-5.039-.821-9.542.132-14.1,4.725q-72.468,73.091-145.435,145.686c-.944.944-1.934,1.843-3.291,3.132-1.032-1.2-1.856-2.282-2.811-3.237Q91.516,245.9,18.621,172.751c-4.29-4.327-8.469-4.577-13.457-4.117L167.658,331.123m36.8-163.5c.05-.78.116-1.33.116-1.881q.008-53.825-.063-107.65a6.011,6.011,0,0,0-1.631-3.768c-6.678-6.851-13.484-13.578-20.264-20.329a20.192,20.192,0,0,0-1.812-1.417V167.62Zm-50.115.018V33c-7.213,7.211-14.131,13.988-20.839,20.967a7.878,7.878,0,0,0-2.033,4.945q-.172,52.638-.087,105.277v3.449Zm-48.558,0V81.494c-7.464,7.485-14.606,14.512-21.543,21.737a7.91,7.91,0,0,0-2.02,4.946c-.141,18.674-.092,37.348-.083,56.023,0,1.1.092,2.207.147,3.441ZM230.1,81.47v86.065h23.725c0-20.508.016-40.768-.055-61.026a4.192,4.192,0,0,0-1.266-2.56c-7.277-7.372-14.615-14.683-22.4-22.479M56.563,167.618V130.8c-7.737,7.728-15.146,15.1-22.5,22.526a3.8,3.8,0,0,0-1.125,2.279c-.113,3.947-.052,7.9-.052,12.008Zm246.518,0c0-3.533.226-6.936-.094-10.286a8.819,8.819,0,0,0-2.077-4.925c-5.152-5.456-10.56-10.668-15.845-16-1.786-1.8-3.48-3.694-5.217-5.545l-.711.519v36.237ZM181.445,16.528c-2.393,7.8-.12,12.884,5.279,16.806a19.623,19.623,0,0,1,2.186,2.155l15.668,15.75a51.356,51.356,0,0,1,.042-6.215c.468-3.369-.895-5.7-3.31-7.936-4.42-4.1-8.616-8.441-12.82-12.764-2.344-2.41-4.516-4.985-7.044-7.8M82.1,100.455C90.13,92.411,97.456,85.1,104.741,77.74a3.977,3.977,0,0,0,1.266-2.22c.148-2.9.06-5.814.06-8.993a5.7,5.7,0,0,0-1.231.588Q93.959,77.953,83.126,88.836a3.341,3.341,0,0,0-.982,1.985c-.108,2.912-.047,5.831-.047,9.634m148.8-34.263-1.01.744c0,2.153-.089,4.311.033,6.457.074,1.291.034,2.989.8,3.777,7.4,7.651,14.963,15.148,22.859,23.071.557-6.156,1.082-11.4-4.4-15.376-3.457-2.508-6.228-5.977-9.237-9.081-3.058-3.155-6.032-6.391-9.042-9.592m-198.064,83.6c8.2-8.225,15.724-15.757,23.208-23.328a2.857,2.857,0,0,0,.744-1.772c.077-2.894.034-5.792.034-8.832-.635.217-.885.228-1.016.358q-11.014,10.939-21.994,21.914a2.9,2.9,0,0,0-.932,1.678c-.093,3.013-.044,6.03-.044,9.982m246.306-34.778c0,2.792.149,4.489-.032,6.151-.345,3.163.676,5.468,3.067,7.717,6.3,5.921,12.291,12.168,18.419,18.272.661.659,1.413,1.229,2.491,2.158,0-2.712.068-4.863-.025-7.006-.057-1.3.116-3.056-.626-3.822-7.42-7.668-15.009-15.174-23.294-23.47M131.349,51.31c6.724-6.767,12.29-13.2,18.729-18.584,5.061-4.234,4.943-9.051,4.312-14.662a4.157,4.157,0,0,0-1,.493Q142.859,29.05,132.375,39.586a3.345,3.345,0,0,0-.98,1.989c-.107,2.913-.046,5.832-.046,9.734" transform="translate(0 0)"/>
            <path id="Trazado_824414" data-name="Trazado 824414" d="M176.749,394.023l-147.5-147.5h295l-147.5,147.5m-10.131-27.872c.551,3.878,2.032,5.643,5.241,6.41a9.163,9.163,0,0,0,9.622-3.658c3.06-4.461,3.1-15.62.064-20.05a8.671,8.671,0,0,0-9.648-3.381,8.138,8.138,0,0,0-6.044,7.425c-.3,3.482.357,6.609,3.338,8.827,2.881,2.144,5.865,1.7,9.42-.327-.614,2.159-.8,3.78-1.518,5.117-1.107,2.064-3.505,2.82-4.7.893-1.829-2.949-3.708-1.523-5.776-1.256M165.4,377.467h21.8c-.122-1.172-.22-2.119-.314-3.025H165.4Z" transform="translate(-9.242 -77.89)" fill="#fff"/>
            <path id="Trazado_824415" data-name="Trazado 824415" d="M170.043,408.888,7.551,246.4c4.988-.46,9.166-.209,13.456,4.117q72.706,73.336,145.9,146.185c.955.956,1.779,2.042,2.811,3.238,1.357-1.289,2.347-2.188,3.292-3.132Q245.8,324.034,318.445,251.123c4.554-4.593,9.057-5.546,14.1-4.726l-162.5,162.492" transform="translate(-2.386 -77.766)" fill="#fff"/>
            <path id="Trazado_824416" data-name="Trazado 824416" d="M287.964,182.667H264.31V47.621a20.07,20.07,0,0,1,1.812,1.417c6.78,6.751,13.586,13.478,20.264,20.329a6.009,6.009,0,0,1,1.631,3.768q.128,53.825.063,107.65c0,.551-.066,1.1-.116,1.881" transform="translate(-83.509 -15.046)" fill="#fff"/>
            <path id="Trazado_824417" data-name="Trazado 824417" d="M215.022,182.882H192.064v-3.449q0-52.639.088-105.277a7.881,7.881,0,0,1,2.033-4.945c6.708-6.979,13.626-13.756,20.838-20.967Z" transform="translate(-60.682 -15.243)" fill="#fff"/>
            <path id="Trazado_824418" data-name="Trazado 824418" d="M143.713,205.283h-23.5c-.055-1.234-.146-2.337-.147-3.441-.009-18.675-.058-37.349.083-56.023a7.908,7.908,0,0,1,2.02-4.946c6.937-7.225,14.079-14.252,21.543-21.737Z" transform="translate(-37.93 -37.641)" fill="#fff"/>
            <path id="Trazado_824419" data-name="Trazado 824419" d="M336.384,119.1c7.789,7.8,15.128,15.107,22.4,22.479a4.192,4.192,0,0,1,1.266,2.559c.07,20.259.053,40.518.053,61.027H336.384Z" transform="translate(-106.281 -37.63)" fill="#fff"/>
            <path id="Trazado_824420" data-name="Trazado 824420" d="M71.743,228.035H48.062c0-4.109-.061-8.062.052-12.008a3.8,3.8,0,0,1,1.124-2.279c7.358-7.425,14.767-14.8,22.5-22.526Z" transform="translate(-15.18 -60.417)" fill="#fff"/>
            <path id="Trazado_824421" data-name="Trazado 824421" d="M432.009,228.07H408.065V191.833l.711-.518c1.736,1.851,3.43,3.743,5.216,5.544,5.285,5.331,10.693,10.543,15.845,16a8.823,8.823,0,0,1,2.077,4.925c.321,3.35.094,6.754.094,10.287" transform="translate(-128.928 -60.446)" fill="#fff"/>
            <path id="Trazado_824422" data-name="Trazado 824422" d="M264.814,24.162c2.528,2.811,4.7,5.386,7.044,7.8,4.2,4.323,8.4,8.667,12.82,12.764,2.415,2.24,3.778,4.567,3.31,7.936a51.353,51.353,0,0,0-.042,6.215l-15.668-15.75a19.625,19.625,0,0,0-2.186-2.155c-5.4-3.922-7.672-9.008-5.279-16.806" transform="translate(-83.369 -7.634)" fill="#fff"/>
            <path id="Trazado_824423" data-name="Trazado 824423" d="M120.009,131.183c0-3.8-.062-6.722.046-9.634a3.34,3.34,0,0,1,.983-1.985q10.814-10.9,21.71-21.721a5.686,5.686,0,0,1,1.231-.588c0,3.179.089,6.092-.06,8.993a3.975,3.975,0,0,1-1.266,2.22c-7.284,7.356-14.61,14.671-22.643,22.715" transform="translate(-37.911 -30.728)" fill="#fff"/>
            <path id="Trazado_824424" data-name="Trazado 824424" d="M337.06,96.766c3.01,3.2,5.985,6.437,9.042,9.592,3.01,3.1,5.781,6.573,9.237,9.081,5.481,3.977,4.957,9.22,4.4,15.375-7.9-7.922-15.457-15.419-22.859-23.07-.763-.788-.723-2.487-.8-3.777-.122-2.146-.034-4.3-.034-6.457l1.01-.744" transform="translate(-106.166 -30.573)" fill="#fff"/>
            <path id="Trazado_824425" data-name="Trazado 824425" d="M47.989,203.309c0-3.952-.049-6.97.043-9.983a2.908,2.908,0,0,1,.933-1.678q10.967-10.985,21.994-21.913c.131-.131.382-.142,1.016-.358,0,3.04.042,5.938-.034,8.832a2.86,2.86,0,0,1-.743,1.772c-7.486,7.57-15.011,15.1-23.209,23.328" transform="translate(-15.158 -53.515)" fill="#fff"/>
            <path id="Trazado_824426" data-name="Trazado 824426" d="M408.02,168.141c8.285,8.3,15.874,15.8,23.294,23.47.741.766.569,2.519.625,3.822.093,2.143.025,4.294.025,7.007-1.078-.929-1.829-1.5-2.491-2.158-6.128-6.1-12.12-12.351-18.419-18.272-2.391-2.248-3.412-4.553-3.067-7.717.181-1.662.032-3.359.032-6.151" transform="translate(-128.883 -53.124)" fill="#fff"/>
            <path id="Trazado_824427" data-name="Trazado 824427" d="M192.009,59.653c0-3.9-.062-6.821.046-9.734a3.345,3.345,0,0,1,.98-1.989Q203.5,37.375,214.047,26.9a4.157,4.157,0,0,1,1-.493c.631,5.611.75,10.428-4.312,14.662-6.44,5.386-12.005,11.816-18.729,18.584" transform="translate(-60.66 -8.344)" fill="#fff"/>
            <path id="Trazado_824428" data-name="Trazado 824428" d="M229.682,411.7c2.069-.267,3.947-1.694,5.776,1.256,1.194,1.926,3.593,1.17,4.7-.894.717-1.337.9-2.959,1.518-5.117-3.555,2.032-6.54,2.471-9.42.328-2.981-2.219-3.638-5.346-3.338-8.828a8.138,8.138,0,0,1,6.044-7.425,8.674,8.674,0,0,1,9.648,3.381c3.031,4.431,3,15.589-.064,20.051a9.164,9.164,0,0,1-9.622,3.658c-3.209-.765-4.691-2.532-5.241-6.409m4.231-12.206c0,3.255,1.389,5.3,3.5,5.238,2.851-.083,3.423-2.167,3.5-4.455.106-2.958-1.54-5.25-3.706-5.126-2.947.17-3.013,2.523-3.3,4.343" transform="translate(-72.306 -123.434)"/>
            <path id="Trazado_824429" data-name="Trazado 824429" d="M228.286,436.55v-3.025h21.487c.094.906.192,1.853.314,3.025Z" transform="translate(-72.127 -136.973)"/>
            <path id="Trazado_824430" data-name="Trazado 824430" d="M236.251,401.555c.287-1.82.353-4.173,3.3-4.343,2.165-.124,3.812,2.168,3.706,5.126-.081,2.288-.653,4.372-3.5,4.455-2.112.062-3.5-1.983-3.5-5.238" transform="translate(-74.644 -125.498)" fill="#fff"/>
          </g>
        </g>
      </g>
    </g>
  </g>
</svg>
