<svg xmlns="http://www.w3.org/2000/svg" xmlns:xlink="http://www.w3.org/1999/xlink" width="464" height="344" viewBox="0 0 464 344">
  <defs>
    <clipPath id="clip-path">
      <rect id="Rectángulo_378313" data-name="Rectángulo 378313" width="464" height="344" transform="translate(0.446)" fill="none"/>
    </clipPath>
    <clipPath id="clip-path-2">
      <rect id="Rectángulo_378327" data-name="Rectángulo 378327" width="325.604" height="325.604" fill="none"/>
    </clipPath>
  </defs>
  <g id="Grupo_1074339" data-name="Grupo 1074339" transform="translate(-0.446)">
    <g id="Grupo_1071412" data-name="Grupo 1071412">
      <g id="Enmascarar_grupo_402" data-name="Enmascarar grupo 402" clip-path="url(#clip-path)">
        <g id="Grupo_1074310" data-name="Grupo 1074310" transform="translate(69 9)">
          <g id="Grupo_1074351" data-name="Grupo 1074351" transform="translate(0)">
            <rect id="Rectángulo_378326" data-name="Rectángulo 378326" width="230.237" height="230.237" transform="translate(0 162.802) rotate(-45)" fill="#fff"/>
            <g id="Grupo_1074350" data-name="Grupo 1074350" transform="translate(0 0)">
              <g id="Grupo_1074349" data-name="Grupo 1074349" clip-path="url(#clip-path-2)">
                <path id="Trazado_824379" data-name="Trazado 824379" d="M165.487,325.272a21.365,21.365,0,0,0-1.464-1.782Q113.353,272.8,62.665,222.122,35.5,194.962,8.3,167.845c-1.532-1.521-1.538-2.277,0-3.8q40.17-39.992,80.224-80.1Q124.154,48.3,159.75,12.618c1.618-1.622,3.455-3.024,4.712-5.024,1.111-1.769,2.109-.591,3.063.364q10.619,10.636,21.257,21.253,67.4,67.414,134.839,134.795c1.51,1.507,1.6,2.259.035,3.818q-78,77.871-155.917,155.829a3.971,3.971,0,0,1-2.251,1.619M10.927,166.347c.765.807,1.511,1.632,2.3,2.418q75.345,75.353,150.654,150.743c1.728,1.732,2.521,1.739,4.25,0q50.64-50.856,101.415-101.579,25.177-25.192,50.333-50.4c.493-.5,2.33-.824.857-2.212-.031-.087-.038-.2-.1-.258-24.181-24.516-48.9-48.5-72.768-73.326-4.072-4.235-8.521-8.1-12.682-12.257Q201.9,46.264,168.68,13c-2.693-2.693-2.693-2.688-5.432.051q-48.581,48.584-97.166,97.166-25.967,25.959-51.928,51.923c-1.232,1.236-2.959,2.2-3.227,4.211" transform="translate(-3.166 -2.96)" fill="#020101"/>
                <path id="Trazado_824380" data-name="Trazado 824380" d="M13.935,169.771c.268-2.016,1.995-2.975,3.227-4.211q25.916-26.009,51.928-51.923,48.59-48.576,97.166-97.166c2.739-2.74,2.739-2.745,5.432-.052Q204.936,49.664,238.193,82.9c4.161,4.152,8.611,8.021,12.682,12.257,23.868,24.828,48.587,48.81,72.768,73.326.059.06.066.172.1.259-1.226,1-2.677.521-4.013.521q-151.445.038-302.889.038c-.972,0-2.054-.394-2.9.471M204.07,104.8c6.026,0,12.053-.012,18.079.011,1.212,0,2.506-.089,1.889-1.693-1.287-3.342-1.3-6.9-2.029-10.338C219.024,78.8,211.1,68.367,199.671,60.217c-1.7-1.215-2.349-.574-3.236.79q-9.391,14.436-18.841,28.832c-.565.864-.771,1.364.468,2.267,3.581,2.61,6.249,6.092,6.464,10.708.091,1.946.83,2.021,2.3,2.008,5.748-.05,11.5-.021,17.245-.021m-70.4-.106v.106c5.75,0,11.5-.086,17.248.055a1.969,1.969,0,0,0,2.3-1.931,16.493,16.493,0,0,1,6.191-10.49c1.379-1.153,1.518-2.162.508-3.7-6.143-9.372-12.207-18.8-18.281-28.213-.746-1.157-1.561-1.718-2.872-.817a55.667,55.667,0,0,0-12.642,11.8c-7.107,9.2-10.612,19.691-11.283,31.3-.13,2.252.623,1.88,1.855,1.881q8.487.01,16.974,0m36.393,54.643c1.748.567,3.787-.389,5.844-.653a47.1,47.1,0,0,0,16.158-4.844c1.747-.921,1.949-1.714,1.026-3.439-5.232-9.787-9.638-19.989-14.9-29.77-1.038-1.929-1.629-2.132-3.428-1.339a12.2,12.2,0,0,1-10,.238c-1.3-.534-3.379-1.292-4.519.969q-7.811,15.5-15.733,30.943c-.661,1.28-.212,1.7.772,2.213,7.635,4,15.865,5.421,24.777,5.682m-12.761-54.3c-.56,5.15,5.345,12.111,11.382,12.008,7.437-.128,11.956-5.591,11.859-12.179-.125-8.459-4.888-11.533-13.609-11.427-5.676.069-9.9,5.905-9.633,11.6" transform="translate(-6.174 -6.384)" fill="#fff100"/>
                <path id="Trazado_824381" data-name="Trazado 824381" d="M333.917,140.734c-5.749,0-11.5-.029-17.245.021-1.471.013-2.21-.061-2.3-2.008-.214-4.616-2.883-8.1-6.464-10.709-1.239-.9-1.033-1.4-.468-2.267q9.415-14.42,18.841-28.831c.888-1.364,1.533-2.005,3.236-.79,11.428,8.149,19.354,18.581,22.338,32.563.733,3.434.742,7,2.029,10.338.618,1.6-.677,1.7-1.888,1.692-6.026-.023-12.053-.011-18.079-.01" transform="translate(-136.021 -42.316)" fill="#020101"/>
                <path id="Trazado_824382" data-name="Trazado 824382" d="M213.932,140.376q-8.488,0-16.975,0c-1.231,0-1.984.37-1.855-1.881.671-11.614,4.175-22.105,11.282-31.3a55.694,55.694,0,0,1,12.643-11.8c1.311-.9,2.126-.339,2.872.817,6.074,9.418,12.138,18.841,18.281,28.213,1.009,1.539.871,2.548-.508,3.7a16.492,16.492,0,0,0-6.191,10.49,1.969,1.969,0,0,1-2.3,1.932c-5.746-.141-11.5-.055-17.248-.055,0-.036,0-.071,0-.107" transform="translate(-86.439 -42.065)" fill="#020101"/>
                <path id="Trazado_824383" data-name="Trazado 824383" d="M273.695,242.434c-8.913-.261-17.143-1.684-24.778-5.682-.984-.515-1.433-.932-.772-2.213q7.96-15.423,15.733-30.942c1.139-2.262,3.215-1.5,4.519-.97a12.2,12.2,0,0,0,10-.238c1.8-.793,2.389-.59,3.427,1.339,5.264,9.781,9.67,19.983,14.9,29.769.922,1.725.721,2.518-1.027,3.439a47.071,47.071,0,0,1-16.158,4.844c-2.057.263-4.1,1.221-5.843.653" transform="translate(-109.808 -89.481)" fill="#020101"/>
                <path id="Trazado_824384" data-name="Trazado 824384" d="M271.326,167.906c-.272-5.693,3.956-11.529,9.633-11.6,8.721-.106,13.484,2.968,13.609,11.427.1,6.588-4.422,12.051-11.859,12.179-6.038.1-11.942-6.858-11.382-12.008" transform="translate(-120.201 -69.255)" fill="#020101"/>
                <path id="Trazado_824385" data-name="Trazado 824385" d="M444.723,301.1l.078.066-.063-.04-.015-.026" transform="translate(-197.046 -133.411)" fill="#fff100"/>
                <path id="Trazado_824386" data-name="Trazado 824386" d="M463.747,301.134l-.087.025.112-.055-.025.031" transform="translate(-205.436 -133.411)" fill="#fff100"/>
              </g>
            </g>
            <text id="_7" data-name="7" transform="translate(157.52 297.508)" font-size="27" font-family="Roboto-Bold, Roboto" font-weight="700"><tspan x="0" y="0">7</tspan></text>
          </g>
        </g>
      </g>
    </g>
  </g>
</svg>
