<svg id="Grupo_1074245" data-name="Grupo 1074245" xmlns="http://www.w3.org/2000/svg" xmlns:xlink="http://www.w3.org/1999/xlink" width="464" height="344" viewBox="0 0 464 344">
  <defs>
    <clipPath id="clip-path">
      <rect id="Rect치ngulo_378313" data-name="Rect치ngulo 378313" width="464" height="344" fill="none"/>
    </clipPath>
    <clipPath id="clip-path-2">
      <rect id="Rect치ngulo_378314" data-name="Rect치ngulo 378314" width="338.667" height="336.991" fill="none"/>
    </clipPath>
  </defs>
  <g id="Grupo_1071412" data-name="Grupo 1071412">
    <g id="Enmascarar_grupo_402" data-name="Enmascarar grupo 402" clip-path="url(#clip-path)">
      <g id="Grupo_1074290" data-name="Grupo 1074290" transform="translate(63 1)">
        <g id="Grupo_1074291" data-name="Grupo 1074291">
          <g id="Grupo_1074290-2" data-name="Grupo 1074290" clip-path="url(#clip-path-2)">
            <path id="Trazado_824107" data-name="Trazado 824107" d="M338.666,169.012c-1.315-.371-1.757.807-2.41,1.46q-82.638,82.584-165.23,165.213a12.82,12.82,0,0,0-1.015,1.307h-.678c-8.418-8.761-16.751-17.607-25.9-25.633-.592-.52-1.127-1.107-1.685-1.665-26.509-26.48-53.146-52.835-79.457-79.51-9.325-9.453-18.248-19.334-27.96-28.382-11.216-10.449-21.769-21.545-32.76-32.207-.48-.466-1.048-.842-1.575-1.26v-.677c7.941-7.832,15.746-15.81,23.852-23.467,19.416-18.344,38.285-37.249,56.87-56.413C99.36,68.56,118.353,49.7,137.343,30.847c9.825-9.755,19.858-19.312,29.548-29.2,2.263-2.31,3.445-2.1,5.61.073q81.646,81.815,163.427,163.5c.864.863,1.823,1.632,2.737,2.445ZM170.093,318.081c.794-.734,1.628-1.453,2.4-2.229q47.55-47.534,95.089-95.076c16.6-16.6,33.145-33.256,49.857-49.744,2.495-2.463,2.311-3.774-.076-6.138q-27.994-27.714-55.759-55.662-44.895-44.892-89.759-89.812c-1.5-1.506-2.3-1.394-3.746.062C157.075,30.612,145.811,41.5,134.622,52.467c-21.575,21.142-42.745,42.7-64.15,64.013-16.7,16.627-33.036,33.619-50.349,49.62-1.6,1.475-1.7,2.334-.027,3.788,3.471,3.021,6.869,6.142,10.129,9.388Q53.94,202.886,77.561,226.59c29.965,30.019,59.951,60.016,90.319,89.628.4.394.789.808,1.211,1.183a10.084,10.084,0,0,0,1,.68" transform="translate(0 0)" fill="#f70"/>
            <path id="Trazado_824108" data-name="Trazado 824108" d="M179.078,326.808a10.266,10.266,0,0,1-1-.68c-.421-.374-.806-.789-1.21-1.183-30.369-29.611-60.356-59.608-90.32-89.628Q62.906,211.633,39.211,188c-3.261-3.246-6.658-6.367-10.129-9.388-1.67-1.454-1.569-2.313.027-3.788,17.313-16,33.651-32.993,50.349-49.62,21.405-21.316,42.575-42.871,64.15-64.013C154.8,50.229,166.06,39.339,177.089,28.21c1.443-1.456,2.244-1.567,3.745-.062q44.832,44.953,89.759,89.812,27.856,27.854,55.76,55.661c2.388,2.363,2.571,3.675.075,6.138-16.711,16.489-33.256,33.144-49.857,49.745q-47.542,47.54-95.089,95.075c-.777.776-1.611,1.495-2.4,2.229M322.392,176.674c-1.4-2.162-3.589-3.718-5.451-5.587-24.584-24.681-49.4-49.126-73.571-74.222-5.373-5.58-11.223-10.7-16.738-16.146-2.945-2.909-5.432-6.3-8.492-9.069-12.292-11.117-23.59-23.235-35.431-34.8-.646-.631-1.524-1.172-1.86-1.943-1.2-2.756-2.279-2.117-4.038-.36-25.133,25.1-50.111,50.361-75.6,75.117-21.689,21.069-42.78,42.754-64.243,64.058-2.3,2.283-2.664,3.421-.112,5.929,27.744,27.278,54.907,55.138,82.879,82.193,19.14,18.512,37.749,37.574,56.5,56.488,1.882,1.9,2.725,2.144,4.773.089q67.633-67.859,135.431-135.553c2.026-2.026,4.522-3.589,5.952-6.188" transform="translate(-8.985 -8.727)" fill="#131416"/>
            <path id="Trazado_824109" data-name="Trazado 824109" d="M325.829,179.51c-1.431,2.6-3.927,4.162-5.952,6.188q-67.741,67.75-135.431,135.552c-2.048,2.055-2.891,1.81-4.773-.089-18.748-18.914-37.356-37.976-56.5-56.488C95.2,237.621,68.043,209.76,40.3,182.482c-2.551-2.508-2.188-3.646.112-5.929,21.464-21.3,42.554-42.989,64.244-64.058,25.484-24.755,50.463-50.012,75.595-75.117,1.76-1.757,2.838-2.4,4.038.36.336.772,1.214,1.313,1.859,1.944,11.842,11.569,23.14,23.686,35.431,34.8,3.061,2.769,5.547,6.161,8.492,9.07C235.584,89,241.433,94.12,246.807,99.7c24.166,25.1,48.987,49.542,73.572,74.222,1.862,1.869,4.046,3.425,5.451,5.587m-153.6-27.347c-.144.524.236.636.6.763l1.083.983,1.606,1.082a8.517,8.517,0,0,0,3.406,2.685c.591,1.4,2.719,1.459,2.863,3.258-1.159.768-1.737-.345-2.462-.817-1.659-1.081-3.261-2.254-4.885-3.389-.88-.876-1.606-2.027-3.236-1.871.352,1.651,1.694,1.862,2.784,2.374,1.906,2.8,5.028,4.08,7.447,6.181.829-.867-.551-1.775.316-2.517a25.589,25.589,0,0,1,5.818,4.142c.65.56,1.485,1.014,2.036.31.68-.869-.406-1.38-.945-1.775-3.025-2.216-6.108-4.354-9.172-6.514-.868-1.237-2.3-1.712-3.463-2.546l-1.577-1.182c-.389-.293-.778-.587-1.169-.876l-1-.333-.567-.785c-.385-.3-.77-.611-1.157-.911l-.823-.127.387.592c.384.289.769.578,1.156.863.236.322.493.6.953.41m-7.354-2.807c-.031.47.235.666.66.717-.034,1.933,1.649,1.564,2.714,2.023.062.377,0,.887.217,1.1.277.267.573-.082.556-.418-.024-.489-.347-.7-.839-.623a3.914,3.914,0,0,0-2.7-2.031l-.658-.724a1.266,1.266,0,0,0-1.438-.582c.56-2.323,2.6-3.753,3.534-5.887.432-.992,1.051-2.227.139-2.636-2.376-1.064-3.429-3.471-5.521-4.81-1.441-.923-2.227-.789-2.065.8.291,2.837-2.273,2.881-3.517,4.234-2.53,2.752-3.538,0-5.032-1.121a7.381,7.381,0,0,1-1.577-1.258c-2.233-2.976-4.658-2.7-7-.306-1.842,1.886-3.384,2.91-5.991.943-.835-.63-4.429-1.275-3.788,1.464.7,2.988-.844,2.712-2.435,3.1-1.09.265-2.186.512-3.286.733-.868.174-1.655.058-1.466,1.56.22,1.738,1.242.756,1.928.93,1.363.345,2.257-.333,3.288-1.165a2.976,2.976,0,0,1,3.967-.236,2.81,2.81,0,0,1,1.171,3.621c-1.376-.19-2.283.543-3.252,1.415-1.645,1.48-3.457,2.773-5.18,4.169q-9.991,8.094-19.948,16.185c1.31,2.444,2.48,2.619,4.439.581,3.731-3.881,7.717-7.525,11.718-11.135.978-.883,2.191-2.874,3.822-.972,1.655,1.929,3.412.555,5.056.411,1.53-.134,1.52-1.954,1.624-2.983.092-.915-1.283-.968-2.208-.94-.677.021-1.447.082-1.779-.658-.457-1.016.6-1.306,1.079-1.8,1.451-1.516,3.734-2.153,4.581-4.322,2.3-.3,3.517,1.56,5.131,2.608,6.866,4.457,13.553,4.007,19.734-1.38.838-.73,1.529-1.731,2.88-1.192a1.3,1.3,0,0,0,1.437.595m8.331-.186a4.272,4.272,0,0,0-.772-.218c-.21.439.194.433.451.529.345.556.763.92,1.46.564-.159.9.646.787,1.1,1.042l11.942,7.958c-.661-3.378-3.559-3.815-5.7-5.219-.779-.512-2.392-.738-1.765-1.929.516-.981,2.008-.571,3.054-.159.394.155.655.742,1.037.816,1.6.313,3.558,1.165,4.753.564,1.258-.632.173-2.752.108-4.44,3.37.816,6.607,1.453,9.74,2.424,1.371.425,2.275.356,2.66-.962s.382-2.753-1.4-3.168c-1.622-.377-3.266-.693-4.917-.909-4.3-.566-8.748-.566-12.88-1.716-4.991-1.39-8.7-2.209-13.385-1.252,3.438,1.6,7.353,1.488,10.606,3.133-.913,1.407-6.587-1.531-2.553,3.474.283.35-.479.9-1.064,1.045-.243-.694-.846-.6-1.388-.633-.114-.6-.568-.809-1.088-.944M120.081,146c-.869.359-2.013-.386-2.707.674-10.093,1.321-19.83,4.131-29.622,6.738,2.919,1.442,5.4-.4,8.071-.707,5.21-.6,10.436-5.848,15.572.32.453.543,1.55-.165,1.79-.893.251-.764.6-1.9-.878-2.005-.892-.066-1.8-.018-2.081-1.149,2.311-.974,5.039-.671,7.109-2.357.322.087.921.161.926.264.167,3.529,2.122,1.653,3.62,1.238a5.18,5.18,0,0,0,2.683-1.274c-1.527-.835-3.478,1.563-4.524-.9.731.064,1.491.287,2.165-.367-.821-.189-1.563-.335-2.123.417m46.212-38.458c4.066-6.9,8.11-13.814,12.22-20.688.58-.969.69-1.776-.367-2.187s-1.46.528-1.87,1.365q-5.181,10.558-10.415,21.09c-.243.314-.524.63-.079.976.016.012.333-.362.51-.556M115.4,143.329c2.506.344,2.634-3.278,5.171-3.154.3.014.772-2.632-.35-2.74-2.618-.252-5.189-1.535-7.857-.734a2.46,2.46,0,0,0-1.994,1.964c-.1,1.046,1.033,1.275,1.494,1.928.934,1.325,3.412.575,3.58,2.783-2.584.065-5.257-.258-7.73.3a7.458,7.458,0,0,1-6.863-1.427c-1.153-.9-2.376-2.085-4.214-1.594-1.1.294-2.017.951-2.1,1.893-.119,1.316,1.092,1.426,2.159,1.439.913.012,1.827.1,2.74.147-1.015.728-2.435.411-3.083,1.939a114.2,114.2,0,0,0,19.05-2.745M164.165,108.8l-.205-.188a47.056,47.056,0,0,1,2.847-9.117c3.959-10.589,7.714-21.255,11.524-31.9,1.162-3.248,2.3-6.509,3.353-9.792.64-1.985-.7-2.688-2.266-3.358-1.943-.831-1.9,1.1-2.123,1.724-3.552,9.776-6.947,19.61-10.4,29.424-1.351,3.845-2.748,7.675-4.123,11.512a2.513,2.513,0,0,1-.367-2.476c2.286-5.531,3.743-11.331,5.541-17.022.3-.948,1.1-2.066-.249-2.533-1.48-.512-1.935.942-2.071,1.977a21.2,21.2,0,0,1-1.679,5.965,8.378,8.378,0,0,0-1.022-2.293c-.87-.917-.049-2.916-1.937-3.074-2.1-.176-2.721,2.683-4.877,2.478.471,1.508-1.407,3.57-.193,4.266,2.039,1.17,2.008,3.128,2.819,5.154.885-1.4,1.48-2.457,2.187-3.429.507-.7,1.067-1.9,1.974-1.514,1.173.5.478,1.64.219,2.594-2.377,8.729-4.862,17.434-6.957,26.231-.561,2.354-1.649,2.288-3.278,1.976-7.714-1.476-17.96,4.011-21.014,11.283-1.033,2.458,1.569,6.094,4.263,5.842,4.086-.382,8.121-.554,11.669,2.012,3.122,2.258,3.435-1.729,5.273-2.393,1.636-.592.753-2.113.215-3.179-.462-.915-1.235-2.006-.4-2.7.511-.422,1.867-.01,2.765.276.938.3,2.31,1.231,2.265-.432-.091-3.436,2.017-3.146,4.236-3.131,1.062.007,2.3.416,3.122-.974a6.31,6.31,0,0,0-.85-.892c-4.686-3.364-4.837-4.549-.863-8.856a7.585,7.585,0,0,0,1.786-2.8c.4-1.289-.672-.634-1.191-.667m17.376.638a15.021,15.021,0,0,0-4.97,3.9c-1.045,1.094-2.029,1.166-2.863.474-1.413-1.173.357-1.7.874-2.236q11.187-11.643,22.5-23.167c3.79-3.865,7.674-7.636,11.5-11.464.629-.629,1.425-1.281.393-2.232a1.528,1.528,0,0,0-2.365.159c-.486.47-.977.938-1.44,1.43-6.514,6.945-13.045,13.875-19.517,20.86-1.292,1.394-2.616,2.756-3.846,4.225-4.085,4.879-8.376,9.589-12.691,14.269-1.05,1.14-3.814,1.588-2.67,3.5.932,1.563,2.75-.35,4.159-.808a2.146,2.146,0,0,1,.64-.009c.987,3.048,1,3.061-1.367,4.635-1.813,1.207-3.647,2.381-5.723,3.732,1.9.634,2.761-.484,3.758-1.112,13.234-8.328,26.435-16.71,39.7-24.994,1.882-1.176,2.278-2.574,1.51-5.134l-29.009,20.318c-1.012-2.6,1.658-3.966,1.431-6.353m14.55,21.328c3.9-.554,7.8-1.1,11.692-1.663,5.915-.856,11.812-1.846,17.744-2.555,5.211-.622,10.323-2.056,15.448-2.6,4.864-.516,9.764-.921,14.638-1.568,1.524-.2,2.79-.357,2.574-2.225-.235-2.034-1.916-1.241-2.926-1.109-4.5.592-9.1.961-13.453,2.153-10.1,2.763-20.534,3.32-30.75,5.253q-11.386,2.155-22.774,4.295a20.51,20.51,0,0,0,4.757.419c.867.018,2.114-.325,2.381.714.292,1.133-.784,1.689-1.781,2.045-.829.3-1.64.64-2.468.935-.949.339-1.779,1.006-1.145,1.949,1.134,1.687-.075,1.55-1.094,2.114-1.168.646-2.507,0-3.526.753,7.321.416,14.635,1.281,22.058.691-1.136-.6-2.861-.951-.928-2.55,1.523-1.26.819-1.929-.587-2.628a97.7,97.7,0,0,0-9.859-4.423m-25.009-2c.64.466.952.86,1.143.808,11.941-3.255,24.078-5.659,36.141-8.38,12.038-2.716,24.047-5.561,36.074-8.33.978-.225,2.615.423,2.275-1.487-.385-2.157-2.058-1.241-3.217-.945-11.029,2.806-22.03,5.722-33.062,8.515-12.988,3.29-26,6.491-39.354,9.818m58.5-38.058c-1.516.545-1.26,1.855-1.483,2.7-.622,2.355-1.817,3.435-4.278,3.2-1.412-.136-2.913.037-2.753,1.981.078.947-1.753,2.056.14,2.819,1.56.629,3.182,2.386,4.834.428,1.338-1.586,2.477-.928,3.733-.132,1.091.691,2.153,1.428,3.221,2.141a14.312,14.312,0,0,0-3.413-13.137m-126.1,68.982c-2.315-.139-5.112-2.421-6.953-.355-2.357,2.644.566,4.709,2.2,6.947.5-3.183,4.659-3.26,4.757-6.592m106.748-44.821.774-1.021c-1.315-1.019-2.666-1.994-3.931-3.072-.936-.8-1.678-1.925-3.143-.954a4.2,4.2,0,0,0-1.6,3.515c-.025,1.293,1.607,1.518,2.854,1.529,1.683.014,3.366,0,5.049,0m-15.745,2.084c-.62-1.227-1.642-.735-2.5-.375-3.46,1.458-6.89,2.986-10.333,4.484-.64.278-1.353.682-1.091,1.423.274.777,1.057.566,1.7.3,3.578-1.485,7.143-3,10.745-4.427a2.4,2.4,0,0,0,1.479-1.406M181.1,95.664c.164-1.576.017-3.317-1.987-3.088-2.71.309-2.047,3.09-2.571,4.8a2.036,2.036,0,0,0,2.331,2.525c2.08-.414,2.324-2.365,2.227-4.24m-55.773,54.29-.583-.8-15.506,8.738.653,1.109,15.436-9.049m5.265-14.682c-4.015-.851-7.817-2.874-12.042-2.185,3.86,1.681,8,1.78,12.042,2.185m109.065,6.371q-.006-.438-.012-.877c-3.6-.083-7.2-.31-10.78.877Zm-29.28-1.728c2.5,1.451,5.413,1.643,11.68.915-3.979-1.587-7.644-.47-11.68-.915m-27.535-8.059c-4.948-.19-8.79,1.24-12.744,1.933,3.95-.313,7.971,0,12.744-1.933M96.2,136.245q0,.449,0,.9h9.965c-3.769-1.647-6.864-1.33-9.964-.9M72.621,148.622a19.2,19.2,0,0,0,9.119-1.067c-2.926-.094-5.889-.529-9.119,1.067m111.618-17.375a2.435,2.435,0,0,0,2.949,0Zm-68.488,1.387-.579.188a1.087,1.087,0,0,0,1.158,0c-.192-.062-.382-.124-.579-.185M171,148.678l.519-.278c-.171-.094-.343-.262-.514-.262s-.357.159-.536.248c.174.1.348.194.531.292" transform="translate(-12.422 -11.563)" fill="#f70"/>
            <path id="Trazado_824110" data-name="Trazado 824110" d="M208.47,117.541c.52.033,1.594-.622,1.192.667a7.611,7.611,0,0,1-1.786,2.8c-3.975,4.307-3.824,5.492.862,8.856a6.189,6.189,0,0,1,.85.891c-.821,1.39-2.059.981-3.122.974-2.22-.015-4.328-.306-4.236,3.131.044,1.662-1.327.73-2.266.432-.9-.287-2.254-.7-2.765-.276-.835.69-.062,1.779.4,2.7.538,1.066,1.421,2.588-.215,3.178-1.838.664-2.151,4.652-5.273,2.393-3.548-2.566-7.584-2.394-11.669-2.012-2.695.253-5.3-3.383-4.263-5.842,3.054-7.272,13.3-12.758,21.014-11.283,1.629.312,2.717.379,3.278-1.975,2.1-8.8,4.581-17.5,6.958-26.232.259-.953.953-2.092-.22-2.594-.907-.387-1.467.817-1.973,1.514-.707.972-1.3,2.027-2.187,3.429-.812-2.027-.781-3.986-2.819-5.154-1.214-.7.664-2.758.193-4.267,2.155.206,2.774-2.653,4.876-2.478,1.889.159,1.067,2.156,1.938,3.074a8.378,8.378,0,0,1,1.021,2.293,21.162,21.162,0,0,0,1.679-5.964c.137-1.035.592-2.489,2.071-1.977,1.347.467.548,1.586.249,2.533-1.8,5.691-3.255,11.492-5.541,17.022a2.511,2.511,0,0,0,.366,2.475c1.376-3.836,2.772-7.666,4.123-11.511,3.449-9.814,6.844-19.648,10.4-29.425.226-.623.179-2.555,2.122-1.724,1.569.669,2.906,1.373,2.266,3.358-1.058,3.283-2.19,6.544-3.353,9.791-3.809,10.645-7.565,21.31-11.524,31.9a46.709,46.709,0,0,0-2.843,9.12.94.94,0,0,0-.434,1.111c.02.087.157.146.24.22l.4-1.146" transform="translate(-56.727 -20.306)" fill="#131416"/>
            <path id="Trazado_824111" data-name="Trazado 824111" d="M177.053,195.9a2.81,2.81,0,0,0-1.172-3.621,2.976,2.976,0,0,0-3.967.236c-1.031.832-1.925,1.51-3.288,1.165-.686-.173-1.709.808-1.928-.93-.189-1.5.6-1.386,1.466-1.56,1.1-.221,2.2-.468,3.286-.733,1.59-.386,3.135-.11,2.435-3.1-.642-2.74,2.953-2.094,3.788-1.464,2.607,1.966,4.148.943,5.991-.944,2.341-2.4,4.766-2.669,7,.307a7.379,7.379,0,0,0,1.576,1.258c1.495,1.118,2.5,3.872,5.033,1.121,1.243-1.352,3.807-1.4,3.517-4.234-.163-1.584.624-1.718,2.065-.8,2.092,1.339,3.145,3.746,5.521,4.81.912.409.294,1.644-.139,2.636-.931,2.134-2.975,3.564-3.534,5.886l.045-.053c-1.349-.541-2.04.459-2.878,1.19-6.181,5.386-12.868,5.836-19.734,1.38-1.614-1.048-2.829-2.906-5.131-2.609Z" transform="translate(-53.736 -58.69)" fill="#131416"/>
            <path id="Trazado_824112" data-name="Trazado 824112" d="M241.316,127.687c.227,2.387-2.443,3.757-1.431,6.353l29.009-20.318c.768,2.559.371,3.958-1.511,5.134-13.261,8.284-26.462,16.666-39.7,24.994-1,.628-1.857,1.746-3.758,1.113,2.075-1.352,3.91-2.525,5.722-3.733,2.363-1.575,2.355-1.586,1.368-4.635a2.168,2.168,0,0,0-.64.009c-1.409.458-3.227,2.371-4.16.808-1.142-1.917,1.621-2.364,2.671-3.5,4.314-4.681,8.6-9.391,12.691-14.269,1.23-1.469,2.555-2.832,3.846-4.225,6.472-6.985,13-13.914,19.517-20.86.463-.493.954-.96,1.44-1.43a1.528,1.528,0,0,1,2.364-.159c1.033.951.236,1.6-.392,2.233-3.828,3.827-7.712,7.6-11.5,11.463q-11.3,11.529-22.5,23.168c-.517.538-2.287,1.063-.874,2.236.833.692,1.818.621,2.863-.474a15,15,0,0,1,4.97-3.9" transform="translate(-72.196 -29.814)" fill="#131416"/>
            <path id="Trazado_824113" data-name="Trazado 824113" d="M265.978,170.217a97.769,97.769,0,0,1,9.859,4.423c1.407.7,2.111,1.368.587,2.628-1.933,1.6-.207,1.953.928,2.55-7.423.589-14.737-.275-22.059-.691,1.019-.748,2.359-.107,3.526-.754,1.02-.563,2.229-.428,1.094-2.113-.634-.943.2-1.61,1.146-1.949.828-.3,1.64-.64,2.468-.935,1-.356,2.073-.913,1.781-2.045-.268-1.038-1.514-.7-2.381-.714a20.5,20.5,0,0,1-4.757-.419q11.387-2.147,22.774-4.3c10.215-1.934,20.653-2.49,30.75-5.253,4.357-1.193,8.948-1.561,13.452-2.153,1.01-.133,2.691-.925,2.927,1.109.215,1.867-1.05,2.022-2.575,2.225-4.873.647-9.774,1.052-14.638,1.568-5.125.543-10.236,1.977-15.447,2.6-5.932.708-11.83,1.7-17.744,2.555-3.9.564-7.794,1.109-11.692,1.663" transform="translate(-82.308 -51.016)" fill="#131416"/>
            <path id="Trazado_824114" data-name="Trazado 824114" d="M237.612,201.572c.585-.142,1.346-.695,1.064-1.045-4.034-5,1.64-2.067,2.553-3.473-3.253-1.645-7.168-1.535-10.606-3.133,4.682-.957,8.394-.139,13.385,1.252,4.131,1.151,8.579,1.151,12.88,1.716,1.651.218,3.294.533,4.916.91,1.786.415,1.788,1.853,1.4,3.167s-1.289,1.386-2.66.962c-3.133-.972-6.37-1.609-9.74-2.424.065,1.687,1.15,3.807-.108,4.439-1.2.6-3.151-.251-4.753-.564-.383-.075-.644-.661-1.037-.817-1.046-.412-2.538-.823-3.054.159-.627,1.191.986,1.417,1.764,1.928,2.136,1.4,5.035,1.842,5.7,5.219l-11.942-7.958c.074-.117.153-.23.238-.339" transform="translate(-74.354 -62.388)" fill="#131416"/>
            <path id="Trazado_824115" data-name="Trazado 824115" d="M234.152,164.03c13.356-3.328,26.367-6.529,39.354-9.818,11.032-2.794,22.033-5.71,33.062-8.516,1.159-.295,2.832-1.212,3.217.946.341,1.909-1.3,1.261-2.275,1.486-12.026,2.769-24.036,5.614-36.074,8.33-12.064,2.722-24.2,5.125-36.141,8.381-.19.052-.5-.342-1.143-.808" transform="translate(-75.492 -46.829)" fill="#131416"/>
            <path id="Trazado_824116" data-name="Trazado 824116" d="M168.442,202.425c-.846,2.169-3.13,2.806-4.581,4.322-.474.5-1.536.786-1.079,1.8.333.739,1.1.678,1.779.657.926-.028,2.3.026,2.208.94-.1,1.03-.094,2.849-1.624,2.983-1.642.144-3.4,1.518-5.055-.411-1.632-1.9-2.844.089-3.823.972-4,3.61-7.986,7.254-11.717,11.135-1.959,2.039-3.129,1.863-4.439-.58q9.95-8.075,19.948-16.185c1.722-1.4,3.534-2.689,5.179-4.169.969-.871,1.876-1.6,3.252-1.415l-.048-.051" transform="translate(-45.172 -65.263)" fill="#131416"/>
            <path id="Trazado_824117" data-name="Trazado 824117" d="M316.1,116.8a14.316,14.316,0,0,1,3.413,13.138c-1.069-.713-2.13-1.45-3.221-2.141-1.256-.8-2.4-1.453-3.733.132-1.653,1.958-3.275.2-4.834-.428-1.892-.763-.062-1.872-.14-2.819-.16-1.945,1.342-2.117,2.754-1.981,2.461.236,3.656-.844,4.278-3.2.223-.846-.033-2.155,1.483-2.7" transform="translate(-98.935 -37.657)" fill="#131416"/>
            <path id="Trazado_824118" data-name="Trazado 824118" d="M140.752,199.32c-2.067,1.688-4.795,1.385-7.107,2.359.284,1.131,1.19,1.083,2.081,1.149,1.478.108,1.13,1.242.878,2.006-.239.728-1.337,1.436-1.789.893-5.136-6.168-10.362-.919-15.572-.321-2.669.307-5.152,2.149-8.071.707,9.793-2.607,19.53-5.416,29.622-6.737Z" transform="translate(-35.843 -64.262)" fill="#131416"/>
            <path id="Trazado_824119" data-name="Trazado 824119" d="M149.626,191.234c-.169-2.21-2.648-1.46-3.582-2.784-.461-.654-1.6-.883-1.495-1.928a2.46,2.46,0,0,1,1.995-1.964c2.668-.8,5.24.481,7.857.734,1.123.108.646,2.754.35,2.739-2.537-.123-2.664,3.5-5.171,3.155Z" transform="translate(-46.602 -59.419)" fill="#131416"/>
            <path id="Trazado_824120" data-name="Trazado 824120" d="M226.442,130.295q5.216-10.541,10.419-21.088c.411-.837.8-1.778,1.87-1.365s.947,1.217.367,2.187c-4.111,6.874-8.155,13.787-12.221,20.688q-.209-.219-.435-.421" transform="translate(-73.006 -34.737)" fill="#131416"/>
            <path id="Trazado_824121" data-name="Trazado 824121" d="M142.047,193.136A114.138,114.138,0,0,1,123,195.881c.648-1.528,2.068-1.21,3.083-1.939-.913-.051-1.827-.136-2.74-.147-1.068-.013-2.278-.123-2.16-1.439.084-.942,1-1.6,2.1-1.893,1.839-.491,3.061.693,4.215,1.594a7.458,7.458,0,0,0,6.863,1.427c2.473-.559,5.146-.236,7.731-.3l-.044-.048" transform="translate(-39.067 -61.369)" fill="#131416"/>
            <path id="Trazado_824122" data-name="Trazado 824122" d="M130.66,218.024c-.1,3.332-4.252,3.41-4.757,6.592-1.63-2.238-4.553-4.3-2.2-6.947,1.842-2.067,4.639.216,6.953.354" transform="translate(-39.599 -69.901)" fill="#131416"/>
            <path id="Trazado_824123" data-name="Trazado 824123" d="M288.168,149.876c-1.682,0-3.366.01-5.048,0-1.248-.01-2.88-.236-2.854-1.529a4.205,4.205,0,0,1,1.6-3.515c1.464-.971,2.208.157,3.143.955,1.264,1.077,2.616,2.052,3.931,3.072l-.775,1.021" transform="translate(-90.36 -46.573)" fill="#131416"/>
            <path id="Trazado_824124" data-name="Trazado 824124" d="M262.041,155.16a2.4,2.4,0,0,1-1.478,1.405c-3.6,1.426-7.168,2.942-10.745,4.427-.64.266-1.423.476-1.7-.3-.262-.74.451-1.144,1.091-1.423,3.443-1.5,6.873-3.025,10.333-4.484.855-.36,1.877-.852,2.5.375" transform="translate(-79.978 -49.772)" fill="#131416"/>
            <path id="Trazado_824125" data-name="Trazado 824125" d="M246.729,122.645c.1,1.868-.146,3.82-2.226,4.234a2.036,2.036,0,0,1-2.33-2.526c.524-1.712-.138-4.494,2.571-4.8,2-.228,2.151,1.512,1.985,3.1" transform="translate(-78.051 -38.537)" fill="#131416"/>
            <path id="Trazado_824126" data-name="Trazado 824126" d="M158.974,203.86l-15.436,9.049-.653-1.109,15.505-8.738.583.8" transform="translate(-46.067 -65.469)" fill="#131416"/>
            <path id="Trazado_824127" data-name="Trazado 824127" d="M248.581,218.6c-.144-1.8-2.271-1.853-2.863-3.257l.565-.621c3.063,2.165,6.145,4.3,9.171,6.518.539.394,1.626.906.945,1.775-.552.7-1.386.25-2.037-.31a25.587,25.587,0,0,0-5.818-4.142Z" transform="translate(-79.221 -69.227)" fill="#131416"/>
            <path id="Trazado_824128" data-name="Trazado 824128" d="M168.67,181.465c-4.042-.4-8.183-.5-12.042-2.185,4.224-.689,8.027,1.334,12.042,2.185" transform="translate(-50.498 -57.756)" fill="#131416"/>
            <path id="Trazado_824129" data-name="Trazado 824129" d="M330.225,191.522H319.432c3.58-1.186,7.182-.96,10.78-.877q.006.438.012.877" transform="translate(-102.987 -61.442)" fill="#131416"/>
            <path id="Trazado_824130" data-name="Trazado 824130" d="M292.147,189.424c4.036.445,7.7-.673,11.68.915-6.266.728-9.185.536-11.68-.915" transform="translate(-94.19 -61.072)" fill="#131416"/>
            <path id="Trazado_824131" data-name="Trazado 824131" d="M245.448,177.522c-4.774,1.937-8.794,1.62-12.744,1.933,3.954-.693,7.8-2.124,12.744-1.933" transform="translate(-75.025 -57.229)" fill="#131416"/>
            <path id="Trazado_824132" data-name="Trazado 824132" d="M246.2,218.4c-.867.741.513,1.65-.316,2.517-2.418-2.1-5.541-3.382-7.447-6.182q.23-.248.453-.5c1.625,1.135,3.225,2.307,4.885,3.389.724.472,1.3,1.586,2.461.816l-.037-.037" transform="translate(-76.872 -69.071)" fill="#131416"/>
            <path id="Trazado_824133" data-name="Trazado 824133" d="M123.639,183.843c3.1-.432,6.194-.748,9.964.9h-9.965c0-.3,0-.6,0-.9" transform="translate(-39.862 -59.161)" fill="#131416"/>
            <path id="Trazado_824134" data-name="Trazado 824134" d="M154.869,199.055c.695-1.06,1.838-.315,2.707-.674l-.043-.053c1.048,2.465,3,.067,4.526.9a5.17,5.17,0,0,1-2.683,1.274c-1.5.415-3.453,2.292-3.62-1.238,0-.1-.6-.175-.928-.264l.041.053" transform="translate(-49.918 -63.942)" fill="#131416"/>
            <path id="Trazado_824135" data-name="Trazado 824135" d="M88.843,201.708c3.23-1.6,6.193-1.161,9.119-1.067a19.2,19.2,0,0,1-9.119,1.067" transform="translate(-28.644 -64.648)" fill="#131416"/>
            <path id="Trazado_824136" data-name="Trazado 824136" d="M244.1,214.129a8.512,8.512,0,0,1-3.406-2.685l.508-.48c1.163.836,2.593,1.312,3.462,2.547l-.564.618" transform="translate(-77.601 -68.016)" fill="#131416"/>
            <path id="Trazado_824137" data-name="Trazado 824137" d="M237.109,213.843c-1.089-.513-2.431-.724-2.784-2.374,1.63-.157,2.356.995,3.236,1.87q-.224.255-.453.5" transform="translate(-75.548 -68.174)" fill="#131416"/>
            <path id="Trazado_824138" data-name="Trazado 824138" d="M225.891,204.465a3.916,3.916,0,0,1,2.7,2.031l.066-.059c-1.065-.458-2.748-.089-2.714-2.023Z" transform="translate(-72.829 -65.905)" fill="#131416"/>
            <path id="Trazado_824139" data-name="Trazado 824139" d="M253.57,176.632h2.948a2.434,2.434,0,0,1-2.948,0" transform="translate(-81.753 -56.947)" fill="#131416"/>
            <path id="Trazado_824140" data-name="Trazado 824140" d="M229.871,207.46c.492-.077.814.133.839.623.017.336-.279.684-.556.417-.22-.212-.155-.722-.217-1.1l-.066.06" transform="translate(-74.112 -66.867)" fill="#131416"/>
            <path id="Trazado_824141" data-name="Trazado 824141" d="M238.858,209.223q.789.592,1.579,1.181l-.508.479q-.8-.541-1.6-1.082l.533-.578" transform="translate(-76.838 -67.455)" fill="#131416"/>
            <path id="Trazado_824142" data-name="Trazado 824142" d="M158.864,198.135c.56-.751,1.3-.606,2.123-.417-.674.654-1.434.43-2.166.365l.043.052" transform="translate(-51.205 -63.697)" fill="#131416"/>
            <path id="Trazado_824143" data-name="Trazado 824143" d="M152.224,178.678l.575.186a1.09,1.09,0,0,1-1.159,0l.584-.189" transform="translate(-48.89 -57.607)" fill="#131416"/>
            <path id="Trazado_824144" data-name="Trazado 824144" d="M240.04,205.414c-.454-.255-1.259-.138-1.1-1.041l-.051.069c.542.038,1.146-.06,1.388.633-.085.109-.164.222-.238.339" transform="translate(-77.019 -65.891)" fill="#131416"/>
            <path id="Trazado_824145" data-name="Trazado 824145" d="M233.166,204.93l1.155.916q-.224.206-.44.42l-1.153-.867a5.115,5.115,0,0,0,.438-.469" transform="translate(-75.033 -66.071)" fill="#131416"/>
            <path id="Trazado_824146" data-name="Trazado 824146" d="M237.175,207.924l1.167.88-.533.578q-.544-.491-1.084-.982a5.748,5.748,0,0,0,.45-.476" transform="translate(-76.322 -67.036)" fill="#131416"/>
            <path id="Trazado_824147" data-name="Trazado 824147" d="M238.27,203.955c-.7.356-1.115-.008-1.46-.564q.164-.156.325-.314c.516.139.97.349,1.083.947l.051-.069" transform="translate(-76.349 -65.473)" fill="#131416"/>
            <path id="Trazado_824148" data-name="Trazado 824148" d="M222.8,202.535a1.265,1.265,0,0,1,1.437.583l.048-.045a1.3,1.3,0,0,1-1.439-.593l-.046.054" transform="translate(-71.832 -65.281)" fill="#131416"/>
            <path id="Trazado_824149" data-name="Trazado 824149" d="M233.765,202.1l-.522-.291c.179-.089.358-.249.537-.248s.342.168.514.262c-.174.092-.346.185-.529.276" transform="translate(-75.199 -64.984)" fill="#131416"/>
            <path id="Trazado_824150" data-name="Trazado 824150" d="M232.544,205.341l-.387-.592c.274.042.549.085.824.125a5.253,5.253,0,0,1-.437.467" transform="translate(-74.849 -66.012)" fill="#131416"/>
            <path id="Trazado_824151" data-name="Trazado 824151" d="M235.383,207.111c-.457.186-.714-.091-.951-.411.143-.14.29-.281.439-.418l.566.785-.054.044" transform="translate(-75.582 -66.507)" fill="#131416"/>
            <path id="Trazado_824152" data-name="Trazado 824152" d="M236.425,208.244c-.363-.126-.743-.238-.6-.761l.052-.043q.5.167,1,.331a5.683,5.683,0,0,1-.449.473" transform="translate(-76.021 -66.88)" fill="#131416"/>
            <path id="Trazado_824153" data-name="Trazado 824153" d="M236.567,203.286c-.258-.1-.661-.089-.451-.529a4.546,4.546,0,0,1,.774.217c-.106.1-.214.208-.323.312" transform="translate(-76.107 -65.368)" fill="#131416"/>
            <path id="Trazado_824154" data-name="Trazado 824154" d="M226.73,141.448c-.177.194-.494.569-.51.556-.446-.346-.164-.663.077-.977.148.134.293.275.433.421" transform="translate(-72.859 -45.468)" fill="#131416"/>
            <path id="Trazado_824155" data-name="Trazado 824155" d="M225.626,204.074c-.424-.05-.69-.247-.659-.717l-.047.044.658.724.048-.051" transform="translate(-72.516 -65.564)" fill="#131416"/>
            <path id="Trazado_824156" data-name="Trazado 824156" d="M223.624,143.412l-.4,1.146c-.083-.073-.22-.133-.24-.22a.94.94,0,0,1,.434-1.111l.2.184" transform="translate(-71.881 -46.178)" fill="#df7b2d"/>
          </g>
        </g>
        <text id="_" data-name="*" transform="translate(158.192 255.357)" font-size="42" font-family="Roboto-Bold, Roboto" font-weight="700"><tspan x="0" y="0">*</tspan></text>
        <text id="_1" data-name="1" transform="translate(154.125 284.724)" font-size="42" font-family="Roboto-Bold, Roboto" font-weight="700"><tspan x="0" y="0">1</tspan></text>
      </g>
    </g>
  </g>
</svg>
