<svg xmlns="http://www.w3.org/2000/svg" xmlns:xlink="http://www.w3.org/1999/xlink" width="190" height="190" viewBox="0 0 190 190">
  <defs>
    <clipPath id="clip-path">
      <rect id="Rect치ngulo_377985" data-name="Rect치ngulo 377985" width="190" height="190" transform="translate(1069 908)" fill="#fff" stroke="#707070" stroke-width="1"/>
    </clipPath>
    <clipPath id="clip-path-2">
      <rect id="Rect치ngulo_377984" data-name="Rect치ngulo 377984" width="148.002" height="143.216" fill="none"/>
    </clipPath>
  </defs>
  <g id="Enmascarar_grupo_391" data-name="Enmascarar grupo 391" transform="translate(-1069 -908)" clip-path="url(#clip-path)">
    <g id="Grupo_1074074" data-name="Grupo 1074074" transform="translate(1090 931)">
      <g id="Grupo_1074073" data-name="Grupo 1074073" clip-path="url(#clip-path-2)">
        <path id="Trazado_819623" data-name="Trazado 819623" d="M98.91,24.951c.554,2.117.032,4.3.4,6.429a2.219,2.219,0,0,0-2.181,1.5,5.66,5.66,0,0,0-.153,1.761q-.006,6.208.021,12.415c0,.281,0,.559-.367.581a14.545,14.545,0,0,0-2.852.63,51.97,51.97,0,0,0-5.107,1.641,50.757,50.757,0,0,0-8.234,4.179,30.782,30.782,0,0,0-4.953,3.741,49.125,49.125,0,0,0-4.28,4.241,1.285,1.285,0,0,1-1.11.52q-10.635-.024-21.27-.012a5.054,5.054,0,0,0-1.3.128,2.061,2.061,0,0,0-1.6,2.255,2.139,2.139,0,0,0,2.106,1.857c6.209-.022,12.419-.012,18.628-.006.222,0,.472-.089.7.105a49.42,49.42,0,0,0-3.578,6.237,44.435,44.435,0,0,0-2.73,7.137,34.716,34.716,0,0,0-.936,4.161,42.664,42.664,0,0,0-.68,5.449c-.018.535-.15.7-.706.7-3.214-.028-6.429-.014-9.644-.013a7.4,7.4,0,0,0-1.559.118,2.03,2.03,0,0,0-1.608,2.107A2.1,2.1,0,0,0,47.75,94.8c3.455.094,6.911.064,10.366.022q.161.238.325,0c.975.063,1,.063.968,1.085-.013.383.138.725.136,1.094a25.274,25.274,0,0,0,.718,5.006,41.785,41.785,0,0,0,2.307,7.611,50.082,50.082,0,0,0,4.242,8.164c.156.245.43.434.461.8H66.58c-6.165,0-12.329.02-18.493-.007A2.054,2.054,0,0,0,45.9,120.6a2.161,2.161,0,0,0,2.114,2.239c.242.015.484.018.726.018q10.7,0,21.4-.007a1.154,1.154,0,0,1,.954.443,42.648,42.648,0,0,0,12.9,10.132,52.159,52.159,0,0,0,9.613,3.786c.913.259,1.87.312,2.777.642.461.167.625.378.615.832-.02.836-.029,1.673-.017,2.509.023,1.633-.368,1.513-1.468,1.479-.132,0-.264,0-.4,0q-23.513,0-47.026,0c-.549,0-1.1.064-1.647.069a2.263,2.263,0,0,0-2.119,2.266c-2.1-.065-4.2.14-6.3-.132-.187-.34-.14-.741-.365-1.091a2.723,2.723,0,0,0-2.6-1.119q-11.361,0-22.722,0c-1.1,0-2.2.034-3.3.008C8.2,142.66,8,142.535,8,141.655Q8.016,75.578,8.008,9.5c0-.132.008-.265,0-.4-.032-.462.182-.654.64-.719a17.045,17.045,0,0,1,2.44-.006Q53.294,8.35,95.5,8.335c1.45,0,1.468,0,1.471,1.432.007,3.984,0,7.968,0,11.953a9.777,9.777,0,0,0,.091,1.447,1.91,1.91,0,0,0,1.848,1.784M26.758,38.8c2.047,0,4.094,0,6.14,0a2.609,2.609,0,0,0,.638-.069,5.351,5.351,0,0,0,4.093-5.343c0-3.168.028-6.338-.033-9.5a2.741,2.741,0,0,1,.974-2.527,2.565,2.565,0,0,0,1.01-1.65,2.362,2.362,0,0,0-1.172-2.06,1.924,1.924,0,0,0-2.354.33.861.861,0,0,1-1.215.131,5.213,5.213,0,0,0-2.611-.7c-3.543-.02-7.086-.011-10.629.007a5.658,5.658,0,0,0-2.688.672,5.028,5.028,0,0,0-2.814,4.5c-.088,3.759,0,7.523-.007,11.284a4.645,4.645,0,0,0,.353,1.682,5.521,5.521,0,0,0,4.9,3.282c1.8-.124,3.608-.025,5.412-.025m.5,28.005c1.761,0,3.522,0,5.283,0a4.954,4.954,0,0,0,4.109-2.237,5.55,5.55,0,0,0,.962-3.377c.007-3.169.024-6.339-.03-9.507a2.487,2.487,0,0,1,.926-2.288,4.082,4.082,0,0,0,.7-.866,1.765,1.765,0,0,0-.281-2.487,1.934,1.934,0,0,0-2.5-.338,8.185,8.185,0,0,1-.727.563c-.134.075-.273.3-.509.1a5.033,5.033,0,0,0-3.377-.943,98.324,98.324,0,0,0-11.2.108A5.391,5.391,0,0,0,16.07,50.51c.008,3.784.032,7.567.034,11.351a4.786,4.786,0,0,0,1.388,3.265,5.487,5.487,0,0,0,4.421,1.679c1.783-.012,3.566,0,5.349,0m-.569,56.045v.006c1.783,0,3.567,0,5.35,0a4.59,4.59,0,0,0,1.82-.221c2.758-1.181,3.652-2.721,3.738-5.47.082-2.6.028-5.2,0-7.793a23.92,23.92,0,0,0-.116-3.669,5.278,5.278,0,0,0-3.678-4.033,12.671,12.671,0,0,0-3.313-.242c-3.291.072-6.584-.144-9.876.111a5.2,5.2,0,0,0-4.538,5.028c-.051,3.7.008,7.4,0,11.092a6.054,6.054,0,0,0,.155,1.081,5.5,5.5,0,0,0,5.1,4.121c1.781-.072,3.566-.015,5.35-.015m-.043-28.024c1.915,0,3.833.068,5.744-.015a5.1,5.1,0,0,0,5.2-5.311c.082-3.63.05-7.264,0-10.9a5.2,5.2,0,0,0-2.031-4.076,6.073,6.073,0,0,0-4-1.091c-3.411-.066-6.825-.042-10.237-.014a4.647,4.647,0,0,0-2.367.6,5.392,5.392,0,0,0-2.869,4.986c.026,3.5-.024,7,.007,10.5a5.2,5.2,0,0,0,5.135,5.3c1.8.065,3.609.012,5.414.013M67.384,38.8v0H86.8a2.236,2.236,0,0,0,2.014-1.318,2.116,2.116,0,0,0-.62-2.266,2.6,2.6,0,0,0-1.848-.647q-18.986,0-37.972,0c-.11,0-.22,0-.33,0a2.158,2.158,0,0,0-1.9,3.1,1.87,1.87,0,0,0,1.9,1.134q9.675-.008,19.349,0M51.4,86.883c1.035,0,2.069,0,3.1,0a2.272,2.272,0,0,0,2.4-2.35,2.142,2.142,0,0,0-2.331-1.991c-2.091-.008-4.182.008-6.273.02a3.033,3.033,0,0,0-.52.062,2,2,0,0,0-1.867,2.256,2.308,2.308,0,0,0,2.25,2c1.079.006,2.157,0,3.236,0m.142,27.927c1.164,0,2.331.042,3.494-.013a2.03,2.03,0,0,0,1.863-1.592,2.174,2.174,0,0,0-1.115-2.385,2.966,2.966,0,0,0-1.381-.3c-2.023,0-4.045.011-6.068.005a3.105,3.105,0,0,0-1.189.261,2.015,2.015,0,0,0-1.226,2.164,2.28,2.28,0,0,0,1.864,1.836c1.254.064,2.506,0,3.758.021m.025-60.164v0c-1.255,0-2.511-.016-3.765,0-1.138.019-2.271,1.278-1.988,2.243a2.52,2.52,0,0,0,2.5,1.987c2-.032,4.007-.027,6.011,0a3.238,3.238,0,0,0,1.81-.581,2.092,2.092,0,0,0,.757-2.243,2.021,2.021,0,0,0-1.823-1.416c-1.167-.007-2.334,0-3.5,0m-.17-23.788v.012h3.234c.044,0,.088,0,.132,0A2.269,2.269,0,0,0,57.04,28.7a2.137,2.137,0,0,0-1.976-2.049q-3.6-.037-7.193.01a1.851,1.851,0,0,0-1.7,1.026,2.141,2.141,0,0,0,1.921,3.161c1.1.051,2.2.01,3.3.01" transform="translate(-3.758 -3.916)" fill="#f8f2f1"/>
        <path id="Trazado_819624" data-name="Trazado 819624" d="M90.331,115.263c-3.455.042-6.911.072-10.366-.022a2.1,2.1,0,0,1-1.843-1.992,2.03,2.03,0,0,1,1.608-2.107,7.4,7.4,0,0,1,1.559-.118c3.215,0,6.43-.015,9.644.013.556,0,.688-.163.706-.7a42.665,42.665,0,0,1,.68-5.449,34.716,34.716,0,0,1,.936-4.161,44.434,44.434,0,0,1,2.73-7.137,49.42,49.42,0,0,1,3.578-6.237c-.225-.194-.475-.105-.7-.105-6.209-.006-12.419-.016-18.628.006A2.139,2.139,0,0,1,78.134,85.4a2.061,2.061,0,0,1,1.6-2.255,5.054,5.054,0,0,1,1.3-.128q10.634,0,21.27.012a1.285,1.285,0,0,0,1.11-.52,49.052,49.052,0,0,1,4.28-4.241,30.782,30.782,0,0,1,4.953-3.741,50.756,50.756,0,0,1,8.234-4.179,51.968,51.968,0,0,1,5.107-1.641,14.545,14.545,0,0,1,2.852-.63c.366-.023.368-.3.367-.581q-.017-6.208-.021-12.415a5.675,5.675,0,0,1,.154-1.761,2.219,2.219,0,0,1,2.181-1.5c.062.023.123.048.187.067a2.148,2.148,0,0,1,1.669,2.144c.012.373.074.745.074,1.118q0,5.811-.022,11.623c0,.31-.019.585.427.527a51.53,51.53,0,0,1,5.411-.211,27.794,27.794,0,0,1,2.776.241c.971.077,1.929.254,2.913.294.6.025,1.229.4,1.893.47a26.3,26.3,0,0,1,3.558.8A34.349,34.349,0,0,1,153.686,70a46.9,46.9,0,0,1,14.777,8.846,45.78,45.78,0,0,1,12.043,17.043,46.655,46.655,0,0,1,1.937,5.9,43.753,43.753,0,0,1,.954,4.674,39.913,39.913,0,0,1,.472,4.319c.031.981.14,1.966.1,2.947-.1,2.118-.318,4.221-.614,6.326a40.316,40.316,0,0,1-1.4,6.327,43.409,43.409,0,0,1-3.966,9.27,58.184,58.184,0,0,1-3.775,5.6,45.9,45.9,0,0,1-4.559,5.066,39.645,39.645,0,0,1-6.645,5.288c-1.331.834-2.667,1.665-4.075,2.376a47.16,47.16,0,0,1-10.335,3.869,58.645,58.645,0,0,1-6.675,1.133,49.325,49.325,0,0,1-7.829.119c-.561-.022-.744.152-.683.7.053.48.028.967.038,1.451-.154-.041-.179.058-.178.171s.026.213.18.167a5.515,5.515,0,0,1-1.271,4.1,5.266,5.266,0,0,1-3.795,1.729q-15.817.042-31.633.033-7.991,0-15.982,0c-.352,0-.7.016-1.056.025-.005-.218-.229-.123-.318-.223l-.033.246a2.71,2.71,0,0,1-2.215-.854,5.259,5.259,0,0,1-.609-1.2,2.263,2.263,0,0,1,2.119-2.266c.549-.006,1.1-.069,1.647-.069q23.513-.006,47.026,0c.132,0,.264,0,.4,0,1.1.034,1.491.155,1.468-1.479-.012-.836,0-1.673.017-2.509.01-.453-.154-.664-.615-.832-.907-.33-1.864-.383-2.777-.642a52.159,52.159,0,0,1-9.613-3.786,42.648,42.648,0,0,1-12.9-10.132,1.154,1.154,0,0,0-.954-.443q-10.7.014-21.4.007c-.242,0-.484,0-.726-.018a2.161,2.161,0,0,1-2.114-2.239,2.054,2.054,0,0,1,2.187-2.026c6.164.027,12.328.009,18.493.007h.693c-.031-.365-.3-.553-.461-.8a50.081,50.081,0,0,1-4.242-8.164,41.785,41.785,0,0,1-2.307-7.611,25.273,25.273,0,0,1-.718-5.006c0-.369-.148-.712-.136-1.094.033-1.022.007-1.022-.967-1.084,0-.2-.22-.121-.293-.231-.011.076-.022.152-.033.227m54.257-43.192c-1.5-.2-2.991-.447-4.494-.589a25.038,25.038,0,0,0-4.993.019,23.356,23.356,0,0,1-2.977.375c-1.688-.046-3.211.62-4.825.871a22.213,22.213,0,0,0-3.629,1.1A43.919,43.919,0,0,0,114.1,78.7a42.273,42.273,0,0,0-6.6,5.584,39.587,39.587,0,0,0-5.618,7.3,40.856,40.856,0,0,0-3.413,7.045,37.573,37.573,0,0,0-1.615,5.491c-.323,1.586-.535,3.182-.731,4.79a35.508,35.508,0,0,0-.02,8.4,49.927,49.927,0,0,0,1.285,7.042,39.289,39.289,0,0,0,5.4,11.878,40.664,40.664,0,0,0,6.73,7.8A41.365,41.365,0,0,0,130.827,154.3a25,25,0,0,0,6.124.552l.051.02.052-.016a27.512,27.512,0,0,0,7.535-.641,4.785,4.785,0,0,0,.852-.036,54.06,54.06,0,0,0,7.357-2.05,40.835,40.835,0,0,0,15.712-10.6A40.162,40.162,0,0,0,174,134.079a15.938,15.938,0,0,1,.845-1.8,13.416,13.416,0,0,0,1.661-3.248,38.061,38.061,0,0,0,2.418-8.154c.381-2.075.491-4.191.725-6.288a19.236,19.236,0,0,0-.078-4.177,49.366,49.366,0,0,0-.948-6.575,43.281,43.281,0,0,0-3.2-8.976,41.048,41.048,0,0,0-8.28-11.445,43.911,43.911,0,0,0-6.014-4.919,41.859,41.859,0,0,0-10.717-5.136,27.439,27.439,0,0,0-2.985-.811,8.245,8.245,0,0,0-2.838-.481" transform="translate(-35.973 -24.357)"/>
        <path id="Trazado_819625" data-name="Trazado 819625" d="M95.152,21.035A1.909,1.909,0,0,1,93.3,19.252a9.765,9.765,0,0,1-.091-1.447c0-3.984.008-7.969,0-11.953,0-1.433-.021-1.433-1.471-1.431q-42.207.018-84.414.042a17.122,17.122,0,0,0-2.44.006c-.458.066-.673.258-.641.72.009.131,0,.264,0,.4q0,66.078-.012,132.155c0,.88.209,1,1.038,1.025,1.1.026,2.2-.008,3.3-.008q11.361,0,22.722,0a2.725,2.725,0,0,1,2.6,1.119c.224.349.178.751.364,1.091-.326,1.527-1.027,2.156-2.449,2.156Q18.905,143.11,6,143.092A6.3,6.3,0,0,1,2.68,142.5a5.536,5.536,0,0,1-2.526-3.34,4.241,4.241,0,0,1-.135-1.281Q.023,71.937,0,6A6.631,6.631,0,0,1,.873,2.344,4.644,4.644,0,0,1,3.275.461,7.256,7.256,0,0,1,5.7.095Q48.729.1,91.758.1A6.347,6.347,0,0,0,93.182,0l.253.205a7.721,7.721,0,0,1,2.021.9A5.194,5.194,0,0,1,96.54,2.294c.97,1.1.876,2.488.9,3.782.077,4.13.046,8.262.057,12.393a3.708,3.708,0,0,1-.351,1.641,1.872,1.872,0,0,1-1.994.925" transform="translate(0)"/>
        <path id="Trazado_819626" data-name="Trazado 819626" d="M81.865,269.885l.033-.246c.089.1.313,0,.318.223a.239.239,0,0,1-.351.024" transform="translate(-38.478 -126.736)" fill="#f8f2f1"/>
        <path id="Trazado_819627" data-name="Trazado 819627" d="M183.761,258.632c-.154.045-.18-.054-.18-.167s.024-.213.178-.171a.294.294,0,0,1,0,.338" transform="translate(-86.287 -121.398)" fill="#5490d5"/>
        <path id="Trazado_819628" data-name="Trazado 819628" d="M176.075.205,175.822,0c.142,0,.241.048.253.205" transform="translate(-82.64 0)" fill="#f8f2f1"/>
        <path id="Trazado_819629" data-name="Trazado 819629" d="M33.908,46.823c-1.8,0-3.616-.1-5.412.026a5.521,5.521,0,0,1-4.9-3.282,4.639,4.639,0,0,1-.353-1.682c.01-3.762-.081-7.525.006-11.284a5.03,5.03,0,0,1,2.815-4.5,5.655,5.655,0,0,1,2.688-.671c3.543-.019,7.086-.027,10.629-.007a5.218,5.218,0,0,1,2.611.7.86.86,0,0,0,1.215-.131,1.924,1.924,0,0,1,2.354-.33,2.361,2.361,0,0,1,1.172,2.06,2.565,2.565,0,0,1-1.01,1.65,2.74,2.74,0,0,0-.974,2.527c.061,3.167.036,6.336.033,9.5a5.35,5.35,0,0,1-4.093,5.342,2.61,2.61,0,0,1-.638.07c-2.046.007-4.093,0-6.14,0m.8-4.259c1.561.008,3.123.036,4.683.019.831-.01,1.137-.361,1.138-1.172q0-2.508,0-5.016V34.71c-.294.009-.344.21-.464.323-1.808,1.7-3.358,3.66-5.373,5.139a2.111,2.111,0,0,1-2.429-.674c-.783-.7-1.51-1.469-2.227-2.24a1.839,1.839,0,0,1-.542-1.683c.4-1.914,2.14-2.469,3.643-1.158.913.8.913.8,1.733-.128a1.623,1.623,0,0,0,.111-.16c1.4-1.4,2.9-2.71,4.277-4.327H34.713c-1.937-.01-3.875-.024-5.812-.028-1.144,0-1.327.195-1.327,1.353q0,4.855,0,9.71a6.6,6.6,0,0,0,.031.923c.051.354.147.708.612.733l.126.04c2.12.109,4.242.038,6.363.032" transform="translate(-10.908 -11.943)"/>
        <path id="Trazado_819630" data-name="Trazado 819630" d="M34.422,99.6c-1.783,0-3.566-.01-5.349,0a5.489,5.489,0,0,1-4.421-1.679,4.787,4.787,0,0,1-1.388-3.265c0-3.784-.026-7.567-.034-11.351a5.392,5.392,0,0,1,4.553-4.982,98.449,98.449,0,0,1,11.2-.108,5.036,5.036,0,0,1,3.377.943c.235.2.375-.024.509-.1a8.172,8.172,0,0,0,.726-.563,1.935,1.935,0,0,1,2.5.338,1.765,1.765,0,0,1,.281,2.487,4.081,4.081,0,0,1-.7.866,2.487,2.487,0,0,0-.925,2.288c.054,3.168.037,6.338.03,9.507a5.55,5.55,0,0,1-.962,3.377A4.955,4.955,0,0,1,39.7,99.6c-1.761,0-3.522,0-5.282,0m-.082-17.09c-1.87-.014-3.74-.054-5.61-.032-.851.01-1.122.339-1.139,1.2-.016.836,0,1.673,0,2.509,0,2.664-.007,5.327,0,7.991,0,.877.277,1.186,1.053,1.189,2.025.008,4.05-.008,6.075-.015,1.582.008,3.165.029,4.746.019a.983.983,0,0,0,1.072-1.109c0-2.066,0-4.132,0-6.2,0-.2.094-.434.027-.494-.534.449-1.061.873-1.565,1.323A53.6,53.6,0,0,1,34.7,92.966a1.957,1.957,0,0,1-2.12-.339,36.74,36.74,0,0,1-2.732-2.8,2.051,2.051,0,0,1,.354-2.913,2.339,2.339,0,0,1,2.947.255c.735.827.736.828,1.521,0a2.262,2.262,0,0,0,.188-.261,23.035,23.035,0,0,0,2.544-2.363,10.735,10.735,0,0,0,1.822-2.032H34.443a.064.064,0,0,0-.1,0" transform="translate(-10.919 -36.715)"/>
        <path id="Trazado_819631" data-name="Trazado 819631" d="M33.847,205.395c-1.783,0-3.569-.057-5.349.015a5.5,5.5,0,0,1-5.1-4.121,6.054,6.054,0,0,1-.155-1.081c.011-3.7-.048-7.4,0-11.092a5.2,5.2,0,0,1,4.538-5.028c3.291-.255,6.584-.039,9.876-.111a12.665,12.665,0,0,1,3.312.242,5.279,5.279,0,0,1,3.678,4.033,23.853,23.853,0,0,1,.115,3.669c.024,2.6.078,5.2,0,7.793-.087,2.749-.981,4.289-3.739,5.47a4.589,4.589,0,0,1-1.82.221c-1.783-.006-3.567,0-5.35,0v-.006m6.689-10.681q0-2.542,0-5.083c0-1.038-.208-1.3-1.266-1.309q-5.314-.041-10.628-.014c-.844,0-1.068.281-1.068,1.136q0,3.829.006,7.657c0,.924-.018,1.849,0,2.772.02,1.068.222,1.259,1.265,1.259.726,0,1.452-.018,2.179-.016q3.961.007,7.922.021c1.284,0,1.592-.292,1.592-1.539q0-2.442,0-4.885" transform="translate(-10.913 -86.464)"/>
        <path id="Trazado_819632" data-name="Trazado 819632" d="M33.825,152.523c-1.805,0-3.612.053-5.414-.012a5.2,5.2,0,0,1-5.135-5.3c-.031-3.5.019-7-.006-10.5a5.391,5.391,0,0,1,2.868-4.986,4.652,4.652,0,0,1,2.367-.6c3.412-.029,6.826-.052,10.237.014a6.069,6.069,0,0,1,4,1.091,5.2,5.2,0,0,1,2.031,4.075c.053,3.631.084,7.266,0,10.9a5.1,5.1,0,0,1-5.2,5.311c-1.911.083-3.829.015-5.744.014m.1-4.239q2.708,0,5.417,0a1.055,1.055,0,0,0,1.2-1.073q.006-5.284,0-10.568a1.012,1.012,0,0,0-.988-1.163,5.75,5.75,0,0,0-.921-.065q-4.756-.02-9.512-.026c-1.25,0-1.531.3-1.528,1.579q.006,4.36.009,8.719c0,.572-.038,1.147.008,1.716a.842.842,0,0,0,.966.9c1.783-.037,3.567-.013,5.351-.014" transform="translate(-10.935 -61.617)"/>
        <path id="Trazado_819633" data-name="Trazado 819633" d="M101.024,62.069q-9.675,0-19.349,0a1.869,1.869,0,0,1-1.9-1.133,2.157,2.157,0,0,1,1.9-3.1c.11,0,.22,0,.33,0q18.986,0,37.972,0a2.6,2.6,0,0,1,1.849.646,2.117,2.117,0,0,1,.62,2.266,2.238,2.238,0,0,1-2.014,1.318H101.024Z" transform="translate(-37.398 -27.184)"/>
        <path id="Trazado_819634" data-name="Trazado 819634" d="M85.009,152.7c-1.079,0-2.157,0-3.236,0a2.308,2.308,0,0,1-2.25-2,2,2,0,0,1,1.867-2.256,3.034,3.034,0,0,1,.52-.062c2.091-.011,4.182-.028,6.273-.02a2.142,2.142,0,0,1,2.331,1.991,2.272,2.272,0,0,1-2.4,2.35c-1.035,0-2.069,0-3.1,0" transform="translate(-37.371 -69.729)"/>
        <path id="Trazado_819635" data-name="Trazado 819635" d="M85.15,205.44c-1.252-.021-2.5.042-3.758-.021a2.28,2.28,0,0,1-1.864-1.836,2.014,2.014,0,0,1,1.225-2.164,3.108,3.108,0,0,1,1.189-.261c2.023.006,4.045,0,6.068-.005a2.965,2.965,0,0,1,1.381.3,2.174,2.174,0,0,1,1.115,2.385,2.03,2.03,0,0,1-1.863,1.592c-1.162.056-2.329.013-3.494.013" transform="translate(-37.371 -94.545)"/>
        <path id="Trazado_819636" data-name="Trazado 819636" d="M85.06,95.719c1.167,0,2.334-.005,3.5,0a2.02,2.02,0,0,1,1.823,1.416,2.091,2.091,0,0,1-.756,2.243,3.239,3.239,0,0,1-1.81.58c-2-.029-4.007-.034-6.01,0a2.519,2.519,0,0,1-2.5-1.987c-.284-.966.85-2.224,1.988-2.243,1.255-.021,2.51,0,3.765,0Z" transform="translate(-37.255 -44.989)"/>
        <path id="Trazado_819637" data-name="Trazado 819637" d="M85.016,47.091c-1.1,0-2.2.042-3.3-.01A2.141,2.141,0,0,1,79.8,43.921a1.851,1.851,0,0,1,1.7-1.026q3.6-.042,7.193-.01a2.137,2.137,0,0,1,1.976,2.049A2.269,2.269,0,0,1,88.382,47.1c-.044,0-.088,0-.132,0H85.016v-.012" transform="translate(-37.38 -20.15)"/>
        <path id="Trazado_819638" data-name="Trazado 819638" d="M102.566,171.324c.011-.076.022-.152.033-.227.073.109.3.027.293.231q-.165.235-.325,0" transform="translate(-48.208 -80.419)" fill="#5490d5"/>
        <path id="Trazado_819639" data-name="Trazado 819639" d="M154.089,172.184a25.028,25.028,0,0,1-6.124-.552,41.365,41.365,0,0,1-21.315-10.267,40.7,40.7,0,0,1-6.73-7.8,39.3,39.3,0,0,1-5.4-11.878,50.016,50.016,0,0,1-1.285-7.042,35.535,35.535,0,0,1,.02-8.4c.2-1.608.408-3.2.731-4.79a37.664,37.664,0,0,1,1.615-5.491,40.845,40.845,0,0,1,3.413-7.044,39.531,39.531,0,0,1,5.619-7.3,42.216,42.216,0,0,1,6.6-5.584,43.977,43.977,0,0,1,9.573-4.859,22.154,22.154,0,0,1,3.629-1.1c1.614-.251,3.137-.917,4.825-.871a23.153,23.153,0,0,0,2.977-.375,25,25,0,0,1,4.993-.019c1.5.142,3,.388,4.495.589a2.27,2.27,0,0,0,1.247.9A34.85,34.85,0,0,1,169.84,94a44.961,44.961,0,0,1,7.941,6.975c1.373,1.485,2.607,3.079,3.823,4.686a2.685,2.685,0,0,1,.753,1.831A36.858,36.858,0,0,0,170.528,98.3a34.5,34.5,0,0,0-7.3-2.613,41.132,41.132,0,0,0-5.3-.83,33.061,33.061,0,0,0-8.666.289A36.187,36.187,0,0,0,142.6,96.9a38.165,38.165,0,0,0-12.019,7.219,44.052,44.052,0,0,0-4.252,4.574,16.966,16.966,0,0,0-1.692,2.517,50.709,50.709,0,0,0-2.494,4.628,36.573,36.573,0,0,0-2.666,8.857,1.653,1.653,0,0,0,.069.713,2.557,2.557,0,0,0,1.753,1.72,1.663,1.663,0,0,0-.126.831q-.01,2.781-.014,5.561c-1.1.3-2.043,1.478-1.776,2.36.383,1.266.5,2.579.834,3.857a36.808,36.808,0,0,0,4.516,10.187,33.378,33.378,0,0,0,5.447,6.485,34.932,34.932,0,0,0,10.529,6.916,40.533,40.533,0,0,0,9.453,2.646,35.3,35.3,0,0,0,20.166-3.209,36.951,36.951,0,0,0,10.484-7.558c.627-.65,1.15-1.387,1.8-2.009a1.549,1.549,0,0,1-.479,1.408,3.147,3.147,0,0,0-.627.652,21.212,21.212,0,0,1-1.479,2.166,48.594,48.594,0,0,1-5.969,6.138,42.578,42.578,0,0,1-10.693,6.875,2.957,2.957,0,0,0-1.637,1.111,27.508,27.508,0,0,1-7.535.641c-.033-.056-.068-.059-.1,0" transform="translate(-53.111 -41.691)" fill="#5490d5"/>
        <path id="Trazado_819640" data-name="Trazado 819640" d="M225.573,108.092a2.686,2.686,0,0,0-.754-1.831c-1.216-1.607-2.45-3.2-3.823-4.686a44.921,44.921,0,0,0-7.941-6.975,34.847,34.847,0,0,0-6.866-3.7,2.27,2.27,0,0,1-1.247-.9,8.258,8.258,0,0,1,2.838.481,27.68,27.68,0,0,1,2.985.811,41.884,41.884,0,0,1,10.717,5.136,43.951,43.951,0,0,1,6.013,4.919,41.066,41.066,0,0,1,8.281,11.445,43.26,43.26,0,0,1,3.2,8.976,49.482,49.482,0,0,1,.948,6.575,19.241,19.241,0,0,1,.078,4.177c-.234,2.1-.343,4.212-.725,6.288a38.032,38.032,0,0,1-2.418,8.154,13.382,13.382,0,0,1-1.66,3.247,16.118,16.118,0,0,0-.845,1.8,40.165,40.165,0,0,1-5.488,7.442,40.823,40.823,0,0,1-15.712,10.6,53.972,53.972,0,0,1-7.358,2.05,4.734,4.734,0,0,1-.852.036,2.958,2.958,0,0,1,1.637-1.111,42.566,42.566,0,0,0,10.693-6.875,48.488,48.488,0,0,0,5.969-6.138,21.238,21.238,0,0,0,1.48-2.165,3.12,3.12,0,0,1,.627-.652,1.553,1.553,0,0,0,.479-1.408,38.333,38.333,0,0,0,5.6-9.5,39.094,39.094,0,0,0,1.955-6.707,14.844,14.844,0,0,0,.373-3.379,3.343,3.343,0,0,1,.029-.591,15.5,15.5,0,0,0,.171-3.414,29.522,29.522,0,0,1-.2-3.482,3.448,3.448,0,0,0-.156-1.173c-.452-1.47-.58-3.011-1.052-4.48a35.8,35.8,0,0,0-6.978-12.973" transform="translate(-96.327 -42.289)" fill="#1374ca"/>
        <path id="Trazado_819641" data-name="Trazado 819641" d="M190.531,246.186c.037-.056.072-.053.1,0l-.053.016Z" transform="translate(-89.553 -115.693)" fill="#1374ca"/>
        <path id="Trazado_819642" data-name="Trazado 819642" d="M38.852,38a1.51,1.51,0,0,1-.112.16c-.819.926-.819.926-1.732.129-1.5-1.311-3.243-.756-3.643,1.158a1.838,1.838,0,0,0,.542,1.682c.717.771,1.444,1.537,2.227,2.24a2.111,2.111,0,0,0,2.429.674l.016,2.393c-2.121.006-4.242.077-6.363-.032l-.126-.04c-.465-.025-.561-.38-.612-.733a6.6,6.6,0,0,1-.031-.923q0-4.856,0-9.71c0-1.159.183-1.355,1.327-1.353,1.938,0,3.875.017,5.812.028,0,.807,0,1.616.005,2.424a3.438,3.438,0,0,0,.262,1.9" transform="translate(-14.78 -15.814)" fill="#5490d5"/>
        <path id="Trazado_819643" data-name="Trazado 819643" d="M44.893,50.813l-.016-2.393c2.016-1.478,3.565-3.443,5.373-5.138.12-.112.17-.314.464-.323v1.685q0,2.508,0,5.016c0,.811-.307,1.162-1.138,1.172-1.561.017-3.122-.01-4.683-.019" transform="translate(-21.093 -20.192)" fill="#1374ca"/>
        <path id="Trazado_819644" data-name="Trazado 819644" d="M45.178,38.024a3.438,3.438,0,0,1-.262-1.9c-.008-.808,0-1.616-.005-2.424h4.545c-1.378,1.616-2.876,2.925-4.277,4.326" transform="translate(-21.106 -15.839)" fill="#1374ca"/>
        <path id="Trazado_819645" data-name="Trazado 819645" d="M32.663,57.643l.127.04-.127-.04" transform="translate(-15.352 -27.093)" fill="#1374ca"/>
        <path id="Trazado_819646" data-name="Trazado 819646" d="M38.3,86.383h.264a35.694,35.694,0,0,0,.155,4.4,2.256,2.256,0,0,1-.188.26c-.785.83-.786.829-1.521,0a2.339,2.339,0,0,0-2.947-.254,2.05,2.05,0,0,0-.354,2.912,36.642,36.642,0,0,0,2.732,2.8,1.956,1.956,0,0,0,2.12.339q.01,1.194.018,2.39c-2.025.006-4.05.023-6.075.015-.776,0-1.049-.313-1.053-1.189-.011-2.664,0-5.327,0-7.991,0-.837-.016-1.674,0-2.509.017-.862.288-1.19,1.139-1.2,1.87-.021,3.74.018,5.61.032l.05.033Z" transform="translate(-14.78 -40.582)" fill="#5490d5"/>
        <path id="Trazado_819647" data-name="Trazado 819647" d="M44.9,103.744q-.009-1.195-.018-2.389a53.505,53.505,0,0,0,4.294-4.069c.5-.45,1.031-.873,1.564-1.323.067.06-.027.294-.026.494.008,2.066.006,4.132,0,6.2a.982.982,0,0,1-1.072,1.108c-1.582.01-3.164-.011-4.746-.019" transform="translate(-21.094 -45.104)" fill="#1374ca"/>
        <path id="Trazado_819648" data-name="Trazado 819648" d="M45.04,90.814a35.689,35.689,0,0,1-.155-4.4h4.521a10.731,10.731,0,0,1-1.822,2.031,22.989,22.989,0,0,1-2.544,2.364" transform="translate(-21.097 -40.619)" fill="#1374ca"/>
        <path id="Trazado_819649" data-name="Trazado 819649" d="M44.3,86.4l-.052.03-.05-.033a.065.065,0,0,1,.1,0" transform="translate(-20.772 -40.595)" fill="#1374ca"/>
        <path id="Trazado_819650" data-name="Trazado 819650" d="M44.4,198.565v4.885c0,1.247-.308,1.542-1.593,1.539q-3.96-.013-7.922-.021c-.727,0-1.453.016-2.178.016-1.043,0-1.245-.191-1.265-1.259-.017-.924,0-1.848,0-2.772q0-3.829-.005-7.657c0-.855.224-1.133,1.067-1.136q5.314-.018,10.628.014c1.058.008,1.266.271,1.266,1.309q0,2.542,0,5.083" transform="translate(-14.774 -90.315)" fill="#fba52e"/>
        <path id="Trazado_819651" data-name="Trazado 819651" d="M37.765,152.093c-1.783,0-3.568-.025-5.351.013a.843.843,0,0,1-.966-.9c-.047-.569-.008-1.144-.008-1.716q0-4.36-.009-8.719c0-1.276.278-1.579,1.528-1.578q4.756,0,9.512.025a5.816,5.816,0,0,1,.921.065,1.012,1.012,0,0,1,.988,1.164q.008,5.284,0,10.568a1.055,1.055,0,0,1-1.2,1.073q-2.708,0-5.417,0" transform="translate(-14.771 -65.424)" fill="#fba52e"/>
        <path id="Trazado_819652" data-name="Trazado 819652" d="M128.392,142.622q.006-2.781.014-5.561a1.663,1.663,0,0,1,.126-.831,3.511,3.511,0,0,0,.651-.1c.7-.237,1.465-.55,1.576-1.34a26.014,26.014,0,0,1,.887-3.864,32.3,32.3,0,0,1,3.457-7.789,31.948,31.948,0,0,1,8.568-9.186,28.19,28.19,0,0,1,8.615-4.284,20.767,20.767,0,0,1,5.057-1.165c1.113-.038,2.221-.247,3.332-.377a31.035,31.035,0,0,1,5.614.3,4.008,4.008,0,0,1,1.295.1,14.027,14.027,0,0,0,2.1.506,35.207,35.207,0,0,1,4.837,1.554,30.221,30.221,0,0,1,7.917,4.857,31.3,31.3,0,0,1,8.9,12.138,32.6,32.6,0,0,1,2.329,10.2,31.763,31.763,0,0,1-.367,6.641,30,30,0,0,1-2,7.312,32.016,32.016,0,0,1-10.61,13.358,30.085,30.085,0,0,1-11.024,5.057,35.443,35.443,0,0,1-4.68.831,29.033,29.033,0,0,1-5.625.037,36.256,36.256,0,0,1-3.705-.541,32.57,32.57,0,0,1-9.5-3.663,30.969,30.969,0,0,1-13.2-14.944,42.745,42.745,0,0,1-1.529-4.524c-.275-1.018-.425-2.055-.63-3.083s-.842-1.488-2.3-1.535l-.1-.092Zm31.71-11.454-.114.014.116.01a1.887,1.887,0,0,0-.086,1.212c.143.489-.1.615-.45.725a6.906,6.906,0,0,0-.562,12.666,2.378,2.378,0,0,1,1.005.951c1.311,2.226,2.645,4.438,3.967,6.657a6.728,6.728,0,0,0,1.969,2.441,3.422,3.422,0,0,0,3.919-.034c.966-.573,1.912-1.2,2.886-1.77a3.706,3.706,0,0,0,1.406-5.114c-1.16-1.961-2.386-3.886-3.477-5.884-.666-1.222-1.779-2.213-1.679-3.857a6.85,6.85,0,0,0-4.2-5.965.646.646,0,0,1-.463-.748c.133-2.285.109-4.574.1-6.862-.007-1.429.065-2.862-.081-4.288a2.176,2.176,0,0,0-1.842-2.072,1.989,1.989,0,0,0-2.4,1.88c-.033.8-.05,1.581-.032,2.38.058,2.551.022,5.1.022,7.657m14.727,27.956c-1.659.01-2.217,1.232-2.147,2.517a2.262,2.262,0,0,0,2.211,1.842,2.292,2.292,0,0,0,2-2.319,2.157,2.157,0,0,0-2.062-2.04m-27.522,2.126a2.239,2.239,0,0,0,2.108,2.233,2.327,2.327,0,0,0,2.109-2.232,2.109,2.109,0,1,0-4.217,0m36.564-32.12a2.279,2.279,0,0,0,2.3-2.047,2.129,2.129,0,0,0-2.42-2.146,2.03,2.03,0,0,0-1.934,2.007,2.06,2.06,0,0,0,2.055,2.186m-.11,24.968a2.063,2.063,0,1,0,.314-4.1,2.056,2.056,0,1,0-.314,4.1m-22.019-41.74c-.875-.218-1.35.39-1.7,1.209A2.178,2.178,0,0,0,162,116.551a2.06,2.06,0,0,0,2.089-2.384c-.072-1.11-.909-1.813-2.345-1.808m25.575,25.231a2,2,0,0,0-2.224,1.937,2.38,2.38,0,0,0,2.123,2.151,2.191,2.191,0,0,0,2.253-2.145c-.013-1.259-.777-1.945-2.152-1.942m-45.032-10.548c.215-1.1-.95-2.123-2.263-2.121a2.175,2.175,0,0,0-1.975,2.141,2.4,2.4,0,0,0,2.094,2.088,2.113,2.113,0,0,0,2.144-2.108m32.517-7.155a2.084,2.084,0,0,0,2.1-2.1,2.125,2.125,0,0,0-2.193-2.109,2.066,2.066,0,0,0-2.018,2.27,2.044,2.044,0,0,0,2.115,1.934M142.285,152.1a1.947,1.947,0,0,0-2.041-2.1,2.055,2.055,0,0,0-2.186,2.164,2.24,2.24,0,0,0,2.152,1.952,1.965,1.965,0,0,0,2.076-2.014m7.025-32.212a2.111,2.111,0,0,0,2.224-2.058,2.187,2.187,0,0,0-2.168-2.151,2.12,2.12,0,0,0-2.066,2.159,2.225,2.225,0,0,0,2.01,2.05m-12.468,21.667a2.03,2.03,0,0,0,2.239-1.973,2.209,2.209,0,0,0-2.15-2.128,2.129,2.129,0,0,0-2.168,2.125,2.06,2.06,0,0,0,2.079,1.977m23.28,23.026a1.984,1.984,0,0,0,2.047,2.213,2.075,2.075,0,0,0,2.049-2.069,1.987,1.987,0,0,0-2.126-2.147,1.916,1.916,0,0,0-1.97,2" transform="translate(-60.347 -50.792)" fill="#f8f2f1"/>
        <path id="Trazado_819653" data-name="Trazado 819653" d="M126.882,138.94c1.457.047,2.093.5,2.3,1.535s.355,2.065.63,3.083a42.748,42.748,0,0,0,1.529,4.524,30.962,30.962,0,0,0,13.2,14.944,32.57,32.57,0,0,0,9.5,3.663,36.251,36.251,0,0,0,3.705.541,29.032,29.032,0,0,0,5.625-.037,35.446,35.446,0,0,0,4.68-.831,30.086,30.086,0,0,0,11.024-5.057,32.016,32.016,0,0,0,10.61-13.358,29.992,29.992,0,0,0,2-7.312,31.758,31.758,0,0,0,.367-6.64,32.611,32.611,0,0,0-2.329-10.2,31.312,31.312,0,0,0-8.9-12.137A30.214,30.214,0,0,0,172.9,106.8a35.12,35.12,0,0,0-4.837-1.555,13.973,13.973,0,0,1-2.1-.506,4.023,4.023,0,0,0-1.295-.1,30.987,30.987,0,0,0-5.614-.3c-1.111.13-2.219.339-3.332.377a20.766,20.766,0,0,0-5.057,1.165,28.19,28.19,0,0,0-8.615,4.284,31.948,31.948,0,0,0-8.568,9.186,32.3,32.3,0,0,0-3.457,7.789,26.012,26.012,0,0,0-.887,3.864c-.111.79-.874,1.1-1.576,1.34a3.555,3.555,0,0,1-.651.1,2.559,2.559,0,0,1-1.753-1.72,1.66,1.66,0,0,1-.068-.713,36.573,36.573,0,0,1,2.666-8.857,50.707,50.707,0,0,1,2.494-4.628,16.924,16.924,0,0,1,1.692-2.517,44.053,44.053,0,0,1,4.252-4.575,38.154,38.154,0,0,1,12.019-7.219,36.187,36.187,0,0,1,6.666-1.755,33.061,33.061,0,0,1,8.666-.289,41.018,41.018,0,0,1,5.3.83,34.49,34.49,0,0,1,7.3,2.613,36.851,36.851,0,0,1,11.828,9.194,35.831,35.831,0,0,1,6.979,12.973c.472,1.469.6,3.01,1.052,4.479a3.479,3.479,0,0,1,.156,1.173,29.636,29.636,0,0,0,.2,3.482,15.534,15.534,0,0,1-.17,3.414,3.3,3.3,0,0,0-.029.591,14.851,14.851,0,0,1-.373,3.379,39.063,39.063,0,0,1-1.955,6.707,38.343,38.343,0,0,1-5.6,9.5c-.652.622-1.176,1.359-1.8,2.009a36.941,36.941,0,0,1-10.484,7.558,33.791,33.791,0,0,1-9.111,2.969,33.45,33.45,0,0,1-11.055.24,40.533,40.533,0,0,1-9.453-2.646,34.941,34.941,0,0,1-10.529-6.916,33.374,33.374,0,0,1-5.447-6.485,36.808,36.808,0,0,1-4.516-10.187c-.335-1.278-.451-2.591-.834-3.856-.267-.882.679-2.056,1.776-2.361l.008.015c0,.067.02.109.1.092" transform="translate(-58.731 -47.003)"/>
        <path id="Trazado_819654" data-name="Trazado 819654" d="M183.779,141.057c0-2.552.036-5.106-.022-7.657-.019-.8,0-1.583.032-2.38a1.988,1.988,0,0,1,2.4-1.88,2.176,2.176,0,0,1,1.843,2.072c.146,1.425.073,2.857.081,4.286.011,2.288.035,4.577-.1,6.862a.646.646,0,0,0,.463.748,6.848,6.848,0,0,1,4.2,5.965c-.1,1.643,1.013,2.635,1.68,3.856,1.091,2,2.317,3.923,3.477,5.884a3.707,3.707,0,0,1-1.406,5.115c-.974.567-1.92,1.2-2.886,1.769a3.423,3.423,0,0,1-3.92.035,6.73,6.73,0,0,1-1.969-2.442c-1.323-2.219-2.657-4.431-3.967-6.657a2.375,2.375,0,0,0-1.005-.951,6.906,6.906,0,0,1,.562-12.666c.348-.109.593-.236.45-.725a1.884,1.884,0,0,1,.086-1.211l0-.025m-.647,8.431a2.572,2.572,0,0,0,2.562,2.6,2.523,2.523,0,0,0,2.732-2.541,2.812,2.812,0,0,0-2.641-2.754,2.7,2.7,0,0,0-2.653,2.69m10.881,10.979c-.065-.1-.11-.174-.156-.246-1.089-1.677-2.093-3.4-3.084-5.14-.175-.306-.338-.418-.662-.156a4.229,4.229,0,0,1-1.6.886c-.286.073-.264.247-.142.449,1.024,1.69,2.052,3.378,3.069,5.072a.524.524,0,0,0,.829.185c.493-.287.993-.562,1.488-.847a2.485,2.485,0,0,0,.261-.2" transform="translate(-84.024 -60.681)"/>
        <path id="Trazado_819655" data-name="Trazado 819655" d="M214.1,204.4a2.157,2.157,0,0,1,2.062,2.041,2.292,2.292,0,0,1-2,2.319,2.262,2.262,0,0,1-2.211-1.842c-.069-1.285.488-2.507,2.147-2.517" transform="translate(-99.62 -96.071)"/>
        <path id="Trazado_819656" data-name="Trazado 819656" d="M164.081,206.542a2.109,2.109,0,1,1,4.217,0,2.327,2.327,0,0,1-2.108,2.232,2.239,2.239,0,0,1-2.109-2.233" transform="translate(-77.121 -96.083)"/>
        <path id="Trazado_819657" data-name="Trazado 819657" d="M231.25,144.095a2.06,2.06,0,0,1-2.055-2.186,2.03,2.03,0,0,1,1.934-2.008,2.129,2.129,0,0,1,2.42,2.146,2.279,2.279,0,0,1-2.3,2.048" transform="translate(-107.726 -65.756)"/>
        <path id="Trazado_819658" data-name="Trazado 819658" d="M231.126,191.288a2.056,2.056,0,1,1,.314-4.1,2.063,2.063,0,1,1-.314,4.1" transform="translate(-107.711 -87.981)"/>
        <path id="Trazado_819659" data-name="Trazado 819659" d="M189.653,116.128c1.436,0,2.274.7,2.345,1.808a2.059,2.059,0,0,1-2.089,2.384,2.178,2.178,0,0,1-1.957-2.983c.351-.819.826-1.428,1.7-1.209" transform="translate(-88.257 -54.561)"/>
        <path id="Trazado_819660" data-name="Trazado 819660" d="M237.6,163.776c1.375,0,2.14.683,2.152,1.943a2.192,2.192,0,0,1-2.253,2.145,2.381,2.381,0,0,1-2.123-2.152,2,2,0,0,1,2.224-1.937" transform="translate(-110.633 -76.978)"/>
        <path id="Trazado_819661" data-name="Trazado 819661" d="M150.847,141.993A2.111,2.111,0,0,1,148.7,144.1a2.4,2.4,0,0,1-2.094-2.088,2.174,2.174,0,0,1,1.975-2.141c1.312,0,2.478,1.023,2.262,2.122" transform="translate(-68.909 -65.743)"/>
        <path id="Trazado_819662" data-name="Trazado 819662" d="M214.086,126.645a2.045,2.045,0,0,1-2.116-1.935,2.067,2.067,0,0,1,2.018-2.269,2.125,2.125,0,0,1,2.193,2.109,2.085,2.085,0,0,1-2.1,2.1" transform="translate(-99.63 -57.549)"/>
        <path id="Trazado_819663" data-name="Trazado 819663" d="M150.856,189.286a1.966,1.966,0,0,1-2.075,2.015,2.241,2.241,0,0,1-2.152-1.952,2.056,2.056,0,0,1,2.187-2.164,1.948,1.948,0,0,1,2.041,2.1" transform="translate(-68.918 -87.979)"/>
        <path id="Trazado_819664" data-name="Trazado 819664" d="M166.078,126.641a2.223,2.223,0,0,1-2.01-2.049,2.12,2.12,0,0,1,2.066-2.159,2.186,2.186,0,0,1,2.168,2.151,2.11,2.11,0,0,1-2.223,2.058" transform="translate(-77.115 -57.545)"/>
        <path id="Trazado_819665" data-name="Trazado 819665" d="M142.492,167.618a2.058,2.058,0,0,1-2.079-1.976,2.128,2.128,0,0,1,2.168-2.125,2.21,2.21,0,0,1,2.15,2.128,2.029,2.029,0,0,1-2.239,1.973" transform="translate(-65.997 -76.857)"/>
        <path id="Trazado_819666" data-name="Trazado 819666" d="M188.249,212.922a1.916,1.916,0,0,1,1.97-2,1.987,1.987,0,0,1,2.126,2.147,2.075,2.075,0,0,1-2.049,2.069,1.984,1.984,0,0,1-2.047-2.213" transform="translate(-88.474 -99.134)"/>
        <path id="Trazado_819667" data-name="Trazado 819667" d="M188.124,151.657l0,.025-.116-.011.114-.014" transform="translate(-88.368 -71.282)" fill="#5490d5"/>
        <path id="Trazado_819668" data-name="Trazado 819668" d="M128.505,173.391c-.077.016-.1-.025-.1-.092l.1.092" transform="translate(-60.354 -81.454)" fill="#5490d5"/>
        <path id="Trazado_819669" data-name="Trazado 819669" d="M187,165.176a2.7,2.7,0,0,1,2.653-2.689,2.812,2.812,0,0,1,2.641,2.754,2.523,2.523,0,0,1-2.731,2.54,2.572,2.572,0,0,1-2.562-2.6" transform="translate(-87.892 -76.369)" fill="#fba52e"/>
        <path id="Trazado_819670" data-name="Trazado 819670" d="M202.45,183.237a2.486,2.486,0,0,1-.261.2c-.494.285-.994.56-1.488.847a.524.524,0,0,1-.829-.185c-1.018-1.694-2.045-3.382-3.069-5.072-.122-.2-.144-.376.142-.449a4.229,4.229,0,0,0,1.6-.886c.324-.262.487-.15.662.156.991,1.736,2,3.463,3.084,5.14.047.072.092.144.156.246" transform="translate(-92.461 -83.451)" fill="#fba52e"/>
      </g>
    </g>
  </g>
</svg>
