<svg xmlns="http://www.w3.org/2000/svg" xmlns:xlink="http://www.w3.org/1999/xlink" width="464" height="344" viewBox="0 0 464 344">
  <defs>
    <clipPath id="clip-path">
      <rect id="Rectángulo_378313" data-name="Rectángulo 378313" width="464" height="344" transform="translate(0.088)" fill="none"/>
    </clipPath>
    <clipPath id="clip-path-2">
      <rect id="Rectángulo_378315" data-name="Rectángulo 378315" width="226.714" height="226.713" fill="none"/>
    </clipPath>
    <clipPath id="clip-path-3">
      <rect id="Rectángulo_378316" data-name="Rectángulo 378316" width="226.563" height="226.713" fill="none"/>
    </clipPath>
    <clipPath id="clip-path-4">
      <rect id="Rectángulo_378317" data-name="Rectángulo 378317" width="223.7" height="223.173" fill="none"/>
    </clipPath>
  </defs>
  <g id="Grupo_1074294" data-name="Grupo 1074294" transform="translate(-0.088)">
    <g id="Grupo_1071412" data-name="Grupo 1071412">
      <g id="Enmascarar_grupo_402" data-name="Enmascarar grupo 402" clip-path="url(#clip-path)">
        <g id="Grupo_1074298" data-name="Grupo 1074298" transform="translate(3 0.076)">
          <g id="Grupo_1074297" data-name="Grupo 1074297" transform="translate(234.286 117.116)">
            <g id="Grupo_1074296" data-name="Grupo 1074296" clip-path="url(#clip-path-2)">
              <path id="Trazado_824157" data-name="Trazado 824157" d="M0,113.3,113.415,226.713l113.3-113.3L113.3,0,0,113.3" fill="#fff"/>
              <path id="Trazado_824158" data-name="Trazado 824158" d="M0,113.3,113.3,0,226.714,113.413l-113.3,113.3L0,113.3M113.65,3.242,3.416,113.476l109.953,109.95L223.611,113.2,113.65,3.242"/>
              <path id="Trazado_824159" data-name="Trazado 824159" d="M117.642,7.031,227.6,116.993,117.361,227.215,7.408,117.265,117.642,7.031M14.358,117.146l103.18,103.182L220.588,117.28,117.407,14.1,14.358,117.146" transform="translate(-3.992 -3.789)" fill="#fff"/>
              <path id="Trazado_824160" data-name="Trazado 824160" d="M22.478,125.4,125.527,22.354,228.708,125.536,125.658,228.584,22.478,125.4m102.8,100.146,99.958-99.955L164.015,64.37,124.7,103.44,86.215,65.169,25.557,125.827l99.723,99.722M113.37,45.9l.579.169c0,3.716.146,7.44-.057,11.144a5.112,5.112,0,0,0,2.167,4.675,39.113,39.113,0,0,1,4.493,4.655c1.372,1.579,7.261,2,7.744.3.847-2.991,3.212-3.9,5.5-5.059,1.871-.945,2.288-2.533,2.2-4.4-.17-3.687-.353-7.372-.53-11.058l.79-.121c.294,1.845.588,3.689.895,5.612,2.441-3.058,2.146-5.555-.76-7.75-1.158-.874-2.211-1.9-3.406-2.714-2.873-1.966-5.689-4.673-9.539-3.063a77.364,77.364,0,0,0-10.136,5.258,4.943,4.943,0,0,0-1.087,7.427l1.147-5.07M131.125,72q-.043.392-.086.783c1.966.963,3.964,1.866,5.888,2.907,1.779.962,3.687,1.887,3.127,4.56a1.887,1.887,0,0,0,.7,1.566c.639.421,1.832.933,2.193.648a5.327,5.327,0,0,0,1.55-2.562c.362-1.176-.316-2.822,1.843-3.266-.048.685-.083,1.194-.125,1.81,2.029-1.35,2.093-2.478.211-3.322a3.869,3.869,0,0,0-2.611-.256,7.137,7.137,0,0,1-5.752-.538c-1.648-.778-3.3-1.549-5-2.207A6.413,6.413,0,0,0,131.125,72m-30.908-14.55c1.844.8,1.846,1.728.534,3.064-.575.585-.6,1.706-.88,2.583.851.168,1.882.727,2.521.434,2.378-1.093,4.282.167,6.284.939,1.924.742,3.788,1.643,5.7,2.41a5.117,5.117,0,0,0,1.485.128l.526-.891a11.439,11.439,0,0,1-1.255-.507c-4.5-2.452-8.918-4.987-12.262-9.041-.879-1.065-1.918-.717-2.657.881m49.147,4.893c-2,.3-2.1-.728-2.07-2.143a8.333,8.333,0,0,0-.859-2.613c-.73.552-1.472,1.09-2.188,1.66a50.13,50.13,0,0,1-4.584,3.627c-1.6.993-3.479,1.531-5.142,2.44-.587.321-.9,1.148-1.334,1.744a5.449,5.449,0,0,0,2.069.116c1.715-.627,3.372-1.424,5.023-2.212a6.613,6.613,0,0,1,5.716-.28c1.755.731,2.916.006,3.369-2.339m-44.809,18.7.85.583c1.789-1.82,3.369-3.94,5.426-5.377,2.179-1.521,4.811-2.392,7.245-3.547l-.14-1a5.784,5.784,0,0,0-2.2-.164c-1.8.624-3.47,1.64-5.287,2.179-1.927.572-3.971.738-5.948,1.156a4.026,4.026,0,0,0-2.066.859c-.226.242.338,1.217.608,2.063l1.512-1.7Zm12.988-14.193c.142,3.317,4.207,7.177,7.043,7.1,3.737-.1,7.143-3.3,6.954-6.543a8.114,8.114,0,0,1-14-.559" transform="translate(-12.112 -12.045)"/>
              <path id="Trazado_824161" data-name="Trazado 824161" d="M216.8,63.935,215.658,69a4.943,4.943,0,0,1,1.087-7.428A77.336,77.336,0,0,1,226.88,56.32c3.849-1.609,6.666,1.1,9.538,3.064,1.194.818,2.248,1.839,3.406,2.714,2.907,2.195,3.2,4.692.76,7.75-.306-1.924-.6-3.768-.894-5.612l-.791.121q.266,5.529.53,11.058c.086,1.871-.331,3.458-2.2,4.4-2.286,1.155-4.651,2.068-5.5,5.059-.483,1.706-6.372,1.282-7.745-.3a39.04,39.04,0,0,0-4.493-4.655,5.111,5.111,0,0,1-2.166-4.675c.2-3.7.057-7.428.057-11.144Zm20.623,9.453q-.067-.45-.134-.9c-.941-.372-2.086-1.268-2.779-1-1.2.465-3.634-.576-3.435,1.454.114,1.169,2.034,2.579,3.416,3.021.638.2,1.934-1.652,2.932-2.575m-11.083-1.6c-1.712-.491-2.726-1.052-3.7-.99a13.446,13.446,0,0,0-3.313,1.074,11.9,11.9,0,0,0,1.225,2.933,2.066,2.066,0,0,0,2.012.3,36.48,36.48,0,0,0,3.775-3.314m-.96,8.806c1.319.254,2.294.508,3.283.6.434.04,1.291-.259,1.289-.392a9.466,9.466,0,0,0-.387-3.178c-.255-.665-1.1-1.1-1.685-1.642a11.608,11.608,0,0,0-1.62,1.977,15.882,15.882,0,0,0-.88,2.636" transform="translate(-115.547 -30.083)" fill="#fff"/>
              <path id="Trazado_824162" data-name="Trazado 824162" d="M257.969,130a6.412,6.412,0,0,1,1.934.123c1.7.658,3.354,1.429,5,2.207a7.133,7.133,0,0,0,5.752.538,3.868,3.868,0,0,1,2.611.256c1.882.844,1.818,1.971-.211,3.322.042-.617.077-1.125.125-1.81-2.159.445-1.481,2.09-1.843,3.266a5.323,5.323,0,0,1-1.55,2.562c-.361.285-1.554-.227-2.193-.648a1.887,1.887,0,0,1-.7-1.566c.56-2.673-1.348-3.6-3.127-4.56-1.924-1.04-3.922-1.944-5.888-2.907q.043-.392.086-.783" transform="translate(-138.956 -70.044)" fill="#fff"/>
              <path id="Trazado_824163" data-name="Trazado 824163" d="M190.644,96.72c.739-1.6,1.778-1.947,2.657-.881,3.343,4.053,7.763,6.588,12.261,9.04a11.259,11.259,0,0,0,1.255.507l-.526.891a5.133,5.133,0,0,1-1.485-.128c-1.916-.767-3.779-1.667-5.7-2.41-2-.772-3.906-2.032-6.284-.939-.639.294-1.67-.266-2.521-.434.277-.878.306-2,.88-2.584,1.312-1.336,1.309-2.26-.534-3.063" transform="translate(-102.539 -51.312)" fill="#fff"/>
              <path id="Trazado_824164" data-name="Trazado 824164" d="M278.717,103.515c-.453,2.345-1.614,3.07-3.369,2.34a6.611,6.611,0,0,0-5.716.28c-1.652.788-3.308,1.585-5.024,2.212a5.447,5.447,0,0,1-2.069-.116c.437-.6.747-1.423,1.334-1.745,1.663-.909,3.541-1.447,5.142-2.44a50.249,50.249,0,0,0,4.584-3.627c.716-.57,1.457-1.108,2.187-1.66a8.351,8.351,0,0,1,.86,2.613c-.026,1.416.065,2.446,2.069,2.144" transform="translate(-141.465 -53.215)" fill="#fff"/>
              <path id="Trazado_824165" data-name="Trazado 824165" d="M197.917,138.424v-4.951l-1.512,1.7c-.271-.846-.834-1.821-.608-2.063a4.026,4.026,0,0,1,2.066-.859c1.977-.417,4.021-.583,5.948-1.155,1.817-.54,3.488-1.556,5.287-2.18a5.784,5.784,0,0,1,2.2.164q.07.5.14,1c-2.435,1.155-5.067,2.025-7.245,3.547-2.057,1.437-3.637,3.557-5.427,5.377l-.85-.583" transform="translate(-105.473 -69.424)" fill="#fff"/>
              <path id="Trazado_824166" data-name="Trazado 824166" d="M228.619,118.846a8.114,8.114,0,0,0,14,.559c.189,3.239-3.218,6.445-6.954,6.543-2.836.075-6.9-3.786-7.043-7.1" transform="translate(-123.188 -64.038)" fill="#fff"/>
              <path id="Trazado_824167" data-name="Trazado 824167" d="M256.857,91.626c-1,.922-2.294,2.779-2.932,2.575-1.382-.441-3.3-1.852-3.416-3.021-.2-2.03,2.235-.989,3.435-1.454.693-.269,1.838.628,2.779,1q.066.45.133.9" transform="translate(-134.976 -48.321)"/>
              <path id="Trazado_824168" data-name="Trazado 824168" d="M232.062,89.277a36.478,36.478,0,0,1-3.775,3.314,2.065,2.065,0,0,1-2.011-.3,11.907,11.907,0,0,1-1.226-2.933,13.455,13.455,0,0,1,3.313-1.074c.974-.062,1.987.5,3.7.99" transform="translate(-121.264 -47.569)"/>
              <path id="Trazado_824169" data-name="Trazado 824169" d="M238.173,104.146a15.885,15.885,0,0,1,.88-2.636,11.608,11.608,0,0,1,1.62-1.977c.582.539,1.43.977,1.685,1.642a9.466,9.466,0,0,1,.387,3.178c0,.134-.855.433-1.289.392-.989-.092-1.964-.346-3.283-.6" transform="translate(-128.336 -53.632)"/>
            </g>
          </g>
          <text id="_2" data-name="2" transform="translate(349.647 312.928)" font-size="28" font-family="Roboto-Bold, Roboto" font-weight="700"><tspan x="0" y="0">2</tspan></text>
          <g id="Grupo_1074299" data-name="Grupo 1074299" transform="translate(0 118.211)">
            <g id="Grupo_1074300" data-name="Grupo 1074300">
              <g id="Grupo_1074299-2" data-name="Grupo 1074299" clip-path="url(#clip-path-3)">
                <path id="Trazado_824170" data-name="Trazado 824170" d="M113.1,226.713c-.155-.122-.4-.285-.609-.482-.394-.368-.771-.753-1.152-1.134Q56.19,169.956,1.011,114.849c-1.322-1.319-1.367-1.878-.017-3.226Q56.29,56.469,111.456,1.185c1.443-1.446,2.222-1.678,3.81-.087q54.991,55.131,110.11,110.135c1.442,1.44,1.7,2.342.053,3.984q-54.9,54.731-109.671,109.584a6.472,6.472,0,0,1-2.661,1.912M224.262,112.986a12.131,12.131,0,0,1-1.38-1.027Q169.08,58.187,115.326,4.369c-1.5-1.507-2.317-1.556-3.842-.016C84.464,31.638,57.116,58.6,30.156,85.942c-8.078,8.193-16.222,16.34-24.528,24.312-1.042,1-2.956,1.881-3.024,2.912-.09,1.353,2.025,1.971,3.088,3.036q51.242,51.348,102.536,102.644c1.116,1.118,2.576,1.828,3.424,3.29.877,1.513,1.769,1.91,3.4.269q28.717-28.948,57.619-57.712,25-24.993,49.988-49.987c.474-.475.917-.98,1.606-1.719" transform="translate(0 0)"/>
                <path id="Trazado_824171" data-name="Trazado 824171" d="M227.286,116.729c-.689.738-1.131,1.244-1.606,1.719q-24.991,25-49.988,49.988-28.834,28.832-57.619,57.712c-1.628,1.641-2.52,1.244-3.4-.269-.847-1.462-2.307-2.172-3.424-3.29Q60.008,171.242,8.717,119.944c-1.063-1.065-3.178-1.682-3.089-3.036C5.7,115.876,7.61,115,8.652,114c8.306-7.972,16.45-16.119,24.528-24.312,26.96-27.346,54.309-54.3,81.329-81.59,1.525-1.54,2.338-1.491,3.842.016Q172.078,61.955,225.906,115.7a12.174,12.174,0,0,0,1.38,1.028M116.607,13.109c-.583.549-.977.9-1.348,1.272Q64.6,65.026,13.917,115.638c-1.375,1.372-1.088,2.019.1,3.207q50.2,50.116,100.311,100.327c1.474,1.478,2.216,1.514,3.711.012q33.549-33.7,67.2-67.305c2.459-2.468,4.85-5,7.391-7.391,2.8-2.637,5.467-5.424,8.19-8.147q9.069-9.067,18.115-18.157c.442-.446,1.922-1.049.549-1.831-1.894-1.078-2.828-2.957-4.271-4.4q-48.481-48.406-96.9-96.872c-.6-.6-1.107-1.283-1.7-1.976" transform="translate(-3.024 -3.742)" fill="#2fb473"/>
                <path id="Trazado_824172" data-name="Trazado 824172" d="M125.182,20.258c.593.693,1.1,1.378,1.7,1.976q48.436,48.452,96.9,96.872c1.442,1.44,2.377,3.319,4.271,4.4,1.372.781-.108,1.384-.55,1.831q-9.02,9.115-18.114,18.157c-2.724,2.723-5.387,5.509-8.19,8.147-2.541,2.391-4.932,4.923-7.392,7.391q-33.57,33.68-67.195,67.305c-1.495,1.5-2.238,1.465-3.712-.012Q72.811,176.1,22.6,125.994c-1.191-1.188-1.478-1.836-.1-3.207Q73.211,72.207,123.833,21.53c.372-.372.765-.723,1.348-1.272M45.271,145.167l-.032-.034a5.087,5.087,0,0,0,.52.741q38.877,38.885,77.742,77.782c1.019,1.021,1.512.94,2.555.005,2.464-2.209,4.433-4.874,6.843-7.148,1.482-1.4,3.4-2.548,4.411-4.307,1.212-2.1,3.237-3.426,4.839-4.966,1.89-1.818,3.31-4.248,5.748-5.521a2.187,2.187,0,0,0,.769-.842c1.2-2.04,3.173-3.408,4.814-4.958,2.04-1.927,3.887-4.067,6.014-5.929,2.043-1.789,3.823-3.914,5.854-5.77a48.876,48.876,0,0,0,5.284-5.406,47.294,47.294,0,0,1,4.874-4.909c1.989-1.857,3.747-3.986,5.838-5.778,2.289-1.961,4.331-4.274,6.512-6.409,5.716-5.594,11.274-11.348,16.9-17.038l-.031.03c6.4-6.326,12.754-12.7,19.231-18.942,1.36-1.311,1.38-1.919.017-3.279q-48.743-48.6-97.346-97.339c-1.372-1.376-1.959-1.288-3.277.033q-48.61,48.733-97.314,97.371c-.326.327-.629.683-.984.975-.724.6-.579,1.085.038,1.693q10.109,9.956,20.185,19.945" transform="translate(-11.599 -10.891)"/>
                <path id="Trazado_824173" data-name="Trazado 824173" d="M28.557,129.752c-.617-.608-.762-1.095-.038-1.693.354-.293.657-.649.984-.975q48.674-48.669,97.314-97.371c1.317-1.321,1.9-1.409,3.277-.033q48.6,48.74,97.346,97.339c1.364,1.359,1.343,1.967-.017,3.279-6.477,6.245-30.38,30.357-36.1,35.951-2.181,2.135-4.223,4.447-6.512,6.408-2.091,1.792-3.849,3.92-5.838,5.778a47.289,47.289,0,0,0-4.874,4.908,48.832,48.832,0,0,1-5.284,5.406c-2.031,1.857-3.811,3.981-5.854,5.77-2.127,1.863-3.974,4-6.014,5.929-1.64,1.549-3.618,2.918-4.814,4.958a2.2,2.2,0,0,1-.769.842c-2.439,1.273-3.859,3.7-5.749,5.521-1.6,1.54-3.627,2.862-4.839,4.966-1.014,1.759-2.929,2.909-4.411,4.307-2.41,2.275-4.379,4.94-6.843,7.149-1.042.934-1.536,1.016-2.555-.006-25.894-25.947-91.724-91.844-98.415-98.434m42.025-11.527c.91.279,1.8-.374,2.783-.468,6.865-.659,13.5-2.593,20.283-3.722,4.165-.693,8.283-1.919,12.436-2.579,5-.8,9.923-1.976,14.911-2.82,7.208-1.219,14.35-2.835,21.52-4.281,4.584-.924,9.258-1.323,13.77-2.7,3.522-1.077,6.674-2.55,8.759-5.7a2.473,2.473,0,0,1,2.477-1.237,14.926,14.926,0,0,0,4.054-.544c2.735-.492,5.521-.839,7.952-2.322,1.261-.769,2.484-1.765,2.249-3.435a3.537,3.537,0,0,0-2.512-2.986,7.43,7.43,0,0,0-2.438-.474c-3.6.033-6.97,1.256-10.427,2-1,.216-1.8.521-2.78-.129-4.459-2.97-9.581-2.263-14.272-1.549-3.554.541-7.22,1.6-10.784,2.257-5.121.941-10.224,2.008-15.34,2.987-7.178,1.374-14.336,2.859-21.535,4.109-2.906.5-5.773,1.436-8.625,1.725-3.654.371-7.161,1.281-10.71,1.976-4.8.94-9.558,2.073-14.387,2.865a4.666,4.666,0,0,0-3.89,5.705c.473,2.3.587,4.637,1.208,6.931.94,3.475,1.769,4.4,5.3,4.389" transform="translate(-15.071 -15.421)" fill="#2fb473"/>
                <path id="Trazado_824174" data-name="Trazado 824174" d="M112.355,183.3c-3.53.011-4.359-.914-5.3-4.389-.621-2.294-.735-4.633-1.208-6.931a4.666,4.666,0,0,1,3.89-5.705c4.83-.792,9.591-1.925,14.387-2.865,3.549-.695,7.056-1.6,10.71-1.976,2.853-.289,5.719-1.221,8.625-1.725,7.2-1.249,14.357-2.735,21.535-4.109,5.116-.979,10.218-2.046,15.34-2.987,3.563-.655,7.23-1.716,10.783-2.257,4.691-.715,9.813-1.422,14.272,1.549.975.65,1.776.344,2.78.129,3.457-.744,6.826-1.967,10.427-2a7.431,7.431,0,0,1,2.438.474,3.537,3.537,0,0,1,2.512,2.986c.234,1.67-.988,2.665-2.249,3.435-2.43,1.483-5.217,1.83-7.952,2.322a14.927,14.927,0,0,1-4.054.544,2.473,2.473,0,0,0-2.477,1.237c-2.084,3.148-5.237,4.62-8.759,5.7-4.512,1.38-9.186,1.778-13.77,2.7-7.17,1.446-14.312,3.062-21.52,4.281-4.989.843-9.907,2.024-14.911,2.82-4.153.66-8.27,1.886-12.436,2.579-6.785,1.129-13.419,3.063-20.283,3.722-.984.094-1.873.748-2.783.468" transform="translate(-56.844 -80.493)"/>
              </g>
            </g>
            <text id="_2-2" data-name="2" transform="translate(103.793 191.347)" font-size="28" font-family="Roboto-Bold, Roboto" font-weight="700"><tspan x="0" y="0">2</tspan></text>
          </g>
          <g id="Grupo_1074301" data-name="Grupo 1074301" transform="translate(118.66 0)">
            <g id="Grupo_1074301-2" data-name="Grupo 1074301" clip-path="url(#clip-path-4)">
              <path id="Trazado_824175" data-name="Trazado 824175" d="M113.38,0c-.045,1.077.878,1.506,1.48,2.108q36.123,36.19,72.275,72.353c.154.282.3.568.709.372l-.077-.073c-.092.447.082.626.531.531l-.083-.083c-.092.447.082.626.531.531l-.083-.083c-.092.446.082.626.531.531l-.083-.083c-.092.447.082.626.531.531l-.083-.083c-.092.447.082.626.531.531L190.007,77c-.092.447.082.626.531.531l-.083-.083c-.092.447.082.626.531.531L190.9,77.9c-.092.446.082.626.531.531l-.083-.083c-.092.447.082.626.531.531l-.083-.083c-.092.447.082.626.531.531l-.083-.083c-.092.447.082.626.531.531l-.083-.083c-.092.447.082.626.531.531l-.083-.083c-.092.446.082.626.531.531l-.083-.083c-.092.447.083.626.531.531l-.083-.083c-.092.447.082.626.531.531l-.083-.083c-.092.446.082.626.531.531l-.083-.083c-.092.447.082.626.531.531l-.083-.083c-.092.446.082.626.531.531l-.083-.083c-.092.447.082.626.531.531l-.083-.083c-.092.447.082.626.531.531l-.083-.083c-.092.446.082.626.531.531l-.083-.083c-.092.447.082.626.531.531l-.083-.083c-.092.446.082.626.531.531l-.083-.083c-.092.447.082.626.531.531l-.083-.083c-.092.447.082.626.531.531l-.083-.083c-.092.446.082.626.531.531l-.083-.083c-.092.447.082.626.531.531l-.083-.083c-.092.447.082.626.531.531l-.083-.083c-.092.447.082.626.531.531l-.083-.083c-.092.447.082.626.531.531l-.083-.083c-.092.446.082.626.531.531l-.083-.083c-.092.447.082.626.531.531l-.083-.083c-.092.447.082.626.531.531l-.083-.083c-.092.446.082.626.531.531L203,90c-.092.447.082.626.531.531l-.083-.083c-.092.446.082.626.531.531l-.083-.083c-.092.447.082.626.531.531l-.083-.083c-.092.447.082.626.531.531l-.083-.083c-.092.446.082.626.531.531l-.083-.083c-.092.447.082.626.531.531l-.083-.083c-.092.446.082.626.531.531l-.083-.083c-.092.447.082.626.531.531l-.083-.083c-.092.447.082.626.531.531l-.083-.083c-.092.446.082.626.531.531l-.083-.083c-.092.447.082.626.531.531l-.083-.083c-.092.447.082.626.531.531l-.083-.083c-.092.447.082.626.531.531l-.083-.083c-.092.447.082.626.531.531l-.083-.083c-.092.446.082.626.531.531l-.083-.083c-.092.447.082.626.531.531l-.083-.083c-.092.447.082.626.531.531l-.083-.083c-.092.446.082.626.531.531l-.083-.083c-.092.447.082.626.531.531l-.083-.083c-.092.446.082.626.531.531l-.083-.083c-.092.447.082.626.531.531l-.083-.083c-.092.447.082.626.531.531l-.083-.083c-.092.446.082.626.531.531l-.083-.083c-.092.447.082.626.531.531l-.083-.083c-.092.446.082.626.531.531l-.083-.083c-.092.447.082.626.531.531l-.083-.083c-.092.447.082.626.531.531l-.083-.083c-.092.446.082.626.531.531l-.083-.083c-.092.447.082.626.531.531l-.083-.083c-.092.447.082.626.531.531l-.083-.083c-.092.447.082.626.531.531l-.083-.083c-.092.447.082.626.531.531l-.083-.083c-.092.446.082.626.531.531l-.083-.083c-.093.447.082.626.531.531l-.083-.083c-.092.447.082.626.531.531l-.083-.083c-.092.447.082.626.531.531l-.083-.083c-.092.447.082.626.531.531l-.083-.083c-.092.446.082.626.531.531l-.083-.083c-.092.447.082.626.531.531l-.083-.083c-.092.447.082.626.531.531l-.083-.083c-.092.446.082.626.531.531l-.083-.083c-.092.447.082.626.531.531l-.083-.083c-.092.446.082.626.531.531l-.083-.083c-.092.447.082.626.531.531l-.083-.083c-.092.446.083.625.531.531l-.083-.083c-.091.445.083.625.531.531l-.08-.08q.032.707.063,1.415a2.534,2.534,0,0,1-1.411,1.3l.026-.061c-11.406,11.358-22.841,22.687-34.169,34.122-1.123,1.133-2.307,2.2-3.433,3.328q-35.147,35.177-70.305,70.344c-.6.6-1.543,1.02-1.459,2.114h-1.792c.5-.9-.463-1.089-.816-1.443q-35.671-35.753-71.4-71.451Q21.4,132.752,3.869,115.224A9.823,9.823,0,0,0,0,112.483v-1.344c.278-.064.6-.091.446-.522l-.077.079c.445.091.626-.083.532-.532l-.083.083c.446.092.626-.082.531-.531l-.083.083c.446.092.626-.082.531-.531l-.083.083c.447.092.626-.082.531-.531l-.083.083c.447.092.626-.082.531-.531l-.083.083c.447.092.626-.082.531-.531l-.083.083c.447.092.626-.082.531-.531l-.083.083c.446.092.626-.082.531-.531l-.083.083c.447.092.626-.082.531-.531l-.083.083c.447.092.626-.082.531-.531l-.083.083c.446.092.626-.082.531-.531l-.083.083c.447.092.626-.082.531-.531l-.083.083c.446.092.626-.082.531-.531l-.083.083c.447.092.626-.082.531-.531l-.083.083c.447.092.626-.082.531-.531l-.083.083c.446.092.626-.082.531-.531l-.083.083c.447.092.626-.082.531-.531l-.083.083c.447.092.626-.082.531-.531l-.083.083c.447.092.626-.082.531-.531l-.083.083c.447.092.626-.082.531-.531l-.083.083c.446.092.626-.082.531-.531l-.083.083c.447.092.626-.082.531-.531l-.083.083c.447.092.626-.082.531-.531l-.083.083c.447.092.626-.082.531-.531l-.083.083c.446.092.626-.082.531-.531l-.083.083c.446.092.626-.082.531-.531l-.069.063c.456.238.662-.057.847-.4l.763-.679.087-.141L13.7,97.9c.875-.8,1.795-1.566,2.619-2.42C23.3,88.251,30.4,81.119,37.532,74.056c8.732-8.645,17.221-17.552,26.238-25.9,4.758-4.4,9.284-9.021,13.881-13.574Q94.144,18.252,110.477,1.758c.469-.471,1.433-.744,1.11-1.758ZM211.12,111.288c-.512-.46-1.033-.887-1.507-1.361C177.886,78.223,146.242,46.435,114.249,15a11.224,11.224,0,0,1-1.1-1.114c-.793-1.038-1.293-.859-2.235.043-7.958,7.619-15.654,15.5-23.526,23.209C63.133,60.875,39.174,84.916,15.1,108.842c-2.492,2.477-2.5,2.5-.04,4.937,16.611,16.5,32.986,33.239,49.83,49.514,15.407,14.886,30.369,30.235,45.445,45.461,1.46,1.475,2.122,1.249,3.435-.066q44.776-44.873,89.645-89.652c2.15-2.147,4.084-4.528,6.6-6.3a6.578,6.578,0,0,0,1.1-1.447" fill="#dd3832"/>
              <path id="Trazado_824176" data-name="Trazado 824176" d="M227.4,127.5a6.567,6.567,0,0,1-1.1,1.447c-2.518,1.774-4.452,4.155-6.6,6.3q-44.861,44.788-89.645,89.652c-1.312,1.315-1.974,1.541-3.435.066-15.076-15.226-30.038-30.574-45.445-45.461-16.844-16.275-33.219-33.011-49.83-49.514-2.458-2.442-2.452-2.46.04-4.937,24.071-23.926,48.03-47.967,72.284-71.707,7.872-7.705,15.569-15.59,23.526-23.209.942-.9,1.442-1.081,2.235-.043a11.224,11.224,0,0,0,1.1,1.114c31.992,31.438,63.636,63.227,95.364,94.931.474.474.995.9,1.507,1.361M128.135,33.246c-.4.382-.841.774-1.25,1.2-7.092,7.339-14.407,14.456-21.508,21.791C97.831,64.026,90,71.555,82.109,79.029c-16.366,15.507-32.025,31.76-47.99,47.691-.76.758-.958,1.1,0,2.055Q46.678,141.3,59.329,153.732c22.574,22.263,44.879,44.8,67.536,66.978a4.236,4.236,0,0,1,.471.478c.655.885,1.188.751,1.949.005,8.1-7.922,16.1-15.942,24.174-23.883,22.791-22.41,45.228-45.179,67.954-67.656,1.811-1.791,1.269-2.328-.045-3.64q-34.176-34.106-68.3-68.262-11.645-11.643-23.3-23.272c-.459-.457-.808-1.087-1.627-1.234" transform="translate(-16.276 -16.212)" fill="#fffffe"/>
              <path id="Trazado_824177" data-name="Trazado 824177" d="M133.021,38c.819.147,1.168.777,1.627,1.234Q146.312,50.855,157.953,62.5q34.143,34.137,68.3,68.262c1.314,1.312,1.856,1.849.045,3.64-22.726,22.477-45.163,45.246-67.954,67.656-8.076,7.942-16.077,15.961-24.174,23.883-.761.745-1.294.88-1.949-.005a4.233,4.233,0,0,0-.471-.478c-22.657-22.18-44.963-44.715-67.536-66.978Q51.585,146.026,39,133.525c-.954-.951-.755-1.3,0-2.055,15.965-15.931,31.624-32.184,47.99-47.691,7.889-7.474,15.723-15,23.268-22.795,7.1-7.334,14.416-14.452,21.509-21.791.409-.423.85-.815,1.249-1.2M149.793,87.3a3.018,3.018,0,0,0-.282-.265c2.094-7.052,1-13.6-3.3-20.361a36.737,36.737,0,0,1-1.356,10.535,3.982,3.982,0,0,1-3.06,3.307,5.739,5.739,0,0,1-.071-1.436c.675-3.026-.478-5.687-1.583-8.37-2.126-5.162-5.379-9.875-6.115-15.6a4,4,0,0,0-1.237-2.724,18.6,18.6,0,0,0-2.09,8.228A64.224,64.224,0,0,1,130,72.355a14.25,14.25,0,0,1-2.235,6.249,17,17,0,0,1-1.8-4.637c-.612-2.831-1.676-5.468-4.785-6.573-.437-.156-.931-.426-1.209-.118a1.367,1.367,0,0,0-.145,1.243,4.923,4.923,0,0,1,.272,3.266c-.82,4.214-2.042,8.4-.449,12.784a2.8,2.8,0,0,1-2.386-1.553c-.551-1.361-1.732-2.2-2.428-3.415-.474-.826-1.366-1.705-2.043-1.425-.864.358-.974,1.747-.59,2.561.9,1.9-.2,3.621-.219,5.423,0,.468,0,.935,0,1.4-.032,3.56,1.379,6.689,2.9,9.839a4.068,4.068,0,0,1-2.494-.124c-2.485-.872-3.632-3.179-5.469-4.73-.436-.369-.774-1.276-1.462-.817-.528.352-.322,1.06-.164,1.772,1.074,4.83,2.427,9.588,3.589,14.389,1.206,4.98,4.535,7.906,8.743,9.754,5.015,2.2,10.54,2.344,15.974,2.549.455.017.753-.1.825-.476.14-.739-.472-.605-.861-.586a10.412,10.412,0,0,1-3.487-.457c-4.266-1.26-9.211-5.191-9.378-10.068,1.242,2.75,3.907,1.566,5.854,2.381a1.057,1.057,0,0,0,1.4-.356c.331-.629-.136-1.06-.493-1.509a16.431,16.431,0,0,1-2.143-2.816c-.973-2.006-2.225-4.043-1.2-6.6a18.923,18.923,0,0,0,7.263,5.058,7.129,7.129,0,0,0-.019-1.749,13.148,13.148,0,0,1,.5-8.407c.7-1.908,1.5-3.78,2.221-5.678.141-.37-.249-.972.355-1.129.64-.167.912.454,1.179.848,2.347,3.473,3.973,7.106,3.023,11.5a23.124,23.124,0,0,0-.049,4.671,22.482,22.482,0,0,0,7.515-5.239,11.747,11.747,0,0,1-3.118,9.23c-.635.74-2.216,1.321-1.742,2.188.582,1.068,2.187.529,3.3.356.82-.128,1.532-.843,2.347-1.149.571-.215,1.109-.886,1.868-.326-2.018,4.619-5.6,7.66-10.413,9.833,1.854.935,3.517.481,4.953.286,6.063-.823,10.992-3.606,14.117-9.1a23.992,23.992,0,0,0,2.718-9.322,74.169,74.169,0,0,0,.655-14.2,18.833,18.833,0,0,0-.692,2.935c-.163,1.036-.207,2.095-.272,3.13-.244,3.881-1.272,5.155-4.846,6.014-.367.088-.649.3-.933-.1-.266-.381.113-.571.281-.7,2.109-1.651,2.177-4.246,3.041-6.471,1.683-4.337-.032-8.166-1.61-12.356-1.838,2.946-3.159,5.824-5.973,7.482m-15.474,36.281H115.276c-3.578,0-3.578,0-3.576,3.663,0,2.885,0,2.877,2.715,2.624.518-.049,1.045-.01,1.567-.01h36.743c4.234,0,4.12,0,4.26-4.162.064-1.884-.628-2.168-2.279-2.148-6.8.082-13.592.035-20.387.034m-.121,85.6-.124-.52c1.369-1.027,2.683-2.139,4.119-3.062a6.458,6.458,0,0,0,1.945-8.5,6.715,6.715,0,0,0-7.187-3.053c-2.411.625-5.461,3.4-5.332,6.276.038.835-.317,2.1,1.116,1.843,1.084-.194,3.063,1.3,3.138-1.41.027-.986.253-2.1,1.567-2.322a1.823,1.823,0,0,1,2.129.829,2.494,2.494,0,0,1-.241,3.1c-1.177,1.177-2.513,2.193-3.72,3.343-2.064,1.966-4.163,3.779-4.391,7.079-.1,1.518.3,1.341,1.234,1.337,3.054-.013,6.109-.005,9.164-.005,3.3,0,3.226,0,3.222-3.358,0-1.305-.416-1.666-1.655-1.6-1.656.094-3.322.023-4.984.023" transform="translate(-21.161 -20.962)" fill="#dd3832"/>
              <path id="Trazado_824178" data-name="Trazado 824178" d="M231.955,105.013c2.814-1.658,4.135-4.536,5.973-7.482,1.578,4.19,3.294,8.019,1.61,12.356-.864,2.225-.932,4.82-3.041,6.471-.167.131-.547.321-.281.7.283.4.566.189.932.1,3.573-.859,4.6-2.133,4.846-6.014.065-1.035.109-2.093.272-3.13a18.829,18.829,0,0,1,.692-2.935,74.167,74.167,0,0,1-.655,14.2,24,24,0,0,1-2.718,9.322c-3.126,5.5-8.055,8.28-14.117,9.1-1.437.2-3.1.649-4.953-.286,4.81-2.173,8.4-5.214,10.413-9.833-.759-.559-1.3.112-1.868.326-.815.306-1.527,1.021-2.347,1.149-1.115.174-2.72.712-3.3-.356-.473-.868,1.107-1.449,1.742-2.189a11.747,11.747,0,0,0,3.118-9.23,22.487,22.487,0,0,1-7.515,5.239,23.124,23.124,0,0,1,.049-4.671c.95-4.4-.676-8.028-3.023-11.5-.267-.395-.539-1.015-1.179-.848-.6.157-.213.759-.355,1.129-.725,1.9-1.522,3.77-2.221,5.678a13.148,13.148,0,0,0-.5,8.407,7.129,7.129,0,0,1,.019,1.749,18.927,18.927,0,0,1-7.263-5.058c-1.024,2.557.228,4.594,1.2,6.6a16.5,16.5,0,0,0,2.143,2.817c.357.449.824.88.493,1.509a1.057,1.057,0,0,1-1.4.356c-1.947-.815-4.612.369-5.854-2.381.167,4.877,5.112,8.808,9.377,10.068a10.414,10.414,0,0,0,3.487.457c.389-.019,1-.152.86.586-.072.379-.37.493-.824.476-5.434-.2-10.959-.347-15.974-2.549-4.208-1.848-7.537-4.774-8.743-9.754-1.162-4.8-2.515-9.559-3.589-14.389-.158-.712-.364-1.419.164-1.772.688-.46,1.026.448,1.462.817,1.837,1.551,2.984,3.858,5.469,4.73a4.068,4.068,0,0,0,2.494.124c-1.525-3.15-2.936-6.279-2.9-9.839,0-.466,0-.933,0-1.4.015-1.8,1.115-3.525.219-5.423-.384-.814-.274-2.2.59-2.561.677-.281,1.569.6,2.043,1.425.7,1.212,1.876,2.055,2.428,3.415a2.8,2.8,0,0,0,2.386,1.553c-1.592-4.389-.371-8.57.449-12.784a4.923,4.923,0,0,0-.272-3.266,1.367,1.367,0,0,1,.145-1.243c.278-.308.772-.037,1.209.118,3.11,1.106,4.174,3.742,4.785,6.573a17,17,0,0,0,1.8,4.637,14.251,14.251,0,0,0,2.235-6.249,64.27,64.27,0,0,0,.705-11.74,18.6,18.6,0,0,1,2.09-8.228,4,4,0,0,1,1.237,2.724c.736,5.729,3.989,10.442,6.115,15.6,1.1,2.683,2.257,5.344,1.582,8.37a5.763,5.763,0,0,0,.072,1.436,3.981,3.981,0,0,0,3.06-3.306,36.743,36.743,0,0,0,1.356-10.536c4.294,6.757,5.392,13.309,3.3,20.361q-.033.262-.067.523l.348-.259" transform="translate(-103.323 -38.672)" fill="#fffffe"/>
              <path id="Trazado_824179" data-name="Trazado 824179" d="M224.572,228.866c6.8,0,13.592.048,20.387-.035,1.651-.02,2.342.264,2.279,2.148-.14,4.158-.026,4.162-4.261,4.162H206.236c-.523,0-1.049-.039-1.568.01-2.715.254-2.714.261-2.715-2.624,0-3.662,0-3.662,3.576-3.662h19.044" transform="translate(-111.415 -126.243)" fill="#fffffe"/>
              <path id="Trazado_824180" data-name="Trazado 824180" d="M243.526,400.979c1.662,0,3.328.071,4.984-.023,1.239-.071,1.653.29,1.655,1.6,0,3.358.077,3.358-3.222,3.358-3.055,0-6.11-.007-9.164.005-.937,0-1.339.181-1.234-1.337.228-3.3,2.327-5.113,4.391-7.079,1.207-1.15,2.543-2.166,3.72-3.343a2.494,2.494,0,0,0,.241-3.1,1.823,1.823,0,0,0-2.129-.829c-1.314.224-1.54,1.336-1.567,2.322-.075,2.706-2.054,1.217-3.138,1.41-1.433.256-1.078-1.008-1.116-1.843-.129-2.873,2.921-5.651,5.332-6.276a6.715,6.715,0,0,1,7.187,3.053,6.458,6.458,0,0,1-1.945,8.5c-1.436.923-2.75,2.035-4.119,3.062l.124.52" transform="translate(-130.49 -212.761)" fill="#fffffe"/>
              <path id="Trazado_824181" data-name="Trazado 824181" d="M286.495,147.656l-.348.259q.034-.262.067-.523a3.068,3.068,0,0,1,.281.265" transform="translate(-157.863 -81.314)" fill="#dd3832"/>
            </g>
          </g>
        </g>
      </g>
    </g>
  </g>
</svg>
