<svg xmlns="http://www.w3.org/2000/svg" xmlns:xlink="http://www.w3.org/1999/xlink" width="190" height="190" viewBox="0 0 190 190">
  <defs>
    <clipPath id="clip-path">
      <rect id="Rect치ngulo_377987" data-name="Rect치ngulo 377987" width="190" height="190" transform="translate(1069 908)" fill="#fff" stroke="#707070" stroke-width="1"/>
    </clipPath>
    <clipPath id="clip-path-2">
      <rect id="Rect치ngulo_377988" data-name="Rect치ngulo 377988" width="152.854" height="152.333" fill="none"/>
    </clipPath>
  </defs>
  <g id="Enmascarar_grupo_392" data-name="Enmascarar grupo 392" transform="translate(-1069 -908)" clip-path="url(#clip-path)">
    <g id="Grupo_1074078" data-name="Grupo 1074078" transform="translate(1088 927)">
      <g id="Grupo_1074077" data-name="Grupo 1074077" clip-path="url(#clip-path-2)">
        <path id="Trazado_819719" data-name="Trazado 819719" d="M58.958,134c-1.091.009-2.183.045-3.273.013-.527-.015-.638.162-.637.663.007,2.819.059,5.642-.064,8.456a9.125,9.125,0,0,1-5.942,8.491,10.228,10.228,0,0,1-3.626.646c-3.957.027-7.917.107-11.87-.008a9.212,9.212,0,0,1-8.8-7.015,6.163,6.163,0,0,1-.185-1.737c.019-2.91-.016-5.821.025-8.731.009-.637-.223-.865-.791-.89a8.621,8.621,0,0,1-6.211-3.129,8.388,8.388,0,0,1-2.159-4.785c-.286-2.695-.076-5.394-.12-8.09a4.02,4.02,0,0,1,.7-2.338c.262-.386.36-.713-.061-1.109a2.4,2.4,0,0,1-.65-1.836c0-8.869-.009-17.737.017-26.6,0-.635-.2-.711-.752-.728-3.772-.112-7.545-.11-11.317-.027A3.189,3.189,0,0,1,.03,82.035c-.019-7.89-.057-15.781,0-23.671.018-2.265.987-3.325,3.373-3.493,3.7-.261,7.411-.089,11.116-.1.611,0,.785-.122.785-.761Q15.278,30.205,15.28,6.4a6.012,6.012,0,0,1,1.092-3.625A6.141,6.141,0,0,1,21.08.119c1.77-.161,3.533-.1,5.3-.1Q78.366,0,130.356,0a10.324,10.324,0,0,1,3.366.5,3.886,3.886,0,0,1,2.2,1.476,13.044,13.044,0,0,1,1.4,2.3,6.794,6.794,0,0,1,.239,2.252q.017,23.705-.006,47.411c0,.642.128.831.805.834,3.729.018,7.462-.159,11.185.106,1.23.088,2.444.429,2.925,1.805a5.792,5.792,0,0,1,.379,1.892q.011,11.461-.008,22.921a4.575,4.575,0,0,1-.368,1.954,2.944,2.944,0,0,1-2.883,1.785c-2.161-.019-4.32-.043-6.481-.037-1.613,0-3.226.083-4.838.071-.552,0-.717.113-.716.7.022,8.413.011,16.827.021,25.241a10.146,10.146,0,0,1-.261,2.463,1.067,1.067,0,0,1-.253.546c-.531.495-.429.978-.13,1.573a8.017,8.017,0,0,1,.624,3.4c.057,1.681.053,3.366.006,5.048a9.592,9.592,0,0,1-2.794,7.07,8.813,8.813,0,0,1-5.541,2.556c-.872.066-.92.121-.922,1.013-.007,2.865.055,5.732-.032,8.594a8.536,8.536,0,0,1-3.864,7.089,9.158,9.158,0,0,1-4.8,1.62c-4.2.221-8.406.171-12.6.067a8.965,8.965,0,0,1-8.472-5.826,10.784,10.784,0,0,1-.724-4.341c-.013-2.409-.047-4.818-.014-7.226.009-.662-.17-.836-.829-.835q-18.524.025-37.047,0c-.272,0-.544-.013-.816-.02l-.048-.1-.1.1M30.8,109.634l.1.03h5.57l.046,0,.009-.045q.015-3.678.031-7.357a1.039,1.039,0,0,0-.336-.784c-.662-.654-1.265-1.374-1.969-1.975-.908-.776-1.5-2.048-3.035-1.913-.469.041-.634.053-.632.549.014,3.634.007,7.268.01,10.9,0,.215-.074.468.205.592m85.57-.012c.034.083.072.049.109,0l5.039.04c.326,0,.811.287.735-.418,0-1.275,0-2.549,0-3.824,0-2.384.008-4.769,0-7.153,0-.228.112-.508-.209-.654a2.509,2.509,0,0,0-2.026.393c-1.092,1.092-2.171,2.2-3.284,3.266a1.338,1.338,0,0,0-.448,1.07c.017,2.2.006,4.405.01,6.608a1.281,1.281,0,0,0,.074.667m15.118-21.56c.015-.088,0-.1-.047-.018-.819.518-1.616,1.075-2.465,1.54a1.2,1.2,0,0,0-.675,1.205c.012,2.272,0,4.543,0,6.815q0,5.7,0,11.4c0,.249-.111.595.332.6.863.008,1.727.024,2.589-.011.169-.007.559-.025.406-.426a7.458,7.458,0,0,1-.172-2.708c.267-.1.265-.208,0-.31q.019-9.043.037-18.086m-.17-81.8c-.165-.25-.417-.126-.625-.126q-5.457-.008-10.916,0l-94.9.008c-.939,0-1.879.011-2.817-.012-.572-.015-.644.283-.644.767q.013,20.192,0,40.384,0,16.3,0,32.607c0,.246-.082.541.146.707.961.7,1.939,1.373,2.978,2.1,0-.822,0-1.5,0-2.185q.01-19.783.032-39.565a15.411,15.411,0,0,1,.558-5.621,19.788,19.788,0,0,1,2.106-4.318,15.9,15.9,0,0,1,2.991-3.184,16.288,16.288,0,0,1,6.361-3.1,16.391,16.391,0,0,1,4.257-.279q7.3,0,14.6.008,28.893-.008,57.788-.034a14.771,14.771,0,0,1,5.322,1.026,15.16,15.16,0,0,1,7.307,5.859,14.015,14.015,0,0,1,2.427,7.842q-.016,17.838.007,35.677c0,2.41-.009,4.82-.005,7.231,0,.164-.109.393.109.483.16.067.286-.1.413-.188.756-.5,1.5-1.028,2.264-1.517a.705.705,0,0,0,.353-.675c0-.728.015-1.455.015-2.183q.013-34.756.021-69.512c0-.5-.035-1-.054-1.5.144-.258.321-.521-.1-.7m-55.23,24.2v.011q-17.806,0-35.612.008a10.617,10.617,0,0,0-5.068,1.18,8.913,8.913,0,0,0-3.177,2.831A7.806,7.806,0,0,0,30.6,38.818q-.043,25.374-.009,50.749c0,1.715,0,1.751,1.741,1.735a5.732,5.732,0,0,1,4.32,1.829c.935.935,1.847,1.908,2.86,2.763.7.594,1.317,1.27,1.953,1.922a5.2,5.2,0,0,1,1.281,3.944c-.038,2.387,0,4.775-.01,7.163,0,.46.045.776.652.774,3.911-.016,7.822,0,11.733,0q26.269,0,52.536-.009a10.3,10.3,0,0,0,1.952-.082c.453-.085.536-.218.533-.637-.021-2.637-.008-5.275-.016-7.913a3.79,3.79,0,0,1,.888-2.7,61.737,61.737,0,0,1,6.384-6.236,2.978,2.978,0,0,1,1.687-.676c.809-.049,1.62-.076,2.429-.122.586-.033.854-.172.773-.777a3.188,3.188,0,0,1,0-.409c-.085-16.774.165-33.548-.115-50.322a9.823,9.823,0,0,0-.558-3.391,9.1,9.1,0,0,0-5.1-5.21,11.966,11.966,0,0,0-4.941-.751q-17.738.011-35.476,0m.358,97.39H119.9c2.729,0,5.458-.044,8.185.008a3.355,3.355,0,0,0,3.34-3.432c-.056-1.88.051-3.759-.114-5.642a3.081,3.081,0,0,0-2.248-2.79,14.054,14.054,0,0,0-2.761-.287q-49.558.016-99.118.01a23.712,23.712,0,0,0-2.855.121,3.163,3.163,0,0,0-2.9,3.141c-.018,1.887.024,3.775-.011,5.661a3.239,3.239,0,0,0,2.71,3.153c.748.026,1.5.055,2.245.055q25.036.007,50.07,0m36.584,6.18q-4.229,0-8.456,0c-.355,0-.7-.022-.691.5.065,2.882-.168,5.771.13,8.647a3.122,3.122,0,0,0,3.31,2.949q5.865.016,11.729,0a3.078,3.078,0,0,0,.741-.073,3.158,3.158,0,0,0,2.46-3.256c.021-2.614.009-5.228.01-7.842,0-.891-.025-.923-.914-.924q-4.16-.006-8.32,0m-73.266,0c-2.8,0-5.6.015-8.392-.013-.59-.005-.793.157-.786.765.028,2.751.042,5.5,0,8.254a3.213,3.213,0,0,0,3.054,3.1c4.048-.013,8.1,0,12.145-.005a2.8,2.8,0,0,0,1.49-.4,3.2,3.2,0,0,0,1.566-2.854c.039-2.706,0-5.412.032-8.118.006-.559-.143-.739-.721-.734-2.8.029-5.6.013-8.392.011M6.139,70h.012c0,2.818.015,5.636-.011,8.454-.005.578.185.747.744.731,1.158-.033,2.318,0,3.477-.006,1.363,0,2.734-.1,4.088.017.744.062.857-.125.855-.786q-.03-8.352,0-16.7c0-.527-.13-.711-.677-.707q-3.954.028-7.909-.015c-.5-.005-.591.172-.588.631.021,2.8.01,5.591.01,8.386m140.578.141c0-2.819-.015-5.637.013-8.456.005-.557-.183-.7-.705-.7q-3.99.026-7.98-.005c-.409,0-.485.14-.484.508q.015,8.593,0,17.185c0,.384.114.514.5.511q4.092-.025,8.185-.016c.388,0,.488-.124.486-.507-.017-2.841-.009-5.682-.01-8.524M21.3,87.907a20.64,20.64,0,0,1,.114,3.087c-.071,5.875.158,11.751-.116,17.625-.046.99-.015.992.948.99.591,0,1.183-.022,1.771.009.37.02.527-.055.526-.47q-.014-9.164,0-18.328a1.393,1.393,0,0,0-.638-1.2c-.819-.569-1.666-1.1-2.608-1.71" transform="translate(0 0)" fill="#0a1a22"/>
        <path id="Trazado_819720" data-name="Trazado 819720" d="M107.682,244.655l.1-.1.048.1h-.143" transform="translate(-48.724 -110.655)" fill="#b0b8c1"/>
        <path id="Trazado_819721" data-name="Trazado 819721" d="M149.107,12.016c.019.5.054,1,.054,1.5q-.007,34.756-.021,69.513c0,.728-.019,1.455-.015,2.183a.706.706,0,0,1-.353.675c-.765.488-1.508,1.012-2.264,1.517-.127.084-.253.254-.413.188-.218-.091-.108-.32-.108-.483,0-2.41.005-4.82,0-7.231q0-17.839-.006-35.677a14.014,14.014,0,0,0-2.428-7.842,15.155,15.155,0,0,0-7.307-5.859,14.772,14.772,0,0,0-5.322-1.027q-28.894.043-57.788.034-7.3,0-14.6-.008a16.345,16.345,0,0,0-4.257.279,16.292,16.292,0,0,0-6.361,3.1,15.9,15.9,0,0,0-2.991,3.183,19.862,19.862,0,0,0-2.106,4.318A15.411,15.411,0,0,0,42.267,46q-.045,19.783-.032,39.566v2.185c-1.038-.73-2.017-1.4-2.978-2.1-.228-.165-.146-.462-.146-.707q0-16.3,0-32.607,0-20.193,0-40.384c0-.483.073-.781.644-.767.938.024,1.878.013,2.818.013l94.9-.009c3.638,0,7.277-.007,10.916,0,.208,0,.46-.124.625.126.007.238-.17.5.095.7" transform="translate(-17.691 -5.047)" fill="#b0b8c1"/>
        <path id="Trazado_819722" data-name="Trazado 819722" d="M101.362,55.635q17.738,0,35.476,0a11.962,11.962,0,0,1,4.941.751,9.1,9.1,0,0,1,5.1,5.21,9.819,9.819,0,0,1,.558,3.391c.28,16.773.029,33.548.115,50.322a3.186,3.186,0,0,0,0,.409c.081.605-.187.743-.773.777-.81.046-1.621.073-2.429.122a2.974,2.974,0,0,0-1.687.676,61.677,61.677,0,0,0-6.384,6.235,3.8,3.8,0,0,0-.888,2.7c.009,2.638,0,5.276.017,7.913,0,.419-.08.552-.533.637a10.347,10.347,0,0,1-1.952.082q-26.268.006-52.536.009c-3.911,0-7.822-.019-11.733,0-.607,0-.653-.313-.652-.773.007-2.388-.028-4.775.01-7.163a5.2,5.2,0,0,0-1.281-3.944c-.636-.653-1.251-1.329-1.954-1.923-1.012-.855-1.925-1.828-2.859-2.762a5.73,5.73,0,0,0-4.32-1.829c-1.739.016-1.74-.02-1.741-1.735q-.006-25.374.009-50.749A7.8,7.8,0,0,1,57.5,59.666a8.912,8.912,0,0,1,3.177-2.831,10.624,10.624,0,0,1,5.068-1.18q17.806-.023,35.612-.008ZM125.5,122.692a4.847,4.847,0,0,0,1.592-.321,2.65,2.65,0,0,0,1.905-2.24c.031-1.9-.434-2.73-1.8-3.268a7.3,7.3,0,0,0-2.75-.378q-22.413,0-44.825.018a9.845,9.845,0,0,0-2.992.263,3.641,3.641,0,0,0-2.052,1.5c-.181.263-.374.634-.21.918s.22.457-.027.7a.492.492,0,0,0-.057.52,2.883,2.883,0,0,0,1.44,1.76,4.546,4.546,0,0,0,2.561.523H78.3l.528,0h.017l.53,0h1.107l.532,0h.015l.531,0h41.5l1.076,0h.011l.535,0h.011l.562,0ZM101.411,61.749q-18.318,0-36.636.007a5.935,5.935,0,0,0-4.812,2.605,5.614,5.614,0,0,0-.984,3.6q0,16.78.019,33.56a2.227,2.227,0,0,0,.815,1.9,13.5,13.5,0,0,0,2.193,1.269c1.125.512,2.329.88,3.446,1.367,1.352.589,2.7,1.243,4.036,1.892,1.516.735,3.141,1.194,4.672,1.9a5.3,5.3,0,0,0,2.216.62q25.038-.013,50.075,0a4.636,4.636,0,0,0,1.747-.229c1.943-.782,3.875-1.591,5.8-2.407,1.582-.67,3.147-1.379,4.731-2.044a29.15,29.15,0,0,0,4.306-1.938,2.425,2.425,0,0,0,1.159-1.656,13.893,13.893,0,0,0,.227-3.045c-.089-10.7.185-21.4-.133-32.1a4.845,4.845,0,0,0-1.117-2.889,6.19,6.19,0,0,0-5.125-2.4q-18.319-.01-36.636,0m.145,63.858H78.3a6.148,6.148,0,0,0-.682.005,3.559,3.559,0,0,0-3.164,1.991,2.976,2.976,0,0,0,2.163,4.011,15.038,15.038,0,0,0,3.475.139c8.071.047,16.142.03,24.214.024,7.366,0,14.731-.026,22.1-.02a2.355,2.355,0,0,0,1.235-.418,3.08,3.08,0,0,0,.392-4.883,4.526,4.526,0,0,0-2.8-.845q-11.834-.013-23.668,0" transform="translate(-25.271 -25.173)" fill="#fbad03"/>
        <path id="Trazado_819723" data-name="Trazado 819723" d="M94.155,223.479q-25.036,0-50.07,0c-.748,0-1.5-.029-2.245-.054a3.24,3.24,0,0,1-2.71-3.153c.034-1.887-.007-3.774.011-5.661a3.163,3.163,0,0,1,2.9-3.14,23.6,23.6,0,0,1,2.855-.122q49.558,0,99.118-.009a14.011,14.011,0,0,1,2.76.286,3.083,3.083,0,0,1,2.249,2.79c.165,1.883.057,3.763.114,5.642a3.355,3.355,0,0,1-3.34,3.432c-2.728-.052-5.457-.008-8.186-.008H94.155m15.089-9.1v-.01c-1.7,0-3.409,0-5.114,0a5.421,5.421,0,0,0-1.608.228,2.962,2.962,0,0,0-1.08,5.135,4.749,4.749,0,0,0,3.014.875c3.136.032,6.272.007,9.409.022a9.677,9.677,0,0,0,2.283-.287,3.161,3.161,0,0,0,2.4-2.792,3.108,3.108,0,0,0-2-2.815,5.555,5.555,0,0,0-1.991-.354h-5.318m-30.515,0v-.007c-1.749,0-3.5,0-5.247,0a5.023,5.023,0,0,0-1.47.238,2.934,2.934,0,0,0,.083,5.729,7.2,7.2,0,0,0,1.944.282q4.77-.011,9.539,0a7.032,7.032,0,0,0,2.077-.307,2.9,2.9,0,0,0,2.2-2.193,2.818,2.818,0,0,0-.992-2.924,4.147,4.147,0,0,0-2.751-.81c-1.794-.031-3.588-.009-5.383-.009" transform="translate(-17.705 -95.625)" fill="#576471"/>
        <path id="Trazado_819724" data-name="Trazado 819724" d="M198.865,244.8q4.16,0,8.32,0c.89,0,.914.032.914.924,0,2.614.01,5.228-.01,7.842a3.159,3.159,0,0,1-2.461,3.257,3.074,3.074,0,0,1-.741.072q-5.865.006-11.729,0a3.124,3.124,0,0,1-3.31-2.95c-.3-2.876-.065-5.765-.13-8.647-.012-.522.335-.5.691-.5l8.456,0" transform="translate(-85.832 -110.768)" fill="#576471"/>
        <path id="Trazado_819725" data-name="Trazado 819725" d="M65.045,244.792c2.8,0,5.6.016,8.392-.013.578-.006.727.175.721.734-.029,2.706.007,5.412-.032,8.118a3.2,3.2,0,0,1-1.566,2.854,2.8,2.8,0,0,1-1.49.4c-4.048,0-8.1-.007-12.146.005a3.213,3.213,0,0,1-3.054-3.1c.037-2.751.024-5.5,0-8.254-.007-.608.2-.771.786-.765,2.8.027,5.6.013,8.392.014" transform="translate(-25.279 -110.758)" fill="#576471"/>
        <path id="Trazado_819726" data-name="Trazado 819726" d="M11.2,120.4c0-2.8.01-5.591-.01-8.386,0-.458.085-.636.588-.631q3.954.043,7.909.015c.547,0,.678.18.677.707q-.027,8.352,0,16.7c0,.66-.111.848-.855.786-1.353-.112-2.724-.019-4.088-.017-1.16,0-2.319-.027-3.477.006-.56.016-.75-.153-.744-.731.026-2.818.011-5.636.011-8.454Z" transform="translate(-5.065 -50.4)" fill="#b0b8c1"/>
        <path id="Trazado_819727" data-name="Trazado 819727" d="M260.4,120.542c0,2.841-.008,5.683.009,8.524,0,.383-.1.508-.486.507q-4.092-.011-8.184.016c-.383,0-.5-.127-.5-.512q.017-8.592,0-17.185c0-.368.075-.511.484-.508q3.99.03,7.979.005c.522,0,.711.139.706.7-.028,2.819-.013,5.637-.011,8.456" transform="translate(-113.683 -50.399)" fill="#b0b8c1"/>
        <path id="Trazado_819728" data-name="Trazado 819728" d="M38.894,160.556c.942.614,1.79,1.142,2.608,1.71a1.393,1.393,0,0,1,.638,1.2q-.015,9.164,0,18.328c0,.415-.157.489-.526.47-.589-.031-1.18-.009-1.771-.009-.963,0-.994,0-.948-.99.274-5.874.045-11.75.116-17.625a20.64,20.64,0,0,0-.114-3.087" transform="translate(-17.592 -72.649)" fill="#b0b8c1"/>
        <path id="Trazado_819729" data-name="Trazado 819729" d="M237.477,179.221a7.458,7.458,0,0,0,.172,2.708c.153.4-.237.419-.406.426-.862.034-1.726.019-2.589.011-.443,0-.331-.35-.332-.6q-.006-5.7,0-11.4c0-2.272.015-4.543,0-6.815a1.2,1.2,0,0,1,.675-1.205c.849-.464,1.646-1.022,2.465-1.54l.047.018q-.018,9.043-.037,18.086c0,.1,0,.207,0,.31" transform="translate(-106.022 -72.762)" fill="#b0b8c1"/>
        <path id="Trazado_819730" data-name="Trazado 819730" d="M217.627,190.273l-5.039-.039c-.034-.065-.071-.05-.11,0a1.288,1.288,0,0,1-.074-.667c0-2.2.007-4.405-.01-6.608a1.34,1.34,0,0,1,.449-1.07c1.113-1.07,2.192-2.175,3.284-3.266a2.507,2.507,0,0,1,2.026-.393c.32.146.208.425.209.654.005,2.384,0,4.768,0,7.153,0,1.275,0,2.55,0,3.823-.08.427-.479.3-.735.418" transform="translate(-96.104 -80.607)" fill="#fbad03"/>
        <path id="Trazado_819731" data-name="Trazado 819731" d="M61.754,190.308H56.186c-.014-.076-.05-.081-.1-.03-.28-.124-.2-.377-.2-.592,0-3.634,0-7.268-.01-10.9,0-.5.163-.508.632-.549,1.539-.134,2.127,1.138,3.035,1.913.7.6,1.307,1.322,1.969,1.975a1.036,1.036,0,0,1,.336.785q-.017,3.678-.031,7.356l-.047,0Z" transform="translate(-25.279 -80.644)" fill="#fbad03"/>
        <path id="Trazado_819732" data-name="Trazado 819732" d="M239.9,12.146c-.265-.2-.088-.466-.095-.7.416.183.239.446.095.7" transform="translate(-108.485 -5.177)" fill="#576471"/>
        <path id="Trazado_819733" data-name="Trazado 819733" d="M221.952,199.95c.256-.12.655.009.735-.418.076.705-.409.422-.735.418" transform="translate(-100.429 -90.285)" fill="#576471"/>
        <path id="Trazado_819734" data-name="Trazado 819734" d="M240.093,194.182c0-.1,0-.207,0-.31.266.1.267.206,0,.31" transform="translate(-108.637 -87.724)" fill="#576471"/>
        <path id="Trazado_819735" data-name="Trazado 819735" d="M212.548,200.185c.039-.047.076-.061.11,0-.038.045-.076.079-.11,0" transform="translate(-96.174 -90.562)" fill="#576471"/>
        <path id="Trazado_819736" data-name="Trazado 819736" d="M56.261,200.21c.052-.051.088-.046.1.03l-.1-.03" transform="translate(-25.457 -90.577)" fill="#576471"/>
        <path id="Trazado_819737" data-name="Trazado 819737" d="M66.619,200.254l.008-.046.047,0-.009.045Z" transform="translate(-30.144 -90.591)" fill="#576471"/>
        <path id="Trazado_819738" data-name="Trazado 819738" d="M240.121,160.78l-.048-.018c.049-.081.063-.07.048.018" transform="translate(-108.629 -72.717)" fill="#576471"/>
        <path id="Trazado_819739" data-name="Trazado 819739" d="M104,66.8q18.318,0,36.635,0a6.19,6.19,0,0,1,5.125,2.4,4.849,4.849,0,0,1,1.117,2.889c.317,10.7.044,21.4.133,32.1a13.885,13.885,0,0,1-.227,3.044,2.424,2.424,0,0,1-1.159,1.656,29.123,29.123,0,0,1-4.306,1.938c-1.583.665-3.148,1.375-4.731,2.044-1.928.816-3.861,1.624-5.8,2.407a4.636,4.636,0,0,1-1.747.229q-25.037-.009-50.075,0a5.3,5.3,0,0,1-2.216-.62c-1.531-.7-3.156-1.162-4.672-1.9-1.338-.649-2.684-1.3-4.036-1.892-1.116-.486-2.32-.855-3.446-1.367a13.491,13.491,0,0,1-2.193-1.269,2.229,2.229,0,0,1-.815-1.9q-.03-16.78-.019-33.561a5.614,5.614,0,0,1,.984-3.594,5.934,5.934,0,0,1,4.812-2.605Q85.679,66.791,104,66.8M89.577,109.241c-.013.2.03.3.237.148.159.008.317.024.476.024q9.445.007,18.892.014c1,0,2,.049,3,.06.338,0,.706,0,.883-.373a18.443,18.443,0,0,1,1.1-2.148c.173-.27.113-.379-.25-.482a6.767,6.767,0,0,0-1.951-.124,3.181,3.181,0,0,1-3.038-2.912,3.038,3.038,0,0,1,2.941-3.071c6-.1,12-.05,18-.032a4.19,4.19,0,0,1,1.277.178,2.809,2.809,0,0,1,2.047,2.526,2.7,2.7,0,0,1-1.055,2.469,3.708,3.708,0,0,1-2.594.869c-2.5-.025-5-.025-7.5-.02-.3,0-.7-.106-.809.314a7.006,7.006,0,0,1-1.063,1.931.733.733,0,0,0-.142.695c.092.19.37.1.569.107,2.364.021,4.728.005,7.09.074a6.365,6.365,0,0,0,2.835-.566c1.788-.793,3.592-1.552,5.388-2.329,1.5-.648,3.02-1.245,4.484-1.973a.764.764,0,0,0,.475-.794q-.018-15.138-.016-30.277c0-.209.107-.461-.138-.623-.032-.062-.074-.087-.136-.035-.227.01-.454.029-.681.029q-17.565,0-35.13,0-18.281,0-36.563.009c-.9,0-.906,0-.9.912a27.418,27.418,0,0,1,0,5.345c-.081.417.137.794.141,1.2.032,2.841.081,5.682.113,8.523q.084,7.456.146,14.912a.857.857,0,0,0,.577.884c2.936,1.252,5.883,2.48,8.8,3.773a10.113,10.113,0,0,0,4.454,1.015c.4-.013.8-.056,1-.426.373-.667.689-1.366,1.045-2.042.189-.36.133-.469-.3-.562s-.855-.038-1.277-.095c-2.217-.3-2.981-.333-3.646-2.8a2.011,2.011,0,0,1,.451-1.788,3.645,3.645,0,0,1,3.378-1.431c.138.2.265.209.379-.021l15.182-.009c.03.047.051.124.091.135.1.028.135-.049.148-.135a10.464,10.464,0,0,1,2.355.185,2.827,2.827,0,0,1,2.135,3.831,3.137,3.137,0,0,1-3.18,2.031c-2.065-.019-4.132,0-6.2,0a4.345,4.345,0,0,1-1.283-.043.88.88,0,0,0-1.152.5c-.334.558-.669,1.117-.969,1.693-.111.211-.374.433-.124.721" transform="translate(-27.857 -30.227)" fill="#0a1a22"/>
        <path id="Trazado_819740" data-name="Trazado 819740" d="M110.408,172.985h-.53l-.007-.035-.009.035h-.53l-.007-.035-.009.035h-.53l-.007-.035-.009.035h-.53l-.007-.035-.009.035h-.53l-.007-.035-.009.035h-.53l-.007-.035-.009.035h-.53l-.007-.035-.009.035h-.53l-.007-.035-.009.035h-.53l-.007-.035-.009.035h-.53l-.007-.035-.009.035h-.53l-.007-.035-.009.035h-.53l-.007-.035-.009.035h-.53l-.007-.035-.009.035h-.53l-.007-.035-.009.035h-.53l-.007-.035-.009.035h-.53l-.007-.035-.009.035h-.53l-.007-.035-.009.035h-.53l-.007-.035-.009.035h-.53l-.007-.035-.009.035h-.53l-.007-.035-.009.035h-.53l-.008-.035-.008.035h-.53l-.008-.035-.008.035h-.53l-.007-.035-.009.035h-.53l-.008-.035-.008.035h-.53l-.008-.035-.008.035-.53,0-.008-.034-.008.034-.531,0-.007-.034-.008.034h-.53l-.007-.034-.008.034h-.532l-.007-.034-.008.034-.529,0-.008-.035-.01.035-.528,0-.008-.034-.01.034a4.555,4.555,0,0,1-2.561-.523,2.885,2.885,0,0,1-1.441-1.76.494.494,0,0,1,.058-.52c.247-.24.194-.408.027-.7s.029-.655.21-.918a3.642,3.642,0,0,1,2.052-1.505,9.844,9.844,0,0,1,2.992-.263q22.413-.028,44.825-.018a7.313,7.313,0,0,1,2.75.378c1.362.539,1.827,1.365,1.8,3.268a2.65,2.65,0,0,1-1.905,2.24,4.859,4.859,0,0,1-1.591.321.139.139,0,0,0-.238.008l-.562,0,0-.033-.007.033-.534,0,0-.034-.007.033-1.076,0-.008-.035-.009.035h-.529l-.008-.035-.009.035h-.529l-.008-.035-.009.035h-.529l-.008-.035-.009.035h-.529l-.008-.035-.009.035h-.529l-.008-.035-.009.035h-.529l-.008-.035-.009.035h-.529l-.008-.035-.009.035H133.9l-.008-.035-.009.035h-.529l-.008-.035-.009.035h-.529l-.008-.035-.009.035h-.529l-.008-.035-.009.035h-.529l-.008-.035-.009.035h-.529l-.008-.035-.009.035h-.529l-.008-.035-.009.035h-.529l-.008-.035-.009.035h-.53l-.007-.035-.009.035h-.529l-.008-.035-.009.035h-.53l-.007-.035-.009.035h-.53l-.007-.035-.009.035h-.53l-.007-.035-.009.035h-.53l-.007-.035-.009.035h-.53l-.007-.035-.009.035h-.53l-.007-.035-.009.035h-.53l-.007-.035-.009.035h-.53l-.007-.035-.009.035h-.53l-.007-.035-.009.035h-.53l-.007-.035-.009.035h-.53l-.007-.035-.009.035h-.53l-.007-.035-.009.035h-.53l-.007-.035-.009.035h-.53l-.007-.035-.009.035h-.53l-.007-.035-.009.035h-.53l-.007-.035-.009.035h-.53l-.007-.035-.009.035h-.53l-.007-.035-.009.035h-.53l-.007-.035-.009.035h-.53l-.007-.035-.009.035h-.53l-.007-.035-.009.035h-.53l-.007-.035-.009.035h-.53l-.007-.035-.009.035h-.53l-.007-.035-.009.035h-.53l-.007-.035-.009.035h-.53l-.007-.035-.009.035h-.53l-.007-.035-.009.035h-.53l-.007-.035-.009.035h-.53l-.007-.035-.009.035h-.53l-.007-.035-.009.035h-.53l-.007-.035-.009.035h-.53l-.007-.035-.009.035h-.53l-.007-.035-.009.035h-.53l-.007-.035Z" transform="translate(-40.469 -75.463)" fill="#0a1a22"/>
        <path id="Trazado_819741" data-name="Trazado 819741" d="M116.738,183.431q11.834,0,23.668,0a4.522,4.522,0,0,1,2.8.845,3.08,3.08,0,0,1-.392,4.883,2.36,2.36,0,0,1-1.235.418c-7.366-.007-14.732.014-22.1.019-8.072.005-16.143.024-24.214-.024a15.07,15.07,0,0,1-3.475-.139,2.976,2.976,0,0,1-2.163-4.011,3.558,3.558,0,0,1,3.164-1.991,6.152,6.152,0,0,1,.682-.005h23.259" transform="translate(-40.453 -82.996)" fill="#0a1a22"/>
        <path id="Trazado_819742" data-name="Trazado 819742" d="M182.628,178.068a.138.138,0,0,1,.238-.008l-.238.008" transform="translate(-82.636 -80.54)" fill="#576471"/>
        <path id="Trazado_819743" data-name="Trazado 819743" d="M117.769,178.089l.009-.034.007.034h-.016" transform="translate(-53.289 -80.566)" fill="#576471"/>
        <path id="Trazado_819744" data-name="Trazado 819744" d="M172.6,178.089l.009-.034.007.034H172.6" transform="translate(-78.1 -80.566)" fill="#576471"/>
        <path id="Trazado_819745" data-name="Trazado 819745" d="M111.787,178.089l.009-.034.007.034h-.016" transform="translate(-50.582 -80.566)" fill="#576471"/>
        <path id="Trazado_819746" data-name="Trazado 819746" d="M112.784,178.089l.009-.034.007.034h-.016" transform="translate(-51.033 -80.566)" fill="#576471"/>
        <path id="Trazado_819747" data-name="Trazado 819747" d="M113.781,178.089l.009-.034.007.034h-.016" transform="translate(-51.484 -80.566)" fill="#576471"/>
        <path id="Trazado_819748" data-name="Trazado 819748" d="M114.778,178.089l.009-.034.007.034h-.016" transform="translate(-51.935 -80.566)" fill="#576471"/>
        <path id="Trazado_819749" data-name="Trazado 819749" d="M115.775,178.089l.009-.034.007.034h-.016" transform="translate(-52.386 -80.566)" fill="#576471"/>
        <path id="Trazado_819750" data-name="Trazado 819750" d="M116.772,178.089l.009-.034.007.034h-.016" transform="translate(-52.837 -80.566)" fill="#576471"/>
        <path id="Trazado_819751" data-name="Trazado 819751" d="M109.793,178.089l.009-.034.007.034h-.016" transform="translate(-49.68 -80.566)" fill="#576471"/>
        <path id="Trazado_819752" data-name="Trazado 819752" d="M118.766,178.089l.009-.034.007.034h-.016" transform="translate(-53.74 -80.566)" fill="#576471"/>
        <path id="Trazado_819753" data-name="Trazado 819753" d="M119.763,178.089l.009-.034.007.034h-.016" transform="translate(-54.191 -80.566)" fill="#576471"/>
        <path id="Trazado_819754" data-name="Trazado 819754" d="M120.76,178.089l.009-.034.007.034h-.016" transform="translate(-54.642 -80.566)" fill="#576471"/>
        <path id="Trazado_819755" data-name="Trazado 819755" d="M121.757,178.089l.009-.034.007.034h-.016" transform="translate(-55.093 -80.566)" fill="#576471"/>
        <path id="Trazado_819756" data-name="Trazado 819756" d="M122.754,178.089l.009-.034.007.034h-.016" transform="translate(-55.544 -80.566)" fill="#576471"/>
        <path id="Trazado_819757" data-name="Trazado 819757" d="M123.751,178.089l.009-.034.007.034h-.016" transform="translate(-55.995 -80.566)" fill="#576471"/>
        <path id="Trazado_819758" data-name="Trazado 819758" d="M124.748,178.089l.009-.034.007.034h-.016" transform="translate(-56.446 -80.566)" fill="#576471"/>
        <path id="Trazado_819759" data-name="Trazado 819759" d="M125.745,178.089l.009-.034.007.034h-.016" transform="translate(-56.898 -80.566)" fill="#576471"/>
        <path id="Trazado_819760" data-name="Trazado 819760" d="M126.742,178.089l.009-.034.007.034h-.016" transform="translate(-57.349 -80.566)" fill="#576471"/>
        <path id="Trazado_819761" data-name="Trazado 819761" d="M127.739,178.089l.009-.034.007.034h-.016" transform="translate(-57.8 -80.566)" fill="#576471"/>
        <path id="Trazado_819762" data-name="Trazado 819762" d="M128.736,178.089l.009-.034.007.034h-.016" transform="translate(-58.251 -80.566)" fill="#576471"/>
        <path id="Trazado_819763" data-name="Trazado 819763" d="M129.733,178.089l.009-.034.007.034h-.016" transform="translate(-58.702 -80.566)" fill="#576471"/>
        <path id="Trazado_819764" data-name="Trazado 819764" d="M130.73,178.089l.009-.034.007.034h-.016" transform="translate(-59.153 -80.566)" fill="#576471"/>
        <path id="Trazado_819765" data-name="Trazado 819765" d="M131.727,178.089l.009-.034.007.034h-.016" transform="translate(-59.604 -80.566)" fill="#576471"/>
        <path id="Trazado_819766" data-name="Trazado 819766" d="M132.724,178.089l.009-.034.007.034h-.016" transform="translate(-60.055 -80.566)" fill="#576471"/>
        <path id="Trazado_819767" data-name="Trazado 819767" d="M133.721,178.089l.009-.034.007.034h-.016" transform="translate(-60.507 -80.566)" fill="#576471"/>
        <path id="Trazado_819768" data-name="Trazado 819768" d="M134.718,178.089l.009-.034.007.034h-.016" transform="translate(-60.958 -80.566)" fill="#576471"/>
        <path id="Trazado_819769" data-name="Trazado 819769" d="M135.715,178.089l.009-.034.007.034h-.016" transform="translate(-61.409 -80.566)" fill="#576471"/>
        <path id="Trazado_819770" data-name="Trazado 819770" d="M136.712,178.089l.009-.034.007.034h-.016" transform="translate(-61.86 -80.566)" fill="#576471"/>
        <path id="Trazado_819771" data-name="Trazado 819771" d="M137.709,178.089l.009-.034.007.034h-.016" transform="translate(-62.311 -80.566)" fill="#576471"/>
        <path id="Trazado_819772" data-name="Trazado 819772" d="M138.706,178.089l.009-.034.007.034h-.016" transform="translate(-62.762 -80.566)" fill="#576471"/>
        <path id="Trazado_819773" data-name="Trazado 819773" d="M108.8,178.089l.009-.034.007.034H108.8" transform="translate(-49.228 -80.566)" fill="#576471"/>
        <path id="Trazado_819774" data-name="Trazado 819774" d="M140.7,178.089l.009-.034.007.034H140.7" transform="translate(-63.664 -80.566)" fill="#576471"/>
        <path id="Trazado_819775" data-name="Trazado 819775" d="M141.7,178.089l.009-.034.007.034H141.7" transform="translate(-64.116 -80.566)" fill="#576471"/>
        <path id="Trazado_819776" data-name="Trazado 819776" d="M142.694,178.089l.009-.034.007.034h-.016" transform="translate(-64.567 -80.566)" fill="#576471"/>
        <path id="Trazado_819777" data-name="Trazado 819777" d="M143.691,178.089l.009-.034.007.034h-.016" transform="translate(-65.018 -80.566)" fill="#576471"/>
        <path id="Trazado_819778" data-name="Trazado 819778" d="M144.688,178.089l.009-.034.007.034h-.016" transform="translate(-65.469 -80.566)" fill="#576471"/>
        <path id="Trazado_819779" data-name="Trazado 819779" d="M145.685,178.089l.009-.034.007.034h-.016" transform="translate(-65.92 -80.566)" fill="#576471"/>
        <path id="Trazado_819780" data-name="Trazado 819780" d="M146.682,178.089l.009-.034.007.034h-.016" transform="translate(-66.371 -80.566)" fill="#576471"/>
        <path id="Trazado_819781" data-name="Trazado 819781" d="M147.679,178.089l.009-.034.007.034h-.016" transform="translate(-66.822 -80.566)" fill="#576471"/>
        <path id="Trazado_819782" data-name="Trazado 819782" d="M148.676,178.089l.009-.034.007.034h-.016" transform="translate(-67.273 -80.566)" fill="#576471"/>
        <path id="Trazado_819783" data-name="Trazado 819783" d="M149.673,178.089l.009-.034.007.034h-.016" transform="translate(-67.725 -80.566)" fill="#576471"/>
        <path id="Trazado_819784" data-name="Trazado 819784" d="M150.67,178.089l.009-.034.007.034h-.016" transform="translate(-68.176 -80.566)" fill="#576471"/>
        <path id="Trazado_819785" data-name="Trazado 819785" d="M151.667,178.089l.009-.034.007.034h-.016" transform="translate(-68.627 -80.566)" fill="#576471"/>
        <path id="Trazado_819786" data-name="Trazado 819786" d="M152.664,178.089l.009-.034.007.034h-.016" transform="translate(-69.078 -80.566)" fill="#576471"/>
        <path id="Trazado_819787" data-name="Trazado 819787" d="M153.661,178.089l.009-.034.007.034h-.016" transform="translate(-69.529 -80.566)" fill="#576471"/>
        <path id="Trazado_819788" data-name="Trazado 819788" d="M154.658,178.089l.009-.034.007.034h-.016" transform="translate(-69.98 -80.566)" fill="#576471"/>
        <path id="Trazado_819789" data-name="Trazado 819789" d="M155.655,178.089l.009-.034.007.034h-.016" transform="translate(-70.431 -80.566)" fill="#576471"/>
        <path id="Trazado_819790" data-name="Trazado 819790" d="M156.652,178.089l.009-.034.007.034h-.016" transform="translate(-70.882 -80.566)" fill="#576471"/>
        <path id="Trazado_819791" data-name="Trazado 819791" d="M157.649,178.089l.009-.034.007.034h-.016" transform="translate(-71.334 -80.566)" fill="#576471"/>
        <path id="Trazado_819792" data-name="Trazado 819792" d="M158.646,178.089l.009-.034.007.034h-.016" transform="translate(-71.785 -80.566)" fill="#576471"/>
        <path id="Trazado_819793" data-name="Trazado 819793" d="M159.643,178.089l.009-.034.007.034h-.016" transform="translate(-72.236 -80.566)" fill="#576471"/>
        <path id="Trazado_819794" data-name="Trazado 819794" d="M160.64,178.089l.009-.034.007.034h-.016" transform="translate(-72.687 -80.566)" fill="#576471"/>
        <path id="Trazado_819795" data-name="Trazado 819795" d="M161.637,178.089l.009-.034.007.034h-.016" transform="translate(-73.138 -80.566)" fill="#576471"/>
        <path id="Trazado_819796" data-name="Trazado 819796" d="M162.634,178.089l.009-.034.007.034h-.016" transform="translate(-73.589 -80.566)" fill="#576471"/>
        <path id="Trazado_819797" data-name="Trazado 819797" d="M163.631,178.089l.009-.034.007.034h-.016" transform="translate(-74.04 -80.566)" fill="#576471"/>
        <path id="Trazado_819798" data-name="Trazado 819798" d="M164.628,178.089l.009-.034.007.034h-.016" transform="translate(-74.491 -80.566)" fill="#576471"/>
        <path id="Trazado_819799" data-name="Trazado 819799" d="M165.625,178.089l.009-.034.007.034h-.016" transform="translate(-74.943 -80.566)" fill="#576471"/>
        <path id="Trazado_819800" data-name="Trazado 819800" d="M166.622,178.089l.009-.034.007.034h-.016" transform="translate(-75.394 -80.566)" fill="#576471"/>
        <path id="Trazado_819801" data-name="Trazado 819801" d="M167.619,178.089l.009-.034.007.034h-.016" transform="translate(-75.845 -80.566)" fill="#576471"/>
        <path id="Trazado_819802" data-name="Trazado 819802" d="M168.616,178.089l.009-.034.007.034h-.016" transform="translate(-76.296 -80.566)" fill="#576471"/>
        <path id="Trazado_819803" data-name="Trazado 819803" d="M169.613,178.089l.009-.034.007.034h-.016" transform="translate(-76.747 -80.566)" fill="#576471"/>
        <path id="Trazado_819804" data-name="Trazado 819804" d="M170.61,178.089l.009-.034.007.034h-.016" transform="translate(-77.198 -80.566)" fill="#576471"/>
        <path id="Trazado_819805" data-name="Trazado 819805" d="M171.607,178.089l.009-.034.007.034h-.016" transform="translate(-77.649 -80.566)" fill="#576471"/>
        <path id="Trazado_819806" data-name="Trazado 819806" d="M139.7,178.089l.009-.034.007.034H139.7" transform="translate(-63.213 -80.566)" fill="#576471"/>
        <path id="Trazado_819807" data-name="Trazado 819807" d="M173.6,178.088l.009-.035.008.035H173.6" transform="translate(-78.552 -80.566)" fill="#576471"/>
        <path id="Trazado_819808" data-name="Trazado 819808" d="M174.6,178.088l.009-.035.008.035H174.6" transform="translate(-79.003 -80.566)" fill="#576471"/>
        <path id="Trazado_819809" data-name="Trazado 819809" d="M175.6,178.088l.009-.034.008.034H175.6" transform="translate(-79.454 -80.566)" fill="#576471"/>
        <path id="Trazado_819810" data-name="Trazado 819810" d="M176.592,178.088l.009-.035.008.035h-.016" transform="translate(-79.905 -80.566)" fill="#576471"/>
        <path id="Trazado_819811" data-name="Trazado 819811" d="M177.589,178.088l.009-.035.008.035h-.016" transform="translate(-80.356 -80.566)" fill="#576471"/>
        <path id="Trazado_819812" data-name="Trazado 819812" d="M178.585,178.088l.009-.034.009.034h-.018" transform="translate(-80.807 -80.566)" fill="#576471"/>
        <path id="Trazado_819813" data-name="Trazado 819813" d="M180.582,178.1l.008-.033,0,.034h-.013" transform="translate(-81.71 -80.571)" fill="#576471"/>
        <path id="Trazado_819814" data-name="Trazado 819814" d="M181.58,178.105l.007-.033,0,.033h-.012" transform="translate(-82.162 -80.575)" fill="#576471"/>
        <path id="Trazado_819815" data-name="Trazado 819815" d="M107.8,178.089l.009-.034.007.034H107.8" transform="translate(-48.777 -80.566)" fill="#576471"/>
        <path id="Trazado_819816" data-name="Trazado 819816" d="M106.8,178.089l.009-.034.007.034H106.8" transform="translate(-48.326 -80.566)" fill="#576471"/>
        <path id="Trazado_819817" data-name="Trazado 819817" d="M105.805,178.089l.009-.034.007.034h-.016" transform="translate(-47.875 -80.566)" fill="#576471"/>
        <path id="Trazado_819818" data-name="Trazado 819818" d="M104.808,178.089l.008-.034.008.034h-.016" transform="translate(-47.424 -80.566)" fill="#576471"/>
        <path id="Trazado_819819" data-name="Trazado 819819" d="M103.811,178.089l.008-.034.008.034h-.016" transform="translate(-46.973 -80.566)" fill="#576471"/>
        <path id="Trazado_819820" data-name="Trazado 819820" d="M102.814,178.088l.009-.035.008.035h-.016" transform="translate(-46.522 -80.566)" fill="#576471"/>
        <path id="Trazado_819821" data-name="Trazado 819821" d="M101.819,178.092l.008-.035.007.035h-.015" transform="translate(-46.071 -80.568)" fill="#576471"/>
        <path id="Trazado_819822" data-name="Trazado 819822" d="M100.821,178.1l.008-.034.007.034h-.015" transform="translate(-45.62 -80.57)" fill="#576471"/>
        <path id="Trazado_819823" data-name="Trazado 819823" d="M99.824,178.1l.008-.034.007.034h-.015" transform="translate(-45.169 -80.571)" fill="#576471"/>
        <path id="Trazado_819824" data-name="Trazado 819824" d="M98.827,178.1l.008-.034.006.034h-.014" transform="translate(-44.717 -80.571)" fill="#576471"/>
        <path id="Trazado_819825" data-name="Trazado 819825" d="M97.827,178.088l.01-.034.008.035h-.018" transform="translate(-44.265 -80.566)" fill="#576471"/>
        <path id="Trazado_819826" data-name="Trazado 819826" d="M96.83,178.08l.01-.034.008.035H96.83" transform="translate(-43.814 -80.563)" fill="#576471"/>
        <path id="Trazado_819827" data-name="Trazado 819827" d="M110.79,178.089l.009-.034.007.034h-.016" transform="translate(-50.131 -80.566)" fill="#576471"/>
        <path id="Trazado_819828" data-name="Trazado 819828" d="M159.848,216.878h5.318a5.555,5.555,0,0,1,1.991.354,3.107,3.107,0,0,1,2,2.815,3.161,3.161,0,0,1-2.4,2.792,9.735,9.735,0,0,1-2.283.287c-3.136-.015-6.273.01-9.409-.022a4.746,4.746,0,0,1-3.014-.875,2.962,2.962,0,0,1,1.08-5.135,5.439,5.439,0,0,1,1.608-.228c1.7.007,3.409,0,5.114,0Z" transform="translate(-68.309 -98.128)" fill="#0a1a22"/>
        <path id="Trazado_819829" data-name="Trazado 819829" d="M104.037,216.881c1.794,0,3.589-.022,5.383.009a4.147,4.147,0,0,1,2.751.81,2.818,2.818,0,0,1,.992,2.924,2.9,2.9,0,0,1-2.2,2.193,7.031,7.031,0,0,1-2.077.307q-4.769-.009-9.539,0a7.2,7.2,0,0,1-1.944-.282,2.934,2.934,0,0,1-.083-5.729,5.023,5.023,0,0,1,1.47-.238c1.749.007,3.5,0,5.247,0Z" transform="translate(-43.013 -98.13)" fill="#0a1a22"/>
        <path id="Trazado_819830" data-name="Trazado 819830" d="M145.444,77.957c.245.163.138.414.138.624q.01,15.138.016,30.277a.764.764,0,0,1-.475.794c-1.464.728-2.985,1.326-4.483,1.973-1.8.776-3.6,1.535-5.388,2.328a6.357,6.357,0,0,1-2.835.566c-2.363-.07-4.727-.054-7.091-.075-.2,0-.477.083-.569-.107a.733.733,0,0,1,.142-.695,7,7,0,0,0,1.063-1.931c.11-.42.514-.314.809-.314,2.5,0,5,0,7.5.021a3.713,3.713,0,0,0,2.594-.869,2.7,2.7,0,0,0,1.055-2.47,2.807,2.807,0,0,0-2.046-2.526,4.18,4.18,0,0,0-1.278-.178c-6-.018-12-.069-18,.032a3.037,3.037,0,0,0-2.941,3.071,3.181,3.181,0,0,0,3.038,2.912,6.79,6.79,0,0,1,1.952.124c.363.1.423.212.25.482a18.443,18.443,0,0,0-1.1,2.148c-.177.377-.545.377-.883.373-1-.01-2-.057-3-.059q-9.445-.014-18.892-.014c-.159,0-.317-.016-.475-.025-.028-.131-.128-.147-.237-.148-.25-.287.013-.509.124-.721.3-.576.635-1.135.969-1.692a.879.879,0,0,1,1.152-.5,4.365,4.365,0,0,0,1.283.043c2.066,0,4.132-.016,6.2,0a3.137,3.137,0,0,0,3.179-2.031,2.826,2.826,0,0,0-2.135-3.831,10.4,10.4,0,0,0-2.355-.185c-.079-.1-.159-.1-.239,0l-15.182.009a.226.226,0,0,0-.379.021,3.643,3.643,0,0,0-3.378,1.431,2.01,2.01,0,0,0-.451,1.788c.665,2.466,1.429,2.5,3.646,2.8.422.056.844,0,1.277.095s.486.2.3.563c-.356.677-.672,1.375-1.046,2.042a1.058,1.058,0,0,1-1,.426,10.106,10.106,0,0,1-4.454-1.015c-2.917-1.293-5.864-2.522-8.8-3.773a.858.858,0,0,1-.578-.884q-.057-7.456-.146-14.913c-.032-2.841-.081-5.682-.113-8.523,0-.408-.222-.785-.141-1.2a27.417,27.417,0,0,0,0-5.345c0-.912,0-.912.905-.912q18.281,0,36.562-.01,17.565,0,35.13,0c.227,0,.454-.019.681-.029l.136.034" transform="translate(-32.583 -35.259)" fill="#4e8aca"/>
        <path id="Trazado_819831" data-name="Trazado 819831" d="M99.238,127.986a.226.226,0,0,1,.379-.021c-.114.229-.241.226-.379.021" transform="translate(-44.903 -57.86)" fill="#576471"/>
        <path id="Trazado_819832" data-name="Trazado 819832" d="M112.724,144.313c.109,0,.209.017.237.148-.207.156-.25.048-.237-.148" transform="translate(-51.005 -65.299)" fill="#576471"/>
        <path id="Trazado_819833" data-name="Trazado 819833" d="M127.66,127.963q.12-.149.239,0c-.013.087-.049.164-.148.135-.04-.012-.061-.088-.091-.135" transform="translate(-57.764 -57.867)" fill="#576471"/>
        <path id="Trazado_819834" data-name="Trazado 819834" d="M206.019,77.934l-.136-.035c.061-.052.1-.027.136.035" transform="translate(-93.158 -35.235)" fill="#576471"/>
      </g>
    </g>
  </g>
</svg>
