<svg xmlns="http://www.w3.org/2000/svg" xmlns:xlink="http://www.w3.org/1999/xlink" width="399.666" height="245.34" viewBox="0 0 399.666 245.34">
  <defs>
    <clipPath id="clip-path">
      <rect id="Rectángulo_377783" data-name="Rectángulo 377783" width="399.666" height="245.34" transform="translate(0 -14.334)" fill="none"/>
    </clipPath>
  </defs>
  <g id="Grupo_1074530" data-name="Grupo 1074530" transform="translate(-105.334 -56.729)">
    <g id="Grupo_1072953" data-name="Grupo 1072953" transform="translate(105.333 71.063)" clip-path="url(#clip-path)">
      <path id="Trazado_819339" data-name="Trazado 819339" d="M953.424,616.2H819.76a8.5,8.5,0,0,1-8.307-8.678V423.052a8.5,8.5,0,0,1,8.307-8.678H953.424a8.5,8.5,0,0,1,8.307,8.678V607.517a8.5,8.5,0,0,1-8.307,8.678" transform="translate(-703.465 -403.826)" fill="#1d2238"/>
      <rect id="Rectángulo_377753" data-name="Rectángulo 377753" width="131.557" height="177.788" transform="translate(117.348 22.565)" fill="#fff"/>
      <path id="Trazado_819340" data-name="Trazado 819340" d="M1258.3,326.306a10.2,10.2,0,1,0-20.392,0h-9.448v16.879h39.288V326.306Zm-10.2,1.686a3.761,3.761,0,1,1,3.6-3.757,3.68,3.68,0,0,1-3.6,3.757" transform="translate(-1064.979 -318.926)" fill="#fccd32"/>
      <rect id="Rectángulo_377754" data-name="Rectángulo 377754" width="89.048" height="5.683" transform="translate(154.484 41.132)" fill="#f1f2f5"/>
      <rect id="Rectángulo_377755" data-name="Rectángulo 377755" width="89.048" height="5.683" transform="translate(154.484 52.229)" fill="#f1f2f5"/>
      <rect id="Rectángulo_377756" data-name="Rectángulo 377756" width="43.396" height="5.683" transform="translate(154.484 63.326)" fill="#f1f2f5"/>
      <path id="Trazado_819341" data-name="Trazado 819341" d="M969.822,660.056H944.777V631.345h25.045Zm-24.246-.834h23.448V632.179H945.575Z" transform="translate(-819.047 -590.63)" fill="#9ea9bd"/>
      <path id="Trazado_819342" data-name="Trazado 819342" d="M990.607,625.253l5.869,8.53,16.181-15.9,2.873,3.877-19.893,19.857-8.577-12.991Z" transform="translate(-855.703 -579.039)" fill="#fccd32"/>
      <rect id="Rectángulo_377757" data-name="Rectángulo 377757" width="89.048" height="5.683" transform="translate(154.484 77.745)" fill="#f1f2f5"/>
      <rect id="Rectángulo_377758" data-name="Rectángulo 377758" width="89.048" height="5.683" transform="translate(154.484 88.842)" fill="#f1f2f5"/>
      <rect id="Rectángulo_377759" data-name="Rectángulo 377759" width="43.396" height="5.683" transform="translate(154.484 99.939)" fill="#f1f2f5"/>
      <path id="Trazado_819343" data-name="Trazado 819343" d="M969.822,923.393H944.777V894.682h25.045Zm-24.246-.834h23.448V895.516H945.575Z" transform="translate(-819.047 -817.354)" fill="#9ea9bd"/>
      <path id="Trazado_819344" data-name="Trazado 819344" d="M990.607,888.59l5.869,8.53,16.181-15.9,2.873,3.877-19.893,19.857-8.577-12.991Z" transform="translate(-855.703 -805.763)" fill="#fccd32"/>
      <rect id="Rectángulo_377760" data-name="Rectángulo 377760" width="89.048" height="5.683" transform="translate(154.484 114.358)" fill="#f1f2f5"/>
      <rect id="Rectángulo_377761" data-name="Rectángulo 377761" width="89.048" height="5.683" transform="translate(154.484 125.455)" fill="#f1f2f5"/>
      <rect id="Rectángulo_377762" data-name="Rectángulo 377762" width="43.396" height="5.683" transform="translate(154.484 136.552)" fill="#f1f2f5"/>
      <path id="Trazado_819345" data-name="Trazado 819345" d="M969.822,1186.729H944.777v-28.711h25.045Zm-24.246-.834h23.448v-27.043H945.575Z" transform="translate(-819.047 -1044.077)" fill="#9ea9bd"/>
      <path id="Trazado_819346" data-name="Trazado 819346" d="M990.607,1151.927l5.869,8.53,16.181-15.9,2.873,3.877-19.893,19.857L987.06,1155.3Z" transform="translate(-855.703 -1032.487)" fill="#fccd32"/>
      <rect id="Rectángulo_377763" data-name="Rectángulo 377763" width="89.048" height="5.683" transform="translate(154.484 150.971)" fill="#f1f2f5"/>
      <rect id="Rectángulo_377764" data-name="Rectángulo 377764" width="89.048" height="5.683" transform="translate(154.484 162.068)" fill="#f1f2f5"/>
      <rect id="Rectángulo_377765" data-name="Rectángulo 377765" width="43.396" height="5.683" transform="translate(154.484 173.165)" fill="#f1f2f5"/>
      <path id="Trazado_819347" data-name="Trazado 819347" d="M969.822,1450.066H944.777v-28.711h25.045Zm-24.246-.834h23.448v-27.043H945.575Z" transform="translate(-819.047 -1270.801)" fill="#9ea9bd"/>
      <path id="Trazado_819348" data-name="Trazado 819348" d="M990.607,1415.264l5.869,8.53,16.181-15.9,2.873,3.877-19.893,19.858-8.577-12.991Z" transform="translate(-855.703 -1259.211)" fill="#fccd32"/>
      <rect id="Rectángulo_377766" data-name="Rectángulo 377766" width="41.365" height="43.4" transform="translate(283.187 168.97)" fill="#9ea9bd"/>
      <rect id="Rectángulo_377767" data-name="Rectángulo 377767" width="4.986" height="6.872" transform="translate(301.377 168.969)" fill="#1d2238"/>
      <rect id="Rectángulo_377768" data-name="Rectángulo 377768" width="29.617" height="43.4" transform="translate(324.552 168.97)" fill="#d2d6e1"/>
      <rect id="Rectángulo_377769" data-name="Rectángulo 377769" width="3.791" height="6.872" transform="translate(337.465 168.969)" fill="#1d2238"/>
      <rect id="Rectángulo_377770" data-name="Rectángulo 377770" width="41.365" height="83.059" transform="translate(275.215 85.91)" fill="#edb248"/>
      <rect id="Rectángulo_377771" data-name="Rectángulo 377771" width="4.986" height="13.152" transform="translate(293.404 85.91)" fill="#1d2238"/>
      <rect id="Rectángulo_377772" data-name="Rectángulo 377772" width="29.617" height="83.059" transform="translate(316.58 85.91)" fill="#f0c36a"/>
      <rect id="Rectángulo_377773" data-name="Rectángulo 377773" width="3.791" height="13.152" transform="translate(329.493 85.91)" fill="#1d2238"/>
      <rect id="Rectángulo_377774" data-name="Rectángulo 377774" width="53.201" height="43.4" transform="translate(205.665 168.97)" fill="#f0c36a"/>
      <rect id="Rectángulo_377775" data-name="Rectángulo 377775" width="6.412" height="6.872" transform="translate(229.059 168.969)" fill="#1d2238"/>
      <rect id="Rectángulo_377776" data-name="Rectángulo 377776" width="35.204" height="43.4" transform="translate(258.866 168.97)" fill="#f6dba6"/>
      <rect id="Rectángulo_377777" data-name="Rectángulo 377777" width="6.412" height="6.872" transform="translate(274.296 168.969)" fill="#1d2238"/>
      <rect id="Rectángulo_377778" data-name="Rectángulo 377778" width="41.365" height="43.4" transform="translate(212.205 125.569)" fill="#d2d6e1"/>
      <rect id="Rectángulo_377779" data-name="Rectángulo 377779" width="4.986" height="6.872" transform="translate(230.394 125.569)" fill="#1d2238"/>
      <rect id="Rectángulo_377780" data-name="Rectángulo 377780" width="29.617" height="43.4" transform="translate(253.57 125.569)" fill="#f1f2f5"/>
      <rect id="Rectángulo_377781" data-name="Rectángulo 377781" width="3.791" height="6.872" transform="translate(266.483 125.569)" fill="#1d2238"/>
      <rect id="Rectángulo_377782" data-name="Rectángulo 377782" width="355.823" height="0.695" transform="translate(21.641 212.022)" fill="#1d2238"/>
      <path id="Trazado_819349" data-name="Trazado 819349" d="M603.963,872.213l-1.372.959-7.314-11.427a.887.887,0,0,1,.227-1.2.8.8,0,0,1,1.145.238Z" transform="translate(-515.937 -787.84)" fill="#1d2238"/>
      <path id="Trazado_819350" data-name="Trazado 819350" d="M607.012,934.326s.566-4.909,1.74-5.136a26.194,26.194,0,0,1,5.351,0,5.293,5.293,0,0,1,3,2.682l-7.44,7.545Z" transform="translate(-526.231 -846.945)" fill="#eb9481"/>
      <path id="Trazado_819351" data-name="Trazado 819351" d="M528.534,670.4a11.339,11.339,0,0,1,1.937,4.6,2.532,2.532,0,0,1-1.026,2.7l-5.047-7.3Z" transform="translate(-454.611 -624.252)" fill="#1d2238"/>
      <path id="Trazado_819352" data-name="Trazado 819352" d="M435.757,661.124h0a8.372,8.372,0,0,0-8.191,7.931l-.067-.011-1.777,11.582a4.655,4.655,0,0,0,3.711,5.357c2.441.409,4.312,1.133,5.127-3.877l.126-.822a7.946,7.946,0,0,0,1.07.075,8.407,8.407,0,0,0,8.217-8.585v-3.066a8.407,8.407,0,0,0-8.217-8.585" transform="translate(-369.018 -616.269)" fill="#eb9481"/>
      <path id="Trazado_819353" data-name="Trazado 819353" d="M538.773,712.244a6.382,6.382,0,0,1,.155.675c.023.112.037.225.055.337s.035.225.045.337c.025.225.05.45.06.675l.022.337.007.337-.365-.381c.137,0,.274-.01.411-.006.07,0,.124,0,.243.011a1.107,1.107,0,0,1,.3.085,1.053,1.053,0,0,1,.4,1.585.911.911,0,0,1-.455.314.789.789,0,0,1-.261.03,1.514,1.514,0,0,1-.223-.038c-.137-.032-.274-.068-.411-.112l-.006,0a.021.021,0,0,1-.013-.027.02.02,0,0,1,.019-.015l.411-.006c.068,0,.138,0,.2-.007a.759.759,0,0,0,.189-.053.709.709,0,0,0,0-1.284.716.716,0,0,0-.188-.049c-.063,0-.133,0-.2,0h-.451v-.041c.006-.9,0-1.8.019-2.7a.02.02,0,0,1,.04-.006Z" transform="translate(-467.021 -660.263)" fill="#1d2238"/>
      <path id="Trazado_819354" data-name="Trazado 819354" d="M548.8,709.145a.571.571,0,1,1-.57-.6.584.584,0,0,1,.57.6" transform="translate(-474.773 -657.1)" fill="#1d2238"/>
      <path id="Trazado_819355" data-name="Trazado 819355" d="M524.257,747.506s-.946-1.44-3.7-1.4Z" transform="translate(-451.28 -689.433)" fill="#fff"/>
      <path id="Trazado_819356" data-name="Trazado 819356" d="M541.1,694.219c-.052.222.39.525.987.675s1.122.093,1.173-.129-.39-.525-.987-.675-1.122-.093-1.173.129" transform="translate(-469.089 -644.58)" fill="#1d2238"/>
      <path id="Trazado_819357" data-name="Trazado 819357" d="M523.948,711.135a.571.571,0,1,1-.57-.6.583.583,0,0,1,.57.6" transform="translate(-453.232 -658.814)" fill="#1d2238"/>
      <path id="Trazado_819358" data-name="Trazado 819358" d="M516.282,696.721c.055.221.581.271,1.175.11s1.032-.47.977-.691-.581-.271-1.175-.11-1.032.47-.977.691" transform="translate(-447.571 -646.241)" fill="#1d2238"/>
      <path id="Trazado_819359" data-name="Trazado 819359" d="M523.153,747.8a6.36,6.36,0,0,1-1.2-.23c-.2-.049-.386-.118-.579-.177s-.379-.139-.568-.209-.373-.155-.557-.239-.368-.17-.546-.27a6.652,6.652,0,0,1-1.046-.664l0,0a.018.018,0,0,1,0-.024.016.016,0,0,1,.019-.006l2.256.879,2.245.911a.017.017,0,0,1,.009.022.016.016,0,0,1-.016.011Z" transform="translate(-449.621 -689.326)" fill="#1d2238"/>
      <path id="Trazado_819360" data-name="Trazado 819360" d="M414.541,641.652s7.158-6.589,14.087-6.587a4.429,4.429,0,0,1,4.144,2.539s-1.333-10.936-12.9-9.093-6.954,14.187-6.954,14.187Z" transform="translate(-357.177 -588.01)" fill="#134f9d"/>
      <path id="Trazado_819361" data-name="Trazado 819361" d="M449.441,686.632s-1.41,1.788-4.354,5.038c-.728.8-1.99,1.915-1.99,1.915a5.859,5.859,0,0,0-.239-2.908,27.666,27.666,0,0,1,6.583-4.045" transform="translate(-383.923 -638.23)" fill="#1d2238"/>
      <path id="Trazado_819362" data-name="Trazado 819362" d="M514.022,675.791a3.891,3.891,0,0,0,3.215,1.832s-3.69,1.266-5.129-1.414Z" transform="translate(-443.957 -628.897)" fill="#1d2238"/>
      <path id="Trazado_819363" data-name="Trazado 819363" d="M421.057,721.76l-.545,3.358-1.675-5.049,2.809-1.9Z" transform="translate(-363.098 -665.383)" fill="#1d2238"/>
      <path id="Trazado_819364" data-name="Trazado 819364" d="M422.635,714.251a1.69,1.69,0,1,0,1.636-2.115,1.922,1.922,0,0,0-1.636,2.115" transform="translate(-366.391 -660.188)" fill="#eb9481"/>
      <path id="Trazado_819365" data-name="Trazado 819365" d="M430.422,719.381a1.219,1.219,0,0,0-.442-.265.58.58,0,0,0-.2-.032.526.526,0,0,0-.18.029.834.834,0,0,0-.469.523,1.227,1.227,0,0,0-.057.2c0,.034-.014.069-.017.1l-.005.053-.005.038c0,.012,0,.008,0,.013s-.005-.008-.015-.024a.163.163,0,0,0-.1-.07c-.049,0,.027.023.1.013.147-.018.332-.059.519-.089a1.227,1.227,0,0,1,.594.025l.006,0a.021.021,0,0,1,.012.027.02.02,0,0,1-.018.014,1.553,1.553,0,0,0-.513.148c-.168.069-.334.148-.512.2a.527.527,0,0,1-.287.023.207.207,0,0,1-.125-.1.365.365,0,0,1-.038-.152,1.49,1.49,0,0,1,.089-.575,1.212,1.212,0,0,1,.316-.479.855.855,0,0,1,.511-.231.8.8,0,0,1,.536.151,1.124,1.124,0,0,1,.355.441.021.021,0,0,1-.009.028.019.019,0,0,1-.021,0Z" transform="translate(-371.605 -665.898)" fill="#1d2238"/>
      <path id="Trazado_819366" data-name="Trazado 819366" d="M503.762,648.616s4.91-6.874,10.843-5.212-2.288,6.979-2.288,6.979-2.287-4.025-8.555-1.767" transform="translate(-436.722 -600.79)" fill="#f1f2f5"/>
      <path id="Trazado_819367" data-name="Trazado 819367" d="M447.862,630.162c.056.3-.562.681-1.381.846s-1.527.054-1.583-.248.562-.681,1.381-.846,1.527-.054,1.583.248" transform="translate(-385.689 -589.332)" fill="#1d2238"/>
      <path id="Trazado_819368" data-name="Trazado 819368" d="M469.617,787.48a17.462,17.462,0,0,1-3.659-3.011,6.078,6.078,0,0,0,3.533,3.833Z" transform="translate(-403.949 -722.465)" fill="#1d2238"/>
      <path id="Trazado_819369" data-name="Trazado 819369" d="M521.912,1789.9l12.436,5.665a5.245,5.245,0,0,1,3,4.89l-27.039-.061,1.439-10.517Z" transform="translate(-442.4 -1588.083)" fill="#4a4e60"/>
      <path id="Trazado_819370" data-name="Trazado 819370" d="M510.341,1850.287c2.227.135,4.454.207,6.682.258,1.114.031,2.227.04,3.341.06l3.341.025,3.341-.009c1.114-.015,2.227-.018,3.341-.045,2.228-.041,4.455-.1,6.683-.229-2.227-.135-4.454-.208-6.682-.259-1.114-.031-2.227-.039-3.341-.059l-3.341-.024-3.341.01c-1.114.014-2.228.018-3.341.045-2.228.041-4.455.1-6.683.228" transform="translate(-442.425 -1639.853)" fill="#1d2238"/>
      <path id="Trazado_819371" data-name="Trazado 819371" d="M534.8,1806.137a2.458,2.458,0,1,0,2.461-2.56,2.513,2.513,0,0,0-2.461,2.56" transform="translate(-463.626 -1599.88)" fill="#1d2238"/>
      <path id="Trazado_819372" data-name="Trazado 819372" d="M661.485,1822.682a1.586,1.586,0,0,0-.918-.091,2.123,2.123,0,0,0-1.444,1.013,1.552,1.552,0,0,0-.213.958l.052.031a3.362,3.362,0,0,1,.235-.33c.043-.052.081-.108.127-.157l.137-.147a4.045,4.045,0,0,1,.618-.506,5.287,5.287,0,0,1,.686-.405c.119-.058.241-.113.363-.162s.246-.1.371-.142Z" transform="translate(-571.214 -1616.226)" fill="#1d2238"/>
      <path id="Trazado_819373" data-name="Trazado 819373" d="M637.636,1812.5a1.587,1.587,0,0,0-.918-.091,2.123,2.123,0,0,0-1.444,1.013,1.553,1.553,0,0,0-.213.957l.052.031a3.425,3.425,0,0,1,.235-.33c.043-.052.081-.108.127-.156l.137-.147a4.054,4.054,0,0,1,.618-.506,5.262,5.262,0,0,1,.687-.405q.179-.088.364-.163c.121-.053.246-.1.371-.143Z" transform="translate(-550.539 -1607.463)" fill="#1d2238"/>
      <path id="Trazado_819374" data-name="Trazado 819374" d="M615.564,1803.267a1.587,1.587,0,0,0-.918-.091,2.124,2.124,0,0,0-1.444,1.013,1.553,1.553,0,0,0-.213.958l.052.031a3.325,3.325,0,0,1,.235-.33c.043-.052.081-.108.127-.157l.137-.147a4.048,4.048,0,0,1,.618-.506,5.25,5.25,0,0,1,.687-.405q.179-.088.363-.163c.122-.053.246-.1.371-.143Z" transform="translate(-531.404 -1599.511)" fill="#1d2238"/>
      <path id="Trazado_819375" data-name="Trazado 819375" d="M400.131,1789.9l12.436,5.665a5.245,5.245,0,0,1,3,4.89l-27.039-.061,1.439-10.517Z" transform="translate(-336.825 -1588.083)" fill="#9ea9bd"/>
      <path id="Trazado_819376" data-name="Trazado 819376" d="M388.56,1850.287c2.227.135,4.454.207,6.682.258,1.114.031,2.227.04,3.341.06l3.341.025,3.341-.009c1.114-.015,2.227-.018,3.341-.045,2.228-.041,4.455-.1,6.683-.229-2.227-.135-4.454-.208-6.682-.259-1.114-.031-2.227-.039-3.341-.059l-3.341-.024-3.341.01c-1.114.014-2.227.018-3.341.045-2.228.041-4.455.1-6.683.228" transform="translate(-336.851 -1639.853)" fill="#1d2238"/>
      <path id="Trazado_819377" data-name="Trazado 819377" d="M413.015,1806.137a2.458,2.458,0,1,0,2.461-2.56,2.513,2.513,0,0,0-2.461,2.56" transform="translate(-358.051 -1599.88)" fill="#1d2238"/>
      <path id="Trazado_819378" data-name="Trazado 819378" d="M539.7,1822.682a1.586,1.586,0,0,0-.918-.091,2.124,2.124,0,0,0-1.444,1.013,1.554,1.554,0,0,0-.213.958l.052.031a3.352,3.352,0,0,1,.235-.33c.043-.052.081-.108.127-.157l.137-.147a4.051,4.051,0,0,1,.618-.506,5.276,5.276,0,0,1,.687-.405c.119-.058.24-.113.363-.162s.246-.1.371-.142Z" transform="translate(-465.641 -1616.226)" fill="#1d2238"/>
      <path id="Trazado_819379" data-name="Trazado 819379" d="M515.855,1812.5a1.587,1.587,0,0,0-.918-.091,2.123,2.123,0,0,0-1.444,1.013,1.551,1.551,0,0,0-.213.957l.052.031a3.448,3.448,0,0,1,.235-.33c.043-.052.081-.108.127-.156l.137-.147a4.053,4.053,0,0,1,.618-.506,5.271,5.271,0,0,1,.687-.405q.179-.088.363-.163c.121-.053.246-.1.371-.143Z" transform="translate(-444.964 -1607.463)" fill="#1d2238"/>
      <path id="Trazado_819380" data-name="Trazado 819380" d="M493.784,1803.267a1.587,1.587,0,0,0-.918-.091,2.124,2.124,0,0,0-1.444,1.013,1.553,1.553,0,0,0-.213.958l.052.031a3.356,3.356,0,0,1,.235-.33c.043-.052.081-.108.127-.157l.137-.147a4.048,4.048,0,0,1,.618-.506,5.255,5.255,0,0,1,.686-.405q.179-.088.363-.163c.121-.053.246-.1.371-.143Z" transform="translate(-425.831 -1599.511)" fill="#1d2238"/>
      <path id="Trazado_819381" data-name="Trazado 819381" d="M368.5,1248.505l-2.429-52.1a32.88,32.88,0,0,0-.5-4.36l-5.16-28.315-31.275-2.555s-3.072,13.052,3.222,25.617l3.24,62.125,16.691-.111,0-.195Z" transform="translate(-284.689 -1046.797)" fill="#1d2238"/>
      <path id="Trazado_819382" data-name="Trazado 819382" d="M488.863,1191.821l.213,2.6.2,2.6.4,5.2.728,10.408.182,2.6.165,2.6.328,5.206.655,10.413.037.651c.011.217,0,.435,0,.652l0,1.3-.009,2.609-.017,5.218-.017,5.218-.011,2.609-.026,2.609-.106,10.435-.085,5.217-.043,2.608-.057,2.608h-.045l-.011-20.862-.006-10.431,0-5.215v-3.912c0-.217.006-.435-.006-.651l-.039-.651-2.464-41.645Z" transform="translate(-423.766 -1073.18)" fill="#4a4e60"/>
      <path id="Trazado_819383" data-name="Trazado 819383" d="M378.659,838.148l-4.287-6.97-9.9,2.8-2.591-18.538c-.025-.2-.049-.367-.07-.5-.648-4.078-7.553-11.172-7.553-11.172l-1.525,1.641-7.1-4.017a26.148,26.148,0,0,0-9.525,7.284c-3.625,4.807-2.727,42.739-2.727,42.739s7.328,6.2,12.63,7.223,19.214-2.963,19.214-2.963-.24-3.183-.6-7.777Z" transform="translate(-288.931 -737.035)" fill="#134f9d"/>
      <path id="Trazado_819384" data-name="Trazado 819384" d="M421.929,805.409l-3.344,3a1.416,1.416,0,0,1-1.9.01c-1.544-1.366-4.283-4.176-3.422-6.257l1.565-.767Z" transform="translate(-358.126 -737.035)" fill="#fff"/>
      <path id="Trazado_819385" data-name="Trazado 819385" d="M479.435,820.121l1.651,1.86a.948.948,0,0,0,1.558-.194l.485-.905-2.169-2.4Z" transform="translate(-415.632 -751.747)" fill="#fff"/>
      <path id="Trazado_819386" data-name="Trazado 819386" d="M336.253,858.552l6.171,18.43,19.194-10.154,3.037,7.781-17.082,14.768a10.026,10.026,0,0,1-14.87-1.887c-2.891-4.078-6.554-9.666-6.925-12.284-.622-4.384-3.789-12.737,2.679-21.422Z" transform="translate(-281.277 -782.143)" fill="#134f9d"/>
      <path id="Trazado_819387" data-name="Trazado 819387" d="M432,899.777q-1.559.906-3.131,1.786c-1.046.59-2.1,1.17-3.148,1.751s-2.1,1.157-3.16,1.724-2.11,1.143-3.17,1.7l-.3.159-.069-.346c-.159-.8-.333-1.594-.512-2.388s-.36-1.589-.553-2.381c-.388-1.582-.79-3.16-1.243-4.722s-.935-3.115-1.5-4.636c-.285-.759-.586-1.512-.93-2.244a14.091,14.091,0,0,0-1.181-2.112,12.526,12.526,0,0,1,1.33,2.031c.382.719.733,1.456,1.048,2.21.638,1.5,1.173,3.051,1.664,4.611s.923,3.139,1.314,4.729.754,3.184,1.068,4.8l-.369-.187c1.061-.56,2.128-1.106,3.192-1.658s2.135-1.092,3.2-1.638,2.14-1.081,3.215-1.611,2.15-1.06,3.232-1.576" transform="translate(-358.127 -811.662)" fill="#1d2238"/>
      <path id="Trazado_819388" data-name="Trazado 819388" d="M334.389,1007.863l.64,1.21.633,1.213q.634,1.212,1.278,2.418c.427.805.856,1.608,1.294,2.406l.66,1.2q.332.6.654,1.2a24.625,24.625,0,0,0,2.872,4.554,9.023,9.023,0,0,0,.93.923c.161.146.337.27.509.4s.357.24.546.342a7.357,7.357,0,0,0,2.411.846,10.676,10.676,0,0,0,5.1-.452,12.848,12.848,0,0,0,2.388-1.051,13.041,13.041,0,0,0,1.1-.711c.355-.257.689-.54,1.035-.832q2.054-1.739,4.124-3.46l2.075-1.713,1.038-.856,1.044-.848-.993.913-1,.905-2,1.809q-2.007,1.8-4.025,3.585c-.333.3-.677.6-1.041.878a13.1,13.1,0,0,1-1.135.756,13.331,13.331,0,0,1-2.462,1.127,12.262,12.262,0,0,1-2.636.576,10.04,10.04,0,0,1-2.7-.078,7.871,7.871,0,0,1-2.573-.918c-.2-.11-.393-.243-.586-.371s-.374-.276-.545-.432a8.794,8.794,0,0,1-.978-.986,15.859,15.859,0,0,1-1.571-2.274c-.464-.794-.88-1.611-1.292-2.425q-.309-.611-.624-1.214c-.213-.4-.424-.809-.63-1.217q-.62-1.222-1.22-2.454t-1.173-2.478l-.579-1.242Z" transform="translate(-289.889 -914.799)" fill="#1d2238"/>
      <path id="Trazado_819389" data-name="Trazado 819389" d="M441.063,1022.971c-.048-.167-.085-.336-.12-.507a3.738,3.738,0,0,1-.084-.517,6.554,6.554,0,0,1-.026-1.05,7.053,7.053,0,0,1,.414-2.068,6.772,6.772,0,0,1,.993-1.842,4.815,4.815,0,0,1,1.52-1.363,18.284,18.284,0,0,0-1,1.724,14.633,14.633,0,0,0-.77,1.775,15,15,0,0,0-.541,1.866c-.088.318-.129.644-.2.973s-.1.665-.186,1.009" transform="translate(-382.156 -921.482)" fill="#1d2238"/>
      <path id="Trazado_819390" data-name="Trazado 819390" d="M586.213,902.337l-7.923-3.459a.785.785,0,0,1-.216-1.272l20.439-19.779a.719.719,0,0,1,1.156.218l4.326,8.967a.841.841,0,0,1-.2,1l-16.56,14.17a.966.966,0,0,1-1.018.156" transform="translate(-500.94 -802.667)" fill="#4a4e60"/>
      <path id="Trazado_819391" data-name="Trazado 819391" d="M561.871,1055.165c-.13-.85-.235-1.7-.328-2.555q-.073-.639-.134-1.28c-.043-.427-.085-.854-.12-1.281-.078-.854-.14-1.709-.2-2.564-.034-.427-.055-.856-.083-1.284s-.055-.856-.073-1.284l-.007-.168.131-.074c.4-.228.8-.462,1.206-.686s.807-.452,1.215-.669.814-.438,1.225-.651.823-.422,1.24-.623q-.565.412-1.141.8c-.383.263-.769.52-1.157.776s-.778.5-1.167.757-.784.493-1.176.74l.124-.242c.039.427.068.855.1,1.282s.067.855.091,1.283c.054.856.107,1.712.145,2.569.023.428.039.857.054,1.286s.031.857.04,1.287c.022.858.033,1.717.019,2.578" transform="translate(-486.276 -944.229)" fill="#1d2238"/>
      <path id="Trazado_819392" data-name="Trazado 819392" d="M668.107,978.77c-.031-.212-.088-.426-.138-.632-.1-.428-.2-.858-.3-1.287l-.417-1.791a1.082,1.082,0,0,0-1.309-.833,1.136,1.136,0,0,0-.8,1.367l.04.171a1.047,1.047,0,0,0-.957-.238,1.136,1.136,0,0,0-.8,1.367q.066.283.132.565a.336.336,0,0,0-.125-.141.833.833,0,0,0-1.163.208,1.3,1.3,0,0,0-.076.777c.084,1.2.251,2.4.377,3.6l-2.108,2.048.482.785c.435-.157.838-.246,1.274-.4.578-.209,1.172-.377,1.732-.638a4.975,4.975,0,0,0,1.2-.833,18.166,18.166,0,0,0,1.956-2.1c.278-.341.553-.687.812-1.045a1.239,1.239,0,0,0,.18-.95" transform="translate(-572.575 -885.812)" fill="#eb9481"/>
      <path id="Trazado_819393" data-name="Trazado 819393" d="M673.973,1029.665a2.378,2.378,0,0,0,.209,1.646s-.783-.19-.509-1.355Z" transform="translate(-583.971 -933.57)" fill="#1d2238"/>
      <path id="Trazado_819394" data-name="Trazado 819394" d="M695.913,985.493a2.006,2.006,0,0,1,.648.981c.117.381.209.766.3,1.152s.178.773.255,1.162l.114.584c.033.2.071.391.1.588-.058-.19-.108-.382-.163-.572l-.151-.575c-.1-.383-.192-.769-.285-1.154l-.272-1.155a2.025,2.025,0,0,0-.211-.539,2.375,2.375,0,0,0-.339-.472" transform="translate(-603.301 -895.539)" fill="#1d2238"/>
      <path id="Trazado_819395" data-name="Trazado 819395" d="M683.725,997.695a1.479,1.479,0,0,1,.638.821c.1.342.166.687.237,1.032s.132.692.186,1.04l.079.523c.021.175.047.349.064.526-.046-.17-.085-.342-.128-.513l-.115-.515c-.077-.343-.146-.688-.215-1.033s-.134-.691-.205-1.032a1.223,1.223,0,0,0-.2-.462,2.066,2.066,0,0,0-.337-.388" transform="translate(-592.735 -906.045)" fill="#1d2238"/>
      <path id="Trazado_819396" data-name="Trazado 819396" d="M588.479,904.4c.785-.8,1.584-1.59,2.379-2.382s1.6-1.576,2.4-2.361l2.414-2.342,2.428-2.326c1.626-1.542,3.251-3.085,4.889-4.613l1.227-1.148,1.233-1.141q1.232-1.142,2.472-2.275l.2-.182.116.241.937,1.943.927,1.948.915,1.955q.461.975.906,1.96-.519-.943-1.026-1.894l-1.017-1.9-1-1.906-1-1.91.315.059q-1.205,1.173-2.422,2.333l-1.214,1.163-1.22,1.156c-1.624,1.544-3.261,3.073-4.9,4.6l-2.466,2.281-2.479,2.266c-.831.751-1.658,1.5-2.5,2.246s-1.669,1.492-2.515,2.225" transform="translate(-510.165 -809.563)" fill="#1d2238"/>
    </g>
  </g>
</svg>
